%TF.GenerationSoftware,KiCad,Pcbnew,(6.0.6)*%
%TF.CreationDate,2023-12-09T00:08:52+03:00*%
%TF.ProjectId,MainAvionic-Kicad,4d61696e-4176-4696-9f6e-69632d4b6963,rev?*%
%TF.SameCoordinates,Original*%
%TF.FileFunction,Copper,L1,Top*%
%TF.FilePolarity,Positive*%
%FSLAX46Y46*%
G04 Gerber Fmt 4.6, Leading zero omitted, Abs format (unit mm)*
G04 Created by KiCad (PCBNEW (6.0.6)) date 2023-12-09 00:08:52*
%MOMM*%
%LPD*%
G01*
G04 APERTURE LIST*
G04 Aperture macros list*
%AMRoundRect*
0 Rectangle with rounded corners*
0 $1 Rounding radius*
0 $2 $3 $4 $5 $6 $7 $8 $9 X,Y pos of 4 corners*
0 Add a 4 corners polygon primitive as box body*
4,1,4,$2,$3,$4,$5,$6,$7,$8,$9,$2,$3,0*
0 Add four circle primitives for the rounded corners*
1,1,$1+$1,$2,$3*
1,1,$1+$1,$4,$5*
1,1,$1+$1,$6,$7*
1,1,$1+$1,$8,$9*
0 Add four rect primitives between the rounded corners*
20,1,$1+$1,$2,$3,$4,$5,0*
20,1,$1+$1,$4,$5,$6,$7,0*
20,1,$1+$1,$6,$7,$8,$9,0*
20,1,$1+$1,$8,$9,$2,$3,0*%
G04 Aperture macros list end*
%TA.AperFunction,SMDPad,CuDef*%
%ADD10RoundRect,0.140000X-0.140000X-0.170000X0.140000X-0.170000X0.140000X0.170000X-0.140000X0.170000X0*%
%TD*%
%TA.AperFunction,SMDPad,CuDef*%
%ADD11RoundRect,0.218750X0.256250X-0.218750X0.256250X0.218750X-0.256250X0.218750X-0.256250X-0.218750X0*%
%TD*%
%TA.AperFunction,SMDPad,CuDef*%
%ADD12RoundRect,0.218750X0.218750X0.256250X-0.218750X0.256250X-0.218750X-0.256250X0.218750X-0.256250X0*%
%TD*%
%TA.AperFunction,ComponentPad*%
%ADD13C,1.524000*%
%TD*%
%TA.AperFunction,SMDPad,CuDef*%
%ADD14RoundRect,0.140000X0.140000X0.170000X-0.140000X0.170000X-0.140000X-0.170000X0.140000X-0.170000X0*%
%TD*%
%TA.AperFunction,SMDPad,CuDef*%
%ADD15RoundRect,0.075000X-0.662500X-0.075000X0.662500X-0.075000X0.662500X0.075000X-0.662500X0.075000X0*%
%TD*%
%TA.AperFunction,SMDPad,CuDef*%
%ADD16RoundRect,0.075000X-0.075000X-0.662500X0.075000X-0.662500X0.075000X0.662500X-0.075000X0.662500X0*%
%TD*%
%TA.AperFunction,SMDPad,CuDef*%
%ADD17R,2.000000X1.500000*%
%TD*%
%TA.AperFunction,ComponentPad*%
%ADD18R,1.700000X1.700000*%
%TD*%
%TA.AperFunction,ComponentPad*%
%ADD19O,1.700000X1.700000*%
%TD*%
%TA.AperFunction,SMDPad,CuDef*%
%ADD20RoundRect,0.135000X0.135000X0.185000X-0.135000X0.185000X-0.135000X-0.185000X0.135000X-0.185000X0*%
%TD*%
%TA.AperFunction,SMDPad,CuDef*%
%ADD21RoundRect,0.140000X0.170000X-0.140000X0.170000X0.140000X-0.170000X0.140000X-0.170000X-0.140000X0*%
%TD*%
%TA.AperFunction,SMDPad,CuDef*%
%ADD22RoundRect,0.562500X-0.687500X0.562500X-0.687500X-0.562500X0.687500X-0.562500X0.687500X0.562500X0*%
%TD*%
%TA.AperFunction,SMDPad,CuDef*%
%ADD23RoundRect,0.250000X-1.000000X0.250000X-1.000000X-0.250000X1.000000X-0.250000X1.000000X0.250000X0*%
%TD*%
%TA.AperFunction,ComponentPad*%
%ADD24R,2.000000X2.000000*%
%TD*%
%TA.AperFunction,ComponentPad*%
%ADD25C,2.000000*%
%TD*%
%TA.AperFunction,SMDPad,CuDef*%
%ADD26RoundRect,0.135000X-0.135000X-0.185000X0.135000X-0.185000X0.135000X0.185000X-0.135000X0.185000X0*%
%TD*%
%TA.AperFunction,SMDPad,CuDef*%
%ADD27RoundRect,0.218750X-0.256250X0.218750X-0.256250X-0.218750X0.256250X-0.218750X0.256250X0.218750X0*%
%TD*%
%TA.AperFunction,SMDPad,CuDef*%
%ADD28R,1.200000X1.400000*%
%TD*%
%TA.AperFunction,SMDPad,CuDef*%
%ADD29RoundRect,0.225000X-0.225000X-0.250000X0.225000X-0.250000X0.225000X0.250000X-0.225000X0.250000X0*%
%TD*%
%TA.AperFunction,ViaPad*%
%ADD30C,0.800000*%
%TD*%
%TA.AperFunction,Conductor*%
%ADD31C,0.300000*%
%TD*%
%TA.AperFunction,Conductor*%
%ADD32C,0.500000*%
%TD*%
%TA.AperFunction,Conductor*%
%ADD33C,0.250000*%
%TD*%
G04 APERTURE END LIST*
D10*
%TO.P,C12,1*%
%TO.N,+3.3V*%
X102120000Y-110490000D03*
%TO.P,C12,2*%
%TO.N,GND*%
X103080000Y-110490000D03*
%TD*%
D11*
%TO.P,D6,1,K*%
%TO.N,GND*%
X92710000Y-71907500D03*
%TO.P,D6,2,A*%
%TO.N,Net-(D6-Pad2)*%
X92710000Y-70332500D03*
%TD*%
D12*
%TO.P,D3,1,K*%
%TO.N,GND*%
X104287500Y-76500000D03*
%TO.P,D3,2,A*%
%TO.N,Net-(D3-Pad2)*%
X102712500Y-76500000D03*
%TD*%
D13*
%TO.P,U5,1,VCC*%
%TO.N,+3.3V*%
X85810000Y-75310000D03*
%TO.P,U5,2,GND*%
%TO.N,GND*%
X83270000Y-75310000D03*
%TO.P,U5,3,SCL*%
%TO.N,I2C1-SCL*%
X80730000Y-75310000D03*
%TO.P,U5,4,SDA*%
%TO.N,I2C1-SDA*%
X78190000Y-75310000D03*
%TD*%
D14*
%TO.P,C9,1*%
%TO.N,+3.3V*%
X86980000Y-93000000D03*
%TO.P,C9,2*%
%TO.N,GND*%
X86020000Y-93000000D03*
%TD*%
D15*
%TO.P,U1,1,VDD*%
%TO.N,+3.3V*%
X90337500Y-83750000D03*
%TO.P,U1,2,PC13*%
%TO.N,unconnected-(U1-Pad2)*%
X90337500Y-84250000D03*
%TO.P,U1,3,PC14*%
%TO.N,OSC32_IN*%
X90337500Y-84750000D03*
%TO.P,U1,4,PC15*%
%TO.N,OSC32_OUT*%
X90337500Y-85250000D03*
%TO.P,U1,5,PF0*%
%TO.N,unconnected-(U1-Pad5)*%
X90337500Y-85750000D03*
%TO.P,U1,6,PF1*%
%TO.N,unconnected-(U1-Pad6)*%
X90337500Y-86250000D03*
%TO.P,U1,7,NRST*%
%TO.N,Net-(C11-Pad1)*%
X90337500Y-86750000D03*
%TO.P,U1,8,VSSA*%
%TO.N,GND*%
X90337500Y-87250000D03*
%TO.P,U1,9,VDDA*%
%TO.N,+3.3VA*%
X90337500Y-87750000D03*
%TO.P,U1,10,PA0*%
%TO.N,unconnected-(U1-Pad10)*%
X90337500Y-88250000D03*
%TO.P,U1,11,PA1*%
%TO.N,Optional-ADC*%
X90337500Y-88750000D03*
%TO.P,U1,12,PA2*%
%TO.N,USART2-TX*%
X90337500Y-89250000D03*
D16*
%TO.P,U1,13,PA3*%
%TO.N,USART2-RX*%
X91750000Y-90662500D03*
%TO.P,U1,14,PA4*%
%TO.N,Lora-NSS*%
X92250000Y-90662500D03*
%TO.P,U1,15,PA5*%
%TO.N,SPI1-SCK*%
X92750000Y-90662500D03*
%TO.P,U1,16,PA6*%
%TO.N,SPI1-MISO*%
X93250000Y-90662500D03*
%TO.P,U1,17,PA7*%
%TO.N,SPI1-MOSI*%
X93750000Y-90662500D03*
%TO.P,U1,18,PB0*%
%TO.N,Lora-DIO0*%
X94250000Y-90662500D03*
%TO.P,U1,19,PB1*%
%TO.N,Lora-RESET*%
X94750000Y-90662500D03*
%TO.P,U1,20,PB2*%
%TO.N,unconnected-(U1-Pad20)*%
X95250000Y-90662500D03*
%TO.P,U1,21,PB10*%
%TO.N,I2C2-SCL*%
X95750000Y-90662500D03*
%TO.P,U1,22,PB11*%
%TO.N,I2C2-SDA*%
X96250000Y-90662500D03*
%TO.P,U1,23,VSS*%
%TO.N,GND*%
X96750000Y-90662500D03*
%TO.P,U1,24,VDD*%
%TO.N,+3.3V*%
X97250000Y-90662500D03*
D15*
%TO.P,U1,25,PB12*%
%TO.N,FIRSTSEP-CON*%
X98662500Y-89250000D03*
%TO.P,U1,26,PB13*%
%TO.N,SECSEP-CON*%
X98662500Y-88750000D03*
%TO.P,U1,27,PB14*%
%TO.N,Optional-LED*%
X98662500Y-88250000D03*
%TO.P,U1,28,PB15*%
%TO.N,Optional-OUT2*%
X98662500Y-87750000D03*
%TO.P,U1,29,PA8*%
%TO.N,Optional-PWM*%
X98662500Y-87250000D03*
%TO.P,U1,30,PA9*%
%TO.N,USART1-TX*%
X98662500Y-86750000D03*
%TO.P,U1,31,PA10*%
%TO.N,USART1-RX*%
X98662500Y-86250000D03*
%TO.P,U1,32,PA11*%
%TO.N,BUZ*%
X98662500Y-85750000D03*
%TO.P,U1,33,PA12*%
%TO.N,Optional-EXTI*%
X98662500Y-85250000D03*
%TO.P,U1,34,PA13*%
%TO.N,SWDIO*%
X98662500Y-84750000D03*
%TO.P,U1,35,PF6*%
%TO.N,unconnected-(U1-Pad35)*%
X98662500Y-84250000D03*
%TO.P,U1,36,PF7*%
%TO.N,unconnected-(U1-Pad36)*%
X98662500Y-83750000D03*
D16*
%TO.P,U1,37,PA14*%
%TO.N,SWCLK*%
X97250000Y-82337500D03*
%TO.P,U1,38,PA15*%
%TO.N,unconnected-(U1-Pad38)*%
X96750000Y-82337500D03*
%TO.P,U1,39,PB3*%
%TO.N,unconnected-(U1-Pad39)*%
X96250000Y-82337500D03*
%TO.P,U1,40,PB4*%
%TO.N,unconnected-(U1-Pad40)*%
X95750000Y-82337500D03*
%TO.P,U1,41,PB5*%
%TO.N,unconnected-(U1-Pad41)*%
X95250000Y-82337500D03*
%TO.P,U1,42,PB6*%
%TO.N,I2C1-SCL*%
X94750000Y-82337500D03*
%TO.P,U1,43,PB7*%
%TO.N,I2C1-SDA*%
X94250000Y-82337500D03*
%TO.P,U1,44,BOOT0*%
%TO.N,Net-(R4-Pad2)*%
X93750000Y-82337500D03*
%TO.P,U1,45,PB8*%
%TO.N,Optional-IN*%
X93250000Y-82337500D03*
%TO.P,U1,46,PB9*%
%TO.N,Optional-OUT1*%
X92750000Y-82337500D03*
%TO.P,U1,47,VSS*%
%TO.N,GND*%
X92250000Y-82337500D03*
%TO.P,U1,48,VDD*%
%TO.N,+3.3V*%
X91750000Y-82337500D03*
%TD*%
D17*
%TO.P,U2,1,GND*%
%TO.N,GND*%
X100000000Y-112500000D03*
%TO.P,U2,2,GND*%
X100000000Y-110500000D03*
%TO.P,U2,3,VDD*%
%TO.N,+3.3V*%
X100000000Y-108500000D03*
%TO.P,U2,4,~{RESET}*%
%TO.N,Lora-RESET*%
X100000000Y-106500000D03*
%TO.P,U2,5,DIO0*%
%TO.N,Lora-DIO0*%
X100000000Y-104500000D03*
%TO.P,U2,6,DIO1*%
%TO.N,unconnected-(U2-Pad6)*%
X100000000Y-102500000D03*
%TO.P,U2,7,DIO2*%
%TO.N,unconnected-(U2-Pad7)*%
X100000000Y-100500000D03*
%TO.P,U2,8,DIO3*%
%TO.N,unconnected-(U2-Pad8)*%
X100000000Y-98500000D03*
%TO.P,U2,9,GND*%
%TO.N,GND*%
X84000000Y-98500000D03*
%TO.P,U2,10,DIO4*%
%TO.N,unconnected-(U2-Pad10)*%
X84000000Y-100500000D03*
%TO.P,U2,11,DIO5*%
%TO.N,unconnected-(U2-Pad11)*%
X84000000Y-102500000D03*
%TO.P,U2,12,SCK*%
%TO.N,SPI1-SCK*%
X84000000Y-104500000D03*
%TO.P,U2,13,MISO*%
%TO.N,SPI1-MISO*%
X84000000Y-106500000D03*
%TO.P,U2,14,MOSI*%
%TO.N,SPI1-MOSI*%
X84000000Y-108500000D03*
%TO.P,U2,15,~{NSS}*%
%TO.N,Lora-NSS*%
X84000000Y-110500000D03*
%TO.P,U2,16,GND*%
%TO.N,GND*%
X84000000Y-112500000D03*
%TD*%
D18*
%TO.P,J1,1,Pin_1*%
%TO.N,+3.3V*%
X98200000Y-64975000D03*
D19*
%TO.P,J1,2,Pin_2*%
%TO.N,GND*%
X100740000Y-64975000D03*
%TO.P,J1,3,Pin_3*%
%TO.N,SWCLK*%
X103280000Y-64975000D03*
%TO.P,J1,4,Pin_4*%
%TO.N,SWDIO*%
X105820000Y-64975000D03*
%TD*%
D20*
%TO.P,R5,1*%
%TO.N,Net-(D5-Pad2)*%
X90680000Y-68580000D03*
%TO.P,R5,2*%
%TO.N,FIRSTSEP-CON*%
X89660000Y-68580000D03*
%TD*%
D21*
%TO.P,C2,1*%
%TO.N,OSC32_IN*%
X86500000Y-83960000D03*
%TO.P,C2,2*%
%TO.N,GND*%
X86500000Y-83000000D03*
%TD*%
%TO.P,C7,1*%
%TO.N,+3.3V*%
X88500000Y-83480000D03*
%TO.P,C7,2*%
%TO.N,GND*%
X88500000Y-82520000D03*
%TD*%
D14*
%TO.P,C6,1*%
%TO.N,+3.3VA*%
X86980000Y-91000000D03*
%TO.P,C6,2*%
%TO.N,GND*%
X86020000Y-91000000D03*
%TD*%
D22*
%TO.P,U3,1,RX1*%
%TO.N,USART1-RX*%
X106000000Y-81000000D03*
D23*
%TO.P,U3,2,TX1*%
%TO.N,USART1-TX*%
X106000000Y-84215000D03*
%TO.P,U3,3,GND*%
%TO.N,GND*%
X106000000Y-86755000D03*
%TO.P,U3,4,VCC*%
%TO.N,+3.3V*%
X106000000Y-89295000D03*
%TO.P,U3,5,V_BCKP*%
%TO.N,unconnected-(U3-Pad5)*%
X106000000Y-91835000D03*
%TO.P,U3,6,1PPS*%
%TO.N,unconnected-(U3-Pad6)*%
X106000000Y-94375000D03*
%TO.P,U3,7,FORCE_ON*%
%TO.N,unconnected-(U3-Pad7)*%
X121500000Y-94375000D03*
%TO.P,U3,8,AADET_N*%
%TO.N,unconnected-(U3-Pad8)*%
X121500000Y-91835000D03*
%TO.P,U3,9,NC*%
%TO.N,unconnected-(U3-Pad9)*%
X121500000Y-89295000D03*
%TO.P,U3,10,RESET*%
%TO.N,unconnected-(U3-Pad10)*%
X121500000Y-86755000D03*
%TO.P,U3,11,EX_ANT*%
%TO.N,unconnected-(U3-Pad11)*%
X121500000Y-84215000D03*
%TO.P,U3,12,GND*%
%TO.N,GND*%
X121500000Y-81675000D03*
%TD*%
D20*
%TO.P,R7,1*%
%TO.N,I2C1-SCL*%
X81010000Y-78500000D03*
%TO.P,R7,2*%
%TO.N,+3.3V*%
X79990000Y-78500000D03*
%TD*%
D10*
%TO.P,C4,1*%
%TO.N,+3.3V*%
X102120000Y-113030000D03*
%TO.P,C4,2*%
%TO.N,GND*%
X103080000Y-113030000D03*
%TD*%
D24*
%TO.P,BZ1,1,-*%
%TO.N,Net-(BZ1-Pad1)*%
X112200000Y-70500000D03*
D25*
%TO.P,BZ1,2,+*%
%TO.N,GND*%
X119800000Y-70500000D03*
%TD*%
D18*
%TO.P,J4,1,Pin_1*%
%TO.N,FIRSTSEP-CON*%
X90170000Y-64770000D03*
D19*
%TO.P,J4,2,Pin_2*%
%TO.N,SECSEP-CON*%
X92710000Y-64770000D03*
%TD*%
D26*
%TO.P,R2,1*%
%TO.N,+3.3V*%
X99990000Y-68500000D03*
%TO.P,R2,2*%
%TO.N,Net-(D2-Pad2)*%
X101010000Y-68500000D03*
%TD*%
D10*
%TO.P,C8,1*%
%TO.N,+3.3V*%
X91540000Y-80500000D03*
%TO.P,C8,2*%
%TO.N,GND*%
X92500000Y-80500000D03*
%TD*%
D11*
%TO.P,D5,1,K*%
%TO.N,GND*%
X90170000Y-71907500D03*
%TO.P,D5,2,A*%
%TO.N,Net-(D5-Pad2)*%
X90170000Y-70332500D03*
%TD*%
D12*
%TO.P,D2,1,K*%
%TO.N,GND*%
X100635000Y-70500000D03*
%TO.P,D2,2,A*%
%TO.N,Net-(D2-Pad2)*%
X99060000Y-70500000D03*
%TD*%
D20*
%TO.P,R10,1*%
%TO.N,Net-(D3-Pad2)*%
X103520000Y-78500000D03*
%TO.P,R10,2*%
%TO.N,Optional-LED*%
X102500000Y-78500000D03*
%TD*%
D26*
%TO.P,R9,1*%
%TO.N,I2C2-SDA*%
X114490000Y-98000000D03*
%TO.P,R9,2*%
%TO.N,+3.3V*%
X115510000Y-98000000D03*
%TD*%
%TO.P,R4,1*%
%TO.N,GND*%
X96990000Y-79500000D03*
%TO.P,R4,2*%
%TO.N,Net-(R4-Pad2)*%
X98010000Y-79500000D03*
%TD*%
D27*
%TO.P,FB1,1*%
%TO.N,+3.3VA*%
X88500000Y-91212500D03*
%TO.P,FB1,2*%
%TO.N,+3.3V*%
X88500000Y-92787500D03*
%TD*%
D20*
%TO.P,R8,1*%
%TO.N,I2C2-SCL*%
X117510000Y-98000000D03*
%TO.P,R8,2*%
%TO.N,+3.3V*%
X116490000Y-98000000D03*
%TD*%
D21*
%TO.P,C5,1*%
%TO.N,OSC32_OUT*%
X86500000Y-85980000D03*
%TO.P,C5,2*%
%TO.N,GND*%
X86500000Y-85020000D03*
%TD*%
D18*
%TO.P,J2,1,Pin_1*%
%TO.N,Optional-ADC*%
X78500000Y-84640000D03*
D19*
%TO.P,J2,2,Pin_2*%
%TO.N,Optional-EXTI*%
X78500000Y-87180000D03*
%TO.P,J2,3,Pin_3*%
%TO.N,Optional-IN*%
X78500000Y-89720000D03*
%TO.P,J2,4,Pin_4*%
%TO.N,Optional-OUT1*%
X78500000Y-92260000D03*
%TO.P,J2,5,Pin_5*%
%TO.N,Optional-PWM*%
X78500000Y-94800000D03*
%TO.P,J2,6,Pin_6*%
%TO.N,Optional-OUT2*%
X78500000Y-97340000D03*
%TO.P,J2,7,Pin_7*%
%TO.N,USART2-TX*%
X78500000Y-99880000D03*
%TO.P,J2,8,Pin_8*%
%TO.N,USART2-RX*%
X78500000Y-102420000D03*
%TO.P,J2,9,Pin_9*%
%TO.N,+3.3V*%
X78500000Y-104960000D03*
%TO.P,J2,10,Pin_10*%
X78500000Y-107500000D03*
%TO.P,J2,11,Pin_11*%
%TO.N,GND*%
X78500000Y-110040000D03*
%TO.P,J2,12,Pin_12*%
X78500000Y-112580000D03*
%TD*%
D28*
%TO.P,Y1,1,1*%
%TO.N,OSC32_IN*%
X82150000Y-83400000D03*
%TO.P,Y1,2,2*%
%TO.N,GND*%
X82150000Y-85600000D03*
%TO.P,Y1,3,3*%
%TO.N,OSC32_OUT*%
X83850000Y-85600000D03*
%TO.P,Y1,4,4*%
%TO.N,GND*%
X83850000Y-83400000D03*
%TD*%
D10*
%TO.P,C11,1*%
%TO.N,Net-(C11-Pad1)*%
X90020000Y-93000000D03*
%TO.P,C11,2*%
%TO.N,GND*%
X90980000Y-93000000D03*
%TD*%
D29*
%TO.P,C1,1*%
%TO.N,+3.3V*%
X91225000Y-78500000D03*
%TO.P,C1,2*%
%TO.N,GND*%
X92775000Y-78500000D03*
%TD*%
D26*
%TO.P,R3,1*%
%TO.N,I2C1-SDA*%
X77990000Y-78500000D03*
%TO.P,R3,2*%
%TO.N,+3.3V*%
X79010000Y-78500000D03*
%TD*%
D13*
%TO.P,U4,1,VCC*%
%TO.N,+3.3V*%
X123190000Y-100560000D03*
%TO.P,U4,2,GND*%
%TO.N,GND*%
X120650000Y-100560000D03*
%TO.P,U4,3,SCL*%
%TO.N,I2C2-SCL*%
X118110000Y-100560000D03*
%TO.P,U4,4,SDA*%
%TO.N,I2C2-SDA*%
X115570000Y-100560000D03*
%TO.P,U4,5,ADX*%
%TO.N,unconnected-(U4-Pad5)*%
X113030000Y-100560000D03*
%TO.P,U4,6,XCL*%
%TO.N,unconnected-(U4-Pad6)*%
X110490000Y-100560000D03*
%TO.P,U4,7,INT*%
%TO.N,unconnected-(U4-Pad7)*%
X107950000Y-100560000D03*
%TO.P,U4,8*%
%TO.N,N/C*%
X105410000Y-100560000D03*
%TD*%
D26*
%TO.P,R11,1*%
%TO.N,BUZ*%
X106490000Y-74500000D03*
%TO.P,R11,2*%
%TO.N,Net-(BZ1-Pad1)*%
X107510000Y-74500000D03*
%TD*%
%TO.P,R6,1*%
%TO.N,Net-(D6-Pad2)*%
X92710000Y-68580000D03*
%TO.P,R6,2*%
%TO.N,SECSEP-CON*%
X93730000Y-68580000D03*
%TD*%
D14*
%TO.P,C10,1*%
%TO.N,+3.3V*%
X97480000Y-92500000D03*
%TO.P,C10,2*%
%TO.N,GND*%
X96520000Y-92500000D03*
%TD*%
D21*
%TO.P,C3,1*%
%TO.N,+3.3VA*%
X88500000Y-87980000D03*
%TO.P,C3,2*%
%TO.N,GND*%
X88500000Y-87020000D03*
%TD*%
D30*
%TO.N,+3.3VA*%
X89429260Y-90444763D03*
X87000000Y-88000000D03*
%TO.N,Optional-EXTI*%
X96500000Y-85500000D03*
X81500000Y-89500000D03*
%TO.N,Optional-IN*%
X93000000Y-85000000D03*
X80500000Y-91000000D03*
%TO.N,Optional-OUT1*%
X81500000Y-91000000D03*
X91661432Y-85042868D03*
%TO.N,Optional-PWM*%
X96500000Y-87500000D03*
X80500000Y-93500000D03*
%TO.N,Optional-OUT2*%
X101000000Y-89500000D03*
X80443538Y-94497904D03*
%TO.N,FIRSTSEP-CON*%
X99000000Y-90000000D03*
X88500000Y-68580000D03*
%TO.N,SECSEP-CON*%
X95250000Y-68580000D03*
X100000000Y-91500000D03*
%TO.N,Net-(R4-Pad2)*%
X98000000Y-80500000D03*
X94000000Y-84500000D03*
%TO.N,I2C2-SCL*%
X100500000Y-94000000D03*
X95499500Y-95390000D03*
%TO.N,I2C2-SDA*%
X97000000Y-95500000D03*
X100500000Y-95500000D03*
%TO.N,Optional-LED*%
X99029977Y-82529977D03*
X97250000Y-88250000D03*
%TO.N,GND*%
X95500000Y-80000000D03*
X96639500Y-93500000D03*
X90970023Y-91970023D03*
X93500000Y-80000000D03*
X102870000Y-109220000D03*
X97000000Y-75500000D03*
X80839715Y-88039669D03*
X97500000Y-112500000D03*
X108000000Y-87190000D03*
X118000000Y-69000000D03*
X101600000Y-67310000D03*
X81000000Y-81249500D03*
X85500000Y-85199500D03*
X82323576Y-90323576D03*
X91440000Y-73660000D03*
X99060000Y-72390000D03*
X96085187Y-89249000D03*
X88000000Y-86000000D03*
X86000000Y-112500000D03*
X84000000Y-82000000D03*
X81000000Y-113000000D03*
X119380000Y-97790000D03*
X88000000Y-81500000D03*
X88900000Y-73660000D03*
X84500000Y-91000000D03*
X86000000Y-98500000D03*
X123500000Y-81190000D03*
X82500000Y-92500000D03*
X83500000Y-77500000D03*
X105950500Y-76500000D03*
%TO.N,+3.3V*%
X85029977Y-92029977D03*
X90000000Y-79500000D03*
X97000000Y-68500000D03*
X81000000Y-106000000D03*
X98121174Y-93121174D03*
X81000000Y-114500000D03*
%TD*%
D31*
%TO.N,Net-(BZ1-Pad1)*%
X110900000Y-70500000D02*
X107300000Y-74100000D01*
X107300000Y-74100000D02*
X107300000Y-74500000D01*
X112200000Y-70500000D02*
X110900000Y-70500000D01*
%TO.N,OSC32_IN*%
X82950000Y-84450000D02*
X86010000Y-84450000D01*
X86500000Y-83960000D02*
X87290000Y-84750000D01*
X87290000Y-84750000D02*
X90337500Y-84750000D01*
X82150000Y-83400000D02*
X82150000Y-83650000D01*
X86010000Y-84450000D02*
X86500000Y-83960000D01*
X82150000Y-83650000D02*
X82950000Y-84450000D01*
D32*
%TO.N,+3.3VA*%
X88500000Y-91212500D02*
X88787500Y-91212500D01*
X88787500Y-91212500D02*
X89500000Y-90500000D01*
D31*
X88730000Y-87750000D02*
X90337500Y-87750000D01*
X87000000Y-88000000D02*
X88480000Y-88000000D01*
D32*
X89444763Y-90444763D02*
X89429260Y-90444763D01*
D31*
X88500000Y-87980000D02*
X88730000Y-87750000D01*
X88480000Y-88000000D02*
X88500000Y-87980000D01*
D32*
X89500000Y-90500000D02*
X89444763Y-90444763D01*
X88287500Y-91000000D02*
X88500000Y-91212500D01*
X86980000Y-91000000D02*
X88287500Y-91000000D01*
D31*
%TO.N,Net-(C11-Pad1)*%
X91425000Y-89575000D02*
X91425000Y-89075000D01*
X91351042Y-89575000D02*
X91425000Y-89575000D01*
X91425000Y-86998959D02*
X91176041Y-86750000D01*
X90020000Y-93000000D02*
X90020000Y-90906042D01*
X91176041Y-86750000D02*
X90337500Y-86750000D01*
X91425000Y-89075000D02*
X91425000Y-86998959D01*
X90020000Y-90906042D02*
X91351042Y-89575000D01*
X91425000Y-89501041D02*
X91425000Y-89075000D01*
%TO.N,Net-(D2-Pad2)*%
X101010000Y-68500000D02*
X101010000Y-68550000D01*
X101010000Y-68550000D02*
X99060000Y-70500000D01*
%TO.N,Net-(D3-Pad2)*%
X103520000Y-77520000D02*
X102712500Y-76712500D01*
X103520000Y-77520000D02*
X103520000Y-78500000D01*
X102712500Y-76500000D02*
X102700000Y-76512500D01*
X102712500Y-76712500D02*
X102712500Y-76500000D01*
D33*
%TO.N,Net-(D5-Pad2)*%
X90680000Y-68580000D02*
X90680000Y-69822500D01*
X90680000Y-69822500D02*
X90170000Y-70332500D01*
%TO.N,Net-(D6-Pad2)*%
X92710000Y-68580000D02*
X92710000Y-70332500D01*
D31*
%TO.N,SWDIO*%
X97823959Y-84750000D02*
X97500000Y-84426041D01*
X105820000Y-69680000D02*
X105820000Y-64975000D01*
X101000000Y-74500000D02*
X105820000Y-69680000D01*
X98662500Y-84750000D02*
X97823959Y-84750000D01*
X97750000Y-82750000D02*
X101000000Y-79500000D01*
X101000000Y-79500000D02*
X101000000Y-74500000D01*
X97500000Y-83425000D02*
X97501041Y-83425000D01*
X97750000Y-83176041D02*
X97750000Y-82750000D01*
X97501041Y-83425000D02*
X97750000Y-83176041D01*
X97500000Y-84426041D02*
X97500000Y-83425000D01*
%TO.N,SWCLK*%
X103280000Y-69720000D02*
X99500000Y-73500000D01*
X99500000Y-73500000D02*
X99500000Y-80087500D01*
X99500000Y-80087500D02*
X97250000Y-82337500D01*
X103280000Y-64975000D02*
X103280000Y-69720000D01*
%TO.N,Optional-ADC*%
X82610000Y-88750000D02*
X90337500Y-88750000D01*
X78500000Y-84640000D02*
X82610000Y-88750000D01*
%TO.N,Optional-EXTI*%
X96750000Y-85250000D02*
X98662500Y-85250000D01*
X78500000Y-87180000D02*
X80820000Y-89500000D01*
X80820000Y-89500000D02*
X81500000Y-89500000D01*
X96500000Y-85500000D02*
X96750000Y-85250000D01*
D33*
%TO.N,Optional-IN*%
X93250000Y-84750000D02*
X93000000Y-85000000D01*
D31*
X78500000Y-89720000D02*
X79780000Y-91000000D01*
X79780000Y-91000000D02*
X80500000Y-91000000D01*
D33*
X93250000Y-82337500D02*
X93250000Y-84750000D01*
D31*
%TO.N,Optional-OUT1*%
X78500000Y-92260000D02*
X80740000Y-92260000D01*
X92750000Y-83189339D02*
X92750000Y-82337500D01*
X80740000Y-92260000D02*
X81500000Y-91500000D01*
X81500000Y-91500000D02*
X81500000Y-91000000D01*
X91661432Y-84277907D02*
X92750000Y-83189339D01*
X91661432Y-85042868D02*
X91661432Y-84277907D01*
%TO.N,Optional-PWM*%
X78500000Y-94800000D02*
X79800000Y-93500000D01*
X97573959Y-87000000D02*
X97823959Y-87250000D01*
X79800000Y-93500000D02*
X80500000Y-93500000D01*
X97000000Y-87000000D02*
X97573959Y-87000000D01*
X96500000Y-87500000D02*
X97000000Y-87000000D01*
X97823959Y-87250000D02*
X98662500Y-87250000D01*
%TO.N,Optional-OUT2*%
X80500000Y-94500000D02*
X80445634Y-94500000D01*
X101000000Y-89500000D02*
X101000000Y-89150000D01*
X80500000Y-95340000D02*
X80500000Y-94500000D01*
X101000000Y-89150000D02*
X99600000Y-87750000D01*
X80445634Y-94500000D02*
X80443538Y-94497904D01*
X78500000Y-97340000D02*
X80500000Y-95340000D01*
X99600000Y-87750000D02*
X98662500Y-87750000D01*
%TO.N,USART2-TX*%
X81000000Y-97380000D02*
X81000000Y-95002103D01*
X78500000Y-99880000D02*
X81000000Y-97380000D01*
X81250000Y-92457106D02*
X84457106Y-89250000D01*
X84457106Y-89250000D02*
X90337500Y-89250000D01*
X81000000Y-95002103D02*
X81250000Y-94752103D01*
X81250000Y-94752103D02*
X81250000Y-92457106D01*
%TO.N,USART2-RX*%
X83000000Y-94000000D02*
X91000000Y-94000000D01*
X81500000Y-102000000D02*
X81500000Y-95500000D01*
X91750000Y-93250000D02*
X91750000Y-90662500D01*
X81080000Y-102420000D02*
X81500000Y-102000000D01*
X91000000Y-94000000D02*
X91750000Y-93250000D01*
X81500000Y-95500000D02*
X83000000Y-94000000D01*
X78500000Y-102420000D02*
X81080000Y-102420000D01*
D33*
%TO.N,FIRSTSEP-CON*%
X90000000Y-65025000D02*
X88500000Y-66525000D01*
D31*
X98662500Y-89662500D02*
X99000000Y-90000000D01*
X98662500Y-89250000D02*
X98662500Y-89662500D01*
D33*
X88500000Y-68580000D02*
X89660000Y-68580000D01*
X88500000Y-66525000D02*
X88500000Y-68580000D01*
D31*
%TO.N,SECSEP-CON*%
X99810661Y-88750000D02*
X100000000Y-88939339D01*
X95250000Y-68580000D02*
X95250000Y-67735000D01*
X100000000Y-88939339D02*
X100000000Y-91500000D01*
D33*
X95250000Y-68580000D02*
X93730000Y-68580000D01*
D31*
X98662500Y-88750000D02*
X99810661Y-88750000D01*
X95250000Y-67735000D02*
X92540000Y-65025000D01*
%TO.N,I2C1-SDA*%
X88500000Y-77500000D02*
X85500000Y-80500000D01*
X78190000Y-78490000D02*
X78200000Y-78500000D01*
X78190000Y-75310000D02*
X78190000Y-78310000D01*
X94250000Y-82337500D02*
X94250000Y-78686827D01*
X79948959Y-80500000D02*
X78190000Y-78741041D01*
X78190000Y-78741041D02*
X78190000Y-78310000D01*
X93063173Y-77500000D02*
X88500000Y-77500000D01*
X85500000Y-80500000D02*
X79948959Y-80500000D01*
X78190000Y-78310000D02*
X78190000Y-78490000D01*
X94250000Y-78686827D02*
X93063173Y-77500000D01*
%TO.N,Net-(R4-Pad2)*%
X98000000Y-80500000D02*
X97800000Y-80300000D01*
X93750000Y-84250000D02*
X94000000Y-84500000D01*
X97800000Y-80300000D02*
X97800000Y-79500000D01*
X93750000Y-82337500D02*
X93750000Y-84250000D01*
%TO.N,I2C1-SCL*%
X80800000Y-75380000D02*
X80730000Y-75310000D01*
X94750000Y-77750000D02*
X93500000Y-76500000D01*
X85000000Y-79500000D02*
X81548959Y-79500000D01*
X88000000Y-76500000D02*
X85000000Y-79500000D01*
X81548959Y-79500000D02*
X80800000Y-78751041D01*
X93500000Y-76500000D02*
X88000000Y-76500000D01*
X94750000Y-82337500D02*
X94750000Y-77750000D01*
X80800000Y-78751041D02*
X80800000Y-75380000D01*
%TO.N,I2C2-SCL*%
X95390000Y-91919929D02*
X95390000Y-95390000D01*
X95390000Y-95390000D02*
X95499500Y-95499500D01*
X118110000Y-98600000D02*
X118110000Y-100560000D01*
X117310000Y-98010000D02*
X117300000Y-98000000D01*
X103000000Y-96500000D02*
X116051041Y-96500000D01*
D33*
X116051041Y-96535356D02*
X117310000Y-97794315D01*
D31*
X95750000Y-90662500D02*
X95750000Y-91559929D01*
X95499500Y-95499500D02*
X95499500Y-95390000D01*
X100500000Y-94000000D02*
X103000000Y-96500000D01*
X95750000Y-91559929D02*
X95390000Y-91919929D01*
X117510000Y-98000000D02*
X118110000Y-98600000D01*
D33*
X116051041Y-96500000D02*
X116051041Y-96535356D01*
D31*
%TO.N,I2C2-SDA*%
X114490000Y-98000000D02*
X114490000Y-99480000D01*
X114490000Y-99480000D02*
X115570000Y-100560000D01*
X114490000Y-97740000D02*
X113750000Y-97000000D01*
X100500000Y-95500000D02*
X102000000Y-97000000D01*
X114490000Y-98000000D02*
X114490000Y-97740000D01*
X95890000Y-92127035D02*
X95890000Y-94390000D01*
X95890000Y-94390000D02*
X97000000Y-95500000D01*
X96250000Y-91767035D02*
X95890000Y-92127035D01*
X96250000Y-90662500D02*
X96250000Y-91767035D01*
X102000000Y-97000000D02*
X113750000Y-97000000D01*
D33*
%TO.N,Optional-LED*%
X97250000Y-88250000D02*
X98662500Y-88250000D01*
D31*
X99559954Y-82000000D02*
X100051041Y-82000000D01*
X102500000Y-79551041D02*
X100051041Y-82000000D01*
X102500000Y-78500000D02*
X102500000Y-79551041D01*
X99029977Y-82529977D02*
X99559954Y-82000000D01*
%TO.N,OSC32_OUT*%
X86500000Y-85980000D02*
X86542965Y-85980000D01*
X86542965Y-85980000D02*
X87272965Y-85250000D01*
X84230000Y-85980000D02*
X86500000Y-85980000D01*
X83850000Y-85600000D02*
X84230000Y-85980000D01*
X87272965Y-85250000D02*
X90337500Y-85250000D01*
%TO.N,Lora-NSS*%
X92250000Y-93750000D02*
X92250000Y-90662500D01*
X83550000Y-110500000D02*
X82500000Y-109450000D01*
X82500000Y-96000000D02*
X83500000Y-95000000D01*
X91000000Y-95000000D02*
X92250000Y-93750000D01*
X84000000Y-110500000D02*
X83550000Y-110500000D01*
X82500000Y-109450000D02*
X82500000Y-96000000D01*
X83500000Y-95000000D02*
X91000000Y-95000000D01*
%TO.N,SPI1-SCK*%
X92750000Y-96000000D02*
X92750000Y-90662500D01*
X84250000Y-104500000D02*
X92750000Y-96000000D01*
X84000000Y-104500000D02*
X84250000Y-104500000D01*
%TO.N,SPI1-MISO*%
X84000000Y-106500000D02*
X84250000Y-106500000D01*
X84250000Y-106500000D02*
X93250000Y-97500000D01*
X93250000Y-97500000D02*
X93250000Y-90662500D01*
%TO.N,SPI1-MOSI*%
X93750000Y-99000000D02*
X93750000Y-90662500D01*
X84250000Y-108500000D02*
X93750000Y-99000000D01*
X84000000Y-108500000D02*
X84250000Y-108500000D01*
%TO.N,Lora-DIO0*%
X97250000Y-89310661D02*
X99000000Y-91060661D01*
X95501000Y-88499000D02*
X96395848Y-88499000D01*
X94250000Y-90662500D02*
X94250000Y-89750000D01*
X99000000Y-91060661D02*
X99000000Y-95000000D01*
X99750000Y-104500000D02*
X100000000Y-104500000D01*
X94250000Y-89750000D02*
X95501000Y-88499000D01*
X98375000Y-103125000D02*
X99750000Y-104500000D01*
X96395848Y-88499000D02*
X97207509Y-89310661D01*
X98375000Y-95625000D02*
X98375000Y-103125000D01*
X97207509Y-89310661D02*
X97250000Y-89310661D01*
X99000000Y-95000000D02*
X98375000Y-95625000D01*
%TO.N,Lora-RESET*%
X94750000Y-101500000D02*
X94750000Y-90662500D01*
X100000000Y-106500000D02*
X99750000Y-106500000D01*
X99750000Y-106500000D02*
X94750000Y-101500000D01*
%TO.N,USART1-TX*%
X103500000Y-84500000D02*
X105715000Y-84500000D01*
X101250000Y-86750000D02*
X98662500Y-86750000D01*
X105715000Y-84500000D02*
X106000000Y-84215000D01*
X101250000Y-86750000D02*
X103500000Y-84500000D01*
%TO.N,USART1-RX*%
X100975000Y-86250000D02*
X98662500Y-86250000D01*
X105000000Y-83000000D02*
X105750000Y-82250000D01*
X100975000Y-86250000D02*
X104225000Y-83000000D01*
X105750000Y-82250000D02*
X105750000Y-81165000D01*
X104225000Y-83000000D02*
X105000000Y-83000000D01*
D32*
%TO.N,GND*%
X100740000Y-66450000D02*
X101600000Y-67310000D01*
X119800000Y-70500000D02*
X118300000Y-69000000D01*
D33*
X96520000Y-93480000D02*
X96500000Y-93500000D01*
D31*
X96175041Y-89249000D02*
X96750000Y-89823959D01*
X82323576Y-89262915D02*
X81060661Y-88000000D01*
D33*
X92710000Y-71907500D02*
X92710000Y-72390000D01*
D31*
X88500000Y-87020000D02*
X88500000Y-86500000D01*
X96000000Y-79500000D02*
X96000000Y-76500000D01*
X103080000Y-113030000D02*
X103080000Y-110490000D01*
X83850000Y-82150000D02*
X84000000Y-82000000D01*
D33*
X96520000Y-92500000D02*
X96520000Y-93480000D01*
D31*
X82150000Y-86150000D02*
X82150000Y-85600000D01*
X82323576Y-90323576D02*
X82323576Y-89262915D01*
X83500000Y-93000000D02*
X86020000Y-93000000D01*
D32*
X83270000Y-77270000D02*
X83500000Y-77500000D01*
X92775000Y-78500000D02*
X92775000Y-80225000D01*
D31*
X83000000Y-92000000D02*
X83000000Y-92500000D01*
D33*
X90170000Y-71907500D02*
X90170000Y-72390000D01*
D31*
X92250000Y-80750000D02*
X92500000Y-80500000D01*
D32*
X122850000Y-81840000D02*
X123500000Y-81190000D01*
D31*
X96085187Y-89249000D02*
X96175041Y-89249000D01*
X100635000Y-70500000D02*
X100635000Y-70815000D01*
X95500000Y-80000000D02*
X96000000Y-79500000D01*
D32*
X100000000Y-112500000D02*
X100000000Y-110500000D01*
X105750000Y-86920000D02*
X107730000Y-86920000D01*
X78500000Y-110040000D02*
X78500000Y-112580000D01*
D33*
X96500000Y-93500000D02*
X96639500Y-93500000D01*
D31*
X83000000Y-92000000D02*
X82500000Y-92500000D01*
X91000000Y-92000000D02*
X90970023Y-91970023D01*
X96750000Y-89823959D02*
X96750000Y-90662500D01*
X90980000Y-92020000D02*
X91000000Y-92000000D01*
X84000000Y-91000000D02*
X83000000Y-92000000D01*
X81060661Y-88000000D02*
X80879384Y-88000000D01*
X88500000Y-86500000D02*
X88000000Y-86000000D01*
D33*
X103080000Y-110490000D02*
X103080000Y-109430000D01*
D31*
X92250000Y-82337500D02*
X92250000Y-80750000D01*
X85500000Y-85000000D02*
X85500000Y-85199500D01*
X85520000Y-85020000D02*
X85500000Y-85000000D01*
D32*
X107730000Y-86920000D02*
X108000000Y-87190000D01*
X86980000Y-82520000D02*
X86500000Y-83000000D01*
D31*
X96000000Y-79500000D02*
X97200000Y-79500000D01*
X90980000Y-93000000D02*
X90980000Y-92020000D01*
X81000000Y-84500000D02*
X82100000Y-85600000D01*
X92775000Y-78500000D02*
X93000000Y-78500000D01*
D32*
X100000000Y-112500000D02*
X97500000Y-112500000D01*
D31*
X86020000Y-91000000D02*
X84500000Y-91000000D01*
D32*
X78500000Y-112580000D02*
X80580000Y-112580000D01*
D31*
X84000000Y-98500000D02*
X86000000Y-98500000D01*
X93000000Y-78500000D02*
X93500000Y-79000000D01*
D32*
X118300000Y-69000000D02*
X118000000Y-69000000D01*
X92775000Y-80225000D02*
X92500000Y-80500000D01*
D31*
X96000000Y-76500000D02*
X97000000Y-75500000D01*
D32*
X120650000Y-100560000D02*
X120650000Y-99060000D01*
D33*
X103080000Y-109430000D02*
X102870000Y-109220000D01*
D31*
X88500000Y-82520000D02*
X88500000Y-82000000D01*
D32*
X88500000Y-82520000D02*
X86980000Y-82520000D01*
X83270000Y-75310000D02*
X83270000Y-77270000D01*
D31*
X105950500Y-76500000D02*
X104287500Y-76500000D01*
X96750000Y-92270000D02*
X96750000Y-90662500D01*
X83020000Y-87020000D02*
X88500000Y-87020000D01*
X83249500Y-81249500D02*
X81000000Y-81249500D01*
X96520000Y-92500000D02*
X96750000Y-92270000D01*
D32*
X84000000Y-112500000D02*
X86000000Y-112500000D01*
D31*
X83020000Y-87020000D02*
X82150000Y-86150000D01*
X83000000Y-92500000D02*
X83500000Y-93000000D01*
X88500000Y-87020000D02*
X88730000Y-87250000D01*
D33*
X92710000Y-72390000D02*
X91440000Y-73660000D01*
D31*
X88730000Y-87250000D02*
X90337500Y-87250000D01*
X83850000Y-83400000D02*
X83850000Y-82150000D01*
X84500000Y-91000000D02*
X84000000Y-91000000D01*
X86500000Y-85020000D02*
X85520000Y-85020000D01*
X84000000Y-82000000D02*
X83249500Y-81249500D01*
D32*
X80580000Y-112580000D02*
X81000000Y-113000000D01*
X100740000Y-64975000D02*
X100740000Y-66450000D01*
D31*
X81000000Y-81249500D02*
X81000000Y-84500000D01*
X100635000Y-70815000D02*
X99060000Y-72390000D01*
D33*
X90170000Y-72390000D02*
X88900000Y-73660000D01*
D31*
X93500000Y-79000000D02*
X93500000Y-80000000D01*
X88500000Y-82000000D02*
X88000000Y-81500000D01*
X80879384Y-88000000D02*
X80839715Y-88039669D01*
D32*
X121250000Y-81840000D02*
X122850000Y-81840000D01*
X120650000Y-99060000D02*
X119380000Y-97790000D01*
%TO.N,+3.3V*%
X82550000Y-114300000D02*
X101600000Y-114300000D01*
X102120000Y-113780000D02*
X101600000Y-114300000D01*
D31*
X85810000Y-75310000D02*
X84000000Y-73500000D01*
X91225000Y-78500000D02*
X91000000Y-78500000D01*
D32*
X97712500Y-71787500D02*
X97712500Y-68787500D01*
D31*
X91750000Y-80710000D02*
X91540000Y-80500000D01*
X91000000Y-78500000D02*
X90000000Y-79500000D01*
X86022965Y-92000000D02*
X85000000Y-92000000D01*
D32*
X119500000Y-108500000D02*
X123190000Y-104810000D01*
X98200000Y-68300000D02*
X99790000Y-68300000D01*
X82000000Y-113750000D02*
X82550000Y-114300000D01*
X113590000Y-89460000D02*
X123190000Y-99060000D01*
D31*
X91750000Y-82337500D02*
X91750000Y-80710000D01*
D32*
X99790000Y-68300000D02*
X99990000Y-68500000D01*
D31*
X116840000Y-107950000D02*
X116290000Y-108500000D01*
D32*
X105750000Y-89460000D02*
X113590000Y-89460000D01*
D31*
X97500000Y-92500000D02*
X98121174Y-93121174D01*
X90107500Y-83520000D02*
X90337500Y-83750000D01*
D32*
X82000000Y-113500000D02*
X82000000Y-109798528D01*
D31*
X116000000Y-98000000D02*
X116700000Y-98000000D01*
D32*
X97712500Y-68787500D02*
X98200000Y-68300000D01*
D31*
X84000000Y-73500000D02*
X80500000Y-73500000D01*
D32*
X123190000Y-104810000D02*
X123190000Y-100560000D01*
X85810000Y-75310000D02*
X94190000Y-75310000D01*
X91225000Y-78500000D02*
X91225000Y-80185000D01*
D31*
X79500000Y-74500000D02*
X79500000Y-78500000D01*
D32*
X102120000Y-113030000D02*
X102120000Y-110490000D01*
D31*
X86980000Y-92957035D02*
X86022965Y-92000000D01*
D32*
X79960000Y-104960000D02*
X81000000Y-106000000D01*
X91225000Y-80185000D02*
X91540000Y-80500000D01*
D31*
X80500000Y-73500000D02*
X79500000Y-74500000D01*
X98000000Y-68500000D02*
X98200000Y-68300000D01*
D32*
X98200000Y-68300000D02*
X98200000Y-64975000D01*
X102120000Y-109740000D02*
X100880000Y-108500000D01*
D31*
X79500000Y-78500000D02*
X78800000Y-78500000D01*
D32*
X110080000Y-114300000D02*
X116000000Y-108380000D01*
D31*
X97480000Y-92500000D02*
X97250000Y-92270000D01*
X116490000Y-98710000D02*
X116840000Y-99060000D01*
X116840000Y-99060000D02*
X116840000Y-107950000D01*
X85000000Y-92000000D02*
X85029977Y-92029977D01*
D32*
X78500000Y-104960000D02*
X79960000Y-104960000D01*
X81000000Y-108798528D02*
X81000000Y-106000000D01*
D31*
X86980000Y-93000000D02*
X86980000Y-92957035D01*
X90337500Y-83750000D02*
X91750000Y-82337500D01*
D32*
X119500000Y-108500000D02*
X116290000Y-108500000D01*
X101600000Y-114300000D02*
X110080000Y-114300000D01*
D31*
X97480000Y-92500000D02*
X97500000Y-92500000D01*
D32*
X116290000Y-108500000D02*
X116000000Y-108500000D01*
D31*
X88500000Y-83520000D02*
X90107500Y-83520000D01*
D32*
X82000000Y-113500000D02*
X82000000Y-113750000D01*
D31*
X79500000Y-78500000D02*
X80200000Y-78500000D01*
D32*
X102120000Y-110490000D02*
X102120000Y-109740000D01*
X94190000Y-75310000D02*
X97712500Y-71787500D01*
D31*
X116490000Y-98000000D02*
X116490000Y-98710000D01*
D32*
X100880000Y-108500000D02*
X100000000Y-108500000D01*
D31*
X88287500Y-93000000D02*
X88500000Y-92787500D01*
X97000000Y-68500000D02*
X98000000Y-68500000D01*
D32*
X82000000Y-109798528D02*
X81000000Y-108798528D01*
X123190000Y-99060000D02*
X123190000Y-100560000D01*
D31*
X86980000Y-93000000D02*
X88287500Y-93000000D01*
X97250000Y-92270000D02*
X97250000Y-90662500D01*
X116000000Y-98000000D02*
X115300000Y-98000000D01*
X82000000Y-113500000D02*
X81000000Y-114500000D01*
D32*
X102120000Y-113030000D02*
X102120000Y-113780000D01*
X78500000Y-104960000D02*
X78500000Y-107500000D01*
D31*
%TO.N,BUZ*%
X103500000Y-80874530D02*
X106700000Y-77674530D01*
X99750000Y-85750000D02*
X103500000Y-82000000D01*
X106700000Y-77674530D02*
X106700000Y-77300000D01*
X106700000Y-77300000D02*
X106700000Y-74500000D01*
X98662500Y-85750000D02*
X99750000Y-85750000D01*
X103500000Y-82000000D02*
X103500000Y-80874530D01*
%TD*%
%TA.AperFunction,Conductor*%
%TO.N,+3.3V*%
G36*
X97026713Y-63520002D02*
G01*
X97073206Y-63573658D01*
X97083310Y-63643932D01*
X97053816Y-63708512D01*
X97034157Y-63726826D01*
X96994276Y-63756715D01*
X96981715Y-63769276D01*
X96905214Y-63871351D01*
X96896676Y-63886946D01*
X96851522Y-64007394D01*
X96847895Y-64022649D01*
X96842369Y-64073514D01*
X96842000Y-64080328D01*
X96842000Y-64702885D01*
X96846475Y-64718124D01*
X96847865Y-64719329D01*
X96855548Y-64721000D01*
X98328000Y-64721000D01*
X98396121Y-64741002D01*
X98442614Y-64794658D01*
X98454000Y-64847000D01*
X98454000Y-66314884D01*
X98458475Y-66330123D01*
X98459865Y-66331328D01*
X98467548Y-66332999D01*
X98874000Y-66332999D01*
X98942121Y-66353001D01*
X98988614Y-66406657D01*
X99000000Y-66458999D01*
X99000000Y-67874000D01*
X98979998Y-67942121D01*
X98926342Y-67988614D01*
X98874000Y-68000000D01*
X96626000Y-68000000D01*
X96557879Y-67979998D01*
X96511386Y-67926342D01*
X96500000Y-67874000D01*
X96500000Y-65869669D01*
X96842001Y-65869669D01*
X96842371Y-65876490D01*
X96847895Y-65927352D01*
X96851521Y-65942604D01*
X96896676Y-66063054D01*
X96905214Y-66078649D01*
X96981715Y-66180724D01*
X96994276Y-66193285D01*
X97096351Y-66269786D01*
X97111946Y-66278324D01*
X97232394Y-66323478D01*
X97247649Y-66327105D01*
X97298514Y-66332631D01*
X97305328Y-66333000D01*
X97927885Y-66333000D01*
X97943124Y-66328525D01*
X97944329Y-66327135D01*
X97946000Y-66319452D01*
X97946000Y-65247115D01*
X97941525Y-65231876D01*
X97940135Y-65230671D01*
X97932452Y-65229000D01*
X96860116Y-65229000D01*
X96844877Y-65233475D01*
X96843672Y-65234865D01*
X96842001Y-65242548D01*
X96842001Y-65869669D01*
X96500000Y-65869669D01*
X96500000Y-63626000D01*
X96520002Y-63557879D01*
X96573658Y-63511386D01*
X96626000Y-63500000D01*
X96958592Y-63500000D01*
X97026713Y-63520002D01*
G37*
%TD.AperFunction*%
%TD*%
%TA.AperFunction,Conductor*%
%TO.N,+3.3V*%
G36*
X77340554Y-104020002D02*
G01*
X77387047Y-104073658D01*
X77397151Y-104143932D01*
X77376521Y-104197004D01*
X77318098Y-104282649D01*
X77313000Y-104291623D01*
X77223338Y-104484783D01*
X77219775Y-104494470D01*
X77164389Y-104694183D01*
X77165912Y-104702607D01*
X77178292Y-104706000D01*
X79818344Y-104706000D01*
X79831875Y-104702027D01*
X79833180Y-104692947D01*
X79791214Y-104525875D01*
X79787894Y-104516124D01*
X79702972Y-104320814D01*
X79698105Y-104311739D01*
X79622222Y-104194440D01*
X79602015Y-104126379D01*
X79621811Y-104058199D01*
X79675327Y-104011545D01*
X79728014Y-104000000D01*
X81374000Y-104000000D01*
X81442121Y-104020002D01*
X81488614Y-104073658D01*
X81500000Y-104126000D01*
X81500000Y-108374000D01*
X81479998Y-108442121D01*
X81426342Y-108488614D01*
X81374000Y-108500000D01*
X79699453Y-108500000D01*
X79631332Y-108479998D01*
X79584839Y-108426342D01*
X79574735Y-108356068D01*
X79597131Y-108300474D01*
X79665003Y-108206020D01*
X79670313Y-108197183D01*
X79764670Y-108006267D01*
X79768469Y-107996672D01*
X79830377Y-107792910D01*
X79832555Y-107782837D01*
X79833986Y-107771962D01*
X79831775Y-107757778D01*
X79818617Y-107754000D01*
X77183225Y-107754000D01*
X77169694Y-107757973D01*
X77168257Y-107767966D01*
X77198565Y-107902446D01*
X77201645Y-107912275D01*
X77281770Y-108109603D01*
X77286413Y-108118794D01*
X77400392Y-108304791D01*
X77399236Y-108305499D01*
X77421197Y-108366353D01*
X77405366Y-108435562D01*
X77354631Y-108485226D01*
X77295429Y-108500000D01*
X76626000Y-108500000D01*
X76557879Y-108479998D01*
X76511386Y-108426342D01*
X76500000Y-108374000D01*
X76500000Y-107234183D01*
X77164389Y-107234183D01*
X77165912Y-107242607D01*
X77178292Y-107246000D01*
X78227885Y-107246000D01*
X78243124Y-107241525D01*
X78244329Y-107240135D01*
X78246000Y-107232452D01*
X78246000Y-107227885D01*
X78754000Y-107227885D01*
X78758475Y-107243124D01*
X78759865Y-107244329D01*
X78767548Y-107246000D01*
X79818344Y-107246000D01*
X79831875Y-107242027D01*
X79833180Y-107232947D01*
X79791214Y-107065875D01*
X79787894Y-107056124D01*
X79702972Y-106860814D01*
X79698105Y-106851739D01*
X79582426Y-106672926D01*
X79576136Y-106664757D01*
X79432806Y-106507240D01*
X79425273Y-106500215D01*
X79258139Y-106368222D01*
X79249552Y-106362517D01*
X79212116Y-106341851D01*
X79162146Y-106291419D01*
X79147374Y-106221976D01*
X79172490Y-106155571D01*
X79199842Y-106128964D01*
X79375327Y-106003792D01*
X79383200Y-105997139D01*
X79534052Y-105846812D01*
X79540730Y-105838965D01*
X79665003Y-105666020D01*
X79670313Y-105657183D01*
X79764670Y-105466267D01*
X79768469Y-105456672D01*
X79830377Y-105252910D01*
X79832555Y-105242837D01*
X79833986Y-105231962D01*
X79831775Y-105217778D01*
X79818617Y-105214000D01*
X78772115Y-105214000D01*
X78756876Y-105218475D01*
X78755671Y-105219865D01*
X78754000Y-105227548D01*
X78754000Y-107227885D01*
X78246000Y-107227885D01*
X78246000Y-105232115D01*
X78241525Y-105216876D01*
X78240135Y-105215671D01*
X78232452Y-105214000D01*
X77183225Y-105214000D01*
X77169694Y-105217973D01*
X77168257Y-105227966D01*
X77198565Y-105362446D01*
X77201645Y-105372275D01*
X77281770Y-105569603D01*
X77286413Y-105578794D01*
X77397694Y-105760388D01*
X77403777Y-105768699D01*
X77543213Y-105929667D01*
X77550580Y-105936883D01*
X77714434Y-106072916D01*
X77722881Y-106078831D01*
X77792479Y-106119501D01*
X77841203Y-106171140D01*
X77854274Y-106240923D01*
X77827543Y-106306694D01*
X77787087Y-106340053D01*
X77778462Y-106344542D01*
X77769738Y-106350036D01*
X77599433Y-106477905D01*
X77591726Y-106484748D01*
X77444590Y-106638717D01*
X77438104Y-106646727D01*
X77318098Y-106822649D01*
X77313000Y-106831623D01*
X77223338Y-107024783D01*
X77219775Y-107034470D01*
X77164389Y-107234183D01*
X76500000Y-107234183D01*
X76500000Y-104126000D01*
X76520002Y-104057879D01*
X76573658Y-104011386D01*
X76626000Y-104000000D01*
X77272433Y-104000000D01*
X77340554Y-104020002D01*
G37*
%TD.AperFunction*%
%TD*%
M02*
