M48
; DRILL file {KiCad (6.0.6)} date Sat Dec  9 00:08:49 2023
; FORMAT={-:-/ absolute / inch / decimal}
; #@! TF.CreationDate,2023-12-09T00:08:49+03:00
; #@! TF.GenerationSoftware,Kicad,Pcbnew,(6.0.6)
; #@! TF.FileFunction,Plated,1,2,PTH
FMAT,2
INCH
; #@! TA.AperFunction,Plated,PTH,ViaDrill
T1C0.0157
; #@! TA.AperFunction,Plated,PTH,ComponentDrill
T2C0.0300
; #@! TA.AperFunction,Plated,PTH,ComponentDrill
T3C0.0394
%
G90
G05
T1
X3.1671Y-3.7204
X3.1693Y-3.5827
X3.1693Y-3.6811
X3.1827Y-3.4661
X3.189Y-3.1988
X3.189Y-4.1732
X3.189Y-4.4488
X3.189Y-4.5079
X3.2087Y-3.5236
X3.2087Y-3.5827
X3.2411Y-3.556
X3.248Y-3.6417
X3.2874Y-3.0512
X3.3071Y-3.2283
X3.3268Y-3.5827
X3.3476Y-3.6232
X3.3661Y-3.3543
X3.3858Y-3.878
X3.3858Y-4.4291
X3.4252Y-3.4646
X3.4646Y-3.2087
X3.4646Y-3.3858
X3.4843Y-2.7
X3.5Y-2.9
X3.5208Y-3.5608
X3.5433Y-3.1299
X3.5815Y-3.6209
X3.6Y-2.9
X3.6087Y-3.3481
X3.6614Y-3.3465
X3.6811Y-3.1496
X3.7008Y-3.3268
X3.75Y-2.7
X3.7598Y-3.7555
X3.7598Y-3.1496
X3.7829Y-3.5137
X3.7992Y-3.3661
X3.7992Y-3.4449
X3.8047Y-3.6811
X3.8189Y-2.6969
X3.8189Y-2.9724
X3.8189Y-3.7598
X3.8287Y-3.4744
X3.8386Y-4.4291
X3.8583Y-3.1693
X3.863Y-3.6662
X3.8976Y-3.5433
X3.8988Y-3.2492
X3.9Y-2.85
X3.937Y-3.6024
X3.9567Y-3.7008
X3.9567Y-3.7598
X3.9764Y-3.5236
X4.0Y-2.65
X4.05Y-4.3
X4.1713Y-3.0118
X4.252Y-3.4327
X4.6457Y-2.7165
X4.7Y-3.85
X4.8622Y-3.1965
T2
X3.0783Y-2.965
X3.1783Y-2.965
X3.2783Y-2.965
X3.3783Y-2.965
X4.15Y-3.9591
X4.25Y-3.9591
X4.35Y-3.9591
X4.45Y-3.9591
X4.55Y-3.9591
X4.65Y-3.9591
X4.75Y-3.9591
X4.85Y-3.9591
T3
X3.0906Y-3.3323
X3.0906Y-3.4323
X3.0906Y-3.5323
X3.0906Y-3.6323
X3.0906Y-3.7323
X3.0906Y-3.8323
X3.0906Y-3.9323
X3.0906Y-4.0323
X3.0906Y-4.1323
X3.0906Y-4.2323
X3.0906Y-4.3323
X3.0906Y-4.4323
X3.55Y-2.55
X3.65Y-2.55
X3.8661Y-2.5581
X3.9661Y-2.5581
X4.0661Y-2.5581
X4.1661Y-2.5581
X4.4173Y-2.7756
X4.7165Y-2.7756
T0
M30
