%TF.GenerationSoftware,KiCad,Pcbnew,(6.0.6)*%
%TF.CreationDate,2023-12-09T00:08:52+03:00*%
%TF.ProjectId,MainAvionic-Kicad,4d61696e-4176-4696-9f6e-69632d4b6963,rev?*%
%TF.SameCoordinates,Original*%
%TF.FileFunction,Legend,Top*%
%TF.FilePolarity,Positive*%
%FSLAX46Y46*%
G04 Gerber Fmt 4.6, Leading zero omitted, Abs format (unit mm)*
G04 Created by KiCad (PCBNEW (6.0.6)) date 2023-12-09 00:08:52*
%MOMM*%
%LPD*%
G01*
G04 APERTURE LIST*
%ADD10C,0.100000*%
%ADD11C,0.150000*%
%ADD12C,0.200000*%
%ADD13C,0.120000*%
G04 APERTURE END LIST*
D10*
X85857142Y-104702380D02*
X85928571Y-104726190D01*
X86047619Y-104726190D01*
X86095238Y-104702380D01*
X86119047Y-104678571D01*
X86142857Y-104630952D01*
X86142857Y-104583333D01*
X86119047Y-104535714D01*
X86095238Y-104511904D01*
X86047619Y-104488095D01*
X85952380Y-104464285D01*
X85904761Y-104440476D01*
X85880952Y-104416666D01*
X85857142Y-104369047D01*
X85857142Y-104321428D01*
X85880952Y-104273809D01*
X85904761Y-104250000D01*
X85952380Y-104226190D01*
X86071428Y-104226190D01*
X86142857Y-104250000D01*
X86642857Y-104678571D02*
X86619047Y-104702380D01*
X86547619Y-104726190D01*
X86500000Y-104726190D01*
X86428571Y-104702380D01*
X86380952Y-104654761D01*
X86357142Y-104607142D01*
X86333333Y-104511904D01*
X86333333Y-104440476D01*
X86357142Y-104345238D01*
X86380952Y-104297619D01*
X86428571Y-104250000D01*
X86500000Y-104226190D01*
X86547619Y-104226190D01*
X86619047Y-104250000D01*
X86642857Y-104273809D01*
X86857142Y-104726190D02*
X86857142Y-104226190D01*
X87142857Y-104726190D02*
X86928571Y-104440476D01*
X87142857Y-104226190D02*
X86857142Y-104511904D01*
X83119047Y-73750000D02*
X83071428Y-73726190D01*
X83000000Y-73726190D01*
X82928571Y-73750000D01*
X82880952Y-73797619D01*
X82857142Y-73845238D01*
X82833333Y-73940476D01*
X82833333Y-74011904D01*
X82857142Y-74107142D01*
X82880952Y-74154761D01*
X82928571Y-74202380D01*
X83000000Y-74226190D01*
X83047619Y-74226190D01*
X83119047Y-74202380D01*
X83142857Y-74178571D01*
X83142857Y-74011904D01*
X83047619Y-74011904D01*
X83357142Y-74226190D02*
X83357142Y-73726190D01*
X83642857Y-74226190D01*
X83642857Y-73726190D01*
X83880952Y-74226190D02*
X83880952Y-73726190D01*
X84000000Y-73726190D01*
X84071428Y-73750000D01*
X84119047Y-73797619D01*
X84142857Y-73845238D01*
X84166666Y-73940476D01*
X84166666Y-74011904D01*
X84142857Y-74107142D01*
X84119047Y-74154761D01*
X84071428Y-74202380D01*
X84000000Y-74226190D01*
X83880952Y-74226190D01*
X75750000Y-111380952D02*
X75726190Y-111428571D01*
X75726190Y-111500000D01*
X75750000Y-111571428D01*
X75797619Y-111619047D01*
X75845238Y-111642857D01*
X75940476Y-111666666D01*
X76011904Y-111666666D01*
X76107142Y-111642857D01*
X76154761Y-111619047D01*
X76202380Y-111571428D01*
X76226190Y-111500000D01*
X76226190Y-111452380D01*
X76202380Y-111380952D01*
X76178571Y-111357142D01*
X76011904Y-111357142D01*
X76011904Y-111452380D01*
X76226190Y-111142857D02*
X75726190Y-111142857D01*
X76226190Y-110857142D01*
X75726190Y-110857142D01*
X76226190Y-110619047D02*
X75726190Y-110619047D01*
X75726190Y-110500000D01*
X75750000Y-110428571D01*
X75797619Y-110380952D01*
X75845238Y-110357142D01*
X75940476Y-110333333D01*
X76011904Y-110333333D01*
X76107142Y-110357142D01*
X76154761Y-110380952D01*
X76202380Y-110428571D01*
X76226190Y-110500000D01*
X76226190Y-110619047D01*
X76083333Y-85119047D02*
X76083333Y-84880952D01*
X76226190Y-85166666D02*
X75726190Y-85000000D01*
X76226190Y-84833333D01*
X76226190Y-84666666D02*
X75726190Y-84666666D01*
X75726190Y-84547619D01*
X75750000Y-84476190D01*
X75797619Y-84428571D01*
X75845238Y-84404761D01*
X75940476Y-84380952D01*
X76011904Y-84380952D01*
X76107142Y-84404761D01*
X76154761Y-84428571D01*
X76202380Y-84476190D01*
X76226190Y-84547619D01*
X76226190Y-84666666D01*
X76178571Y-83880952D02*
X76202380Y-83904761D01*
X76226190Y-83976190D01*
X76226190Y-84023809D01*
X76202380Y-84095238D01*
X76154761Y-84142857D01*
X76107142Y-84166666D01*
X76011904Y-84190476D01*
X75940476Y-84190476D01*
X75845238Y-84166666D01*
X75797619Y-84142857D01*
X75750000Y-84095238D01*
X75726190Y-84023809D01*
X75726190Y-83976190D01*
X75750000Y-83904761D01*
X75773809Y-83880952D01*
X96761904Y-107726190D02*
X97071428Y-107726190D01*
X96904761Y-107916666D01*
X96976190Y-107916666D01*
X97023809Y-107940476D01*
X97047619Y-107964285D01*
X97071428Y-108011904D01*
X97071428Y-108130952D01*
X97047619Y-108178571D01*
X97023809Y-108202380D01*
X96976190Y-108226190D01*
X96833333Y-108226190D01*
X96785714Y-108202380D01*
X96761904Y-108178571D01*
X97285714Y-108178571D02*
X97309523Y-108202380D01*
X97285714Y-108226190D01*
X97261904Y-108202380D01*
X97285714Y-108178571D01*
X97285714Y-108226190D01*
X97476190Y-107726190D02*
X97785714Y-107726190D01*
X97619047Y-107916666D01*
X97690476Y-107916666D01*
X97738095Y-107940476D01*
X97761904Y-107964285D01*
X97785714Y-108011904D01*
X97785714Y-108130952D01*
X97761904Y-108178571D01*
X97738095Y-108202380D01*
X97690476Y-108226190D01*
X97547619Y-108226190D01*
X97500000Y-108202380D01*
X97476190Y-108178571D01*
X97928571Y-107726190D02*
X98095238Y-108226190D01*
X98261904Y-107726190D01*
X100119047Y-62250000D02*
X100071428Y-62226190D01*
X100000000Y-62226190D01*
X99928571Y-62250000D01*
X99880952Y-62297619D01*
X99857142Y-62345238D01*
X99833333Y-62440476D01*
X99833333Y-62511904D01*
X99857142Y-62607142D01*
X99880952Y-62654761D01*
X99928571Y-62702380D01*
X100000000Y-62726190D01*
X100047619Y-62726190D01*
X100119047Y-62702380D01*
X100142857Y-62678571D01*
X100142857Y-62511904D01*
X100047619Y-62511904D01*
X100357142Y-62726190D02*
X100357142Y-62226190D01*
X100642857Y-62726190D01*
X100642857Y-62226190D01*
X100880952Y-62726190D02*
X100880952Y-62226190D01*
X101000000Y-62226190D01*
X101071428Y-62250000D01*
X101119047Y-62297619D01*
X101142857Y-62345238D01*
X101166666Y-62440476D01*
X101166666Y-62511904D01*
X101142857Y-62607142D01*
X101119047Y-62654761D01*
X101071428Y-62702380D01*
X101000000Y-62726190D01*
X100880952Y-62726190D01*
X85261904Y-73726190D02*
X85571428Y-73726190D01*
X85404761Y-73916666D01*
X85476190Y-73916666D01*
X85523809Y-73940476D01*
X85547619Y-73964285D01*
X85571428Y-74011904D01*
X85571428Y-74130952D01*
X85547619Y-74178571D01*
X85523809Y-74202380D01*
X85476190Y-74226190D01*
X85333333Y-74226190D01*
X85285714Y-74202380D01*
X85261904Y-74178571D01*
X85785714Y-74178571D02*
X85809523Y-74202380D01*
X85785714Y-74226190D01*
X85761904Y-74202380D01*
X85785714Y-74178571D01*
X85785714Y-74226190D01*
X85976190Y-73726190D02*
X86285714Y-73726190D01*
X86119047Y-73916666D01*
X86190476Y-73916666D01*
X86238095Y-73940476D01*
X86261904Y-73964285D01*
X86285714Y-74011904D01*
X86285714Y-74130952D01*
X86261904Y-74178571D01*
X86238095Y-74202380D01*
X86190476Y-74226190D01*
X86047619Y-74226190D01*
X86000000Y-74202380D01*
X85976190Y-74178571D01*
X86428571Y-73726190D02*
X86595238Y-74226190D01*
X86761904Y-73726190D01*
X75964285Y-87654761D02*
X75964285Y-87488095D01*
X76226190Y-87416666D02*
X76226190Y-87654761D01*
X75726190Y-87654761D01*
X75726190Y-87416666D01*
X75726190Y-87250000D02*
X76226190Y-86916666D01*
X75726190Y-86916666D02*
X76226190Y-87250000D01*
X75726190Y-86797619D02*
X75726190Y-86511904D01*
X76226190Y-86654761D02*
X75726190Y-86654761D01*
X76226190Y-86345238D02*
X75726190Y-86345238D01*
X118119047Y-81440000D02*
X118071428Y-81416190D01*
X118000000Y-81416190D01*
X117928571Y-81440000D01*
X117880952Y-81487619D01*
X117857142Y-81535238D01*
X117833333Y-81630476D01*
X117833333Y-81701904D01*
X117857142Y-81797142D01*
X117880952Y-81844761D01*
X117928571Y-81892380D01*
X118000000Y-81916190D01*
X118047619Y-81916190D01*
X118119047Y-81892380D01*
X118142857Y-81868571D01*
X118142857Y-81701904D01*
X118047619Y-81701904D01*
X118357142Y-81916190D02*
X118357142Y-81416190D01*
X118642857Y-81916190D01*
X118642857Y-81416190D01*
X118880952Y-81916190D02*
X118880952Y-81416190D01*
X119000000Y-81416190D01*
X119071428Y-81440000D01*
X119119047Y-81487619D01*
X119142857Y-81535238D01*
X119166666Y-81630476D01*
X119166666Y-81701904D01*
X119142857Y-81797142D01*
X119119047Y-81844761D01*
X119071428Y-81892380D01*
X119000000Y-81916190D01*
X118880952Y-81916190D01*
X104940476Y-62702380D02*
X105011904Y-62726190D01*
X105130952Y-62726190D01*
X105178571Y-62702380D01*
X105202380Y-62678571D01*
X105226190Y-62630952D01*
X105226190Y-62583333D01*
X105202380Y-62535714D01*
X105178571Y-62511904D01*
X105130952Y-62488095D01*
X105035714Y-62464285D01*
X104988095Y-62440476D01*
X104964285Y-62416666D01*
X104940476Y-62369047D01*
X104940476Y-62321428D01*
X104964285Y-62273809D01*
X104988095Y-62250000D01*
X105035714Y-62226190D01*
X105154761Y-62226190D01*
X105226190Y-62250000D01*
X105392857Y-62226190D02*
X105511904Y-62726190D01*
X105607142Y-62369047D01*
X105702380Y-62726190D01*
X105821428Y-62226190D01*
X106011904Y-62726190D02*
X106011904Y-62226190D01*
X106130952Y-62226190D01*
X106202380Y-62250000D01*
X106250000Y-62297619D01*
X106273809Y-62345238D01*
X106297619Y-62440476D01*
X106297619Y-62511904D01*
X106273809Y-62607142D01*
X106250000Y-62654761D01*
X106202380Y-62702380D01*
X106130952Y-62726190D01*
X106011904Y-62726190D01*
X106511904Y-62726190D02*
X106511904Y-62226190D01*
X106845238Y-62226190D02*
X106940476Y-62226190D01*
X106988095Y-62250000D01*
X107035714Y-62297619D01*
X107059523Y-62392857D01*
X107059523Y-62559523D01*
X107035714Y-62654761D01*
X106988095Y-62702380D01*
X106940476Y-62726190D01*
X106845238Y-62726190D01*
X106797619Y-62702380D01*
X106750000Y-62654761D01*
X106726190Y-62559523D01*
X106726190Y-62392857D01*
X106750000Y-62297619D01*
X106797619Y-62250000D01*
X106845238Y-62226190D01*
D11*
X102457619Y-68404761D02*
X102600476Y-68452380D01*
X102838571Y-68452380D01*
X102933809Y-68404761D01*
X102981428Y-68357142D01*
X103029047Y-68261904D01*
X103029047Y-68166666D01*
X102981428Y-68071428D01*
X102933809Y-68023809D01*
X102838571Y-67976190D01*
X102648095Y-67928571D01*
X102552857Y-67880952D01*
X102505238Y-67833333D01*
X102457619Y-67738095D01*
X102457619Y-67642857D01*
X102505238Y-67547619D01*
X102552857Y-67500000D01*
X102648095Y-67452380D01*
X102886190Y-67452380D01*
X103029047Y-67500000D01*
X103314761Y-67452380D02*
X103886190Y-67452380D01*
X103600476Y-68452380D02*
X103600476Y-67452380D01*
X104219523Y-68071428D02*
X104981428Y-68071428D01*
X105933809Y-68452380D02*
X105457619Y-68452380D01*
X105457619Y-67452380D01*
X106267142Y-68452380D02*
X106267142Y-67452380D01*
X106743333Y-68452380D02*
X106743333Y-67452380D01*
X107314761Y-68452380D01*
X107314761Y-67452380D01*
X107790952Y-68452380D02*
X107790952Y-67452380D01*
X108362380Y-68452380D02*
X107933809Y-67880952D01*
X108362380Y-67452380D02*
X107790952Y-68023809D01*
D10*
X107761904Y-89916190D02*
X108071428Y-89916190D01*
X107904761Y-90106666D01*
X107976190Y-90106666D01*
X108023809Y-90130476D01*
X108047619Y-90154285D01*
X108071428Y-90201904D01*
X108071428Y-90320952D01*
X108047619Y-90368571D01*
X108023809Y-90392380D01*
X107976190Y-90416190D01*
X107833333Y-90416190D01*
X107785714Y-90392380D01*
X107761904Y-90368571D01*
X108285714Y-90368571D02*
X108309523Y-90392380D01*
X108285714Y-90416190D01*
X108261904Y-90392380D01*
X108285714Y-90368571D01*
X108285714Y-90416190D01*
X108476190Y-89916190D02*
X108785714Y-89916190D01*
X108619047Y-90106666D01*
X108690476Y-90106666D01*
X108738095Y-90130476D01*
X108761904Y-90154285D01*
X108785714Y-90201904D01*
X108785714Y-90320952D01*
X108761904Y-90368571D01*
X108738095Y-90392380D01*
X108690476Y-90416190D01*
X108547619Y-90416190D01*
X108500000Y-90392380D01*
X108476190Y-90368571D01*
X108928571Y-89916190D02*
X109095238Y-90416190D01*
X109261904Y-89916190D01*
D12*
X113053571Y-74410714D02*
X113232142Y-74470238D01*
X113291666Y-74529761D01*
X113351190Y-74648809D01*
X113351190Y-74827380D01*
X113291666Y-74946428D01*
X113232142Y-75005952D01*
X113113095Y-75065476D01*
X112636904Y-75065476D01*
X112636904Y-73815476D01*
X113053571Y-73815476D01*
X113172619Y-73875000D01*
X113232142Y-73934523D01*
X113291666Y-74053571D01*
X113291666Y-74172619D01*
X113232142Y-74291666D01*
X113172619Y-74351190D01*
X113053571Y-74410714D01*
X112636904Y-74410714D01*
X113886904Y-73815476D02*
X113886904Y-74827380D01*
X113946428Y-74946428D01*
X114005952Y-75005952D01*
X114125000Y-75065476D01*
X114363095Y-75065476D01*
X114482142Y-75005952D01*
X114541666Y-74946428D01*
X114601190Y-74827380D01*
X114601190Y-73815476D01*
X115077380Y-73815476D02*
X115910714Y-73815476D01*
X115077380Y-75065476D01*
X115910714Y-75065476D01*
X116267857Y-73815476D02*
X117101190Y-73815476D01*
X116267857Y-75065476D01*
X117101190Y-75065476D01*
X117577380Y-74410714D02*
X117994047Y-74410714D01*
X118172619Y-75065476D02*
X117577380Y-75065476D01*
X117577380Y-73815476D01*
X118172619Y-73815476D01*
X119422619Y-75065476D02*
X119005952Y-74470238D01*
X118708333Y-75065476D02*
X118708333Y-73815476D01*
X119184523Y-73815476D01*
X119303571Y-73875000D01*
X119363095Y-73934523D01*
X119422619Y-74053571D01*
X119422619Y-74232142D01*
X119363095Y-74351190D01*
X119303571Y-74410714D01*
X119184523Y-74470238D01*
X118708333Y-74470238D01*
D10*
X85714285Y-108726190D02*
X85714285Y-108226190D01*
X85880952Y-108583333D01*
X86047619Y-108226190D01*
X86047619Y-108726190D01*
X86380952Y-108226190D02*
X86476190Y-108226190D01*
X86523809Y-108250000D01*
X86571428Y-108297619D01*
X86595238Y-108392857D01*
X86595238Y-108559523D01*
X86571428Y-108654761D01*
X86523809Y-108702380D01*
X86476190Y-108726190D01*
X86380952Y-108726190D01*
X86333333Y-108702380D01*
X86285714Y-108654761D01*
X86261904Y-108559523D01*
X86261904Y-108392857D01*
X86285714Y-108297619D01*
X86333333Y-108250000D01*
X86380952Y-108226190D01*
X86785714Y-108702380D02*
X86857142Y-108726190D01*
X86976190Y-108726190D01*
X87023809Y-108702380D01*
X87047619Y-108678571D01*
X87071428Y-108630952D01*
X87071428Y-108583333D01*
X87047619Y-108535714D01*
X87023809Y-108511904D01*
X86976190Y-108488095D01*
X86880952Y-108464285D01*
X86833333Y-108440476D01*
X86809523Y-108416666D01*
X86785714Y-108369047D01*
X86785714Y-108321428D01*
X86809523Y-108273809D01*
X86833333Y-108250000D01*
X86880952Y-108226190D01*
X87000000Y-108226190D01*
X87071428Y-108250000D01*
X87285714Y-108726190D02*
X87285714Y-108226190D01*
X76226190Y-89761904D02*
X75726190Y-89761904D01*
X76226190Y-89523809D02*
X75726190Y-89523809D01*
X76226190Y-89238095D01*
X75726190Y-89238095D01*
D12*
X89886904Y-109565476D02*
X89470238Y-108970238D01*
X89172619Y-109565476D02*
X89172619Y-108315476D01*
X89648809Y-108315476D01*
X89767857Y-108375000D01*
X89827380Y-108434523D01*
X89886904Y-108553571D01*
X89886904Y-108732142D01*
X89827380Y-108851190D01*
X89767857Y-108910714D01*
X89648809Y-108970238D01*
X89172619Y-108970238D01*
X90363095Y-109208333D02*
X90958333Y-109208333D01*
X90244047Y-109565476D02*
X90660714Y-108315476D01*
X91077380Y-109565476D01*
X91494047Y-109089285D02*
X92446428Y-109089285D01*
X93279761Y-108315476D02*
X93398809Y-108315476D01*
X93517857Y-108375000D01*
X93577380Y-108434523D01*
X93636904Y-108553571D01*
X93696428Y-108791666D01*
X93696428Y-109089285D01*
X93636904Y-109327380D01*
X93577380Y-109446428D01*
X93517857Y-109505952D01*
X93398809Y-109565476D01*
X93279761Y-109565476D01*
X93160714Y-109505952D01*
X93101190Y-109446428D01*
X93041666Y-109327380D01*
X92982142Y-109089285D01*
X92982142Y-108791666D01*
X93041666Y-108553571D01*
X93101190Y-108434523D01*
X93160714Y-108375000D01*
X93279761Y-108315476D01*
X94172619Y-108434523D02*
X94232142Y-108375000D01*
X94351190Y-108315476D01*
X94648809Y-108315476D01*
X94767857Y-108375000D01*
X94827380Y-108434523D01*
X94886904Y-108553571D01*
X94886904Y-108672619D01*
X94827380Y-108851190D01*
X94113095Y-109565476D01*
X94886904Y-109565476D01*
D10*
X107619047Y-83916190D02*
X107904761Y-83916190D01*
X107761904Y-84416190D02*
X107761904Y-83916190D01*
X108023809Y-83916190D02*
X108357142Y-84416190D01*
X108357142Y-83916190D02*
X108023809Y-84416190D01*
X85619047Y-97750000D02*
X85571428Y-97726190D01*
X85500000Y-97726190D01*
X85428571Y-97750000D01*
X85380952Y-97797619D01*
X85357142Y-97845238D01*
X85333333Y-97940476D01*
X85333333Y-98011904D01*
X85357142Y-98107142D01*
X85380952Y-98154761D01*
X85428571Y-98202380D01*
X85500000Y-98226190D01*
X85547619Y-98226190D01*
X85619047Y-98202380D01*
X85642857Y-98178571D01*
X85642857Y-98011904D01*
X85547619Y-98011904D01*
X85857142Y-98226190D02*
X85857142Y-97726190D01*
X86142857Y-98226190D01*
X86142857Y-97726190D01*
X86380952Y-98226190D02*
X86380952Y-97726190D01*
X86500000Y-97726190D01*
X86571428Y-97750000D01*
X86619047Y-97797619D01*
X86642857Y-97845238D01*
X86666666Y-97940476D01*
X86666666Y-98011904D01*
X86642857Y-98107142D01*
X86619047Y-98154761D01*
X86571428Y-98202380D01*
X86500000Y-98226190D01*
X86380952Y-98226190D01*
X119619047Y-101750000D02*
X119571428Y-101726190D01*
X119500000Y-101726190D01*
X119428571Y-101750000D01*
X119380952Y-101797619D01*
X119357142Y-101845238D01*
X119333333Y-101940476D01*
X119333333Y-102011904D01*
X119357142Y-102107142D01*
X119380952Y-102154761D01*
X119428571Y-102202380D01*
X119500000Y-102226190D01*
X119547619Y-102226190D01*
X119619047Y-102202380D01*
X119642857Y-102178571D01*
X119642857Y-102011904D01*
X119547619Y-102011904D01*
X119857142Y-102226190D02*
X119857142Y-101726190D01*
X120142857Y-102226190D01*
X120142857Y-101726190D01*
X120380952Y-102226190D02*
X120380952Y-101726190D01*
X120500000Y-101726190D01*
X120571428Y-101750000D01*
X120619047Y-101797619D01*
X120642857Y-101845238D01*
X120666666Y-101940476D01*
X120666666Y-102011904D01*
X120642857Y-102107142D01*
X120619047Y-102154761D01*
X120571428Y-102202380D01*
X120500000Y-102226190D01*
X120380952Y-102226190D01*
X75726190Y-100809523D02*
X76130952Y-100809523D01*
X76178571Y-100785714D01*
X76202380Y-100761904D01*
X76226190Y-100714285D01*
X76226190Y-100619047D01*
X76202380Y-100571428D01*
X76178571Y-100547619D01*
X76130952Y-100523809D01*
X75726190Y-100523809D01*
X75773809Y-100309523D02*
X75750000Y-100285714D01*
X75726190Y-100238095D01*
X75726190Y-100119047D01*
X75750000Y-100071428D01*
X75773809Y-100047619D01*
X75821428Y-100023809D01*
X75869047Y-100023809D01*
X75940476Y-100047619D01*
X76226190Y-100333333D01*
X76226190Y-100023809D01*
X75726190Y-99880952D02*
X75726190Y-99595238D01*
X76226190Y-99738095D02*
X75726190Y-99738095D01*
X75726190Y-99476190D02*
X76226190Y-99142857D01*
X75726190Y-99142857D02*
X76226190Y-99476190D01*
X87119047Y-112250000D02*
X87071428Y-112226190D01*
X87000000Y-112226190D01*
X86928571Y-112250000D01*
X86880952Y-112297619D01*
X86857142Y-112345238D01*
X86833333Y-112440476D01*
X86833333Y-112511904D01*
X86857142Y-112607142D01*
X86880952Y-112654761D01*
X86928571Y-112702380D01*
X87000000Y-112726190D01*
X87047619Y-112726190D01*
X87119047Y-112702380D01*
X87142857Y-112678571D01*
X87142857Y-112511904D01*
X87047619Y-112511904D01*
X87357142Y-112726190D02*
X87357142Y-112226190D01*
X87642857Y-112726190D01*
X87642857Y-112226190D01*
X87880952Y-112726190D02*
X87880952Y-112226190D01*
X88000000Y-112226190D01*
X88071428Y-112250000D01*
X88119047Y-112297619D01*
X88142857Y-112345238D01*
X88166666Y-112440476D01*
X88166666Y-112511904D01*
X88142857Y-112607142D01*
X88119047Y-112654761D01*
X88071428Y-112702380D01*
X88000000Y-112726190D01*
X87880952Y-112726190D01*
X77892857Y-74202380D02*
X77964285Y-74226190D01*
X78083333Y-74226190D01*
X78130952Y-74202380D01*
X78154761Y-74178571D01*
X78178571Y-74130952D01*
X78178571Y-74083333D01*
X78154761Y-74035714D01*
X78130952Y-74011904D01*
X78083333Y-73988095D01*
X77988095Y-73964285D01*
X77940476Y-73940476D01*
X77916666Y-73916666D01*
X77892857Y-73869047D01*
X77892857Y-73821428D01*
X77916666Y-73773809D01*
X77940476Y-73750000D01*
X77988095Y-73726190D01*
X78107142Y-73726190D01*
X78178571Y-73750000D01*
X78392857Y-74226190D02*
X78392857Y-73726190D01*
X78511904Y-73726190D01*
X78583333Y-73750000D01*
X78630952Y-73797619D01*
X78654761Y-73845238D01*
X78678571Y-73940476D01*
X78678571Y-74011904D01*
X78654761Y-74107142D01*
X78630952Y-74154761D01*
X78583333Y-74202380D01*
X78511904Y-74226190D01*
X78392857Y-74226190D01*
X78869047Y-74083333D02*
X79107142Y-74083333D01*
X78821428Y-74226190D02*
X78988095Y-73726190D01*
X79154761Y-74226190D01*
X76309523Y-62194285D02*
X76380952Y-62218095D01*
X76404761Y-62241904D01*
X76428571Y-62289523D01*
X76428571Y-62360952D01*
X76404761Y-62408571D01*
X76380952Y-62432380D01*
X76333333Y-62456190D01*
X76142857Y-62456190D01*
X76142857Y-61956190D01*
X76309523Y-61956190D01*
X76357142Y-61980000D01*
X76380952Y-62003809D01*
X76404761Y-62051428D01*
X76404761Y-62099047D01*
X76380952Y-62146666D01*
X76357142Y-62170476D01*
X76309523Y-62194285D01*
X76142857Y-62194285D01*
X76904761Y-62456190D02*
X76619047Y-62456190D01*
X76761904Y-62456190D02*
X76761904Y-61956190D01*
X76714285Y-62027619D01*
X76666666Y-62075238D01*
X76619047Y-62099047D01*
X77119047Y-62456190D02*
X77119047Y-61956190D01*
X77238095Y-61956190D01*
X77309523Y-61980000D01*
X77357142Y-62027619D01*
X77380952Y-62075238D01*
X77404761Y-62170476D01*
X77404761Y-62241904D01*
X77380952Y-62337142D01*
X77357142Y-62384761D01*
X77309523Y-62432380D01*
X77238095Y-62456190D01*
X77119047Y-62456190D01*
X77714285Y-61956190D02*
X77761904Y-61956190D01*
X77809523Y-61980000D01*
X77833333Y-62003809D01*
X77857142Y-62051428D01*
X77880952Y-62146666D01*
X77880952Y-62265714D01*
X77857142Y-62360952D01*
X77833333Y-62408571D01*
X77809523Y-62432380D01*
X77761904Y-62456190D01*
X77714285Y-62456190D01*
X77666666Y-62432380D01*
X77642857Y-62408571D01*
X77619047Y-62360952D01*
X77595238Y-62265714D01*
X77595238Y-62146666D01*
X77619047Y-62051428D01*
X77642857Y-62003809D01*
X77666666Y-61980000D01*
X77714285Y-61956190D01*
X114392857Y-102202380D02*
X114464285Y-102226190D01*
X114583333Y-102226190D01*
X114630952Y-102202380D01*
X114654761Y-102178571D01*
X114678571Y-102130952D01*
X114678571Y-102083333D01*
X114654761Y-102035714D01*
X114630952Y-102011904D01*
X114583333Y-101988095D01*
X114488095Y-101964285D01*
X114440476Y-101940476D01*
X114416666Y-101916666D01*
X114392857Y-101869047D01*
X114392857Y-101821428D01*
X114416666Y-101773809D01*
X114440476Y-101750000D01*
X114488095Y-101726190D01*
X114607142Y-101726190D01*
X114678571Y-101750000D01*
X114892857Y-102226190D02*
X114892857Y-101726190D01*
X115011904Y-101726190D01*
X115083333Y-101750000D01*
X115130952Y-101797619D01*
X115154761Y-101845238D01*
X115178571Y-101940476D01*
X115178571Y-102011904D01*
X115154761Y-102107142D01*
X115130952Y-102154761D01*
X115083333Y-102202380D01*
X115011904Y-102226190D01*
X114892857Y-102226190D01*
X115369047Y-102083333D02*
X115607142Y-102083333D01*
X115321428Y-102226190D02*
X115488095Y-101726190D01*
X115654761Y-102226190D01*
X121761904Y-101726190D02*
X122071428Y-101726190D01*
X121904761Y-101916666D01*
X121976190Y-101916666D01*
X122023809Y-101940476D01*
X122047619Y-101964285D01*
X122071428Y-102011904D01*
X122071428Y-102130952D01*
X122047619Y-102178571D01*
X122023809Y-102202380D01*
X121976190Y-102226190D01*
X121833333Y-102226190D01*
X121785714Y-102202380D01*
X121761904Y-102178571D01*
X122285714Y-102178571D02*
X122309523Y-102202380D01*
X122285714Y-102226190D01*
X122261904Y-102202380D01*
X122285714Y-102178571D01*
X122285714Y-102226190D01*
X122476190Y-101726190D02*
X122785714Y-101726190D01*
X122619047Y-101916666D01*
X122690476Y-101916666D01*
X122738095Y-101940476D01*
X122761904Y-101964285D01*
X122785714Y-102011904D01*
X122785714Y-102130952D01*
X122761904Y-102178571D01*
X122738095Y-102202380D01*
X122690476Y-102226190D01*
X122547619Y-102226190D01*
X122500000Y-102202380D01*
X122476190Y-102178571D01*
X122928571Y-101726190D02*
X123095238Y-102226190D01*
X123261904Y-101726190D01*
X75726190Y-97738095D02*
X75726190Y-97642857D01*
X75750000Y-97595238D01*
X75797619Y-97547619D01*
X75892857Y-97523809D01*
X76059523Y-97523809D01*
X76154761Y-97547619D01*
X76202380Y-97595238D01*
X76226190Y-97642857D01*
X76226190Y-97738095D01*
X76202380Y-97785714D01*
X76154761Y-97833333D01*
X76059523Y-97857142D01*
X75892857Y-97857142D01*
X75797619Y-97833333D01*
X75750000Y-97785714D01*
X75726190Y-97738095D01*
X75726190Y-97309523D02*
X76130952Y-97309523D01*
X76178571Y-97285714D01*
X76202380Y-97261904D01*
X76226190Y-97214285D01*
X76226190Y-97119047D01*
X76202380Y-97071428D01*
X76178571Y-97047619D01*
X76130952Y-97023809D01*
X75726190Y-97023809D01*
X75726190Y-96857142D02*
X75726190Y-96571428D01*
X76226190Y-96714285D02*
X75726190Y-96714285D01*
X75773809Y-96428571D02*
X75750000Y-96404761D01*
X75726190Y-96357142D01*
X75726190Y-96238095D01*
X75750000Y-96190476D01*
X75773809Y-96166666D01*
X75821428Y-96142857D01*
X75869047Y-96142857D01*
X75940476Y-96166666D01*
X76226190Y-96452380D01*
X76226190Y-96142857D01*
X75726190Y-103369047D02*
X76130952Y-103369047D01*
X76178571Y-103345238D01*
X76202380Y-103321428D01*
X76226190Y-103273809D01*
X76226190Y-103178571D01*
X76202380Y-103130952D01*
X76178571Y-103107142D01*
X76130952Y-103083333D01*
X75726190Y-103083333D01*
X75773809Y-102869047D02*
X75750000Y-102845238D01*
X75726190Y-102797619D01*
X75726190Y-102678571D01*
X75750000Y-102630952D01*
X75773809Y-102607142D01*
X75821428Y-102583333D01*
X75869047Y-102583333D01*
X75940476Y-102607142D01*
X76226190Y-102892857D01*
X76226190Y-102583333D01*
X76226190Y-102083333D02*
X75988095Y-102250000D01*
X76226190Y-102369047D02*
X75726190Y-102369047D01*
X75726190Y-102178571D01*
X75750000Y-102130952D01*
X75773809Y-102107142D01*
X75821428Y-102083333D01*
X75892857Y-102083333D01*
X75940476Y-102107142D01*
X75964285Y-102130952D01*
X75988095Y-102178571D01*
X75988095Y-102369047D01*
X75726190Y-101916666D02*
X76226190Y-101583333D01*
X75726190Y-101583333D02*
X76226190Y-101916666D01*
X80404761Y-74202380D02*
X80476190Y-74226190D01*
X80595238Y-74226190D01*
X80642857Y-74202380D01*
X80666666Y-74178571D01*
X80690476Y-74130952D01*
X80690476Y-74083333D01*
X80666666Y-74035714D01*
X80642857Y-74011904D01*
X80595238Y-73988095D01*
X80500000Y-73964285D01*
X80452380Y-73940476D01*
X80428571Y-73916666D01*
X80404761Y-73869047D01*
X80404761Y-73821428D01*
X80428571Y-73773809D01*
X80452380Y-73750000D01*
X80500000Y-73726190D01*
X80619047Y-73726190D01*
X80690476Y-73750000D01*
X81190476Y-74178571D02*
X81166666Y-74202380D01*
X81095238Y-74226190D01*
X81047619Y-74226190D01*
X80976190Y-74202380D01*
X80928571Y-74154761D01*
X80904761Y-74107142D01*
X80880952Y-74011904D01*
X80880952Y-73940476D01*
X80904761Y-73845238D01*
X80928571Y-73797619D01*
X80976190Y-73750000D01*
X81047619Y-73726190D01*
X81095238Y-73726190D01*
X81166666Y-73750000D01*
X81190476Y-73773809D01*
X81642857Y-74226190D02*
X81404761Y-74226190D01*
X81404761Y-73726190D01*
X116904761Y-102202380D02*
X116976190Y-102226190D01*
X117095238Y-102226190D01*
X117142857Y-102202380D01*
X117166666Y-102178571D01*
X117190476Y-102130952D01*
X117190476Y-102083333D01*
X117166666Y-102035714D01*
X117142857Y-102011904D01*
X117095238Y-101988095D01*
X117000000Y-101964285D01*
X116952380Y-101940476D01*
X116928571Y-101916666D01*
X116904761Y-101869047D01*
X116904761Y-101821428D01*
X116928571Y-101773809D01*
X116952380Y-101750000D01*
X117000000Y-101726190D01*
X117119047Y-101726190D01*
X117190476Y-101750000D01*
X117690476Y-102178571D02*
X117666666Y-102202380D01*
X117595238Y-102226190D01*
X117547619Y-102226190D01*
X117476190Y-102202380D01*
X117428571Y-102154761D01*
X117404761Y-102107142D01*
X117380952Y-102011904D01*
X117380952Y-101940476D01*
X117404761Y-101845238D01*
X117428571Y-101797619D01*
X117476190Y-101750000D01*
X117547619Y-101726190D01*
X117595238Y-101726190D01*
X117666666Y-101750000D01*
X117690476Y-101773809D01*
X118142857Y-102226190D02*
X117904761Y-102226190D01*
X117904761Y-101726190D01*
X97226190Y-106726190D02*
X97059523Y-106488095D01*
X96940476Y-106726190D02*
X96940476Y-106226190D01*
X97130952Y-106226190D01*
X97178571Y-106250000D01*
X97202380Y-106273809D01*
X97226190Y-106321428D01*
X97226190Y-106392857D01*
X97202380Y-106440476D01*
X97178571Y-106464285D01*
X97130952Y-106488095D01*
X96940476Y-106488095D01*
X97416666Y-106702380D02*
X97488095Y-106726190D01*
X97607142Y-106726190D01*
X97654761Y-106702380D01*
X97678571Y-106678571D01*
X97702380Y-106630952D01*
X97702380Y-106583333D01*
X97678571Y-106535714D01*
X97654761Y-106511904D01*
X97607142Y-106488095D01*
X97511904Y-106464285D01*
X97464285Y-106440476D01*
X97440476Y-106416666D01*
X97416666Y-106369047D01*
X97416666Y-106321428D01*
X97440476Y-106273809D01*
X97464285Y-106250000D01*
X97511904Y-106226190D01*
X97630952Y-106226190D01*
X97702380Y-106250000D01*
X97845238Y-106226190D02*
X98130952Y-106226190D01*
X97988095Y-106726190D02*
X97988095Y-106226190D01*
D12*
X110017857Y-86255476D02*
X109422619Y-86255476D01*
X109422619Y-85005476D01*
X110613095Y-85541190D02*
X110494047Y-85481666D01*
X110434523Y-85422142D01*
X110375000Y-85303095D01*
X110375000Y-85243571D01*
X110434523Y-85124523D01*
X110494047Y-85065000D01*
X110613095Y-85005476D01*
X110851190Y-85005476D01*
X110970238Y-85065000D01*
X111029761Y-85124523D01*
X111089285Y-85243571D01*
X111089285Y-85303095D01*
X111029761Y-85422142D01*
X110970238Y-85481666D01*
X110851190Y-85541190D01*
X110613095Y-85541190D01*
X110494047Y-85600714D01*
X110434523Y-85660238D01*
X110375000Y-85779285D01*
X110375000Y-86017380D01*
X110434523Y-86136428D01*
X110494047Y-86195952D01*
X110613095Y-86255476D01*
X110851190Y-86255476D01*
X110970238Y-86195952D01*
X111029761Y-86136428D01*
X111089285Y-86017380D01*
X111089285Y-85779285D01*
X111029761Y-85660238D01*
X110970238Y-85600714D01*
X110851190Y-85541190D01*
X112160714Y-85005476D02*
X111922619Y-85005476D01*
X111803571Y-85065000D01*
X111744047Y-85124523D01*
X111625000Y-85303095D01*
X111565476Y-85541190D01*
X111565476Y-86017380D01*
X111625000Y-86136428D01*
X111684523Y-86195952D01*
X111803571Y-86255476D01*
X112041666Y-86255476D01*
X112160714Y-86195952D01*
X112220238Y-86136428D01*
X112279761Y-86017380D01*
X112279761Y-85719761D01*
X112220238Y-85600714D01*
X112160714Y-85541190D01*
X112041666Y-85481666D01*
X111803571Y-85481666D01*
X111684523Y-85541190D01*
X111625000Y-85600714D01*
X111565476Y-85719761D01*
X112815476Y-85779285D02*
X113767857Y-85779285D01*
X114363095Y-86255476D02*
X114363095Y-85005476D01*
X114779761Y-85898333D01*
X115196428Y-85005476D01*
X115196428Y-86255476D01*
X115672619Y-85005476D02*
X116446428Y-85005476D01*
X116029761Y-85481666D01*
X116208333Y-85481666D01*
X116327380Y-85541190D01*
X116386904Y-85600714D01*
X116446428Y-85719761D01*
X116446428Y-86017380D01*
X116386904Y-86136428D01*
X116327380Y-86195952D01*
X116208333Y-86255476D01*
X115851190Y-86255476D01*
X115732142Y-86195952D01*
X115672619Y-86136428D01*
X116863095Y-85005476D02*
X117636904Y-85005476D01*
X117220238Y-85481666D01*
X117398809Y-85481666D01*
X117517857Y-85541190D01*
X117577380Y-85600714D01*
X117636904Y-85719761D01*
X117636904Y-86017380D01*
X117577380Y-86136428D01*
X117517857Y-86195952D01*
X117398809Y-86255476D01*
X117041666Y-86255476D01*
X116922619Y-86195952D01*
X116863095Y-86136428D01*
D10*
X97488095Y-104226190D02*
X97488095Y-103726190D01*
X97607142Y-103726190D01*
X97678571Y-103750000D01*
X97726190Y-103797619D01*
X97750000Y-103845238D01*
X97773809Y-103940476D01*
X97773809Y-104011904D01*
X97750000Y-104107142D01*
X97726190Y-104154761D01*
X97678571Y-104202380D01*
X97607142Y-104226190D01*
X97488095Y-104226190D01*
X97988095Y-104226190D02*
X97988095Y-103726190D01*
X98321428Y-103726190D02*
X98416666Y-103726190D01*
X98464285Y-103750000D01*
X98511904Y-103797619D01*
X98535714Y-103892857D01*
X98535714Y-104059523D01*
X98511904Y-104154761D01*
X98464285Y-104202380D01*
X98416666Y-104226190D01*
X98321428Y-104226190D01*
X98273809Y-104202380D01*
X98226190Y-104154761D01*
X98202380Y-104059523D01*
X98202380Y-103892857D01*
X98226190Y-103797619D01*
X98273809Y-103750000D01*
X98321428Y-103726190D01*
X75726190Y-106738095D02*
X75726190Y-106428571D01*
X75916666Y-106595238D01*
X75916666Y-106523809D01*
X75940476Y-106476190D01*
X75964285Y-106452380D01*
X76011904Y-106428571D01*
X76130952Y-106428571D01*
X76178571Y-106452380D01*
X76202380Y-106476190D01*
X76226190Y-106523809D01*
X76226190Y-106666666D01*
X76202380Y-106714285D01*
X76178571Y-106738095D01*
X76178571Y-106214285D02*
X76202380Y-106190476D01*
X76226190Y-106214285D01*
X76202380Y-106238095D01*
X76178571Y-106214285D01*
X76226190Y-106214285D01*
X75726190Y-106023809D02*
X75726190Y-105714285D01*
X75916666Y-105880952D01*
X75916666Y-105809523D01*
X75940476Y-105761904D01*
X75964285Y-105738095D01*
X76011904Y-105714285D01*
X76130952Y-105714285D01*
X76178571Y-105738095D01*
X76202380Y-105761904D01*
X76226190Y-105809523D01*
X76226190Y-105952380D01*
X76202380Y-106000000D01*
X76178571Y-106023809D01*
X75726190Y-105571428D02*
X76226190Y-105404761D01*
X75726190Y-105238095D01*
X91833333Y-62702380D02*
X91904761Y-62726190D01*
X92023809Y-62726190D01*
X92071428Y-62702380D01*
X92095238Y-62678571D01*
X92119047Y-62630952D01*
X92119047Y-62583333D01*
X92095238Y-62535714D01*
X92071428Y-62511904D01*
X92023809Y-62488095D01*
X91928571Y-62464285D01*
X91880952Y-62440476D01*
X91857142Y-62416666D01*
X91833333Y-62369047D01*
X91833333Y-62321428D01*
X91857142Y-62273809D01*
X91880952Y-62250000D01*
X91928571Y-62226190D01*
X92047619Y-62226190D01*
X92119047Y-62250000D01*
X92333333Y-62535714D02*
X92714285Y-62535714D01*
X92928571Y-62702380D02*
X93000000Y-62726190D01*
X93119047Y-62726190D01*
X93166666Y-62702380D01*
X93190476Y-62678571D01*
X93214285Y-62630952D01*
X93214285Y-62583333D01*
X93190476Y-62535714D01*
X93166666Y-62511904D01*
X93119047Y-62488095D01*
X93023809Y-62464285D01*
X92976190Y-62440476D01*
X92952380Y-62416666D01*
X92928571Y-62369047D01*
X92928571Y-62321428D01*
X92952380Y-62273809D01*
X92976190Y-62250000D01*
X93023809Y-62226190D01*
X93142857Y-62226190D01*
X93214285Y-62250000D01*
X93428571Y-62464285D02*
X93595238Y-62464285D01*
X93666666Y-62726190D02*
X93428571Y-62726190D01*
X93428571Y-62226190D01*
X93666666Y-62226190D01*
X93880952Y-62726190D02*
X93880952Y-62226190D01*
X94071428Y-62226190D01*
X94119047Y-62250000D01*
X94142857Y-62273809D01*
X94166666Y-62321428D01*
X94166666Y-62392857D01*
X94142857Y-62440476D01*
X94119047Y-62464285D01*
X94071428Y-62488095D01*
X93880952Y-62488095D01*
X75726190Y-92738095D02*
X75726190Y-92642857D01*
X75750000Y-92595238D01*
X75797619Y-92547619D01*
X75892857Y-92523809D01*
X76059523Y-92523809D01*
X76154761Y-92547619D01*
X76202380Y-92595238D01*
X76226190Y-92642857D01*
X76226190Y-92738095D01*
X76202380Y-92785714D01*
X76154761Y-92833333D01*
X76059523Y-92857142D01*
X75892857Y-92857142D01*
X75797619Y-92833333D01*
X75750000Y-92785714D01*
X75726190Y-92738095D01*
X75726190Y-92309523D02*
X76130952Y-92309523D01*
X76178571Y-92285714D01*
X76202380Y-92261904D01*
X76226190Y-92214285D01*
X76226190Y-92119047D01*
X76202380Y-92071428D01*
X76178571Y-92047619D01*
X76130952Y-92023809D01*
X75726190Y-92023809D01*
X75726190Y-91857142D02*
X75726190Y-91571428D01*
X76226190Y-91714285D02*
X75726190Y-91714285D01*
X76226190Y-91142857D02*
X76226190Y-91428571D01*
X76226190Y-91285714D02*
X75726190Y-91285714D01*
X75797619Y-91333333D01*
X75845238Y-91380952D01*
X75869047Y-91428571D01*
X97261904Y-62226190D02*
X97571428Y-62226190D01*
X97404761Y-62416666D01*
X97476190Y-62416666D01*
X97523809Y-62440476D01*
X97547619Y-62464285D01*
X97571428Y-62511904D01*
X97571428Y-62630952D01*
X97547619Y-62678571D01*
X97523809Y-62702380D01*
X97476190Y-62726190D01*
X97333333Y-62726190D01*
X97285714Y-62702380D01*
X97261904Y-62678571D01*
X97785714Y-62678571D02*
X97809523Y-62702380D01*
X97785714Y-62726190D01*
X97761904Y-62702380D01*
X97785714Y-62678571D01*
X97785714Y-62726190D01*
X97976190Y-62226190D02*
X98285714Y-62226190D01*
X98119047Y-62416666D01*
X98190476Y-62416666D01*
X98238095Y-62440476D01*
X98261904Y-62464285D01*
X98285714Y-62511904D01*
X98285714Y-62630952D01*
X98261904Y-62678571D01*
X98238095Y-62702380D01*
X98190476Y-62726190D01*
X98047619Y-62726190D01*
X98000000Y-62702380D01*
X97976190Y-62678571D01*
X98428571Y-62226190D02*
X98595238Y-62726190D01*
X98761904Y-62226190D01*
X76226190Y-95202380D02*
X75726190Y-95202380D01*
X75726190Y-95011904D01*
X75750000Y-94964285D01*
X75773809Y-94940476D01*
X75821428Y-94916666D01*
X75892857Y-94916666D01*
X75940476Y-94940476D01*
X75964285Y-94964285D01*
X75988095Y-95011904D01*
X75988095Y-95202380D01*
X75726190Y-94750000D02*
X76226190Y-94630952D01*
X75869047Y-94535714D01*
X76226190Y-94440476D01*
X75726190Y-94321428D01*
X76226190Y-94130952D02*
X75726190Y-94130952D01*
X76083333Y-93964285D01*
X75726190Y-93797619D01*
X76226190Y-93797619D01*
X107916666Y-81416190D02*
X107750000Y-81178095D01*
X107630952Y-81416190D02*
X107630952Y-80916190D01*
X107821428Y-80916190D01*
X107869047Y-80940000D01*
X107892857Y-80963809D01*
X107916666Y-81011428D01*
X107916666Y-81082857D01*
X107892857Y-81130476D01*
X107869047Y-81154285D01*
X107821428Y-81178095D01*
X107630952Y-81178095D01*
X108083333Y-80916190D02*
X108416666Y-81416190D01*
X108416666Y-80916190D02*
X108083333Y-81416190D01*
X101869047Y-62702380D02*
X101940476Y-62726190D01*
X102059523Y-62726190D01*
X102107142Y-62702380D01*
X102130952Y-62678571D01*
X102154761Y-62630952D01*
X102154761Y-62583333D01*
X102130952Y-62535714D01*
X102107142Y-62511904D01*
X102059523Y-62488095D01*
X101964285Y-62464285D01*
X101916666Y-62440476D01*
X101892857Y-62416666D01*
X101869047Y-62369047D01*
X101869047Y-62321428D01*
X101892857Y-62273809D01*
X101916666Y-62250000D01*
X101964285Y-62226190D01*
X102083333Y-62226190D01*
X102154761Y-62250000D01*
X102321428Y-62226190D02*
X102440476Y-62726190D01*
X102535714Y-62369047D01*
X102630952Y-62726190D01*
X102750000Y-62226190D01*
X103226190Y-62678571D02*
X103202380Y-62702380D01*
X103130952Y-62726190D01*
X103083333Y-62726190D01*
X103011904Y-62702380D01*
X102964285Y-62654761D01*
X102940476Y-62607142D01*
X102916666Y-62511904D01*
X102916666Y-62440476D01*
X102940476Y-62345238D01*
X102964285Y-62297619D01*
X103011904Y-62250000D01*
X103083333Y-62226190D01*
X103130952Y-62226190D01*
X103202380Y-62250000D01*
X103226190Y-62273809D01*
X103678571Y-62726190D02*
X103440476Y-62726190D01*
X103440476Y-62226190D01*
X103845238Y-62726190D02*
X103845238Y-62226190D01*
X104130952Y-62726190D02*
X103916666Y-62440476D01*
X104130952Y-62226190D02*
X103845238Y-62511904D01*
X95619047Y-112250000D02*
X95571428Y-112226190D01*
X95500000Y-112226190D01*
X95428571Y-112250000D01*
X95380952Y-112297619D01*
X95357142Y-112345238D01*
X95333333Y-112440476D01*
X95333333Y-112511904D01*
X95357142Y-112607142D01*
X95380952Y-112654761D01*
X95428571Y-112702380D01*
X95500000Y-112726190D01*
X95547619Y-112726190D01*
X95619047Y-112702380D01*
X95642857Y-112678571D01*
X95642857Y-112511904D01*
X95547619Y-112511904D01*
X95857142Y-112726190D02*
X95857142Y-112226190D01*
X96142857Y-112726190D01*
X96142857Y-112226190D01*
X96380952Y-112726190D02*
X96380952Y-112226190D01*
X96500000Y-112226190D01*
X96571428Y-112250000D01*
X96619047Y-112297619D01*
X96642857Y-112345238D01*
X96666666Y-112440476D01*
X96666666Y-112511904D01*
X96642857Y-112607142D01*
X96619047Y-112654761D01*
X96571428Y-112702380D01*
X96500000Y-112726190D01*
X96380952Y-112726190D01*
X85714285Y-106726190D02*
X85714285Y-106226190D01*
X85880952Y-106583333D01*
X86047619Y-106226190D01*
X86047619Y-106726190D01*
X86285714Y-106726190D02*
X86285714Y-106226190D01*
X86500000Y-106702380D02*
X86571428Y-106726190D01*
X86690476Y-106726190D01*
X86738095Y-106702380D01*
X86761904Y-106678571D01*
X86785714Y-106630952D01*
X86785714Y-106583333D01*
X86761904Y-106535714D01*
X86738095Y-106511904D01*
X86690476Y-106488095D01*
X86595238Y-106464285D01*
X86547619Y-106440476D01*
X86523809Y-106416666D01*
X86500000Y-106369047D01*
X86500000Y-106321428D01*
X86523809Y-106273809D01*
X86547619Y-106250000D01*
X86595238Y-106226190D01*
X86714285Y-106226190D01*
X86785714Y-106250000D01*
X87095238Y-106226190D02*
X87190476Y-106226190D01*
X87238095Y-106250000D01*
X87285714Y-106297619D01*
X87309523Y-106392857D01*
X87309523Y-106559523D01*
X87285714Y-106654761D01*
X87238095Y-106702380D01*
X87190476Y-106726190D01*
X87095238Y-106726190D01*
X87047619Y-106702380D01*
X87000000Y-106654761D01*
X86976190Y-106559523D01*
X86976190Y-106392857D01*
X87000000Y-106297619D01*
X87047619Y-106250000D01*
X87095238Y-106226190D01*
X89047619Y-62464285D02*
X88880952Y-62464285D01*
X88880952Y-62726190D02*
X88880952Y-62226190D01*
X89119047Y-62226190D01*
X89309523Y-62535714D02*
X89690476Y-62535714D01*
X89904761Y-62702380D02*
X89976190Y-62726190D01*
X90095238Y-62726190D01*
X90142857Y-62702380D01*
X90166666Y-62678571D01*
X90190476Y-62630952D01*
X90190476Y-62583333D01*
X90166666Y-62535714D01*
X90142857Y-62511904D01*
X90095238Y-62488095D01*
X90000000Y-62464285D01*
X89952380Y-62440476D01*
X89928571Y-62416666D01*
X89904761Y-62369047D01*
X89904761Y-62321428D01*
X89928571Y-62273809D01*
X89952380Y-62250000D01*
X90000000Y-62226190D01*
X90119047Y-62226190D01*
X90190476Y-62250000D01*
X90404761Y-62464285D02*
X90571428Y-62464285D01*
X90642857Y-62726190D02*
X90404761Y-62726190D01*
X90404761Y-62226190D01*
X90642857Y-62226190D01*
X90857142Y-62726190D02*
X90857142Y-62226190D01*
X91047619Y-62226190D01*
X91095238Y-62250000D01*
X91119047Y-62273809D01*
X91142857Y-62321428D01*
X91142857Y-62392857D01*
X91119047Y-62440476D01*
X91095238Y-62464285D01*
X91047619Y-62488095D01*
X90857142Y-62488095D01*
%TO.C,C12*%
X102548571Y-108128571D02*
X102524761Y-108152380D01*
X102453333Y-108176190D01*
X102405714Y-108176190D01*
X102334285Y-108152380D01*
X102286666Y-108104761D01*
X102262857Y-108057142D01*
X102239047Y-107961904D01*
X102239047Y-107890476D01*
X102262857Y-107795238D01*
X102286666Y-107747619D01*
X102334285Y-107700000D01*
X102405714Y-107676190D01*
X102453333Y-107676190D01*
X102524761Y-107700000D01*
X102548571Y-107723809D01*
X103024761Y-108176190D02*
X102739047Y-108176190D01*
X102881904Y-108176190D02*
X102881904Y-107676190D01*
X102834285Y-107747619D01*
X102786666Y-107795238D01*
X102739047Y-107819047D01*
X103215238Y-107723809D02*
X103239047Y-107700000D01*
X103286666Y-107676190D01*
X103405714Y-107676190D01*
X103453333Y-107700000D01*
X103477142Y-107723809D01*
X103500952Y-107771428D01*
X103500952Y-107819047D01*
X103477142Y-107890476D01*
X103191428Y-108176190D01*
X103500952Y-108176190D01*
%TO.C,D6*%
X93610952Y-71346190D02*
X93610952Y-70846190D01*
X93730000Y-70846190D01*
X93801428Y-70870000D01*
X93849047Y-70917619D01*
X93872857Y-70965238D01*
X93896666Y-71060476D01*
X93896666Y-71131904D01*
X93872857Y-71227142D01*
X93849047Y-71274761D01*
X93801428Y-71322380D01*
X93730000Y-71346190D01*
X93610952Y-71346190D01*
X94325238Y-70846190D02*
X94230000Y-70846190D01*
X94182380Y-70870000D01*
X94158571Y-70893809D01*
X94110952Y-70965238D01*
X94087142Y-71060476D01*
X94087142Y-71250952D01*
X94110952Y-71298571D01*
X94134761Y-71322380D01*
X94182380Y-71346190D01*
X94277619Y-71346190D01*
X94325238Y-71322380D01*
X94349047Y-71298571D01*
X94372857Y-71250952D01*
X94372857Y-71131904D01*
X94349047Y-71084285D01*
X94325238Y-71060476D01*
X94277619Y-71036666D01*
X94182380Y-71036666D01*
X94134761Y-71060476D01*
X94110952Y-71084285D01*
X94087142Y-71131904D01*
%TO.C,D3*%
X103130952Y-75156190D02*
X103130952Y-74656190D01*
X103250000Y-74656190D01*
X103321428Y-74680000D01*
X103369047Y-74727619D01*
X103392857Y-74775238D01*
X103416666Y-74870476D01*
X103416666Y-74941904D01*
X103392857Y-75037142D01*
X103369047Y-75084761D01*
X103321428Y-75132380D01*
X103250000Y-75156190D01*
X103130952Y-75156190D01*
X103583333Y-74656190D02*
X103892857Y-74656190D01*
X103726190Y-74846666D01*
X103797619Y-74846666D01*
X103845238Y-74870476D01*
X103869047Y-74894285D01*
X103892857Y-74941904D01*
X103892857Y-75060952D01*
X103869047Y-75108571D01*
X103845238Y-75132380D01*
X103797619Y-75156190D01*
X103654761Y-75156190D01*
X103607142Y-75132380D01*
X103583333Y-75108571D01*
D11*
%TO.C,U5*%
X82761904Y-71542619D02*
X82761904Y-70733095D01*
X82714285Y-70637857D01*
X82666666Y-70590238D01*
X82571428Y-70542619D01*
X82380952Y-70542619D01*
X82285714Y-70590238D01*
X82238095Y-70637857D01*
X82190476Y-70733095D01*
X82190476Y-71542619D01*
X81238095Y-71542619D02*
X81714285Y-71542619D01*
X81761904Y-71066428D01*
X81714285Y-71114047D01*
X81619047Y-71161666D01*
X81380952Y-71161666D01*
X81285714Y-71114047D01*
X81238095Y-71066428D01*
X81190476Y-70971190D01*
X81190476Y-70733095D01*
X81238095Y-70637857D01*
X81285714Y-70590238D01*
X81380952Y-70542619D01*
X81619047Y-70542619D01*
X81714285Y-70590238D01*
X81761904Y-70637857D01*
X84428571Y-68951428D02*
X84285714Y-68903809D01*
X84238095Y-68856190D01*
X84190476Y-68760952D01*
X84190476Y-68618095D01*
X84238095Y-68522857D01*
X84285714Y-68475238D01*
X84380952Y-68427619D01*
X84761904Y-68427619D01*
X84761904Y-69427619D01*
X84428571Y-69427619D01*
X84333333Y-69380000D01*
X84285714Y-69332380D01*
X84238095Y-69237142D01*
X84238095Y-69141904D01*
X84285714Y-69046666D01*
X84333333Y-68999047D01*
X84428571Y-68951428D01*
X84761904Y-68951428D01*
X83761904Y-68427619D02*
X83761904Y-69427619D01*
X83428571Y-68713333D01*
X83095238Y-69427619D01*
X83095238Y-68427619D01*
X82619047Y-68427619D02*
X82619047Y-69427619D01*
X82238095Y-69427619D01*
X82142857Y-69380000D01*
X82095238Y-69332380D01*
X82047619Y-69237142D01*
X82047619Y-69094285D01*
X82095238Y-68999047D01*
X82142857Y-68951428D01*
X82238095Y-68903809D01*
X82619047Y-68903809D01*
X81095238Y-68427619D02*
X81666666Y-68427619D01*
X81380952Y-68427619D02*
X81380952Y-69427619D01*
X81476190Y-69284761D01*
X81571428Y-69189523D01*
X81666666Y-69141904D01*
X80523809Y-68999047D02*
X80619047Y-69046666D01*
X80666666Y-69094285D01*
X80714285Y-69189523D01*
X80714285Y-69237142D01*
X80666666Y-69332380D01*
X80619047Y-69380000D01*
X80523809Y-69427619D01*
X80333333Y-69427619D01*
X80238095Y-69380000D01*
X80190476Y-69332380D01*
X80142857Y-69237142D01*
X80142857Y-69189523D01*
X80190476Y-69094285D01*
X80238095Y-69046666D01*
X80333333Y-68999047D01*
X80523809Y-68999047D01*
X80619047Y-68951428D01*
X80666666Y-68903809D01*
X80714285Y-68808571D01*
X80714285Y-68618095D01*
X80666666Y-68522857D01*
X80619047Y-68475238D01*
X80523809Y-68427619D01*
X80333333Y-68427619D01*
X80238095Y-68475238D01*
X80190476Y-68522857D01*
X80142857Y-68618095D01*
X80142857Y-68808571D01*
X80190476Y-68903809D01*
X80238095Y-68951428D01*
X80333333Y-68999047D01*
X79523809Y-69427619D02*
X79428571Y-69427619D01*
X79333333Y-69380000D01*
X79285714Y-69332380D01*
X79238095Y-69237142D01*
X79190476Y-69046666D01*
X79190476Y-68808571D01*
X79238095Y-68618095D01*
X79285714Y-68522857D01*
X79333333Y-68475238D01*
X79428571Y-68427619D01*
X79523809Y-68427619D01*
X79619047Y-68475238D01*
X79666666Y-68522857D01*
X79714285Y-68618095D01*
X79761904Y-68808571D01*
X79761904Y-69046666D01*
X79714285Y-69237142D01*
X79666666Y-69332380D01*
X79619047Y-69380000D01*
X79523809Y-69427619D01*
D10*
%TO.C,C9*%
X86916666Y-92178571D02*
X86892857Y-92202380D01*
X86821428Y-92226190D01*
X86773809Y-92226190D01*
X86702380Y-92202380D01*
X86654761Y-92154761D01*
X86630952Y-92107142D01*
X86607142Y-92011904D01*
X86607142Y-91940476D01*
X86630952Y-91845238D01*
X86654761Y-91797619D01*
X86702380Y-91750000D01*
X86773809Y-91726190D01*
X86821428Y-91726190D01*
X86892857Y-91750000D01*
X86916666Y-91773809D01*
X87154761Y-92226190D02*
X87250000Y-92226190D01*
X87297619Y-92202380D01*
X87321428Y-92178571D01*
X87369047Y-92107142D01*
X87392857Y-92011904D01*
X87392857Y-91821428D01*
X87369047Y-91773809D01*
X87345238Y-91750000D01*
X87297619Y-91726190D01*
X87202380Y-91726190D01*
X87154761Y-91750000D01*
X87130952Y-91773809D01*
X87107142Y-91821428D01*
X87107142Y-91940476D01*
X87130952Y-91988095D01*
X87154761Y-92011904D01*
X87202380Y-92035714D01*
X87297619Y-92035714D01*
X87345238Y-92011904D01*
X87369047Y-91988095D01*
X87392857Y-91940476D01*
D11*
%TO.C,U1*%
X93738095Y-86452380D02*
X93738095Y-87261904D01*
X93785714Y-87357142D01*
X93833333Y-87404761D01*
X93928571Y-87452380D01*
X94119047Y-87452380D01*
X94214285Y-87404761D01*
X94261904Y-87357142D01*
X94309523Y-87261904D01*
X94309523Y-86452380D01*
X95309523Y-87452380D02*
X94738095Y-87452380D01*
X95023809Y-87452380D02*
X95023809Y-86452380D01*
X94928571Y-86595238D01*
X94833333Y-86690476D01*
X94738095Y-86738095D01*
%TO.C,U2*%
X91238095Y-105952380D02*
X91238095Y-106761904D01*
X91285714Y-106857142D01*
X91333333Y-106904761D01*
X91428571Y-106952380D01*
X91619047Y-106952380D01*
X91714285Y-106904761D01*
X91761904Y-106857142D01*
X91809523Y-106761904D01*
X91809523Y-105952380D01*
X92238095Y-106047619D02*
X92285714Y-106000000D01*
X92380952Y-105952380D01*
X92619047Y-105952380D01*
X92714285Y-106000000D01*
X92761904Y-106047619D01*
X92809523Y-106142857D01*
X92809523Y-106238095D01*
X92761904Y-106380952D01*
X92190476Y-106952380D01*
X92809523Y-106952380D01*
%TO.C,J1*%
X108666666Y-63452380D02*
X108666666Y-64166666D01*
X108619047Y-64309523D01*
X108523809Y-64404761D01*
X108380952Y-64452380D01*
X108285714Y-64452380D01*
X109666666Y-64452380D02*
X109095238Y-64452380D01*
X109380952Y-64452380D02*
X109380952Y-63452380D01*
X109285714Y-63595238D01*
X109190476Y-63690476D01*
X109095238Y-63738095D01*
D10*
%TO.C,R5*%
X90086666Y-67806190D02*
X89920000Y-67568095D01*
X89800952Y-67806190D02*
X89800952Y-67306190D01*
X89991428Y-67306190D01*
X90039047Y-67330000D01*
X90062857Y-67353809D01*
X90086666Y-67401428D01*
X90086666Y-67472857D01*
X90062857Y-67520476D01*
X90039047Y-67544285D01*
X89991428Y-67568095D01*
X89800952Y-67568095D01*
X90539047Y-67306190D02*
X90300952Y-67306190D01*
X90277142Y-67544285D01*
X90300952Y-67520476D01*
X90348571Y-67496666D01*
X90467619Y-67496666D01*
X90515238Y-67520476D01*
X90539047Y-67544285D01*
X90562857Y-67591904D01*
X90562857Y-67710952D01*
X90539047Y-67758571D01*
X90515238Y-67782380D01*
X90467619Y-67806190D01*
X90348571Y-67806190D01*
X90300952Y-67782380D01*
X90277142Y-67758571D01*
%TO.C,C2*%
X86416666Y-82198571D02*
X86392857Y-82222380D01*
X86321428Y-82246190D01*
X86273809Y-82246190D01*
X86202380Y-82222380D01*
X86154761Y-82174761D01*
X86130952Y-82127142D01*
X86107142Y-82031904D01*
X86107142Y-81960476D01*
X86130952Y-81865238D01*
X86154761Y-81817619D01*
X86202380Y-81770000D01*
X86273809Y-81746190D01*
X86321428Y-81746190D01*
X86392857Y-81770000D01*
X86416666Y-81793809D01*
X86607142Y-81793809D02*
X86630952Y-81770000D01*
X86678571Y-81746190D01*
X86797619Y-81746190D01*
X86845238Y-81770000D01*
X86869047Y-81793809D01*
X86892857Y-81841428D01*
X86892857Y-81889047D01*
X86869047Y-81960476D01*
X86583333Y-82246190D01*
X86892857Y-82246190D01*
%TO.C,C7*%
X87678571Y-82583333D02*
X87702380Y-82607142D01*
X87726190Y-82678571D01*
X87726190Y-82726190D01*
X87702380Y-82797619D01*
X87654761Y-82845238D01*
X87607142Y-82869047D01*
X87511904Y-82892857D01*
X87440476Y-82892857D01*
X87345238Y-82869047D01*
X87297619Y-82845238D01*
X87250000Y-82797619D01*
X87226190Y-82726190D01*
X87226190Y-82678571D01*
X87250000Y-82607142D01*
X87273809Y-82583333D01*
X87226190Y-82416666D02*
X87226190Y-82083333D01*
X87726190Y-82297619D01*
%TO.C,C6*%
X86524502Y-90178571D02*
X86500693Y-90202380D01*
X86429264Y-90226190D01*
X86381645Y-90226190D01*
X86310216Y-90202380D01*
X86262597Y-90154761D01*
X86238788Y-90107142D01*
X86214978Y-90011904D01*
X86214978Y-89940476D01*
X86238788Y-89845238D01*
X86262597Y-89797619D01*
X86310216Y-89750000D01*
X86381645Y-89726190D01*
X86429264Y-89726190D01*
X86500693Y-89750000D01*
X86524502Y-89773809D01*
X86953074Y-89726190D02*
X86857836Y-89726190D01*
X86810216Y-89750000D01*
X86786407Y-89773809D01*
X86738788Y-89845238D01*
X86714978Y-89940476D01*
X86714978Y-90130952D01*
X86738788Y-90178571D01*
X86762597Y-90202380D01*
X86810216Y-90226190D01*
X86905455Y-90226190D01*
X86953074Y-90202380D01*
X86976883Y-90178571D01*
X87000693Y-90130952D01*
X87000693Y-90011904D01*
X86976883Y-89964285D01*
X86953074Y-89940476D01*
X86905455Y-89916666D01*
X86810216Y-89916666D01*
X86762597Y-89940476D01*
X86738788Y-89964285D01*
X86714978Y-90011904D01*
D11*
%TO.C,U3*%
X112988095Y-89517380D02*
X112988095Y-90326904D01*
X113035714Y-90422142D01*
X113083333Y-90469761D01*
X113178571Y-90517380D01*
X113369047Y-90517380D01*
X113464285Y-90469761D01*
X113511904Y-90422142D01*
X113559523Y-90326904D01*
X113559523Y-89517380D01*
X113940476Y-89517380D02*
X114559523Y-89517380D01*
X114226190Y-89898333D01*
X114369047Y-89898333D01*
X114464285Y-89945952D01*
X114511904Y-89993571D01*
X114559523Y-90088809D01*
X114559523Y-90326904D01*
X114511904Y-90422142D01*
X114464285Y-90469761D01*
X114369047Y-90517380D01*
X114083333Y-90517380D01*
X113988095Y-90469761D01*
X113940476Y-90422142D01*
D10*
%TO.C,R7*%
X80416666Y-79896190D02*
X80250000Y-79658095D01*
X80130952Y-79896190D02*
X80130952Y-79396190D01*
X80321428Y-79396190D01*
X80369047Y-79420000D01*
X80392857Y-79443809D01*
X80416666Y-79491428D01*
X80416666Y-79562857D01*
X80392857Y-79610476D01*
X80369047Y-79634285D01*
X80321428Y-79658095D01*
X80130952Y-79658095D01*
X80583333Y-79396190D02*
X80916666Y-79396190D01*
X80702380Y-79896190D01*
%TO.C,C4*%
X102624502Y-115178571D02*
X102600693Y-115202380D01*
X102529264Y-115226190D01*
X102481645Y-115226190D01*
X102410216Y-115202380D01*
X102362597Y-115154761D01*
X102338788Y-115107142D01*
X102314978Y-115011904D01*
X102314978Y-114940476D01*
X102338788Y-114845238D01*
X102362597Y-114797619D01*
X102410216Y-114750000D01*
X102481645Y-114726190D01*
X102529264Y-114726190D01*
X102600693Y-114750000D01*
X102624502Y-114773809D01*
X103053074Y-114892857D02*
X103053074Y-115226190D01*
X102934026Y-114702380D02*
X102814978Y-115059523D01*
X103124502Y-115059523D01*
D11*
%TO.C,BZ1*%
X121619047Y-63428571D02*
X121761904Y-63476190D01*
X121809523Y-63523809D01*
X121857142Y-63619047D01*
X121857142Y-63761904D01*
X121809523Y-63857142D01*
X121761904Y-63904761D01*
X121666666Y-63952380D01*
X121285714Y-63952380D01*
X121285714Y-62952380D01*
X121619047Y-62952380D01*
X121714285Y-63000000D01*
X121761904Y-63047619D01*
X121809523Y-63142857D01*
X121809523Y-63238095D01*
X121761904Y-63333333D01*
X121714285Y-63380952D01*
X121619047Y-63428571D01*
X121285714Y-63428571D01*
X122190476Y-62952380D02*
X122857142Y-62952380D01*
X122190476Y-63952380D01*
X122857142Y-63952380D01*
X123761904Y-63952380D02*
X123190476Y-63952380D01*
X123476190Y-63952380D02*
X123476190Y-62952380D01*
X123380952Y-63095238D01*
X123285714Y-63190476D01*
X123190476Y-63238095D01*
X111809047Y-68031428D02*
X112570952Y-68031428D01*
X112190000Y-68412380D02*
X112190000Y-67650476D01*
%TO.C,J4*%
X94916666Y-62952380D02*
X94916666Y-63666666D01*
X94869047Y-63809523D01*
X94773809Y-63904761D01*
X94630952Y-63952380D01*
X94535714Y-63952380D01*
X95821428Y-63285714D02*
X95821428Y-63952380D01*
X95583333Y-62904761D02*
X95345238Y-63619047D01*
X95964285Y-63619047D01*
D10*
%TO.C,R2*%
X100263025Y-67536190D02*
X100096359Y-67298095D01*
X99977311Y-67536190D02*
X99977311Y-67036190D01*
X100167787Y-67036190D01*
X100215406Y-67060000D01*
X100239216Y-67083809D01*
X100263025Y-67131428D01*
X100263025Y-67202857D01*
X100239216Y-67250476D01*
X100215406Y-67274285D01*
X100167787Y-67298095D01*
X99977311Y-67298095D01*
X100453501Y-67083809D02*
X100477311Y-67060000D01*
X100524930Y-67036190D01*
X100643978Y-67036190D01*
X100691597Y-67060000D01*
X100715406Y-67083809D01*
X100739216Y-67131428D01*
X100739216Y-67179047D01*
X100715406Y-67250476D01*
X100429692Y-67536190D01*
X100739216Y-67536190D01*
%TO.C,C8*%
X89916666Y-80678571D02*
X89892857Y-80702380D01*
X89821428Y-80726190D01*
X89773809Y-80726190D01*
X89702380Y-80702380D01*
X89654761Y-80654761D01*
X89630952Y-80607142D01*
X89607142Y-80511904D01*
X89607142Y-80440476D01*
X89630952Y-80345238D01*
X89654761Y-80297619D01*
X89702380Y-80250000D01*
X89773809Y-80226190D01*
X89821428Y-80226190D01*
X89892857Y-80250000D01*
X89916666Y-80273809D01*
X90202380Y-80440476D02*
X90154761Y-80416666D01*
X90130952Y-80392857D01*
X90107142Y-80345238D01*
X90107142Y-80321428D01*
X90130952Y-80273809D01*
X90154761Y-80250000D01*
X90202380Y-80226190D01*
X90297619Y-80226190D01*
X90345238Y-80250000D01*
X90369047Y-80273809D01*
X90392857Y-80321428D01*
X90392857Y-80345238D01*
X90369047Y-80392857D01*
X90345238Y-80416666D01*
X90297619Y-80440476D01*
X90202380Y-80440476D01*
X90154761Y-80464285D01*
X90130952Y-80488095D01*
X90107142Y-80535714D01*
X90107142Y-80630952D01*
X90130952Y-80678571D01*
X90154761Y-80702380D01*
X90202380Y-80726190D01*
X90297619Y-80726190D01*
X90345238Y-80702380D01*
X90369047Y-80678571D01*
X90392857Y-80630952D01*
X90392857Y-80535714D01*
X90369047Y-80488095D01*
X90345238Y-80464285D01*
X90297619Y-80440476D01*
%TO.C,D5*%
X88370952Y-71346190D02*
X88370952Y-70846190D01*
X88490000Y-70846190D01*
X88561428Y-70870000D01*
X88609047Y-70917619D01*
X88632857Y-70965238D01*
X88656666Y-71060476D01*
X88656666Y-71131904D01*
X88632857Y-71227142D01*
X88609047Y-71274761D01*
X88561428Y-71322380D01*
X88490000Y-71346190D01*
X88370952Y-71346190D01*
X89109047Y-70846190D02*
X88870952Y-70846190D01*
X88847142Y-71084285D01*
X88870952Y-71060476D01*
X88918571Y-71036666D01*
X89037619Y-71036666D01*
X89085238Y-71060476D01*
X89109047Y-71084285D01*
X89132857Y-71131904D01*
X89132857Y-71250952D01*
X89109047Y-71298571D01*
X89085238Y-71322380D01*
X89037619Y-71346190D01*
X88918571Y-71346190D01*
X88870952Y-71322380D01*
X88847142Y-71298571D01*
%TO.C,D2*%
X101530952Y-70076190D02*
X101530952Y-69576190D01*
X101650000Y-69576190D01*
X101721428Y-69600000D01*
X101769047Y-69647619D01*
X101792857Y-69695238D01*
X101816666Y-69790476D01*
X101816666Y-69861904D01*
X101792857Y-69957142D01*
X101769047Y-70004761D01*
X101721428Y-70052380D01*
X101650000Y-70076190D01*
X101530952Y-70076190D01*
X102007142Y-69623809D02*
X102030952Y-69600000D01*
X102078571Y-69576190D01*
X102197619Y-69576190D01*
X102245238Y-69600000D01*
X102269047Y-69623809D01*
X102292857Y-69671428D01*
X102292857Y-69719047D01*
X102269047Y-69790476D01*
X101983333Y-70076190D01*
X102292857Y-70076190D01*
%TO.C,R10*%
X104678571Y-78226190D02*
X104511904Y-77988095D01*
X104392857Y-78226190D02*
X104392857Y-77726190D01*
X104583333Y-77726190D01*
X104630952Y-77750000D01*
X104654761Y-77773809D01*
X104678571Y-77821428D01*
X104678571Y-77892857D01*
X104654761Y-77940476D01*
X104630952Y-77964285D01*
X104583333Y-77988095D01*
X104392857Y-77988095D01*
X105154761Y-78226190D02*
X104869047Y-78226190D01*
X105011904Y-78226190D02*
X105011904Y-77726190D01*
X104964285Y-77797619D01*
X104916666Y-77845238D01*
X104869047Y-77869047D01*
X105464285Y-77726190D02*
X105511904Y-77726190D01*
X105559523Y-77750000D01*
X105583333Y-77773809D01*
X105607142Y-77821428D01*
X105630952Y-77916666D01*
X105630952Y-78035714D01*
X105607142Y-78130952D01*
X105583333Y-78178571D01*
X105559523Y-78202380D01*
X105511904Y-78226190D01*
X105464285Y-78226190D01*
X105416666Y-78202380D01*
X105392857Y-78178571D01*
X105369047Y-78130952D01*
X105345238Y-78035714D01*
X105345238Y-77916666D01*
X105369047Y-77821428D01*
X105392857Y-77773809D01*
X105416666Y-77750000D01*
X105464285Y-77726190D01*
%TO.C,R9*%
X113416666Y-98726190D02*
X113250000Y-98488095D01*
X113130952Y-98726190D02*
X113130952Y-98226190D01*
X113321428Y-98226190D01*
X113369047Y-98250000D01*
X113392857Y-98273809D01*
X113416666Y-98321428D01*
X113416666Y-98392857D01*
X113392857Y-98440476D01*
X113369047Y-98464285D01*
X113321428Y-98488095D01*
X113130952Y-98488095D01*
X113654761Y-98726190D02*
X113750000Y-98726190D01*
X113797619Y-98702380D01*
X113821428Y-98678571D01*
X113869047Y-98607142D01*
X113892857Y-98511904D01*
X113892857Y-98321428D01*
X113869047Y-98273809D01*
X113845238Y-98250000D01*
X113797619Y-98226190D01*
X113702380Y-98226190D01*
X113654761Y-98250000D01*
X113630952Y-98273809D01*
X113607142Y-98321428D01*
X113607142Y-98440476D01*
X113630952Y-98488095D01*
X113654761Y-98511904D01*
X113702380Y-98535714D01*
X113797619Y-98535714D01*
X113845238Y-98511904D01*
X113869047Y-98488095D01*
X113892857Y-98440476D01*
%TO.C,R4*%
X97416666Y-78556190D02*
X97250000Y-78318095D01*
X97130952Y-78556190D02*
X97130952Y-78056190D01*
X97321428Y-78056190D01*
X97369047Y-78080000D01*
X97392857Y-78103809D01*
X97416666Y-78151428D01*
X97416666Y-78222857D01*
X97392857Y-78270476D01*
X97369047Y-78294285D01*
X97321428Y-78318095D01*
X97130952Y-78318095D01*
X97845238Y-78222857D02*
X97845238Y-78556190D01*
X97726190Y-78032380D02*
X97607142Y-78389523D01*
X97916666Y-78389523D01*
%TO.C,FB1*%
X88083333Y-93964285D02*
X87916666Y-93964285D01*
X87916666Y-94226190D02*
X87916666Y-93726190D01*
X88154761Y-93726190D01*
X88511904Y-93964285D02*
X88583333Y-93988095D01*
X88607142Y-94011904D01*
X88630952Y-94059523D01*
X88630952Y-94130952D01*
X88607142Y-94178571D01*
X88583333Y-94202380D01*
X88535714Y-94226190D01*
X88345238Y-94226190D01*
X88345238Y-93726190D01*
X88511904Y-93726190D01*
X88559523Y-93750000D01*
X88583333Y-93773809D01*
X88607142Y-93821428D01*
X88607142Y-93869047D01*
X88583333Y-93916666D01*
X88559523Y-93940476D01*
X88511904Y-93964285D01*
X88345238Y-93964285D01*
X89107142Y-94226190D02*
X88821428Y-94226190D01*
X88964285Y-94226190D02*
X88964285Y-93726190D01*
X88916666Y-93797619D01*
X88869047Y-93845238D01*
X88821428Y-93869047D01*
%TO.C,R8*%
X118416666Y-98726190D02*
X118250000Y-98488095D01*
X118130952Y-98726190D02*
X118130952Y-98226190D01*
X118321428Y-98226190D01*
X118369047Y-98250000D01*
X118392857Y-98273809D01*
X118416666Y-98321428D01*
X118416666Y-98392857D01*
X118392857Y-98440476D01*
X118369047Y-98464285D01*
X118321428Y-98488095D01*
X118130952Y-98488095D01*
X118702380Y-98440476D02*
X118654761Y-98416666D01*
X118630952Y-98392857D01*
X118607142Y-98345238D01*
X118607142Y-98321428D01*
X118630952Y-98273809D01*
X118654761Y-98250000D01*
X118702380Y-98226190D01*
X118797619Y-98226190D01*
X118845238Y-98250000D01*
X118869047Y-98273809D01*
X118892857Y-98321428D01*
X118892857Y-98345238D01*
X118869047Y-98392857D01*
X118845238Y-98416666D01*
X118797619Y-98440476D01*
X118702380Y-98440476D01*
X118654761Y-98464285D01*
X118630952Y-98488095D01*
X118607142Y-98535714D01*
X118607142Y-98630952D01*
X118630952Y-98678571D01*
X118654761Y-98702380D01*
X118702380Y-98726190D01*
X118797619Y-98726190D01*
X118845238Y-98702380D01*
X118869047Y-98678571D01*
X118892857Y-98630952D01*
X118892857Y-98535714D01*
X118869047Y-98488095D01*
X118845238Y-98464285D01*
X118797619Y-98440476D01*
%TO.C,C5*%
X86416666Y-87198571D02*
X86392857Y-87222380D01*
X86321428Y-87246190D01*
X86273809Y-87246190D01*
X86202380Y-87222380D01*
X86154761Y-87174761D01*
X86130952Y-87127142D01*
X86107142Y-87031904D01*
X86107142Y-86960476D01*
X86130952Y-86865238D01*
X86154761Y-86817619D01*
X86202380Y-86770000D01*
X86273809Y-86746190D01*
X86321428Y-86746190D01*
X86392857Y-86770000D01*
X86416666Y-86793809D01*
X86869047Y-86746190D02*
X86630952Y-86746190D01*
X86607142Y-86984285D01*
X86630952Y-86960476D01*
X86678571Y-86936666D01*
X86797619Y-86936666D01*
X86845238Y-86960476D01*
X86869047Y-86984285D01*
X86892857Y-87031904D01*
X86892857Y-87150952D01*
X86869047Y-87198571D01*
X86845238Y-87222380D01*
X86797619Y-87246190D01*
X86678571Y-87246190D01*
X86630952Y-87222380D01*
X86607142Y-87198571D01*
D11*
%TO.C,J2*%
X78166666Y-81322380D02*
X78166666Y-82036666D01*
X78119047Y-82179523D01*
X78023809Y-82274761D01*
X77880952Y-82322380D01*
X77785714Y-82322380D01*
X78595238Y-81417619D02*
X78642857Y-81370000D01*
X78738095Y-81322380D01*
X78976190Y-81322380D01*
X79071428Y-81370000D01*
X79119047Y-81417619D01*
X79166666Y-81512857D01*
X79166666Y-81608095D01*
X79119047Y-81750952D01*
X78547619Y-82322380D01*
X79166666Y-82322380D01*
D10*
%TO.C,Y1*%
X85261904Y-86488095D02*
X85261904Y-86726190D01*
X85095238Y-86226190D02*
X85261904Y-86488095D01*
X85428571Y-86226190D01*
X85857142Y-86726190D02*
X85571428Y-86726190D01*
X85714285Y-86726190D02*
X85714285Y-86226190D01*
X85666666Y-86297619D01*
X85619047Y-86345238D01*
X85571428Y-86369047D01*
%TO.C,C11*%
X90178571Y-94178571D02*
X90154761Y-94202380D01*
X90083333Y-94226190D01*
X90035714Y-94226190D01*
X89964285Y-94202380D01*
X89916666Y-94154761D01*
X89892857Y-94107142D01*
X89869047Y-94011904D01*
X89869047Y-93940476D01*
X89892857Y-93845238D01*
X89916666Y-93797619D01*
X89964285Y-93750000D01*
X90035714Y-93726190D01*
X90083333Y-93726190D01*
X90154761Y-93750000D01*
X90178571Y-93773809D01*
X90654761Y-94226190D02*
X90369047Y-94226190D01*
X90511904Y-94226190D02*
X90511904Y-93726190D01*
X90464285Y-93797619D01*
X90416666Y-93845238D01*
X90369047Y-93869047D01*
X91130952Y-94226190D02*
X90845238Y-94226190D01*
X90988095Y-94226190D02*
X90988095Y-93726190D01*
X90940476Y-93797619D01*
X90892857Y-93845238D01*
X90845238Y-93869047D01*
%TO.C,C1*%
X89416666Y-78678571D02*
X89392857Y-78702380D01*
X89321428Y-78726190D01*
X89273809Y-78726190D01*
X89202380Y-78702380D01*
X89154761Y-78654761D01*
X89130952Y-78607142D01*
X89107142Y-78511904D01*
X89107142Y-78440476D01*
X89130952Y-78345238D01*
X89154761Y-78297619D01*
X89202380Y-78250000D01*
X89273809Y-78226190D01*
X89321428Y-78226190D01*
X89392857Y-78250000D01*
X89416666Y-78273809D01*
X89892857Y-78726190D02*
X89607142Y-78726190D01*
X89750000Y-78726190D02*
X89750000Y-78226190D01*
X89702380Y-78297619D01*
X89654761Y-78345238D01*
X89607142Y-78369047D01*
%TO.C,R3*%
X77416666Y-79726190D02*
X77250000Y-79488095D01*
X77130952Y-79726190D02*
X77130952Y-79226190D01*
X77321428Y-79226190D01*
X77369047Y-79250000D01*
X77392857Y-79273809D01*
X77416666Y-79321428D01*
X77416666Y-79392857D01*
X77392857Y-79440476D01*
X77369047Y-79464285D01*
X77321428Y-79488095D01*
X77130952Y-79488095D01*
X77583333Y-79226190D02*
X77892857Y-79226190D01*
X77726190Y-79416666D01*
X77797619Y-79416666D01*
X77845238Y-79440476D01*
X77869047Y-79464285D01*
X77892857Y-79511904D01*
X77892857Y-79630952D01*
X77869047Y-79678571D01*
X77845238Y-79702380D01*
X77797619Y-79726190D01*
X77654761Y-79726190D01*
X77607142Y-79702380D01*
X77583333Y-79678571D01*
D11*
%TO.C,U4*%
X113538095Y-104317380D02*
X113538095Y-105126904D01*
X113585714Y-105222142D01*
X113633333Y-105269761D01*
X113728571Y-105317380D01*
X113919047Y-105317380D01*
X114014285Y-105269761D01*
X114061904Y-105222142D01*
X114109523Y-105126904D01*
X114109523Y-104317380D01*
X115014285Y-104650714D02*
X115014285Y-105317380D01*
X114776190Y-104269761D02*
X114538095Y-104984047D01*
X115157142Y-104984047D01*
X111038095Y-107452380D02*
X111038095Y-106452380D01*
X111371428Y-107166666D01*
X111704761Y-106452380D01*
X111704761Y-107452380D01*
X112180952Y-107452380D02*
X112180952Y-106452380D01*
X112561904Y-106452380D01*
X112657142Y-106500000D01*
X112704761Y-106547619D01*
X112752380Y-106642857D01*
X112752380Y-106785714D01*
X112704761Y-106880952D01*
X112657142Y-106928571D01*
X112561904Y-106976190D01*
X112180952Y-106976190D01*
X113180952Y-106452380D02*
X113180952Y-107261904D01*
X113228571Y-107357142D01*
X113276190Y-107404761D01*
X113371428Y-107452380D01*
X113561904Y-107452380D01*
X113657142Y-107404761D01*
X113704761Y-107357142D01*
X113752380Y-107261904D01*
X113752380Y-106452380D01*
X114657142Y-106452380D02*
X114466666Y-106452380D01*
X114371428Y-106500000D01*
X114323809Y-106547619D01*
X114228571Y-106690476D01*
X114180952Y-106880952D01*
X114180952Y-107261904D01*
X114228571Y-107357142D01*
X114276190Y-107404761D01*
X114371428Y-107452380D01*
X114561904Y-107452380D01*
X114657142Y-107404761D01*
X114704761Y-107357142D01*
X114752380Y-107261904D01*
X114752380Y-107023809D01*
X114704761Y-106928571D01*
X114657142Y-106880952D01*
X114561904Y-106833333D01*
X114371428Y-106833333D01*
X114276190Y-106880952D01*
X114228571Y-106928571D01*
X114180952Y-107023809D01*
X115371428Y-106452380D02*
X115466666Y-106452380D01*
X115561904Y-106500000D01*
X115609523Y-106547619D01*
X115657142Y-106642857D01*
X115704761Y-106833333D01*
X115704761Y-107071428D01*
X115657142Y-107261904D01*
X115609523Y-107357142D01*
X115561904Y-107404761D01*
X115466666Y-107452380D01*
X115371428Y-107452380D01*
X115276190Y-107404761D01*
X115228571Y-107357142D01*
X115180952Y-107261904D01*
X115133333Y-107071428D01*
X115133333Y-106833333D01*
X115180952Y-106642857D01*
X115228571Y-106547619D01*
X115276190Y-106500000D01*
X115371428Y-106452380D01*
X116609523Y-106452380D02*
X116133333Y-106452380D01*
X116085714Y-106928571D01*
X116133333Y-106880952D01*
X116228571Y-106833333D01*
X116466666Y-106833333D01*
X116561904Y-106880952D01*
X116609523Y-106928571D01*
X116657142Y-107023809D01*
X116657142Y-107261904D01*
X116609523Y-107357142D01*
X116561904Y-107404761D01*
X116466666Y-107452380D01*
X116228571Y-107452380D01*
X116133333Y-107404761D01*
X116085714Y-107357142D01*
X117276190Y-106452380D02*
X117371428Y-106452380D01*
X117466666Y-106500000D01*
X117514285Y-106547619D01*
X117561904Y-106642857D01*
X117609523Y-106833333D01*
X117609523Y-107071428D01*
X117561904Y-107261904D01*
X117514285Y-107357142D01*
X117466666Y-107404761D01*
X117371428Y-107452380D01*
X117276190Y-107452380D01*
X117180952Y-107404761D01*
X117133333Y-107357142D01*
X117085714Y-107261904D01*
X117038095Y-107071428D01*
X117038095Y-106833333D01*
X117085714Y-106642857D01*
X117133333Y-106547619D01*
X117180952Y-106500000D01*
X117276190Y-106452380D01*
D10*
%TO.C,R11*%
X106678571Y-73556190D02*
X106511904Y-73318095D01*
X106392857Y-73556190D02*
X106392857Y-73056190D01*
X106583333Y-73056190D01*
X106630952Y-73080000D01*
X106654761Y-73103809D01*
X106678571Y-73151428D01*
X106678571Y-73222857D01*
X106654761Y-73270476D01*
X106630952Y-73294285D01*
X106583333Y-73318095D01*
X106392857Y-73318095D01*
X107154761Y-73556190D02*
X106869047Y-73556190D01*
X107011904Y-73556190D02*
X107011904Y-73056190D01*
X106964285Y-73127619D01*
X106916666Y-73175238D01*
X106869047Y-73199047D01*
X107630952Y-73556190D02*
X107345238Y-73556190D01*
X107488095Y-73556190D02*
X107488095Y-73056190D01*
X107440476Y-73127619D01*
X107392857Y-73175238D01*
X107345238Y-73199047D01*
%TO.C,R6*%
X93136666Y-67636190D02*
X92970000Y-67398095D01*
X92850952Y-67636190D02*
X92850952Y-67136190D01*
X93041428Y-67136190D01*
X93089047Y-67160000D01*
X93112857Y-67183809D01*
X93136666Y-67231428D01*
X93136666Y-67302857D01*
X93112857Y-67350476D01*
X93089047Y-67374285D01*
X93041428Y-67398095D01*
X92850952Y-67398095D01*
X93565238Y-67136190D02*
X93470000Y-67136190D01*
X93422380Y-67160000D01*
X93398571Y-67183809D01*
X93350952Y-67255238D01*
X93327142Y-67350476D01*
X93327142Y-67540952D01*
X93350952Y-67588571D01*
X93374761Y-67612380D01*
X93422380Y-67636190D01*
X93517619Y-67636190D01*
X93565238Y-67612380D01*
X93589047Y-67588571D01*
X93612857Y-67540952D01*
X93612857Y-67421904D01*
X93589047Y-67374285D01*
X93565238Y-67350476D01*
X93517619Y-67326666D01*
X93422380Y-67326666D01*
X93374761Y-67350476D01*
X93350952Y-67374285D01*
X93327142Y-67421904D01*
%TO.C,C10*%
X97178571Y-94178571D02*
X97154761Y-94202380D01*
X97083333Y-94226190D01*
X97035714Y-94226190D01*
X96964285Y-94202380D01*
X96916666Y-94154761D01*
X96892857Y-94107142D01*
X96869047Y-94011904D01*
X96869047Y-93940476D01*
X96892857Y-93845238D01*
X96916666Y-93797619D01*
X96964285Y-93750000D01*
X97035714Y-93726190D01*
X97083333Y-93726190D01*
X97154761Y-93750000D01*
X97178571Y-93773809D01*
X97654761Y-94226190D02*
X97369047Y-94226190D01*
X97511904Y-94226190D02*
X97511904Y-93726190D01*
X97464285Y-93797619D01*
X97416666Y-93845238D01*
X97369047Y-93869047D01*
X97964285Y-93726190D02*
X98011904Y-93726190D01*
X98059523Y-93750000D01*
X98083333Y-93773809D01*
X98107142Y-93821428D01*
X98130952Y-93916666D01*
X98130952Y-94035714D01*
X98107142Y-94130952D01*
X98083333Y-94178571D01*
X98059523Y-94202380D01*
X98011904Y-94226190D01*
X97964285Y-94226190D01*
X97916666Y-94202380D01*
X97892857Y-94178571D01*
X97869047Y-94130952D01*
X97845238Y-94035714D01*
X97845238Y-93916666D01*
X97869047Y-93821428D01*
X97892857Y-93773809D01*
X97916666Y-93750000D01*
X97964285Y-93726190D01*
%TO.C,C3*%
X87678571Y-88083333D02*
X87702380Y-88107142D01*
X87726190Y-88178571D01*
X87726190Y-88226190D01*
X87702380Y-88297619D01*
X87654761Y-88345238D01*
X87607142Y-88369047D01*
X87511904Y-88392857D01*
X87440476Y-88392857D01*
X87345238Y-88369047D01*
X87297619Y-88345238D01*
X87250000Y-88297619D01*
X87226190Y-88226190D01*
X87226190Y-88178571D01*
X87250000Y-88107142D01*
X87273809Y-88083333D01*
X87226190Y-87916666D02*
X87226190Y-87607142D01*
X87416666Y-87773809D01*
X87416666Y-87702380D01*
X87440476Y-87654761D01*
X87464285Y-87630952D01*
X87511904Y-87607142D01*
X87630952Y-87607142D01*
X87678571Y-87630952D01*
X87702380Y-87654761D01*
X87726190Y-87702380D01*
X87726190Y-87845238D01*
X87702380Y-87892857D01*
X87678571Y-87916666D01*
D13*
%TO.C,C12*%
X102492164Y-110130000D02*
X102707836Y-110130000D01*
X102492164Y-110850000D02*
X102707836Y-110850000D01*
%TO.C,D6*%
X93445000Y-72605000D02*
X93445000Y-70320000D01*
X91975000Y-70320000D02*
X91975000Y-72605000D01*
X91975000Y-72605000D02*
X93445000Y-72605000D01*
%TO.C,D3*%
X102700000Y-77235000D02*
X104985000Y-77235000D01*
X104985000Y-75765000D02*
X102700000Y-75765000D01*
X104985000Y-77235000D02*
X104985000Y-75765000D01*
%TO.C,U5*%
X87000000Y-76500000D02*
X77000000Y-76500000D01*
X77000000Y-76500000D02*
X77000000Y-63500000D01*
X77000000Y-63500000D02*
X87000000Y-63500000D01*
X87000000Y-63500000D02*
X87000000Y-76500000D01*
%TO.C,C9*%
X86607836Y-92640000D02*
X86392164Y-92640000D01*
X86607836Y-93360000D02*
X86392164Y-93360000D01*
%TO.C,U1*%
X97660000Y-90110000D02*
X98110000Y-90110000D01*
X91340000Y-90110000D02*
X90890000Y-90110000D01*
X97660000Y-82890000D02*
X98110000Y-82890000D01*
X98110000Y-82890000D02*
X98110000Y-83340000D01*
X90890000Y-83340000D02*
X89600000Y-83340000D01*
X90890000Y-82890000D02*
X90890000Y-83340000D01*
X98110000Y-90110000D02*
X98110000Y-89660000D01*
X91340000Y-82890000D02*
X90890000Y-82890000D01*
X90890000Y-90110000D02*
X90890000Y-89660000D01*
D11*
%TO.C,U2*%
X100250000Y-96750000D02*
X83750000Y-96750000D01*
X83750000Y-96750000D02*
X83750000Y-97500000D01*
X100250000Y-114250000D02*
X83750000Y-114250000D01*
X83750000Y-114250000D02*
X83750000Y-113500000D01*
X100250000Y-113500000D02*
X100250000Y-114250000D01*
X100250000Y-97500000D02*
X100250000Y-96750000D01*
D13*
%TO.C,J1*%
X96870000Y-64975000D02*
X96870000Y-63645000D01*
X99470000Y-66305000D02*
X107150000Y-66305000D01*
X99470000Y-66305000D02*
X99470000Y-63645000D01*
X96870000Y-63645000D02*
X98200000Y-63645000D01*
X107150000Y-66305000D02*
X107150000Y-63645000D01*
X99470000Y-63645000D02*
X107150000Y-63645000D01*
%TO.C,R5*%
X90323641Y-68200000D02*
X90016359Y-68200000D01*
X90323641Y-68960000D02*
X90016359Y-68960000D01*
%TO.C,C2*%
X86140000Y-83587836D02*
X86140000Y-83372164D01*
X86860000Y-83587836D02*
X86860000Y-83372164D01*
%TO.C,C7*%
X88860000Y-83107836D02*
X88860000Y-82892164D01*
X88140000Y-83107836D02*
X88140000Y-82892164D01*
%TO.C,C6*%
X86607836Y-91360000D02*
X86392164Y-91360000D01*
X86607836Y-90640000D02*
X86392164Y-90640000D01*
%TO.C,R7*%
X80653641Y-78880000D02*
X80346359Y-78880000D01*
X80653641Y-78120000D02*
X80346359Y-78120000D01*
%TO.C,C4*%
X102492164Y-113390000D02*
X102707836Y-113390000D01*
X102492164Y-112670000D02*
X102707836Y-112670000D01*
%TO.C,BZ1*%
X123600000Y-70500000D02*
G75*
G03*
X123600000Y-70500000I-7600000J0D01*
G01*
%TO.C,J4*%
X91440000Y-66100000D02*
X91440000Y-63440000D01*
X91440000Y-66100000D02*
X94040000Y-66100000D01*
X91440000Y-63440000D02*
X94040000Y-63440000D01*
X88840000Y-64770000D02*
X88840000Y-63440000D01*
X88840000Y-63440000D02*
X90170000Y-63440000D01*
X94040000Y-66100000D02*
X94040000Y-63440000D01*
%TO.C,R2*%
X100346359Y-68120000D02*
X100653641Y-68120000D01*
X100346359Y-68880000D02*
X100653641Y-68880000D01*
%TO.C,C8*%
X91912164Y-80860000D02*
X92127836Y-80860000D01*
X91912164Y-80140000D02*
X92127836Y-80140000D01*
%TO.C,D5*%
X90905000Y-72605000D02*
X90905000Y-70320000D01*
X89435000Y-72605000D02*
X90905000Y-72605000D01*
X89435000Y-70320000D02*
X89435000Y-72605000D01*
%TO.C,D2*%
X101332500Y-71235000D02*
X101332500Y-69765000D01*
X101332500Y-69765000D02*
X99047500Y-69765000D01*
X99047500Y-71235000D02*
X101332500Y-71235000D01*
%TO.C,R10*%
X103163641Y-78120000D02*
X102856359Y-78120000D01*
X103163641Y-78880000D02*
X102856359Y-78880000D01*
%TO.C,R9*%
X114846359Y-97620000D02*
X115153641Y-97620000D01*
X114846359Y-98380000D02*
X115153641Y-98380000D01*
%TO.C,R4*%
X97346359Y-79120000D02*
X97653641Y-79120000D01*
X97346359Y-79880000D02*
X97653641Y-79880000D01*
%TO.C,FB1*%
X87990000Y-91837221D02*
X87990000Y-92162779D01*
X89010000Y-91837221D02*
X89010000Y-92162779D01*
%TO.C,R8*%
X117153641Y-98380000D02*
X116846359Y-98380000D01*
X117153641Y-97620000D02*
X116846359Y-97620000D01*
%TO.C,C5*%
X86860000Y-85607836D02*
X86860000Y-85392164D01*
X86140000Y-85607836D02*
X86140000Y-85392164D01*
%TO.C,J2*%
X77170000Y-85910000D02*
X79830000Y-85910000D01*
X77170000Y-85910000D02*
X77170000Y-113910000D01*
X79830000Y-85910000D02*
X79830000Y-113910000D01*
X79830000Y-83310000D02*
X79830000Y-84640000D01*
X77170000Y-113910000D02*
X79830000Y-113910000D01*
X78500000Y-83310000D02*
X79830000Y-83310000D01*
%TO.C,Y1*%
X81350000Y-82500000D02*
X81350000Y-86500000D01*
X84650000Y-82500000D02*
X81350000Y-82500000D01*
%TO.C,C11*%
X90392164Y-92640000D02*
X90607836Y-92640000D01*
X90392164Y-93360000D02*
X90607836Y-93360000D01*
%TO.C,C1*%
X91859420Y-79010000D02*
X92140580Y-79010000D01*
X91859420Y-77990000D02*
X92140580Y-77990000D01*
%TO.C,R3*%
X78346359Y-78120000D02*
X78653641Y-78120000D01*
X78346359Y-78880000D02*
X78653641Y-78880000D01*
%TO.C,U4*%
X104100000Y-99250000D02*
X124500000Y-99250000D01*
X124500000Y-99250000D02*
X124500000Y-114750000D01*
X124500000Y-114750000D02*
X104100000Y-114750000D01*
X104100000Y-114750000D02*
X104100000Y-99250000D01*
%TO.C,R11*%
X106846359Y-74880000D02*
X107153641Y-74880000D01*
X106846359Y-74120000D02*
X107153641Y-74120000D01*
%TO.C,R6*%
X93066359Y-68960000D02*
X93373641Y-68960000D01*
X93066359Y-68200000D02*
X93373641Y-68200000D01*
%TO.C,C10*%
X97107836Y-92860000D02*
X96892164Y-92860000D01*
X97107836Y-92140000D02*
X96892164Y-92140000D01*
%TO.C,C3*%
X88140000Y-87607836D02*
X88140000Y-87392164D01*
X88860000Y-87607836D02*
X88860000Y-87392164D01*
%TD*%
M02*
