%TF.GenerationSoftware,KiCad,Pcbnew,(6.0.6)*%
%TF.CreationDate,2023-12-09T00:08:52+03:00*%
%TF.ProjectId,MainAvionic-Kicad,4d61696e-4176-4696-9f6e-69632d4b6963,rev?*%
%TF.SameCoordinates,Original*%
%TF.FileFunction,Soldermask,Top*%
%TF.FilePolarity,Negative*%
%FSLAX46Y46*%
G04 Gerber Fmt 4.6, Leading zero omitted, Abs format (unit mm)*
G04 Created by KiCad (PCBNEW (6.0.6)) date 2023-12-09 00:08:52*
%MOMM*%
%LPD*%
G01*
G04 APERTURE LIST*
G04 Aperture macros list*
%AMRoundRect*
0 Rectangle with rounded corners*
0 $1 Rounding radius*
0 $2 $3 $4 $5 $6 $7 $8 $9 X,Y pos of 4 corners*
0 Add a 4 corners polygon primitive as box body*
4,1,4,$2,$3,$4,$5,$6,$7,$8,$9,$2,$3,0*
0 Add four circle primitives for the rounded corners*
1,1,$1+$1,$2,$3*
1,1,$1+$1,$4,$5*
1,1,$1+$1,$6,$7*
1,1,$1+$1,$8,$9*
0 Add four rect primitives between the rounded corners*
20,1,$1+$1,$2,$3,$4,$5,0*
20,1,$1+$1,$4,$5,$6,$7,0*
20,1,$1+$1,$6,$7,$8,$9,0*
20,1,$1+$1,$8,$9,$2,$3,0*%
G04 Aperture macros list end*
%ADD10RoundRect,0.140000X-0.140000X-0.170000X0.140000X-0.170000X0.140000X0.170000X-0.140000X0.170000X0*%
%ADD11RoundRect,0.218750X0.256250X-0.218750X0.256250X0.218750X-0.256250X0.218750X-0.256250X-0.218750X0*%
%ADD12RoundRect,0.218750X0.218750X0.256250X-0.218750X0.256250X-0.218750X-0.256250X0.218750X-0.256250X0*%
%ADD13C,1.524000*%
%ADD14RoundRect,0.140000X0.140000X0.170000X-0.140000X0.170000X-0.140000X-0.170000X0.140000X-0.170000X0*%
%ADD15RoundRect,0.075000X-0.662500X-0.075000X0.662500X-0.075000X0.662500X0.075000X-0.662500X0.075000X0*%
%ADD16RoundRect,0.075000X-0.075000X-0.662500X0.075000X-0.662500X0.075000X0.662500X-0.075000X0.662500X0*%
%ADD17R,2.000000X1.500000*%
%ADD18R,1.700000X1.700000*%
%ADD19O,1.700000X1.700000*%
%ADD20RoundRect,0.135000X0.135000X0.185000X-0.135000X0.185000X-0.135000X-0.185000X0.135000X-0.185000X0*%
%ADD21RoundRect,0.140000X0.170000X-0.140000X0.170000X0.140000X-0.170000X0.140000X-0.170000X-0.140000X0*%
%ADD22RoundRect,0.562500X-0.687500X0.562500X-0.687500X-0.562500X0.687500X-0.562500X0.687500X0.562500X0*%
%ADD23RoundRect,0.250000X-1.000000X0.250000X-1.000000X-0.250000X1.000000X-0.250000X1.000000X0.250000X0*%
%ADD24R,2.000000X2.000000*%
%ADD25C,2.000000*%
%ADD26RoundRect,0.135000X-0.135000X-0.185000X0.135000X-0.185000X0.135000X0.185000X-0.135000X0.185000X0*%
%ADD27RoundRect,0.218750X-0.256250X0.218750X-0.256250X-0.218750X0.256250X-0.218750X0.256250X0.218750X0*%
%ADD28R,1.200000X1.400000*%
%ADD29RoundRect,0.225000X-0.225000X-0.250000X0.225000X-0.250000X0.225000X0.250000X-0.225000X0.250000X0*%
G04 APERTURE END LIST*
D10*
%TO.C,C12*%
X102120000Y-110490000D03*
X103080000Y-110490000D03*
%TD*%
D11*
%TO.C,D6*%
X92710000Y-71907500D03*
X92710000Y-70332500D03*
%TD*%
D12*
%TO.C,D3*%
X104287500Y-76500000D03*
X102712500Y-76500000D03*
%TD*%
D13*
%TO.C,U5*%
X85810000Y-75310000D03*
X83270000Y-75310000D03*
X80730000Y-75310000D03*
X78190000Y-75310000D03*
%TD*%
D14*
%TO.C,C9*%
X86980000Y-93000000D03*
X86020000Y-93000000D03*
%TD*%
D15*
%TO.C,U1*%
X90337500Y-83750000D03*
X90337500Y-84250000D03*
X90337500Y-84750000D03*
X90337500Y-85250000D03*
X90337500Y-85750000D03*
X90337500Y-86250000D03*
X90337500Y-86750000D03*
X90337500Y-87250000D03*
X90337500Y-87750000D03*
X90337500Y-88250000D03*
X90337500Y-88750000D03*
X90337500Y-89250000D03*
D16*
X91750000Y-90662500D03*
X92250000Y-90662500D03*
X92750000Y-90662500D03*
X93250000Y-90662500D03*
X93750000Y-90662500D03*
X94250000Y-90662500D03*
X94750000Y-90662500D03*
X95250000Y-90662500D03*
X95750000Y-90662500D03*
X96250000Y-90662500D03*
X96750000Y-90662500D03*
X97250000Y-90662500D03*
D15*
X98662500Y-89250000D03*
X98662500Y-88750000D03*
X98662500Y-88250000D03*
X98662500Y-87750000D03*
X98662500Y-87250000D03*
X98662500Y-86750000D03*
X98662500Y-86250000D03*
X98662500Y-85750000D03*
X98662500Y-85250000D03*
X98662500Y-84750000D03*
X98662500Y-84250000D03*
X98662500Y-83750000D03*
D16*
X97250000Y-82337500D03*
X96750000Y-82337500D03*
X96250000Y-82337500D03*
X95750000Y-82337500D03*
X95250000Y-82337500D03*
X94750000Y-82337500D03*
X94250000Y-82337500D03*
X93750000Y-82337500D03*
X93250000Y-82337500D03*
X92750000Y-82337500D03*
X92250000Y-82337500D03*
X91750000Y-82337500D03*
%TD*%
D17*
%TO.C,U2*%
X100000000Y-112500000D03*
X100000000Y-110500000D03*
X100000000Y-108500000D03*
X100000000Y-106500000D03*
X100000000Y-104500000D03*
X100000000Y-102500000D03*
X100000000Y-100500000D03*
X100000000Y-98500000D03*
X84000000Y-98500000D03*
X84000000Y-100500000D03*
X84000000Y-102500000D03*
X84000000Y-104500000D03*
X84000000Y-106500000D03*
X84000000Y-108500000D03*
X84000000Y-110500000D03*
X84000000Y-112500000D03*
%TD*%
D18*
%TO.C,J1*%
X98200000Y-64975000D03*
D19*
X100740000Y-64975000D03*
X103280000Y-64975000D03*
X105820000Y-64975000D03*
%TD*%
D20*
%TO.C,R5*%
X90680000Y-68580000D03*
X89660000Y-68580000D03*
%TD*%
D21*
%TO.C,C2*%
X86500000Y-83960000D03*
X86500000Y-83000000D03*
%TD*%
%TO.C,C7*%
X88500000Y-83480000D03*
X88500000Y-82520000D03*
%TD*%
D14*
%TO.C,C6*%
X86980000Y-91000000D03*
X86020000Y-91000000D03*
%TD*%
D22*
%TO.C,U3*%
X106000000Y-81000000D03*
D23*
X106000000Y-84215000D03*
X106000000Y-86755000D03*
X106000000Y-89295000D03*
X106000000Y-91835000D03*
X106000000Y-94375000D03*
X121500000Y-94375000D03*
X121500000Y-91835000D03*
X121500000Y-89295000D03*
X121500000Y-86755000D03*
X121500000Y-84215000D03*
X121500000Y-81675000D03*
%TD*%
D20*
%TO.C,R7*%
X81010000Y-78500000D03*
X79990000Y-78500000D03*
%TD*%
D10*
%TO.C,C4*%
X102120000Y-113030000D03*
X103080000Y-113030000D03*
%TD*%
D24*
%TO.C,BZ1*%
X112200000Y-70500000D03*
D25*
X119800000Y-70500000D03*
%TD*%
D18*
%TO.C,J4*%
X90170000Y-64770000D03*
D19*
X92710000Y-64770000D03*
%TD*%
D26*
%TO.C,R2*%
X99990000Y-68500000D03*
X101010000Y-68500000D03*
%TD*%
D10*
%TO.C,C8*%
X91540000Y-80500000D03*
X92500000Y-80500000D03*
%TD*%
D11*
%TO.C,D5*%
X90170000Y-71907500D03*
X90170000Y-70332500D03*
%TD*%
D12*
%TO.C,D2*%
X100635000Y-70500000D03*
X99060000Y-70500000D03*
%TD*%
D20*
%TO.C,R10*%
X103520000Y-78500000D03*
X102500000Y-78500000D03*
%TD*%
D26*
%TO.C,R9*%
X114490000Y-98000000D03*
X115510000Y-98000000D03*
%TD*%
%TO.C,R4*%
X96990000Y-79500000D03*
X98010000Y-79500000D03*
%TD*%
D27*
%TO.C,FB1*%
X88500000Y-91212500D03*
X88500000Y-92787500D03*
%TD*%
D20*
%TO.C,R8*%
X117510000Y-98000000D03*
X116490000Y-98000000D03*
%TD*%
D21*
%TO.C,C5*%
X86500000Y-85980000D03*
X86500000Y-85020000D03*
%TD*%
D18*
%TO.C,J2*%
X78500000Y-84640000D03*
D19*
X78500000Y-87180000D03*
X78500000Y-89720000D03*
X78500000Y-92260000D03*
X78500000Y-94800000D03*
X78500000Y-97340000D03*
X78500000Y-99880000D03*
X78500000Y-102420000D03*
X78500000Y-104960000D03*
X78500000Y-107500000D03*
X78500000Y-110040000D03*
X78500000Y-112580000D03*
%TD*%
D28*
%TO.C,Y1*%
X82150000Y-83400000D03*
X82150000Y-85600000D03*
X83850000Y-85600000D03*
X83850000Y-83400000D03*
%TD*%
D10*
%TO.C,C11*%
X90020000Y-93000000D03*
X90980000Y-93000000D03*
%TD*%
D29*
%TO.C,C1*%
X91225000Y-78500000D03*
X92775000Y-78500000D03*
%TD*%
D26*
%TO.C,R3*%
X77990000Y-78500000D03*
X79010000Y-78500000D03*
%TD*%
D13*
%TO.C,U4*%
X123190000Y-100560000D03*
X120650000Y-100560000D03*
X118110000Y-100560000D03*
X115570000Y-100560000D03*
X113030000Y-100560000D03*
X110490000Y-100560000D03*
X107950000Y-100560000D03*
X105410000Y-100560000D03*
%TD*%
D26*
%TO.C,R11*%
X106490000Y-74500000D03*
X107510000Y-74500000D03*
%TD*%
%TO.C,R6*%
X92710000Y-68580000D03*
X93730000Y-68580000D03*
%TD*%
D14*
%TO.C,C10*%
X97480000Y-92500000D03*
X96520000Y-92500000D03*
%TD*%
D21*
%TO.C,C3*%
X88500000Y-87980000D03*
X88500000Y-87020000D03*
%TD*%
M02*
