%TF.GenerationSoftware,KiCad,Pcbnew,(6.0.6)*%
%TF.CreationDate,2023-12-09T00:08:52+03:00*%
%TF.ProjectId,MainAvionic-Kicad,4d61696e-4176-4696-9f6e-69632d4b6963,rev?*%
%TF.SameCoordinates,Original*%
%TF.FileFunction,Legend,Bot*%
%TF.FilePolarity,Positive*%
%FSLAX46Y46*%
G04 Gerber Fmt 4.6, Leading zero omitted, Abs format (unit mm)*
G04 Created by KiCad (PCBNEW (6.0.6)) date 2023-12-09 00:08:52*
%MOMM*%
%LPD*%
G01*
G04 APERTURE LIST*
%ADD10C,0.800000*%
G04 APERTURE END LIST*
D10*
X122595238Y-107309523D02*
X122595238Y-103309523D01*
X121261904Y-106166666D01*
X119928571Y-103309523D01*
X119928571Y-107309523D01*
X118214285Y-106166666D02*
X116309523Y-106166666D01*
X118595238Y-107309523D02*
X117261904Y-103309523D01*
X115928571Y-107309523D01*
X114595238Y-107309523D02*
X114595238Y-103309523D01*
X112690476Y-107309523D02*
X112690476Y-103309523D01*
X110404761Y-107309523D01*
X110404761Y-103309523D01*
X108500000Y-105785714D02*
X105452380Y-105785714D01*
X103738095Y-106166666D02*
X101833333Y-106166666D01*
X104119047Y-107309523D02*
X102785714Y-103309523D01*
X101452380Y-107309523D01*
X100690476Y-103309523D02*
X99357142Y-107309523D01*
X98023809Y-103309523D01*
X96690476Y-107309523D02*
X96690476Y-103309523D01*
X94023809Y-103309523D02*
X93261904Y-103309523D01*
X92880952Y-103500000D01*
X92500000Y-103880952D01*
X92309523Y-104642857D01*
X92309523Y-105976190D01*
X92500000Y-106738095D01*
X92880952Y-107119047D01*
X93261904Y-107309523D01*
X94023809Y-107309523D01*
X94404761Y-107119047D01*
X94785714Y-106738095D01*
X94976190Y-105976190D01*
X94976190Y-104642857D01*
X94785714Y-103880952D01*
X94404761Y-103500000D01*
X94023809Y-103309523D01*
X90595238Y-107309523D02*
X90595238Y-103309523D01*
X88309523Y-107309523D01*
X88309523Y-103309523D01*
X86404761Y-107309523D02*
X86404761Y-103309523D01*
X82214285Y-106928571D02*
X82404761Y-107119047D01*
X82976190Y-107309523D01*
X83357142Y-107309523D01*
X83928571Y-107119047D01*
X84309523Y-106738095D01*
X84500000Y-106357142D01*
X84690476Y-105595238D01*
X84690476Y-105023809D01*
X84500000Y-104261904D01*
X84309523Y-103880952D01*
X83928571Y-103500000D01*
X83357142Y-103309523D01*
X82976190Y-103309523D01*
X82404761Y-103500000D01*
X82214285Y-103690476D01*
M02*
