%TF.GenerationSoftware,KiCad,Pcbnew,(6.0.6)*%
%TF.CreationDate,2023-12-09T00:08:52+03:00*%
%TF.ProjectId,MainAvionic-Kicad,4d61696e-4176-4696-9f6e-69632d4b6963,rev?*%
%TF.SameCoordinates,Original*%
%TF.FileFunction,Copper,L2,Bot*%
%TF.FilePolarity,Positive*%
%FSLAX46Y46*%
G04 Gerber Fmt 4.6, Leading zero omitted, Abs format (unit mm)*
G04 Created by KiCad (PCBNEW (6.0.6)) date 2023-12-09 00:08:52*
%MOMM*%
%LPD*%
G01*
G04 APERTURE LIST*
%TA.AperFunction,ComponentPad*%
%ADD10C,1.524000*%
%TD*%
%TA.AperFunction,ComponentPad*%
%ADD11R,1.700000X1.700000*%
%TD*%
%TA.AperFunction,ComponentPad*%
%ADD12O,1.700000X1.700000*%
%TD*%
%TA.AperFunction,ComponentPad*%
%ADD13R,2.000000X2.000000*%
%TD*%
%TA.AperFunction,ComponentPad*%
%ADD14C,2.000000*%
%TD*%
%TA.AperFunction,ViaPad*%
%ADD15C,0.800000*%
%TD*%
%TA.AperFunction,Conductor*%
%ADD16C,0.300000*%
%TD*%
%TA.AperFunction,Conductor*%
%ADD17C,0.500000*%
%TD*%
G04 APERTURE END LIST*
D10*
%TO.P,U5,1,VCC*%
%TO.N,+3.3V*%
X85810000Y-75310000D03*
%TO.P,U5,2,GND*%
%TO.N,GND*%
X83270000Y-75310000D03*
%TO.P,U5,3,SCL*%
%TO.N,I2C1-SCL*%
X80730000Y-75310000D03*
%TO.P,U5,4,SDA*%
%TO.N,I2C1-SDA*%
X78190000Y-75310000D03*
%TD*%
D11*
%TO.P,J1,1,Pin_1*%
%TO.N,+3.3V*%
X98200000Y-64975000D03*
D12*
%TO.P,J1,2,Pin_2*%
%TO.N,GND*%
X100740000Y-64975000D03*
%TO.P,J1,3,Pin_3*%
%TO.N,SWCLK*%
X103280000Y-64975000D03*
%TO.P,J1,4,Pin_4*%
%TO.N,SWDIO*%
X105820000Y-64975000D03*
%TD*%
D13*
%TO.P,BZ1,1,-*%
%TO.N,Net-(BZ1-Pad1)*%
X112200000Y-70500000D03*
D14*
%TO.P,BZ1,2,+*%
%TO.N,GND*%
X119800000Y-70500000D03*
%TD*%
D11*
%TO.P,J4,1,Pin_1*%
%TO.N,FIRSTSEP-CON*%
X90170000Y-64770000D03*
D12*
%TO.P,J4,2,Pin_2*%
%TO.N,SECSEP-CON*%
X92710000Y-64770000D03*
%TD*%
D11*
%TO.P,J2,1,Pin_1*%
%TO.N,Optional-ADC*%
X78500000Y-84640000D03*
D12*
%TO.P,J2,2,Pin_2*%
%TO.N,Optional-EXTI*%
X78500000Y-87180000D03*
%TO.P,J2,3,Pin_3*%
%TO.N,Optional-IN*%
X78500000Y-89720000D03*
%TO.P,J2,4,Pin_4*%
%TO.N,Optional-OUT1*%
X78500000Y-92260000D03*
%TO.P,J2,5,Pin_5*%
%TO.N,Optional-PWM*%
X78500000Y-94800000D03*
%TO.P,J2,6,Pin_6*%
%TO.N,Optional-OUT2*%
X78500000Y-97340000D03*
%TO.P,J2,7,Pin_7*%
%TO.N,USART2-TX*%
X78500000Y-99880000D03*
%TO.P,J2,8,Pin_8*%
%TO.N,USART2-RX*%
X78500000Y-102420000D03*
%TO.P,J2,9,Pin_9*%
%TO.N,+3.3V*%
X78500000Y-104960000D03*
%TO.P,J2,10,Pin_10*%
X78500000Y-107500000D03*
%TO.P,J2,11,Pin_11*%
%TO.N,GND*%
X78500000Y-110040000D03*
%TO.P,J2,12,Pin_12*%
X78500000Y-112580000D03*
%TD*%
D10*
%TO.P,U4,1,VCC*%
%TO.N,+3.3V*%
X123190000Y-100560000D03*
%TO.P,U4,2,GND*%
%TO.N,GND*%
X120650000Y-100560000D03*
%TO.P,U4,3,SCL*%
%TO.N,I2C2-SCL*%
X118110000Y-100560000D03*
%TO.P,U4,4,SDA*%
%TO.N,I2C2-SDA*%
X115570000Y-100560000D03*
%TO.P,U4,5,ADX*%
%TO.N,unconnected-(U4-Pad5)*%
X113030000Y-100560000D03*
%TO.P,U4,6,XCL*%
%TO.N,unconnected-(U4-Pad6)*%
X110490000Y-100560000D03*
%TO.P,U4,7,INT*%
%TO.N,unconnected-(U4-Pad7)*%
X107950000Y-100560000D03*
%TO.P,U4,8*%
%TO.N,N/C*%
X105410000Y-100560000D03*
%TD*%
D15*
%TO.N,+3.3VA*%
X89429260Y-90444763D03*
X87000000Y-88000000D03*
%TO.N,Optional-EXTI*%
X96500000Y-85500000D03*
X81500000Y-89500000D03*
%TO.N,Optional-IN*%
X93000000Y-85000000D03*
X80500000Y-91000000D03*
%TO.N,Optional-OUT1*%
X81500000Y-91000000D03*
X91661432Y-85042868D03*
%TO.N,Optional-PWM*%
X96500000Y-87500000D03*
X80500000Y-93500000D03*
%TO.N,Optional-OUT2*%
X101000000Y-89500000D03*
X80443538Y-94497904D03*
%TO.N,FIRSTSEP-CON*%
X99000000Y-90000000D03*
X88500000Y-68580000D03*
%TO.N,SECSEP-CON*%
X95250000Y-68580000D03*
X100000000Y-91500000D03*
%TO.N,Net-(R4-Pad2)*%
X98000000Y-80500000D03*
X94000000Y-84500000D03*
%TO.N,I2C2-SCL*%
X100500000Y-94000000D03*
X95499500Y-95390000D03*
%TO.N,I2C2-SDA*%
X97000000Y-95500000D03*
X100500000Y-95500000D03*
%TO.N,Optional-LED*%
X99029977Y-82529977D03*
X97250000Y-88250000D03*
%TO.N,GND*%
X95500000Y-80000000D03*
X96639500Y-93500000D03*
X90970023Y-91970023D03*
X93500000Y-80000000D03*
X102870000Y-109220000D03*
X97000000Y-75500000D03*
X80839715Y-88039669D03*
X97500000Y-112500000D03*
X108000000Y-87190000D03*
X118000000Y-69000000D03*
X101600000Y-67310000D03*
X81000000Y-81249500D03*
X85500000Y-85199500D03*
X82323576Y-90323576D03*
X91440000Y-73660000D03*
X99060000Y-72390000D03*
X96085187Y-89249000D03*
X88000000Y-86000000D03*
X86000000Y-112500000D03*
X84000000Y-82000000D03*
X81000000Y-113000000D03*
X119380000Y-97790000D03*
X88000000Y-81500000D03*
X88900000Y-73660000D03*
X84500000Y-91000000D03*
X86000000Y-98500000D03*
X123500000Y-81190000D03*
X82500000Y-92500000D03*
X83500000Y-77500000D03*
X105950500Y-76500000D03*
%TO.N,+3.3V*%
X85029977Y-92029977D03*
X90000000Y-79500000D03*
X97000000Y-68500000D03*
X81000000Y-106000000D03*
X98121174Y-93121174D03*
X81000000Y-114500000D03*
%TD*%
D16*
%TO.N,+3.3VA*%
X99000000Y-85500000D02*
X99000000Y-84500000D01*
X87500000Y-89000000D02*
X87000000Y-88500000D01*
X92494576Y-90444763D02*
X96439339Y-86500000D01*
X87000000Y-88500000D02*
X87000000Y-88000000D01*
X91000000Y-89000000D02*
X87500000Y-89000000D01*
X96439339Y-86500000D02*
X98000000Y-86500000D01*
X99000000Y-84500000D02*
X98500000Y-84000000D01*
X98000000Y-86500000D02*
X99000000Y-85500000D01*
X89429260Y-90444763D02*
X92494576Y-90444763D01*
X98500000Y-84000000D02*
X96000000Y-84000000D01*
X96000000Y-84000000D02*
X91000000Y-89000000D01*
%TO.N,Optional-EXTI*%
X92500000Y-89500000D02*
X96500000Y-85500000D01*
X81500000Y-89500000D02*
X92500000Y-89500000D01*
%TO.N,Optional-IN*%
X80500000Y-91000000D02*
X80000000Y-90500000D01*
X83000000Y-84000000D02*
X92000000Y-84000000D01*
X80000000Y-90500000D02*
X80000000Y-87000000D01*
X80000000Y-87000000D02*
X83000000Y-84000000D01*
X93000000Y-85000000D02*
X92000000Y-84000000D01*
%TO.N,Optional-OUT1*%
X81500000Y-91000000D02*
X81500000Y-90560661D01*
X80750000Y-89810661D02*
X80750000Y-89189339D01*
X80750000Y-89189339D02*
X82939339Y-87000000D01*
X82939339Y-87000000D02*
X89704300Y-87000000D01*
X89704300Y-87000000D02*
X91661432Y-85042868D01*
X81500000Y-90560661D02*
X80750000Y-89810661D01*
%TO.N,Optional-PWM*%
X90500000Y-93500000D02*
X96500000Y-87500000D01*
X80500000Y-93500000D02*
X90500000Y-93500000D01*
%TO.N,Optional-OUT2*%
X97939339Y-90000000D02*
X98689339Y-90750000D01*
X99750000Y-90750000D02*
X101000000Y-89500000D01*
X94707106Y-90000000D02*
X97939339Y-90000000D01*
X98689339Y-90750000D02*
X99750000Y-90750000D01*
X80443538Y-94497904D02*
X90209202Y-94497904D01*
X90209202Y-94497904D02*
X94707106Y-90000000D01*
%TO.N,FIRSTSEP-CON*%
X100000000Y-89000000D02*
X99000000Y-90000000D01*
X87630000Y-69450000D02*
X87630000Y-79130000D01*
X90371320Y-80896447D02*
X92267767Y-79000000D01*
X92267767Y-79000000D02*
X98444366Y-79000000D01*
X87630000Y-79130000D02*
X89396447Y-80896447D01*
X88500000Y-68580000D02*
X87630000Y-69450000D01*
X89396447Y-80896447D02*
X90371320Y-80896447D01*
X100000000Y-80555634D02*
X100000000Y-89000000D01*
X98444366Y-79000000D02*
X100000000Y-80555634D01*
%TO.N,SECSEP-CON*%
X89835786Y-80396447D02*
X90164214Y-80396447D01*
X95250000Y-68580000D02*
X95250000Y-71120000D01*
X89000000Y-79560661D02*
X89835786Y-80396447D01*
X90164214Y-80396447D02*
X92960661Y-77600000D01*
X92960661Y-77600000D02*
X97751472Y-77600000D01*
X97751472Y-77600000D02*
X101750000Y-81598528D01*
X95250000Y-71120000D02*
X89000000Y-77370000D01*
X100060661Y-91500000D02*
X100000000Y-91500000D01*
X89000000Y-77370000D02*
X89000000Y-79560661D01*
X101750000Y-89810661D02*
X100060661Y-91500000D01*
X101750000Y-81598528D02*
X101750000Y-89810661D01*
%TO.N,Net-(R4-Pad2)*%
X94000000Y-84500000D02*
X98000000Y-80500000D01*
%TO.N,I2C2-SCL*%
X95499500Y-95390000D02*
X96389500Y-94500000D01*
X99500000Y-94000000D02*
X100500000Y-94000000D01*
X96389500Y-94500000D02*
X99000000Y-94500000D01*
X99000000Y-94500000D02*
X99500000Y-94000000D01*
%TO.N,I2C2-SDA*%
X97000000Y-95500000D02*
X100500000Y-95500000D01*
%TO.N,Optional-LED*%
X99500000Y-85707107D02*
X99500000Y-82500000D01*
X99500000Y-82500000D02*
X99000000Y-82500000D01*
X97250000Y-88250000D02*
X97250000Y-87957107D01*
X97250000Y-87957107D02*
X99500000Y-85707107D01*
X99000000Y-82500000D02*
X99029977Y-82529977D01*
%TO.N,GND*%
X93500000Y-80000000D02*
X95500000Y-80000000D01*
X89404707Y-91970023D02*
X90970023Y-91970023D01*
D17*
X101600000Y-67310000D02*
X103500000Y-69210000D01*
D16*
X84500000Y-91000000D02*
X88434684Y-91000000D01*
X84320116Y-86379384D02*
X85500000Y-85199500D01*
X82500000Y-90500000D02*
X82323576Y-90323576D01*
X88434684Y-91000000D02*
X89404707Y-91970023D01*
X80839715Y-88039669D02*
X80839715Y-87539669D01*
X82000000Y-86379384D02*
X84320116Y-86379384D01*
X84500000Y-91000000D02*
X83000000Y-91000000D01*
X105950500Y-75450500D02*
X103500000Y-73000000D01*
X105950500Y-76500000D02*
X105950500Y-75450500D01*
D17*
X103500000Y-69210000D02*
X103500000Y-73000000D01*
D16*
X99500000Y-73000000D02*
X97000000Y-75500000D01*
X83000000Y-91000000D02*
X82500000Y-90500000D01*
X80839715Y-87539669D02*
X82000000Y-86379384D01*
X103500000Y-73000000D02*
X99500000Y-73000000D01*
%TO.N,+3.3V*%
X102378826Y-93121174D02*
X103000000Y-92500000D01*
D17*
X81000000Y-106000000D02*
X88087414Y-98912586D01*
X103000000Y-82000000D02*
X98000000Y-77000000D01*
D16*
X83939339Y-91500000D02*
X82060661Y-91500000D01*
D17*
X103000000Y-94500000D02*
X103000000Y-92500000D01*
X88087414Y-98912586D02*
X98587414Y-98912586D01*
D16*
X77817845Y-114500000D02*
X81000000Y-114500000D01*
X77000000Y-113682155D02*
X77817845Y-114500000D01*
X98121174Y-93121174D02*
X102378826Y-93121174D01*
X82060661Y-91500000D02*
X81810661Y-91750000D01*
D17*
X90000000Y-77640000D02*
X97000000Y-70640000D01*
X98000000Y-77000000D02*
X92500000Y-77000000D01*
D16*
X78857057Y-93600000D02*
X77900000Y-93600000D01*
X80707057Y-91750000D02*
X78857057Y-93600000D01*
X81810661Y-91750000D02*
X80707057Y-91750000D01*
X85029977Y-92029977D02*
X84469316Y-92029977D01*
D17*
X103000000Y-92500000D02*
X103000000Y-82000000D01*
X97000000Y-70640000D02*
X97000000Y-68500000D01*
D16*
X77000000Y-94500000D02*
X77000000Y-113682155D01*
D17*
X92500000Y-77000000D02*
X90000000Y-79500000D01*
D16*
X77900000Y-93600000D02*
X77000000Y-94500000D01*
X84469316Y-92029977D02*
X83939339Y-91500000D01*
D17*
X90000000Y-79500000D02*
X90000000Y-77640000D01*
X98587414Y-98912586D02*
X103000000Y-94500000D01*
%TD*%
%TA.AperFunction,Conductor*%
%TO.N,GND*%
G36*
X124433621Y-62028502D02*
G01*
X124480114Y-62082158D01*
X124491500Y-62134500D01*
X124491500Y-99804065D01*
X124471498Y-99872186D01*
X124417842Y-99918679D01*
X124347568Y-99928783D01*
X124282988Y-99899289D01*
X124262287Y-99876336D01*
X124170136Y-99744730D01*
X124170134Y-99744727D01*
X124166977Y-99740219D01*
X124009781Y-99583023D01*
X124005273Y-99579866D01*
X124005270Y-99579864D01*
X123912893Y-99515181D01*
X123827677Y-99455512D01*
X123822695Y-99453189D01*
X123822690Y-99453186D01*
X123631178Y-99363883D01*
X123631177Y-99363882D01*
X123626196Y-99361560D01*
X123620888Y-99360138D01*
X123620886Y-99360137D01*
X123555051Y-99342497D01*
X123411463Y-99304022D01*
X123190000Y-99284647D01*
X122968537Y-99304022D01*
X122824949Y-99342497D01*
X122759114Y-99360137D01*
X122759112Y-99360138D01*
X122753804Y-99361560D01*
X122748823Y-99363882D01*
X122748822Y-99363883D01*
X122557311Y-99453186D01*
X122557306Y-99453189D01*
X122552324Y-99455512D01*
X122547817Y-99458668D01*
X122547815Y-99458669D01*
X122374730Y-99579864D01*
X122374727Y-99579866D01*
X122370219Y-99583023D01*
X122213023Y-99740219D01*
X122209866Y-99744727D01*
X122209864Y-99744730D01*
X122112791Y-99883365D01*
X122085512Y-99922324D01*
X122083189Y-99927306D01*
X122083186Y-99927311D01*
X122033919Y-100032965D01*
X121987001Y-100086250D01*
X121918724Y-100105711D01*
X121850764Y-100085169D01*
X121805529Y-100032965D01*
X121756377Y-99927559D01*
X121750897Y-99918068D01*
X121720206Y-99874235D01*
X121709729Y-99865860D01*
X121696282Y-99872928D01*
X121022022Y-100547188D01*
X121014408Y-100561132D01*
X121014539Y-100562965D01*
X121018790Y-100569580D01*
X121697003Y-101247793D01*
X121708777Y-101254223D01*
X121720793Y-101244926D01*
X121750897Y-101201932D01*
X121756377Y-101192441D01*
X121805529Y-101087035D01*
X121852447Y-101033750D01*
X121920724Y-101014289D01*
X121988684Y-101034831D01*
X122033919Y-101087035D01*
X122083186Y-101192689D01*
X122083189Y-101192694D01*
X122085512Y-101197676D01*
X122088668Y-101202183D01*
X122088669Y-101202185D01*
X122168318Y-101315935D01*
X122213023Y-101379781D01*
X122370219Y-101536977D01*
X122374727Y-101540134D01*
X122374730Y-101540136D01*
X122438027Y-101584457D01*
X122552323Y-101664488D01*
X122557305Y-101666811D01*
X122557310Y-101666814D01*
X122747810Y-101755645D01*
X122753804Y-101758440D01*
X122759112Y-101759862D01*
X122759114Y-101759863D01*
X122802514Y-101771492D01*
X122968537Y-101815978D01*
X123190000Y-101835353D01*
X123411463Y-101815978D01*
X123577486Y-101771492D01*
X123620886Y-101759863D01*
X123620888Y-101759862D01*
X123626196Y-101758440D01*
X123632190Y-101755645D01*
X123822690Y-101666814D01*
X123822695Y-101666811D01*
X123827677Y-101664488D01*
X123941973Y-101584457D01*
X124005270Y-101540136D01*
X124005273Y-101540134D01*
X124009781Y-101536977D01*
X124166977Y-101379781D01*
X124211683Y-101315935D01*
X124262287Y-101243664D01*
X124317744Y-101199336D01*
X124388363Y-101192027D01*
X124451724Y-101224058D01*
X124487709Y-101285259D01*
X124491500Y-101315935D01*
X124491500Y-115365500D01*
X124471498Y-115433621D01*
X124417842Y-115480114D01*
X124365500Y-115491500D01*
X81568738Y-115491500D01*
X81500617Y-115471498D01*
X81454124Y-115417842D01*
X81444020Y-115347568D01*
X81473514Y-115282988D01*
X81494677Y-115263564D01*
X81536976Y-115232832D01*
X81611253Y-115178866D01*
X81656277Y-115128862D01*
X81734621Y-115041852D01*
X81734622Y-115041851D01*
X81739040Y-115036944D01*
X81834527Y-114871556D01*
X81893542Y-114689928D01*
X81913504Y-114500000D01*
X81893542Y-114310072D01*
X81834527Y-114128444D01*
X81739040Y-113963056D01*
X81611253Y-113821134D01*
X81499341Y-113739825D01*
X81462094Y-113712763D01*
X81462093Y-113712762D01*
X81456752Y-113708882D01*
X81450724Y-113706198D01*
X81450722Y-113706197D01*
X81288319Y-113633891D01*
X81288318Y-113633891D01*
X81282288Y-113631206D01*
X81179963Y-113609456D01*
X81101944Y-113592872D01*
X81101939Y-113592872D01*
X81095487Y-113591500D01*
X80904513Y-113591500D01*
X80898061Y-113592872D01*
X80898056Y-113592872D01*
X80820037Y-113609456D01*
X80717712Y-113631206D01*
X80711682Y-113633891D01*
X80711681Y-113633891D01*
X80549278Y-113706197D01*
X80549276Y-113706198D01*
X80543248Y-113708882D01*
X80537907Y-113712762D01*
X80537906Y-113712763D01*
X80500659Y-113739825D01*
X80394092Y-113817251D01*
X80393837Y-113817436D01*
X80326969Y-113841294D01*
X80319776Y-113841500D01*
X79462015Y-113841500D01*
X79393894Y-113821498D01*
X79347401Y-113767842D01*
X79337297Y-113697568D01*
X79366791Y-113632988D01*
X79380687Y-113619262D01*
X79383203Y-113617136D01*
X79534052Y-113466812D01*
X79540730Y-113458965D01*
X79665003Y-113286020D01*
X79670313Y-113277183D01*
X79764670Y-113086267D01*
X79768469Y-113076672D01*
X79830377Y-112872910D01*
X79832555Y-112862837D01*
X79833986Y-112851962D01*
X79831775Y-112837778D01*
X79818617Y-112834000D01*
X78372000Y-112834000D01*
X78303879Y-112813998D01*
X78257386Y-112760342D01*
X78246000Y-112708000D01*
X78246000Y-112307885D01*
X78754000Y-112307885D01*
X78758475Y-112323124D01*
X78759865Y-112324329D01*
X78767548Y-112326000D01*
X79818344Y-112326000D01*
X79831875Y-112322027D01*
X79833180Y-112312947D01*
X79791214Y-112145875D01*
X79787894Y-112136124D01*
X79702972Y-111940814D01*
X79698105Y-111931739D01*
X79582426Y-111752926D01*
X79576136Y-111744757D01*
X79432806Y-111587240D01*
X79425273Y-111580215D01*
X79258139Y-111448222D01*
X79249552Y-111442517D01*
X79212116Y-111421851D01*
X79162146Y-111371419D01*
X79147374Y-111301976D01*
X79172490Y-111235571D01*
X79199842Y-111208964D01*
X79375327Y-111083792D01*
X79383200Y-111077139D01*
X79534052Y-110926812D01*
X79540730Y-110918965D01*
X79665003Y-110746020D01*
X79670313Y-110737183D01*
X79764670Y-110546267D01*
X79768469Y-110536672D01*
X79830377Y-110332910D01*
X79832555Y-110322837D01*
X79833986Y-110311962D01*
X79831775Y-110297778D01*
X79818617Y-110294000D01*
X78772115Y-110294000D01*
X78756876Y-110298475D01*
X78755671Y-110299865D01*
X78754000Y-110307548D01*
X78754000Y-112307885D01*
X78246000Y-112307885D01*
X78246000Y-109912000D01*
X78266002Y-109843879D01*
X78319658Y-109797386D01*
X78372000Y-109786000D01*
X79818344Y-109786000D01*
X79831875Y-109782027D01*
X79833180Y-109772947D01*
X79791214Y-109605875D01*
X79787894Y-109596124D01*
X79702972Y-109400814D01*
X79698105Y-109391739D01*
X79582426Y-109212926D01*
X79576136Y-109204757D01*
X79432806Y-109047240D01*
X79425273Y-109040215D01*
X79258139Y-108908222D01*
X79249556Y-108902520D01*
X79212602Y-108882120D01*
X79162631Y-108831687D01*
X79147859Y-108762245D01*
X79172975Y-108695839D01*
X79200327Y-108669232D01*
X79223797Y-108652491D01*
X79379860Y-108541173D01*
X79538096Y-108383489D01*
X79668453Y-108202077D01*
X79767430Y-108001811D01*
X79832370Y-107788069D01*
X79861529Y-107566590D01*
X79863156Y-107500000D01*
X79844852Y-107277361D01*
X79790431Y-107060702D01*
X79701354Y-106855840D01*
X79656973Y-106787237D01*
X79582822Y-106672617D01*
X79582820Y-106672614D01*
X79580014Y-106668277D01*
X79429670Y-106503051D01*
X79425619Y-106499852D01*
X79425615Y-106499848D01*
X79258414Y-106367800D01*
X79258410Y-106367798D01*
X79254359Y-106364598D01*
X79213053Y-106341796D01*
X79163084Y-106291364D01*
X79148312Y-106221921D01*
X79173428Y-106155516D01*
X79200780Y-106128909D01*
X79343469Y-106027130D01*
X79379860Y-106001173D01*
X79538096Y-105843489D01*
X79557393Y-105816635D01*
X79665435Y-105666277D01*
X79668453Y-105662077D01*
X79685076Y-105628444D01*
X79765136Y-105466453D01*
X79765137Y-105466451D01*
X79767430Y-105461811D01*
X79832370Y-105248069D01*
X79861529Y-105026590D01*
X79863156Y-104960000D01*
X79844852Y-104737361D01*
X79790431Y-104520702D01*
X79701354Y-104315840D01*
X79580014Y-104128277D01*
X79429670Y-103963051D01*
X79425619Y-103959852D01*
X79425615Y-103959848D01*
X79258414Y-103827800D01*
X79258410Y-103827798D01*
X79254359Y-103824598D01*
X79213053Y-103801796D01*
X79163084Y-103751364D01*
X79148312Y-103681921D01*
X79173428Y-103615516D01*
X79200780Y-103588909D01*
X79343469Y-103487130D01*
X79379860Y-103461173D01*
X79538096Y-103303489D01*
X79668453Y-103122077D01*
X79767430Y-102921811D01*
X79832370Y-102708069D01*
X79861529Y-102486590D01*
X79863156Y-102420000D01*
X79844852Y-102197361D01*
X79790431Y-101980702D01*
X79701354Y-101775840D01*
X79600361Y-101619729D01*
X79582822Y-101592617D01*
X79582820Y-101592614D01*
X79580014Y-101588277D01*
X79429670Y-101423051D01*
X79425619Y-101419852D01*
X79425615Y-101419848D01*
X79258414Y-101287800D01*
X79258410Y-101287798D01*
X79254359Y-101284598D01*
X79213053Y-101261796D01*
X79163084Y-101211364D01*
X79148312Y-101141921D01*
X79173428Y-101075516D01*
X79200780Y-101048909D01*
X79343469Y-100947130D01*
X79379860Y-100921173D01*
X79538096Y-100763489D01*
X79668453Y-100582077D01*
X79674630Y-100569580D01*
X79765136Y-100386453D01*
X79765137Y-100386451D01*
X79767430Y-100381811D01*
X79832370Y-100168069D01*
X79861529Y-99946590D01*
X79863156Y-99880000D01*
X79844852Y-99657361D01*
X79790431Y-99440702D01*
X79701354Y-99235840D01*
X79580014Y-99048277D01*
X79429670Y-98883051D01*
X79425619Y-98879852D01*
X79425615Y-98879848D01*
X79258414Y-98747800D01*
X79258410Y-98747798D01*
X79254359Y-98744598D01*
X79213053Y-98721796D01*
X79163084Y-98671364D01*
X79148312Y-98601921D01*
X79173428Y-98535516D01*
X79200780Y-98508909D01*
X79343469Y-98407130D01*
X79379860Y-98381173D01*
X79538096Y-98223489D01*
X79541872Y-98218235D01*
X79665435Y-98046277D01*
X79668453Y-98042077D01*
X79767430Y-97841811D01*
X79832370Y-97628069D01*
X79861529Y-97406590D01*
X79863156Y-97340000D01*
X79844852Y-97117361D01*
X79790431Y-96900702D01*
X79701354Y-96695840D01*
X79580014Y-96508277D01*
X79429670Y-96343051D01*
X79425619Y-96339852D01*
X79425615Y-96339848D01*
X79258414Y-96207800D01*
X79258410Y-96207798D01*
X79254359Y-96204598D01*
X79213053Y-96181796D01*
X79163084Y-96131364D01*
X79148312Y-96061921D01*
X79173428Y-95995516D01*
X79200780Y-95968909D01*
X79343469Y-95867130D01*
X79379860Y-95841173D01*
X79538096Y-95683489D01*
X79668453Y-95502077D01*
X79763857Y-95309039D01*
X79811970Y-95256833D01*
X79880671Y-95238926D01*
X79950875Y-95262931D01*
X79986786Y-95289022D01*
X79992814Y-95291706D01*
X79992816Y-95291707D01*
X80031747Y-95309040D01*
X80161250Y-95366698D01*
X80239991Y-95383435D01*
X80341594Y-95405032D01*
X80341599Y-95405032D01*
X80348051Y-95406404D01*
X80539025Y-95406404D01*
X80545477Y-95405032D01*
X80545482Y-95405032D01*
X80647085Y-95383435D01*
X80725826Y-95366698D01*
X80855329Y-95309040D01*
X80894260Y-95291707D01*
X80894262Y-95291706D01*
X80900290Y-95289022D01*
X81049701Y-95180468D01*
X81116569Y-95156610D01*
X81123762Y-95156404D01*
X90127146Y-95156404D01*
X90139002Y-95156963D01*
X90139005Y-95156963D01*
X90146739Y-95158692D01*
X90217571Y-95156466D01*
X90221529Y-95156404D01*
X90250634Y-95156404D01*
X90255034Y-95155848D01*
X90266866Y-95154916D01*
X90313033Y-95153466D01*
X90333623Y-95147484D01*
X90352984Y-95143474D01*
X90359972Y-95142592D01*
X90366406Y-95141779D01*
X90366407Y-95141779D01*
X90374266Y-95140786D01*
X90381631Y-95137870D01*
X90381635Y-95137869D01*
X90417223Y-95123778D01*
X90428433Y-95119939D01*
X90472802Y-95107049D01*
X90491267Y-95096129D01*
X90509007Y-95087438D01*
X90528958Y-95079539D01*
X90566331Y-95052386D01*
X90576250Y-95045871D01*
X90609179Y-95026397D01*
X90609183Y-95026394D01*
X90616009Y-95022357D01*
X90631173Y-95007193D01*
X90646207Y-94994352D01*
X90657145Y-94986405D01*
X90663559Y-94981745D01*
X90693005Y-94946151D01*
X90700994Y-94937372D01*
X94942961Y-90695405D01*
X95005273Y-90661379D01*
X95032056Y-90658500D01*
X97614389Y-90658500D01*
X97682510Y-90678502D01*
X97703484Y-90695405D01*
X98165684Y-91157605D01*
X98173674Y-91166385D01*
X98177923Y-91173080D01*
X98183701Y-91178506D01*
X98183702Y-91178507D01*
X98229596Y-91221604D01*
X98232438Y-91224359D01*
X98253006Y-91244927D01*
X98256509Y-91247644D01*
X98265534Y-91255352D01*
X98299206Y-91286972D01*
X98306157Y-91290793D01*
X98306158Y-91290794D01*
X98317997Y-91297303D01*
X98334521Y-91308157D01*
X98345204Y-91316443D01*
X98351471Y-91321304D01*
X98358746Y-91324452D01*
X98393875Y-91339654D01*
X98404520Y-91344869D01*
X98445002Y-91367124D01*
X98452676Y-91369094D01*
X98452683Y-91369097D01*
X98465765Y-91372455D01*
X98484473Y-91378860D01*
X98504162Y-91387380D01*
X98511988Y-91388619D01*
X98511990Y-91388620D01*
X98536498Y-91392501D01*
X98549798Y-91394608D01*
X98561409Y-91397012D01*
X98592446Y-91404981D01*
X98598474Y-91406529D01*
X98598475Y-91406529D01*
X98606151Y-91408500D01*
X98627597Y-91408500D01*
X98647307Y-91410051D01*
X98660661Y-91412166D01*
X98660662Y-91412166D01*
X98668491Y-91413406D01*
X98714480Y-91409059D01*
X98726335Y-91408500D01*
X98963428Y-91408500D01*
X99031549Y-91428502D01*
X99078042Y-91482158D01*
X99088738Y-91521330D01*
X99103147Y-91658421D01*
X99106458Y-91689928D01*
X99165473Y-91871556D01*
X99260960Y-92036944D01*
X99388747Y-92178866D01*
X99394089Y-92182747D01*
X99394091Y-92182749D01*
X99465648Y-92234738D01*
X99509002Y-92290960D01*
X99515077Y-92361697D01*
X99481945Y-92424488D01*
X99420125Y-92459400D01*
X99391587Y-92462674D01*
X98801398Y-92462674D01*
X98733277Y-92442672D01*
X98727337Y-92438610D01*
X98727083Y-92438425D01*
X98621004Y-92361354D01*
X98583268Y-92333937D01*
X98583267Y-92333936D01*
X98577926Y-92330056D01*
X98571898Y-92327372D01*
X98571896Y-92327371D01*
X98409493Y-92255065D01*
X98409492Y-92255065D01*
X98403462Y-92252380D01*
X98306881Y-92231851D01*
X98223118Y-92214046D01*
X98223113Y-92214046D01*
X98216661Y-92212674D01*
X98025687Y-92212674D01*
X98019235Y-92214046D01*
X98019230Y-92214046D01*
X97935467Y-92231851D01*
X97838886Y-92252380D01*
X97832856Y-92255065D01*
X97832855Y-92255065D01*
X97670452Y-92327371D01*
X97670450Y-92327372D01*
X97664422Y-92330056D01*
X97659081Y-92333936D01*
X97659080Y-92333937D01*
X97624385Y-92359145D01*
X97509921Y-92442308D01*
X97505500Y-92447218D01*
X97505499Y-92447219D01*
X97394253Y-92570771D01*
X97382134Y-92584230D01*
X97329432Y-92675513D01*
X97310189Y-92708843D01*
X97286647Y-92749618D01*
X97227632Y-92931246D01*
X97207670Y-93121174D01*
X97227632Y-93311102D01*
X97286647Y-93492730D01*
X97289950Y-93498452D01*
X97289951Y-93498453D01*
X97378890Y-93652500D01*
X97395628Y-93721495D01*
X97372407Y-93788587D01*
X97316600Y-93832474D01*
X97269771Y-93841500D01*
X96471556Y-93841500D01*
X96459700Y-93840941D01*
X96459697Y-93840941D01*
X96451963Y-93839212D01*
X96396946Y-93840941D01*
X96381131Y-93841438D01*
X96377173Y-93841500D01*
X96348068Y-93841500D01*
X96343668Y-93842056D01*
X96331836Y-93842988D01*
X96285669Y-93844438D01*
X96265079Y-93850420D01*
X96245718Y-93854430D01*
X96238730Y-93855312D01*
X96232296Y-93856125D01*
X96232295Y-93856125D01*
X96224436Y-93857118D01*
X96217071Y-93860034D01*
X96217067Y-93860035D01*
X96181479Y-93874126D01*
X96170269Y-93877965D01*
X96125900Y-93890855D01*
X96107435Y-93901775D01*
X96089695Y-93910466D01*
X96069744Y-93918365D01*
X96032374Y-93945516D01*
X96022452Y-93952033D01*
X95989523Y-93971507D01*
X95989519Y-93971510D01*
X95982693Y-93975547D01*
X95967529Y-93990711D01*
X95952496Y-94003551D01*
X95935143Y-94016159D01*
X95905698Y-94051752D01*
X95897708Y-94060532D01*
X95513645Y-94444595D01*
X95451333Y-94478621D01*
X95424550Y-94481500D01*
X95404013Y-94481500D01*
X95397561Y-94482872D01*
X95397556Y-94482872D01*
X95310612Y-94501353D01*
X95217212Y-94521206D01*
X95211182Y-94523891D01*
X95211181Y-94523891D01*
X95048778Y-94596197D01*
X95048776Y-94596198D01*
X95042748Y-94598882D01*
X94888247Y-94711134D01*
X94883826Y-94716044D01*
X94883825Y-94716045D01*
X94789203Y-94821134D01*
X94760460Y-94853056D01*
X94726342Y-94912150D01*
X94678883Y-94994352D01*
X94664973Y-95018444D01*
X94605958Y-95200072D01*
X94585996Y-95390000D01*
X94605958Y-95579928D01*
X94664973Y-95761556D01*
X94760460Y-95926944D01*
X94764878Y-95931851D01*
X94764879Y-95931852D01*
X94883825Y-96063955D01*
X94888247Y-96068866D01*
X95042748Y-96181118D01*
X95048776Y-96183802D01*
X95048778Y-96183803D01*
X95211181Y-96256109D01*
X95217212Y-96258794D01*
X95283726Y-96272932D01*
X95397556Y-96297128D01*
X95397561Y-96297128D01*
X95404013Y-96298500D01*
X95594987Y-96298500D01*
X95601439Y-96297128D01*
X95601444Y-96297128D01*
X95715274Y-96272932D01*
X95781788Y-96258794D01*
X95787819Y-96256109D01*
X95950222Y-96183803D01*
X95950224Y-96183802D01*
X95956252Y-96181118D01*
X96110753Y-96068866D01*
X96115176Y-96063954D01*
X96115480Y-96063680D01*
X96179486Y-96032961D01*
X96249940Y-96041723D01*
X96293426Y-96073001D01*
X96388747Y-96178866D01*
X96543248Y-96291118D01*
X96549276Y-96293802D01*
X96549278Y-96293803D01*
X96711681Y-96366109D01*
X96717712Y-96368794D01*
X96811113Y-96388647D01*
X96898056Y-96407128D01*
X96898061Y-96407128D01*
X96904513Y-96408500D01*
X97095487Y-96408500D01*
X97101939Y-96407128D01*
X97101944Y-96407128D01*
X97188887Y-96388647D01*
X97282288Y-96368794D01*
X97288319Y-96366109D01*
X97450722Y-96293803D01*
X97450724Y-96293802D01*
X97456752Y-96291118D01*
X97606163Y-96182564D01*
X97673031Y-96158706D01*
X97680224Y-96158500D01*
X99819776Y-96158500D01*
X99893837Y-96182564D01*
X99977736Y-96243521D01*
X100021089Y-96299741D01*
X100027164Y-96370477D01*
X99992769Y-96434550D01*
X98310138Y-98117181D01*
X98247826Y-98151207D01*
X98221043Y-98154086D01*
X88154484Y-98154086D01*
X88135534Y-98152653D01*
X88121299Y-98150487D01*
X88121295Y-98150487D01*
X88114065Y-98149387D01*
X88106773Y-98149980D01*
X88106770Y-98149980D01*
X88061396Y-98153671D01*
X88051181Y-98154086D01*
X88043121Y-98154086D01*
X88029831Y-98155635D01*
X88014907Y-98157375D01*
X88010532Y-98157808D01*
X87945075Y-98163132D01*
X87945072Y-98163133D01*
X87937777Y-98163726D01*
X87930813Y-98165982D01*
X87924854Y-98167173D01*
X87918999Y-98168557D01*
X87911733Y-98169404D01*
X87843087Y-98194321D01*
X87838959Y-98195738D01*
X87776478Y-98215979D01*
X87776476Y-98215980D01*
X87769515Y-98218235D01*
X87763260Y-98222031D01*
X87757786Y-98224537D01*
X87752356Y-98227256D01*
X87745477Y-98229753D01*
X87739357Y-98233766D01*
X87739356Y-98233766D01*
X87684438Y-98269772D01*
X87680734Y-98272109D01*
X87618307Y-98309991D01*
X87609930Y-98317389D01*
X87609906Y-98317362D01*
X87606914Y-98320015D01*
X87603681Y-98322718D01*
X87597562Y-98326730D01*
X87592530Y-98332042D01*
X87544286Y-98382969D01*
X87541908Y-98385411D01*
X80843669Y-105083650D01*
X80780772Y-105117801D01*
X80724176Y-105129831D01*
X80724167Y-105129834D01*
X80717712Y-105131206D01*
X80711682Y-105133891D01*
X80711681Y-105133891D01*
X80549278Y-105206197D01*
X80549276Y-105206198D01*
X80543248Y-105208882D01*
X80388747Y-105321134D01*
X80384326Y-105326044D01*
X80384325Y-105326045D01*
X80266542Y-105456857D01*
X80260960Y-105463056D01*
X80165473Y-105628444D01*
X80106458Y-105810072D01*
X80086496Y-106000000D01*
X80087186Y-106006565D01*
X80100254Y-106130896D01*
X80106458Y-106189928D01*
X80165473Y-106371556D01*
X80260960Y-106536944D01*
X80388747Y-106678866D01*
X80543248Y-106791118D01*
X80549276Y-106793802D01*
X80549278Y-106793803D01*
X80699285Y-106860590D01*
X80717712Y-106868794D01*
X80811113Y-106888647D01*
X80898056Y-106907128D01*
X80898061Y-106907128D01*
X80904513Y-106908500D01*
X81095487Y-106908500D01*
X81101939Y-106907128D01*
X81101944Y-106907128D01*
X81188887Y-106888647D01*
X81282288Y-106868794D01*
X81300715Y-106860590D01*
X81450722Y-106793803D01*
X81450724Y-106793802D01*
X81456752Y-106791118D01*
X81611253Y-106678866D01*
X81739040Y-106536944D01*
X81834527Y-106371556D01*
X81889387Y-106202714D01*
X81920125Y-106152556D01*
X87512681Y-100560000D01*
X104134647Y-100560000D01*
X104154022Y-100781463D01*
X104211560Y-100996196D01*
X104213882Y-101001177D01*
X104213883Y-101001178D01*
X104303186Y-101192689D01*
X104303189Y-101192694D01*
X104305512Y-101197676D01*
X104308668Y-101202183D01*
X104308669Y-101202185D01*
X104388318Y-101315935D01*
X104433023Y-101379781D01*
X104590219Y-101536977D01*
X104594727Y-101540134D01*
X104594730Y-101540136D01*
X104658027Y-101584457D01*
X104772323Y-101664488D01*
X104777305Y-101666811D01*
X104777310Y-101666814D01*
X104967810Y-101755645D01*
X104973804Y-101758440D01*
X104979112Y-101759862D01*
X104979114Y-101759863D01*
X105022514Y-101771492D01*
X105188537Y-101815978D01*
X105410000Y-101835353D01*
X105631463Y-101815978D01*
X105797486Y-101771492D01*
X105840886Y-101759863D01*
X105840888Y-101759862D01*
X105846196Y-101758440D01*
X105852190Y-101755645D01*
X106042690Y-101666814D01*
X106042695Y-101666811D01*
X106047677Y-101664488D01*
X106161973Y-101584457D01*
X106225270Y-101540136D01*
X106225273Y-101540134D01*
X106229781Y-101536977D01*
X106386977Y-101379781D01*
X106431683Y-101315935D01*
X106511331Y-101202185D01*
X106511332Y-101202183D01*
X106514488Y-101197676D01*
X106516811Y-101192694D01*
X106516814Y-101192689D01*
X106565805Y-101087627D01*
X106612723Y-101034342D01*
X106681000Y-101014881D01*
X106748960Y-101035423D01*
X106794195Y-101087627D01*
X106843186Y-101192689D01*
X106843189Y-101192694D01*
X106845512Y-101197676D01*
X106848668Y-101202183D01*
X106848669Y-101202185D01*
X106928318Y-101315935D01*
X106973023Y-101379781D01*
X107130219Y-101536977D01*
X107134727Y-101540134D01*
X107134730Y-101540136D01*
X107198027Y-101584457D01*
X107312323Y-101664488D01*
X107317305Y-101666811D01*
X107317310Y-101666814D01*
X107507810Y-101755645D01*
X107513804Y-101758440D01*
X107519112Y-101759862D01*
X107519114Y-101759863D01*
X107562514Y-101771492D01*
X107728537Y-101815978D01*
X107950000Y-101835353D01*
X108171463Y-101815978D01*
X108337486Y-101771492D01*
X108380886Y-101759863D01*
X108380888Y-101759862D01*
X108386196Y-101758440D01*
X108392190Y-101755645D01*
X108582690Y-101666814D01*
X108582695Y-101666811D01*
X108587677Y-101664488D01*
X108701973Y-101584457D01*
X108765270Y-101540136D01*
X108765273Y-101540134D01*
X108769781Y-101536977D01*
X108926977Y-101379781D01*
X108971683Y-101315935D01*
X109051331Y-101202185D01*
X109051332Y-101202183D01*
X109054488Y-101197676D01*
X109056811Y-101192694D01*
X109056814Y-101192689D01*
X109105805Y-101087627D01*
X109152723Y-101034342D01*
X109221000Y-101014881D01*
X109288960Y-101035423D01*
X109334195Y-101087627D01*
X109383186Y-101192689D01*
X109383189Y-101192694D01*
X109385512Y-101197676D01*
X109388668Y-101202183D01*
X109388669Y-101202185D01*
X109468318Y-101315935D01*
X109513023Y-101379781D01*
X109670219Y-101536977D01*
X109674727Y-101540134D01*
X109674730Y-101540136D01*
X109738027Y-101584457D01*
X109852323Y-101664488D01*
X109857305Y-101666811D01*
X109857310Y-101666814D01*
X110047810Y-101755645D01*
X110053804Y-101758440D01*
X110059112Y-101759862D01*
X110059114Y-101759863D01*
X110102514Y-101771492D01*
X110268537Y-101815978D01*
X110490000Y-101835353D01*
X110711463Y-101815978D01*
X110877486Y-101771492D01*
X110920886Y-101759863D01*
X110920888Y-101759862D01*
X110926196Y-101758440D01*
X110932190Y-101755645D01*
X111122690Y-101666814D01*
X111122695Y-101666811D01*
X111127677Y-101664488D01*
X111241973Y-101584457D01*
X111305270Y-101540136D01*
X111305273Y-101540134D01*
X111309781Y-101536977D01*
X111466977Y-101379781D01*
X111511683Y-101315935D01*
X111591331Y-101202185D01*
X111591332Y-101202183D01*
X111594488Y-101197676D01*
X111596811Y-101192694D01*
X111596814Y-101192689D01*
X111645805Y-101087627D01*
X111692723Y-101034342D01*
X111761000Y-101014881D01*
X111828960Y-101035423D01*
X111874195Y-101087627D01*
X111923186Y-101192689D01*
X111923189Y-101192694D01*
X111925512Y-101197676D01*
X111928668Y-101202183D01*
X111928669Y-101202185D01*
X112008318Y-101315935D01*
X112053023Y-101379781D01*
X112210219Y-101536977D01*
X112214727Y-101540134D01*
X112214730Y-101540136D01*
X112278027Y-101584457D01*
X112392323Y-101664488D01*
X112397305Y-101666811D01*
X112397310Y-101666814D01*
X112587810Y-101755645D01*
X112593804Y-101758440D01*
X112599112Y-101759862D01*
X112599114Y-101759863D01*
X112642514Y-101771492D01*
X112808537Y-101815978D01*
X113030000Y-101835353D01*
X113251463Y-101815978D01*
X113417486Y-101771492D01*
X113460886Y-101759863D01*
X113460888Y-101759862D01*
X113466196Y-101758440D01*
X113472190Y-101755645D01*
X113662690Y-101666814D01*
X113662695Y-101666811D01*
X113667677Y-101664488D01*
X113781973Y-101584457D01*
X113845270Y-101540136D01*
X113845273Y-101540134D01*
X113849781Y-101536977D01*
X114006977Y-101379781D01*
X114051683Y-101315935D01*
X114131331Y-101202185D01*
X114131332Y-101202183D01*
X114134488Y-101197676D01*
X114136811Y-101192694D01*
X114136814Y-101192689D01*
X114185805Y-101087627D01*
X114232723Y-101034342D01*
X114301000Y-101014881D01*
X114368960Y-101035423D01*
X114414195Y-101087627D01*
X114463186Y-101192689D01*
X114463189Y-101192694D01*
X114465512Y-101197676D01*
X114468668Y-101202183D01*
X114468669Y-101202185D01*
X114548318Y-101315935D01*
X114593023Y-101379781D01*
X114750219Y-101536977D01*
X114754727Y-101540134D01*
X114754730Y-101540136D01*
X114818027Y-101584457D01*
X114932323Y-101664488D01*
X114937305Y-101666811D01*
X114937310Y-101666814D01*
X115127810Y-101755645D01*
X115133804Y-101758440D01*
X115139112Y-101759862D01*
X115139114Y-101759863D01*
X115182514Y-101771492D01*
X115348537Y-101815978D01*
X115570000Y-101835353D01*
X115791463Y-101815978D01*
X115957486Y-101771492D01*
X116000886Y-101759863D01*
X116000888Y-101759862D01*
X116006196Y-101758440D01*
X116012190Y-101755645D01*
X116202690Y-101666814D01*
X116202695Y-101666811D01*
X116207677Y-101664488D01*
X116321973Y-101584457D01*
X116385270Y-101540136D01*
X116385273Y-101540134D01*
X116389781Y-101536977D01*
X116546977Y-101379781D01*
X116591683Y-101315935D01*
X116671331Y-101202185D01*
X116671332Y-101202183D01*
X116674488Y-101197676D01*
X116676811Y-101192694D01*
X116676814Y-101192689D01*
X116725805Y-101087627D01*
X116772723Y-101034342D01*
X116841000Y-101014881D01*
X116908960Y-101035423D01*
X116954195Y-101087627D01*
X117003186Y-101192689D01*
X117003189Y-101192694D01*
X117005512Y-101197676D01*
X117008668Y-101202183D01*
X117008669Y-101202185D01*
X117088318Y-101315935D01*
X117133023Y-101379781D01*
X117290219Y-101536977D01*
X117294727Y-101540134D01*
X117294730Y-101540136D01*
X117358027Y-101584457D01*
X117472323Y-101664488D01*
X117477305Y-101666811D01*
X117477310Y-101666814D01*
X117667810Y-101755645D01*
X117673804Y-101758440D01*
X117679112Y-101759862D01*
X117679114Y-101759863D01*
X117722514Y-101771492D01*
X117888537Y-101815978D01*
X118110000Y-101835353D01*
X118331463Y-101815978D01*
X118497486Y-101771492D01*
X118540886Y-101759863D01*
X118540888Y-101759862D01*
X118546196Y-101758440D01*
X118552190Y-101755645D01*
X118742690Y-101666814D01*
X118742695Y-101666811D01*
X118747677Y-101664488D01*
X118812959Y-101618777D01*
X119955777Y-101618777D01*
X119965074Y-101630793D01*
X120008069Y-101660898D01*
X120017555Y-101666376D01*
X120208993Y-101755645D01*
X120219285Y-101759391D01*
X120423309Y-101814059D01*
X120434104Y-101815962D01*
X120644525Y-101834372D01*
X120655475Y-101834372D01*
X120865896Y-101815962D01*
X120876691Y-101814059D01*
X121080715Y-101759391D01*
X121091007Y-101755645D01*
X121282445Y-101666376D01*
X121291931Y-101660898D01*
X121335764Y-101630207D01*
X121344139Y-101619729D01*
X121337071Y-101606281D01*
X120662812Y-100932022D01*
X120648868Y-100924408D01*
X120647035Y-100924539D01*
X120640420Y-100928790D01*
X119962207Y-101607003D01*
X119955777Y-101618777D01*
X118812959Y-101618777D01*
X118861973Y-101584457D01*
X118925270Y-101540136D01*
X118925273Y-101540134D01*
X118929781Y-101536977D01*
X119086977Y-101379781D01*
X119131683Y-101315935D01*
X119211331Y-101202185D01*
X119211332Y-101202183D01*
X119214488Y-101197676D01*
X119216811Y-101192694D01*
X119216814Y-101192689D01*
X119266081Y-101087035D01*
X119312999Y-101033750D01*
X119381276Y-101014289D01*
X119449236Y-101034831D01*
X119494471Y-101087035D01*
X119543623Y-101192441D01*
X119549103Y-101201932D01*
X119579794Y-101245765D01*
X119590271Y-101254140D01*
X119603718Y-101247072D01*
X120277978Y-100572812D01*
X120285592Y-100558868D01*
X120285461Y-100557035D01*
X120281210Y-100550420D01*
X119602997Y-99872207D01*
X119591223Y-99865777D01*
X119579207Y-99875074D01*
X119549103Y-99918068D01*
X119543623Y-99927559D01*
X119494471Y-100032965D01*
X119447553Y-100086250D01*
X119379276Y-100105711D01*
X119311316Y-100085169D01*
X119266081Y-100032965D01*
X119216814Y-99927311D01*
X119216811Y-99927306D01*
X119214488Y-99922324D01*
X119187209Y-99883365D01*
X119090136Y-99744730D01*
X119090134Y-99744727D01*
X119086977Y-99740219D01*
X118929781Y-99583023D01*
X118925273Y-99579866D01*
X118925270Y-99579864D01*
X118832893Y-99515181D01*
X118811599Y-99500271D01*
X119955860Y-99500271D01*
X119962928Y-99513718D01*
X120637188Y-100187978D01*
X120651132Y-100195592D01*
X120652965Y-100195461D01*
X120659580Y-100191210D01*
X121337793Y-99512997D01*
X121344223Y-99501223D01*
X121334926Y-99489207D01*
X121291931Y-99459102D01*
X121282445Y-99453624D01*
X121091007Y-99364355D01*
X121080715Y-99360609D01*
X120876691Y-99305941D01*
X120865896Y-99304038D01*
X120655475Y-99285628D01*
X120644525Y-99285628D01*
X120434104Y-99304038D01*
X120423309Y-99305941D01*
X120219285Y-99360609D01*
X120208993Y-99364355D01*
X120017559Y-99453623D01*
X120008068Y-99459103D01*
X119964235Y-99489794D01*
X119955860Y-99500271D01*
X118811599Y-99500271D01*
X118747677Y-99455512D01*
X118742695Y-99453189D01*
X118742690Y-99453186D01*
X118551178Y-99363883D01*
X118551177Y-99363882D01*
X118546196Y-99361560D01*
X118540888Y-99360138D01*
X118540886Y-99360137D01*
X118475051Y-99342497D01*
X118331463Y-99304022D01*
X118110000Y-99284647D01*
X117888537Y-99304022D01*
X117744949Y-99342497D01*
X117679114Y-99360137D01*
X117679112Y-99360138D01*
X117673804Y-99361560D01*
X117668823Y-99363882D01*
X117668822Y-99363883D01*
X117477311Y-99453186D01*
X117477306Y-99453189D01*
X117472324Y-99455512D01*
X117467817Y-99458668D01*
X117467815Y-99458669D01*
X117294730Y-99579864D01*
X117294727Y-99579866D01*
X117290219Y-99583023D01*
X117133023Y-99740219D01*
X117129866Y-99744727D01*
X117129864Y-99744730D01*
X117032791Y-99883365D01*
X117005512Y-99922324D01*
X117003189Y-99927306D01*
X117003186Y-99927311D01*
X116954195Y-100032373D01*
X116907277Y-100085658D01*
X116839000Y-100105119D01*
X116771040Y-100084577D01*
X116725805Y-100032373D01*
X116676814Y-99927311D01*
X116676811Y-99927306D01*
X116674488Y-99922324D01*
X116647209Y-99883365D01*
X116550136Y-99744730D01*
X116550134Y-99744727D01*
X116546977Y-99740219D01*
X116389781Y-99583023D01*
X116385273Y-99579866D01*
X116385270Y-99579864D01*
X116292893Y-99515181D01*
X116207677Y-99455512D01*
X116202695Y-99453189D01*
X116202690Y-99453186D01*
X116011178Y-99363883D01*
X116011177Y-99363882D01*
X116006196Y-99361560D01*
X116000888Y-99360138D01*
X116000886Y-99360137D01*
X115935051Y-99342497D01*
X115791463Y-99304022D01*
X115570000Y-99284647D01*
X115348537Y-99304022D01*
X115204949Y-99342497D01*
X115139114Y-99360137D01*
X115139112Y-99360138D01*
X115133804Y-99361560D01*
X115128823Y-99363882D01*
X115128822Y-99363883D01*
X114937311Y-99453186D01*
X114937306Y-99453189D01*
X114932324Y-99455512D01*
X114927817Y-99458668D01*
X114927815Y-99458669D01*
X114754730Y-99579864D01*
X114754727Y-99579866D01*
X114750219Y-99583023D01*
X114593023Y-99740219D01*
X114589866Y-99744727D01*
X114589864Y-99744730D01*
X114492791Y-99883365D01*
X114465512Y-99922324D01*
X114463189Y-99927306D01*
X114463186Y-99927311D01*
X114414195Y-100032373D01*
X114367277Y-100085658D01*
X114299000Y-100105119D01*
X114231040Y-100084577D01*
X114185805Y-100032373D01*
X114136814Y-99927311D01*
X114136811Y-99927306D01*
X114134488Y-99922324D01*
X114107209Y-99883365D01*
X114010136Y-99744730D01*
X114010134Y-99744727D01*
X114006977Y-99740219D01*
X113849781Y-99583023D01*
X113845273Y-99579866D01*
X113845270Y-99579864D01*
X113752893Y-99515181D01*
X113667677Y-99455512D01*
X113662695Y-99453189D01*
X113662690Y-99453186D01*
X113471178Y-99363883D01*
X113471177Y-99363882D01*
X113466196Y-99361560D01*
X113460888Y-99360138D01*
X113460886Y-99360137D01*
X113395051Y-99342497D01*
X113251463Y-99304022D01*
X113030000Y-99284647D01*
X112808537Y-99304022D01*
X112664949Y-99342497D01*
X112599114Y-99360137D01*
X112599112Y-99360138D01*
X112593804Y-99361560D01*
X112588823Y-99363882D01*
X112588822Y-99363883D01*
X112397311Y-99453186D01*
X112397306Y-99453189D01*
X112392324Y-99455512D01*
X112387817Y-99458668D01*
X112387815Y-99458669D01*
X112214730Y-99579864D01*
X112214727Y-99579866D01*
X112210219Y-99583023D01*
X112053023Y-99740219D01*
X112049866Y-99744727D01*
X112049864Y-99744730D01*
X111952791Y-99883365D01*
X111925512Y-99922324D01*
X111923189Y-99927306D01*
X111923186Y-99927311D01*
X111874195Y-100032373D01*
X111827277Y-100085658D01*
X111759000Y-100105119D01*
X111691040Y-100084577D01*
X111645805Y-100032373D01*
X111596814Y-99927311D01*
X111596811Y-99927306D01*
X111594488Y-99922324D01*
X111567209Y-99883365D01*
X111470136Y-99744730D01*
X111470134Y-99744727D01*
X111466977Y-99740219D01*
X111309781Y-99583023D01*
X111305273Y-99579866D01*
X111305270Y-99579864D01*
X111212893Y-99515181D01*
X111127677Y-99455512D01*
X111122695Y-99453189D01*
X111122690Y-99453186D01*
X110931178Y-99363883D01*
X110931177Y-99363882D01*
X110926196Y-99361560D01*
X110920888Y-99360138D01*
X110920886Y-99360137D01*
X110855051Y-99342497D01*
X110711463Y-99304022D01*
X110490000Y-99284647D01*
X110268537Y-99304022D01*
X110124949Y-99342497D01*
X110059114Y-99360137D01*
X110059112Y-99360138D01*
X110053804Y-99361560D01*
X110048823Y-99363882D01*
X110048822Y-99363883D01*
X109857311Y-99453186D01*
X109857306Y-99453189D01*
X109852324Y-99455512D01*
X109847817Y-99458668D01*
X109847815Y-99458669D01*
X109674730Y-99579864D01*
X109674727Y-99579866D01*
X109670219Y-99583023D01*
X109513023Y-99740219D01*
X109509866Y-99744727D01*
X109509864Y-99744730D01*
X109412791Y-99883365D01*
X109385512Y-99922324D01*
X109383189Y-99927306D01*
X109383186Y-99927311D01*
X109334195Y-100032373D01*
X109287277Y-100085658D01*
X109219000Y-100105119D01*
X109151040Y-100084577D01*
X109105805Y-100032373D01*
X109056814Y-99927311D01*
X109056811Y-99927306D01*
X109054488Y-99922324D01*
X109027209Y-99883365D01*
X108930136Y-99744730D01*
X108930134Y-99744727D01*
X108926977Y-99740219D01*
X108769781Y-99583023D01*
X108765273Y-99579866D01*
X108765270Y-99579864D01*
X108672893Y-99515181D01*
X108587677Y-99455512D01*
X108582695Y-99453189D01*
X108582690Y-99453186D01*
X108391178Y-99363883D01*
X108391177Y-99363882D01*
X108386196Y-99361560D01*
X108380888Y-99360138D01*
X108380886Y-99360137D01*
X108315051Y-99342497D01*
X108171463Y-99304022D01*
X107950000Y-99284647D01*
X107728537Y-99304022D01*
X107584949Y-99342497D01*
X107519114Y-99360137D01*
X107519112Y-99360138D01*
X107513804Y-99361560D01*
X107508823Y-99363882D01*
X107508822Y-99363883D01*
X107317311Y-99453186D01*
X107317306Y-99453189D01*
X107312324Y-99455512D01*
X107307817Y-99458668D01*
X107307815Y-99458669D01*
X107134730Y-99579864D01*
X107134727Y-99579866D01*
X107130219Y-99583023D01*
X106973023Y-99740219D01*
X106969866Y-99744727D01*
X106969864Y-99744730D01*
X106872791Y-99883365D01*
X106845512Y-99922324D01*
X106843189Y-99927306D01*
X106843186Y-99927311D01*
X106794195Y-100032373D01*
X106747277Y-100085658D01*
X106679000Y-100105119D01*
X106611040Y-100084577D01*
X106565805Y-100032373D01*
X106516814Y-99927311D01*
X106516811Y-99927306D01*
X106514488Y-99922324D01*
X106487209Y-99883365D01*
X106390136Y-99744730D01*
X106390134Y-99744727D01*
X106386977Y-99740219D01*
X106229781Y-99583023D01*
X106225273Y-99579866D01*
X106225270Y-99579864D01*
X106132893Y-99515181D01*
X106047677Y-99455512D01*
X106042695Y-99453189D01*
X106042690Y-99453186D01*
X105851178Y-99363883D01*
X105851177Y-99363882D01*
X105846196Y-99361560D01*
X105840888Y-99360138D01*
X105840886Y-99360137D01*
X105775051Y-99342497D01*
X105631463Y-99304022D01*
X105410000Y-99284647D01*
X105188537Y-99304022D01*
X105044949Y-99342497D01*
X104979114Y-99360137D01*
X104979112Y-99360138D01*
X104973804Y-99361560D01*
X104968823Y-99363882D01*
X104968822Y-99363883D01*
X104777311Y-99453186D01*
X104777306Y-99453189D01*
X104772324Y-99455512D01*
X104767817Y-99458668D01*
X104767815Y-99458669D01*
X104594730Y-99579864D01*
X104594727Y-99579866D01*
X104590219Y-99583023D01*
X104433023Y-99740219D01*
X104429866Y-99744727D01*
X104429864Y-99744730D01*
X104332791Y-99883365D01*
X104305512Y-99922324D01*
X104303189Y-99927306D01*
X104303186Y-99927311D01*
X104292649Y-99949908D01*
X104211560Y-100123804D01*
X104154022Y-100338537D01*
X104134647Y-100560000D01*
X87512681Y-100560000D01*
X88364690Y-99707991D01*
X88427002Y-99673965D01*
X88453785Y-99671086D01*
X98520344Y-99671086D01*
X98539294Y-99672519D01*
X98553529Y-99674685D01*
X98553533Y-99674685D01*
X98560763Y-99675785D01*
X98568055Y-99675192D01*
X98568058Y-99675192D01*
X98613432Y-99671501D01*
X98623647Y-99671086D01*
X98631707Y-99671086D01*
X98644997Y-99669537D01*
X98659921Y-99667797D01*
X98664296Y-99667364D01*
X98729753Y-99662040D01*
X98729756Y-99662039D01*
X98737051Y-99661446D01*
X98744015Y-99659190D01*
X98749974Y-99657999D01*
X98755829Y-99656615D01*
X98763095Y-99655768D01*
X98831741Y-99630851D01*
X98835869Y-99629434D01*
X98898350Y-99609193D01*
X98898352Y-99609192D01*
X98905313Y-99606937D01*
X98911568Y-99603141D01*
X98917042Y-99600635D01*
X98922472Y-99597916D01*
X98929351Y-99595419D01*
X98990390Y-99555400D01*
X98994094Y-99553063D01*
X99056521Y-99515181D01*
X99064898Y-99507783D01*
X99064922Y-99507810D01*
X99067914Y-99505157D01*
X99071147Y-99502454D01*
X99077266Y-99498442D01*
X99130542Y-99442203D01*
X99132920Y-99439761D01*
X103488911Y-95083770D01*
X103503323Y-95071384D01*
X103514918Y-95062851D01*
X103514923Y-95062846D01*
X103520818Y-95058508D01*
X103525557Y-95052930D01*
X103525560Y-95052927D01*
X103555035Y-95018232D01*
X103561965Y-95010716D01*
X103567660Y-95005021D01*
X103576101Y-94994352D01*
X103585281Y-94982749D01*
X103588072Y-94979345D01*
X103630591Y-94929297D01*
X103630592Y-94929295D01*
X103635333Y-94923715D01*
X103638661Y-94917199D01*
X103642028Y-94912150D01*
X103645195Y-94907021D01*
X103649734Y-94901284D01*
X103680655Y-94835125D01*
X103682561Y-94831225D01*
X103687714Y-94821134D01*
X103715769Y-94766192D01*
X103717508Y-94759084D01*
X103719607Y-94753441D01*
X103721524Y-94747678D01*
X103724622Y-94741050D01*
X103739487Y-94669583D01*
X103740457Y-94665299D01*
X103756473Y-94599845D01*
X103757808Y-94594390D01*
X103758500Y-94583236D01*
X103758536Y-94583238D01*
X103758775Y-94579245D01*
X103759149Y-94575053D01*
X103760640Y-94567885D01*
X103758546Y-94490479D01*
X103758500Y-94487072D01*
X103758500Y-82067070D01*
X103759933Y-82048120D01*
X103762099Y-82033885D01*
X103762099Y-82033881D01*
X103763199Y-82026651D01*
X103758915Y-81973982D01*
X103758500Y-81963767D01*
X103758500Y-81955707D01*
X103755209Y-81927480D01*
X103754778Y-81923121D01*
X103748860Y-81850364D01*
X103746605Y-81843403D01*
X103745418Y-81837463D01*
X103744029Y-81831588D01*
X103743182Y-81824319D01*
X103718264Y-81755670D01*
X103716847Y-81751542D01*
X103696607Y-81689064D01*
X103696606Y-81689062D01*
X103694351Y-81682101D01*
X103690555Y-81675846D01*
X103688049Y-81670372D01*
X103685330Y-81664942D01*
X103682833Y-81658063D01*
X103659746Y-81622850D01*
X103642814Y-81597024D01*
X103640467Y-81593305D01*
X103620168Y-81559853D01*
X103602595Y-81530893D01*
X103595197Y-81522516D01*
X103595224Y-81522492D01*
X103592571Y-81519500D01*
X103589868Y-81516267D01*
X103585856Y-81510148D01*
X103529617Y-81456872D01*
X103527175Y-81454494D01*
X98583770Y-76511089D01*
X98571384Y-76496677D01*
X98562851Y-76485082D01*
X98562846Y-76485077D01*
X98558508Y-76479182D01*
X98552930Y-76474443D01*
X98552927Y-76474440D01*
X98518232Y-76444965D01*
X98510716Y-76438035D01*
X98505021Y-76432340D01*
X98498880Y-76427482D01*
X98482749Y-76414719D01*
X98479345Y-76411928D01*
X98429297Y-76369409D01*
X98429295Y-76369408D01*
X98423715Y-76364667D01*
X98417199Y-76361339D01*
X98412150Y-76357972D01*
X98407021Y-76354805D01*
X98401284Y-76350266D01*
X98335125Y-76319345D01*
X98331225Y-76317439D01*
X98266192Y-76284231D01*
X98259084Y-76282492D01*
X98253441Y-76280393D01*
X98247678Y-76278476D01*
X98241050Y-76275378D01*
X98169583Y-76260513D01*
X98165299Y-76259543D01*
X98094390Y-76242192D01*
X98088788Y-76241844D01*
X98088785Y-76241844D01*
X98083236Y-76241500D01*
X98083238Y-76241464D01*
X98079245Y-76241225D01*
X98075053Y-76240851D01*
X98067885Y-76239360D01*
X98001675Y-76241151D01*
X97990479Y-76241454D01*
X97987072Y-76241500D01*
X92775371Y-76241500D01*
X92707250Y-76221498D01*
X92660757Y-76167842D01*
X92650653Y-76097568D01*
X92680147Y-76032988D01*
X92686276Y-76026405D01*
X97164547Y-71548134D01*
X110691500Y-71548134D01*
X110698255Y-71610316D01*
X110749385Y-71746705D01*
X110836739Y-71863261D01*
X110953295Y-71950615D01*
X111089684Y-72001745D01*
X111151866Y-72008500D01*
X113248134Y-72008500D01*
X113310316Y-72001745D01*
X113446705Y-71950615D01*
X113563261Y-71863261D01*
X113650615Y-71746705D01*
X113655876Y-71732670D01*
X118932160Y-71732670D01*
X118937887Y-71740320D01*
X119109042Y-71845205D01*
X119117837Y-71849687D01*
X119327988Y-71936734D01*
X119337373Y-71939783D01*
X119558554Y-71992885D01*
X119568301Y-71994428D01*
X119795070Y-72012275D01*
X119804930Y-72012275D01*
X120031699Y-71994428D01*
X120041446Y-71992885D01*
X120262627Y-71939783D01*
X120272012Y-71936734D01*
X120482163Y-71849687D01*
X120490958Y-71845205D01*
X120658445Y-71742568D01*
X120667907Y-71732110D01*
X120664124Y-71723334D01*
X119812812Y-70872022D01*
X119798868Y-70864408D01*
X119797035Y-70864539D01*
X119790420Y-70868790D01*
X118938920Y-71720290D01*
X118932160Y-71732670D01*
X113655876Y-71732670D01*
X113701745Y-71610316D01*
X113708500Y-71548134D01*
X113708500Y-70504930D01*
X118287725Y-70504930D01*
X118305572Y-70731699D01*
X118307115Y-70741446D01*
X118360217Y-70962627D01*
X118363266Y-70972012D01*
X118450313Y-71182163D01*
X118454795Y-71190958D01*
X118557432Y-71358445D01*
X118567890Y-71367907D01*
X118576666Y-71364124D01*
X119427978Y-70512812D01*
X119434356Y-70501132D01*
X120164408Y-70501132D01*
X120164539Y-70502965D01*
X120168790Y-70509580D01*
X121020290Y-71361080D01*
X121032670Y-71367840D01*
X121040320Y-71362113D01*
X121145205Y-71190958D01*
X121149687Y-71182163D01*
X121236734Y-70972012D01*
X121239783Y-70962627D01*
X121292885Y-70741446D01*
X121294428Y-70731699D01*
X121312275Y-70504930D01*
X121312275Y-70495070D01*
X121294428Y-70268301D01*
X121292885Y-70258554D01*
X121239783Y-70037373D01*
X121236734Y-70027988D01*
X121149687Y-69817837D01*
X121145205Y-69809042D01*
X121042568Y-69641555D01*
X121032110Y-69632093D01*
X121023334Y-69635876D01*
X120172022Y-70487188D01*
X120164408Y-70501132D01*
X119434356Y-70501132D01*
X119435592Y-70498868D01*
X119435461Y-70497035D01*
X119431210Y-70490420D01*
X118579710Y-69638920D01*
X118567330Y-69632160D01*
X118559680Y-69637887D01*
X118454795Y-69809042D01*
X118450313Y-69817837D01*
X118363266Y-70027988D01*
X118360217Y-70037373D01*
X118307115Y-70258554D01*
X118305572Y-70268301D01*
X118287725Y-70495070D01*
X118287725Y-70504930D01*
X113708500Y-70504930D01*
X113708500Y-69451866D01*
X113701745Y-69389684D01*
X113656086Y-69267890D01*
X118932093Y-69267890D01*
X118935876Y-69276666D01*
X119787188Y-70127978D01*
X119801132Y-70135592D01*
X119802965Y-70135461D01*
X119809580Y-70131210D01*
X120661080Y-69279710D01*
X120667840Y-69267330D01*
X120662113Y-69259680D01*
X120490958Y-69154795D01*
X120482163Y-69150313D01*
X120272012Y-69063266D01*
X120262627Y-69060217D01*
X120041446Y-69007115D01*
X120031699Y-69005572D01*
X119804930Y-68987725D01*
X119795070Y-68987725D01*
X119568301Y-69005572D01*
X119558554Y-69007115D01*
X119337373Y-69060217D01*
X119327988Y-69063266D01*
X119117837Y-69150313D01*
X119109042Y-69154795D01*
X118941555Y-69257432D01*
X118932093Y-69267890D01*
X113656086Y-69267890D01*
X113650615Y-69253295D01*
X113563261Y-69136739D01*
X113446705Y-69049385D01*
X113310316Y-68998255D01*
X113248134Y-68991500D01*
X111151866Y-68991500D01*
X111089684Y-68998255D01*
X110953295Y-69049385D01*
X110836739Y-69136739D01*
X110749385Y-69253295D01*
X110698255Y-69389684D01*
X110691500Y-69451866D01*
X110691500Y-71548134D01*
X97164547Y-71548134D01*
X97488911Y-71223770D01*
X97503323Y-71211384D01*
X97514918Y-71202851D01*
X97514923Y-71202846D01*
X97520818Y-71198508D01*
X97525557Y-71192930D01*
X97525560Y-71192927D01*
X97555035Y-71158232D01*
X97561965Y-71150716D01*
X97567660Y-71145021D01*
X97585281Y-71122749D01*
X97588072Y-71119345D01*
X97630591Y-71069297D01*
X97630592Y-71069295D01*
X97635333Y-71063715D01*
X97638661Y-71057199D01*
X97642028Y-71052150D01*
X97645195Y-71047021D01*
X97649734Y-71041284D01*
X97680655Y-70975125D01*
X97682561Y-70971225D01*
X97715769Y-70906192D01*
X97717508Y-70899084D01*
X97719607Y-70893441D01*
X97721524Y-70887678D01*
X97724622Y-70881050D01*
X97739487Y-70809583D01*
X97740457Y-70805299D01*
X97756473Y-70739845D01*
X97757808Y-70734390D01*
X97758500Y-70723236D01*
X97758536Y-70723238D01*
X97758775Y-70719245D01*
X97759149Y-70715053D01*
X97760640Y-70707885D01*
X97758546Y-70630479D01*
X97758500Y-70627072D01*
X97758500Y-69036999D01*
X97775381Y-68973999D01*
X97785035Y-68957279D01*
X97834527Y-68871556D01*
X97893542Y-68689928D01*
X97913504Y-68500000D01*
X97901950Y-68390072D01*
X97894232Y-68316635D01*
X97894232Y-68316633D01*
X97893542Y-68310072D01*
X97834527Y-68128444D01*
X97739040Y-67963056D01*
X97611253Y-67821134D01*
X97512157Y-67749136D01*
X97462094Y-67712763D01*
X97462093Y-67712762D01*
X97456752Y-67708882D01*
X97450724Y-67706198D01*
X97450722Y-67706197D01*
X97288319Y-67633891D01*
X97288318Y-67633891D01*
X97282288Y-67631206D01*
X97188888Y-67611353D01*
X97101944Y-67592872D01*
X97101939Y-67592872D01*
X97095487Y-67591500D01*
X96904513Y-67591500D01*
X96898061Y-67592872D01*
X96898056Y-67592872D01*
X96811112Y-67611353D01*
X96717712Y-67631206D01*
X96711682Y-67633891D01*
X96711681Y-67633891D01*
X96549278Y-67706197D01*
X96549276Y-67706198D01*
X96543248Y-67708882D01*
X96537907Y-67712762D01*
X96537906Y-67712763D01*
X96487843Y-67749136D01*
X96388747Y-67821134D01*
X96260960Y-67963056D01*
X96257659Y-67968774D01*
X96211025Y-68049546D01*
X96159643Y-68098539D01*
X96089929Y-68111975D01*
X96024018Y-68085589D01*
X95996546Y-68053884D01*
X95996224Y-68054118D01*
X95993500Y-68050369D01*
X95992787Y-68049546D01*
X95992341Y-68048774D01*
X95989040Y-68043056D01*
X95861253Y-67901134D01*
X95751143Y-67821134D01*
X95712094Y-67792763D01*
X95712093Y-67792762D01*
X95706752Y-67788882D01*
X95700724Y-67786198D01*
X95700722Y-67786197D01*
X95538319Y-67713891D01*
X95538318Y-67713891D01*
X95532288Y-67711206D01*
X95438888Y-67691353D01*
X95351944Y-67672872D01*
X95351939Y-67672872D01*
X95345487Y-67671500D01*
X95154513Y-67671500D01*
X95148061Y-67672872D01*
X95148056Y-67672872D01*
X95061112Y-67691353D01*
X94967712Y-67711206D01*
X94961682Y-67713891D01*
X94961681Y-67713891D01*
X94799278Y-67786197D01*
X94799276Y-67786198D01*
X94793248Y-67788882D01*
X94787907Y-67792762D01*
X94787906Y-67792763D01*
X94748857Y-67821134D01*
X94638747Y-67901134D01*
X94510960Y-68043056D01*
X94415473Y-68208444D01*
X94356458Y-68390072D01*
X94336496Y-68580000D01*
X94337186Y-68586565D01*
X94348710Y-68696206D01*
X94356458Y-68769928D01*
X94415473Y-68951556D01*
X94418776Y-68957278D01*
X94418777Y-68957279D01*
X94438748Y-68991869D01*
X94510960Y-69116944D01*
X94515378Y-69121851D01*
X94515379Y-69121852D01*
X94559136Y-69170449D01*
X94589854Y-69234456D01*
X94591500Y-69254759D01*
X94591500Y-70795050D01*
X94571498Y-70863171D01*
X94554595Y-70884145D01*
X88592395Y-76846345D01*
X88583615Y-76854335D01*
X88583613Y-76854337D01*
X88576920Y-76858584D01*
X88571494Y-76864362D01*
X88571493Y-76864363D01*
X88528396Y-76910257D01*
X88525641Y-76913099D01*
X88505073Y-76933667D01*
X88504090Y-76932684D01*
X88448945Y-76967449D01*
X88377951Y-76966831D01*
X88318561Y-76927928D01*
X88289631Y-76863093D01*
X88288500Y-76846248D01*
X88288500Y-69774950D01*
X88308502Y-69706829D01*
X88325405Y-69685855D01*
X88485855Y-69525405D01*
X88548167Y-69491379D01*
X88574950Y-69488500D01*
X88595487Y-69488500D01*
X88601939Y-69487128D01*
X88601944Y-69487128D01*
X88688888Y-69468647D01*
X88782288Y-69448794D01*
X88788319Y-69446109D01*
X88950722Y-69373803D01*
X88950724Y-69373802D01*
X88956752Y-69371118D01*
X89111253Y-69258866D01*
X89116269Y-69253295D01*
X89234621Y-69121852D01*
X89234622Y-69121851D01*
X89239040Y-69116944D01*
X89311252Y-68991869D01*
X89331223Y-68957279D01*
X89331224Y-68957278D01*
X89334527Y-68951556D01*
X89393542Y-68769928D01*
X89401291Y-68696206D01*
X89412814Y-68586565D01*
X89413504Y-68580000D01*
X89393542Y-68390072D01*
X89334527Y-68208444D01*
X89239040Y-68043056D01*
X89111253Y-67901134D01*
X89001143Y-67821134D01*
X88962094Y-67792763D01*
X88962093Y-67792762D01*
X88956752Y-67788882D01*
X88950724Y-67786198D01*
X88950722Y-67786197D01*
X88788319Y-67713891D01*
X88788318Y-67713891D01*
X88782288Y-67711206D01*
X88688888Y-67691353D01*
X88601944Y-67672872D01*
X88601939Y-67672872D01*
X88595487Y-67671500D01*
X88404513Y-67671500D01*
X88398061Y-67672872D01*
X88398056Y-67672872D01*
X88311112Y-67691353D01*
X88217712Y-67711206D01*
X88211682Y-67713891D01*
X88211681Y-67713891D01*
X88049278Y-67786197D01*
X88049276Y-67786198D01*
X88043248Y-67788882D01*
X88037907Y-67792762D01*
X88037906Y-67792763D01*
X87998857Y-67821134D01*
X87888747Y-67901134D01*
X87760960Y-68043056D01*
X87665473Y-68208444D01*
X87606458Y-68390072D01*
X87605768Y-68396635D01*
X87605768Y-68396636D01*
X87593245Y-68515786D01*
X87566232Y-68581442D01*
X87557030Y-68591710D01*
X87222395Y-68926345D01*
X87213615Y-68934335D01*
X87213613Y-68934337D01*
X87206920Y-68938584D01*
X87201494Y-68944362D01*
X87201493Y-68944363D01*
X87158396Y-68990257D01*
X87155641Y-68993099D01*
X87135073Y-69013667D01*
X87132356Y-69017170D01*
X87124648Y-69026195D01*
X87093028Y-69059867D01*
X87089207Y-69066818D01*
X87089206Y-69066819D01*
X87082697Y-69078658D01*
X87071843Y-69095182D01*
X87064018Y-69105271D01*
X87058696Y-69112132D01*
X87055549Y-69119404D01*
X87055548Y-69119406D01*
X87040346Y-69154535D01*
X87035124Y-69165195D01*
X87032236Y-69170449D01*
X87012876Y-69205663D01*
X87007541Y-69226441D01*
X87001142Y-69245131D01*
X86992620Y-69264824D01*
X86985687Y-69308596D01*
X86985394Y-69310448D01*
X86982987Y-69322071D01*
X86971500Y-69366812D01*
X86971500Y-69388259D01*
X86969949Y-69407969D01*
X86966594Y-69429152D01*
X86967340Y-69437043D01*
X86970941Y-69475138D01*
X86971500Y-69486996D01*
X86971500Y-74370552D01*
X86951498Y-74438673D01*
X86897842Y-74485166D01*
X86827568Y-74495270D01*
X86762988Y-74465776D01*
X86756405Y-74459647D01*
X86629781Y-74333023D01*
X86625273Y-74329866D01*
X86625270Y-74329864D01*
X86549505Y-74276813D01*
X86447677Y-74205512D01*
X86442695Y-74203189D01*
X86442690Y-74203186D01*
X86251178Y-74113883D01*
X86251177Y-74113882D01*
X86246196Y-74111560D01*
X86240888Y-74110138D01*
X86240886Y-74110137D01*
X86175051Y-74092497D01*
X86031463Y-74054022D01*
X85810000Y-74034647D01*
X85588537Y-74054022D01*
X85444949Y-74092497D01*
X85379114Y-74110137D01*
X85379112Y-74110138D01*
X85373804Y-74111560D01*
X85368823Y-74113882D01*
X85368822Y-74113883D01*
X85177311Y-74203186D01*
X85177306Y-74203189D01*
X85172324Y-74205512D01*
X85167817Y-74208668D01*
X85167815Y-74208669D01*
X84994730Y-74329864D01*
X84994727Y-74329866D01*
X84990219Y-74333023D01*
X84833023Y-74490219D01*
X84829866Y-74494727D01*
X84829864Y-74494730D01*
X84708669Y-74667815D01*
X84705512Y-74672324D01*
X84703189Y-74677306D01*
X84703186Y-74677311D01*
X84653919Y-74782965D01*
X84607001Y-74836250D01*
X84538724Y-74855711D01*
X84470764Y-74835169D01*
X84425529Y-74782965D01*
X84376377Y-74677559D01*
X84370897Y-74668068D01*
X84340206Y-74624235D01*
X84329729Y-74615860D01*
X84316282Y-74622928D01*
X83642022Y-75297188D01*
X83634408Y-75311132D01*
X83634539Y-75312965D01*
X83638790Y-75319580D01*
X84317003Y-75997793D01*
X84328777Y-76004223D01*
X84340793Y-75994926D01*
X84370897Y-75951932D01*
X84376377Y-75942441D01*
X84425529Y-75837035D01*
X84472447Y-75783750D01*
X84540724Y-75764289D01*
X84608684Y-75784831D01*
X84653919Y-75837035D01*
X84703186Y-75942689D01*
X84703189Y-75942694D01*
X84705512Y-75947676D01*
X84708668Y-75952183D01*
X84708669Y-75952185D01*
X84760639Y-76026405D01*
X84833023Y-76129781D01*
X84990219Y-76286977D01*
X84994727Y-76290134D01*
X84994730Y-76290136D01*
X85033723Y-76317439D01*
X85172323Y-76414488D01*
X85177305Y-76416811D01*
X85177310Y-76416814D01*
X85348578Y-76496677D01*
X85373804Y-76508440D01*
X85379112Y-76509862D01*
X85379114Y-76509863D01*
X85383690Y-76511089D01*
X85588537Y-76565978D01*
X85810000Y-76585353D01*
X86031463Y-76565978D01*
X86236310Y-76511089D01*
X86240886Y-76509863D01*
X86240888Y-76509862D01*
X86246196Y-76508440D01*
X86271422Y-76496677D01*
X86442690Y-76416814D01*
X86442695Y-76416811D01*
X86447677Y-76414488D01*
X86586277Y-76317439D01*
X86625270Y-76290136D01*
X86625273Y-76290134D01*
X86629781Y-76286977D01*
X86756405Y-76160353D01*
X86818717Y-76126327D01*
X86889532Y-76131392D01*
X86946368Y-76173939D01*
X86971179Y-76240459D01*
X86971500Y-76249448D01*
X86971500Y-79047944D01*
X86970941Y-79059800D01*
X86969212Y-79067537D01*
X86969461Y-79075459D01*
X86971438Y-79138369D01*
X86971500Y-79142327D01*
X86971500Y-79171432D01*
X86972056Y-79175832D01*
X86972988Y-79187664D01*
X86974438Y-79233831D01*
X86976650Y-79241444D01*
X86976650Y-79241445D01*
X86980419Y-79254416D01*
X86984430Y-79273782D01*
X86987118Y-79295064D01*
X86990034Y-79302429D01*
X86990035Y-79302433D01*
X87004126Y-79338021D01*
X87007965Y-79349231D01*
X87020855Y-79393600D01*
X87031775Y-79412065D01*
X87040466Y-79429805D01*
X87048365Y-79449756D01*
X87075516Y-79487126D01*
X87082033Y-79497048D01*
X87101507Y-79529977D01*
X87101510Y-79529981D01*
X87105547Y-79536807D01*
X87120711Y-79551971D01*
X87133551Y-79567004D01*
X87146159Y-79584357D01*
X87181752Y-79613802D01*
X87190532Y-79621792D01*
X88872788Y-81304047D01*
X88880778Y-81312828D01*
X88880786Y-81312837D01*
X88885031Y-81319527D01*
X88906961Y-81340121D01*
X88936721Y-81368067D01*
X88939563Y-81370822D01*
X88960114Y-81391373D01*
X88963248Y-81393804D01*
X88963610Y-81394085D01*
X88972638Y-81401795D01*
X89006314Y-81433419D01*
X89013265Y-81437240D01*
X89013266Y-81437241D01*
X89025102Y-81443748D01*
X89041630Y-81454604D01*
X89044553Y-81456872D01*
X89052316Y-81462894D01*
X89052318Y-81462895D01*
X89058578Y-81467751D01*
X89100991Y-81486104D01*
X89111628Y-81491315D01*
X89152110Y-81513571D01*
X89159789Y-81515543D01*
X89159790Y-81515543D01*
X89172881Y-81518904D01*
X89191583Y-81525306D01*
X89211270Y-81533826D01*
X89219099Y-81535066D01*
X89256895Y-81541052D01*
X89268521Y-81543460D01*
X89305582Y-81552976D01*
X89305583Y-81552976D01*
X89313259Y-81554947D01*
X89334705Y-81554947D01*
X89354415Y-81556498D01*
X89375598Y-81559853D01*
X89421582Y-81555506D01*
X89433441Y-81554947D01*
X90289264Y-81554947D01*
X90301120Y-81555506D01*
X90301123Y-81555506D01*
X90308857Y-81557235D01*
X90379689Y-81555009D01*
X90383647Y-81554947D01*
X90412752Y-81554947D01*
X90417152Y-81554391D01*
X90428984Y-81553459D01*
X90475151Y-81552009D01*
X90495741Y-81546027D01*
X90515102Y-81542017D01*
X90522744Y-81541052D01*
X90528524Y-81540322D01*
X90528525Y-81540322D01*
X90536384Y-81539329D01*
X90543749Y-81536413D01*
X90543753Y-81536412D01*
X90579341Y-81522321D01*
X90590551Y-81518482D01*
X90634920Y-81505592D01*
X90653385Y-81494672D01*
X90671125Y-81485981D01*
X90691076Y-81478082D01*
X90728449Y-81450929D01*
X90738368Y-81444414D01*
X90771297Y-81424940D01*
X90771301Y-81424937D01*
X90778127Y-81420900D01*
X90793291Y-81405736D01*
X90808325Y-81392895D01*
X90819263Y-81384948D01*
X90825677Y-81380288D01*
X90855123Y-81344694D01*
X90863112Y-81335915D01*
X92503622Y-79695405D01*
X92565934Y-79661379D01*
X92592717Y-79658500D01*
X97252183Y-79658500D01*
X97320304Y-79678502D01*
X97366797Y-79732158D01*
X97376901Y-79802432D01*
X97345819Y-79868810D01*
X97260960Y-79963056D01*
X97165473Y-80128444D01*
X97106458Y-80310072D01*
X97105768Y-80316637D01*
X97093245Y-80435786D01*
X97066232Y-80501443D01*
X97057030Y-80511711D01*
X94014145Y-83554595D01*
X93951833Y-83588621D01*
X93925050Y-83591500D01*
X93904513Y-83591500D01*
X93898061Y-83592872D01*
X93898056Y-83592872D01*
X93811113Y-83611353D01*
X93717712Y-83631206D01*
X93711682Y-83633891D01*
X93711681Y-83633891D01*
X93549278Y-83706197D01*
X93549276Y-83706198D01*
X93543248Y-83708882D01*
X93537907Y-83712762D01*
X93537906Y-83712763D01*
X93487843Y-83749136D01*
X93388747Y-83821134D01*
X93260960Y-83963056D01*
X93222113Y-84030341D01*
X93170730Y-84079334D01*
X93100394Y-84092543D01*
X93095487Y-84091500D01*
X93074950Y-84091500D01*
X93006829Y-84071498D01*
X92985855Y-84054595D01*
X92523655Y-83592395D01*
X92515665Y-83583615D01*
X92515663Y-83583613D01*
X92511416Y-83576920D01*
X92493965Y-83560532D01*
X92459743Y-83528396D01*
X92456901Y-83525641D01*
X92436333Y-83505073D01*
X92432826Y-83502353D01*
X92423804Y-83494647D01*
X92419613Y-83490711D01*
X92390133Y-83463028D01*
X92383181Y-83459206D01*
X92371342Y-83452697D01*
X92354818Y-83441843D01*
X92344132Y-83433555D01*
X92337868Y-83428696D01*
X92330596Y-83425549D01*
X92330594Y-83425548D01*
X92295465Y-83410346D01*
X92284805Y-83405124D01*
X92251284Y-83386695D01*
X92251282Y-83386694D01*
X92244337Y-83382876D01*
X92223559Y-83377541D01*
X92204869Y-83371142D01*
X92185176Y-83362620D01*
X92139552Y-83355394D01*
X92127929Y-83352987D01*
X92093661Y-83344189D01*
X92083188Y-83341500D01*
X92061741Y-83341500D01*
X92042031Y-83339949D01*
X92020848Y-83336594D01*
X91974859Y-83340941D01*
X91963004Y-83341500D01*
X83082059Y-83341500D01*
X83070203Y-83340941D01*
X83062463Y-83339211D01*
X83054537Y-83339460D01*
X83054536Y-83339460D01*
X82991611Y-83341438D01*
X82987653Y-83341500D01*
X82958568Y-83341500D01*
X82954637Y-83341997D01*
X82954630Y-83341997D01*
X82954179Y-83342054D01*
X82942343Y-83342986D01*
X82896169Y-83344438D01*
X82875579Y-83350420D01*
X82856218Y-83354430D01*
X82849230Y-83355312D01*
X82842796Y-83356125D01*
X82842795Y-83356125D01*
X82834936Y-83357118D01*
X82827571Y-83360034D01*
X82827567Y-83360035D01*
X82791979Y-83374126D01*
X82780769Y-83377965D01*
X82736400Y-83390855D01*
X82717935Y-83401775D01*
X82700195Y-83410466D01*
X82680244Y-83418365D01*
X82642874Y-83445516D01*
X82632952Y-83452033D01*
X82600023Y-83471507D01*
X82600019Y-83471510D01*
X82593193Y-83475547D01*
X82578029Y-83490711D01*
X82562996Y-83503551D01*
X82545643Y-83516159D01*
X82516198Y-83551752D01*
X82508208Y-83560532D01*
X79740323Y-86328417D01*
X79678011Y-86362443D01*
X79607196Y-86357378D01*
X79558034Y-86324121D01*
X79432797Y-86186487D01*
X79401745Y-86122642D01*
X79410141Y-86052143D01*
X79455318Y-85997375D01*
X79481761Y-85983706D01*
X79588297Y-85943767D01*
X79596705Y-85940615D01*
X79713261Y-85853261D01*
X79800615Y-85736705D01*
X79851745Y-85600316D01*
X79858500Y-85538134D01*
X79858500Y-83741866D01*
X79851745Y-83679684D01*
X79800615Y-83543295D01*
X79713261Y-83426739D01*
X79596705Y-83339385D01*
X79460316Y-83288255D01*
X79398134Y-83281500D01*
X77601866Y-83281500D01*
X77539684Y-83288255D01*
X77403295Y-83339385D01*
X77286739Y-83426739D01*
X77199385Y-83543295D01*
X77148255Y-83679684D01*
X77141500Y-83741866D01*
X77141500Y-85538134D01*
X77148255Y-85600316D01*
X77199385Y-85736705D01*
X77286739Y-85853261D01*
X77403295Y-85940615D01*
X77411704Y-85943767D01*
X77411705Y-85943768D01*
X77520451Y-85984535D01*
X77577216Y-86027176D01*
X77601916Y-86093738D01*
X77586709Y-86163087D01*
X77567316Y-86189568D01*
X77440629Y-86322138D01*
X77437715Y-86326410D01*
X77437714Y-86326411D01*
X77380372Y-86410472D01*
X77314743Y-86506680D01*
X77220688Y-86709305D01*
X77160989Y-86924570D01*
X77137251Y-87146695D01*
X77150110Y-87369715D01*
X77151247Y-87374761D01*
X77151248Y-87374767D01*
X77167808Y-87448248D01*
X77199222Y-87587639D01*
X77283266Y-87794616D01*
X77399987Y-87985088D01*
X77546250Y-88153938D01*
X77718126Y-88296632D01*
X77760679Y-88321498D01*
X77791445Y-88339476D01*
X77840169Y-88391114D01*
X77853240Y-88460897D01*
X77826509Y-88526669D01*
X77786055Y-88560027D01*
X77773607Y-88566507D01*
X77769474Y-88569610D01*
X77769471Y-88569612D01*
X77599100Y-88697530D01*
X77594965Y-88700635D01*
X77591393Y-88704373D01*
X77463637Y-88838062D01*
X77440629Y-88862138D01*
X77314743Y-89046680D01*
X77281269Y-89118794D01*
X77236937Y-89214300D01*
X77220688Y-89249305D01*
X77160989Y-89464570D01*
X77137251Y-89686695D01*
X77150110Y-89909715D01*
X77151247Y-89914761D01*
X77151248Y-89914767D01*
X77175304Y-90021508D01*
X77199222Y-90127639D01*
X77242552Y-90234349D01*
X77280457Y-90327697D01*
X77283266Y-90334616D01*
X77285965Y-90339020D01*
X77346742Y-90438199D01*
X77399987Y-90525088D01*
X77546250Y-90693938D01*
X77718126Y-90836632D01*
X77767988Y-90865769D01*
X77791445Y-90879476D01*
X77840169Y-90931114D01*
X77853240Y-91000897D01*
X77826509Y-91066669D01*
X77786055Y-91100027D01*
X77779839Y-91103263D01*
X77773607Y-91106507D01*
X77769474Y-91109610D01*
X77769471Y-91109612D01*
X77600331Y-91236606D01*
X77594965Y-91240635D01*
X77589611Y-91246238D01*
X77445525Y-91397015D01*
X77440629Y-91402138D01*
X77314743Y-91586680D01*
X77220688Y-91789305D01*
X77160989Y-92004570D01*
X77137251Y-92226695D01*
X77137548Y-92231848D01*
X77137548Y-92231851D01*
X77147900Y-92411379D01*
X77150110Y-92449715D01*
X77151247Y-92454761D01*
X77151248Y-92454767D01*
X77165004Y-92515803D01*
X77199222Y-92667639D01*
X77283266Y-92874616D01*
X77285965Y-92879020D01*
X77387476Y-93044672D01*
X77406014Y-93113206D01*
X77384557Y-93180883D01*
X77369138Y-93199603D01*
X76592391Y-93976349D01*
X76583612Y-93984337D01*
X76576920Y-93988584D01*
X76571495Y-93994361D01*
X76528395Y-94040258D01*
X76525640Y-94043100D01*
X76505073Y-94063667D01*
X76502356Y-94067170D01*
X76494648Y-94076195D01*
X76463028Y-94109867D01*
X76459207Y-94116818D01*
X76459206Y-94116819D01*
X76452697Y-94128658D01*
X76441843Y-94145182D01*
X76434018Y-94155271D01*
X76428696Y-94162132D01*
X76425549Y-94169404D01*
X76425548Y-94169406D01*
X76410346Y-94204535D01*
X76405124Y-94215195D01*
X76382876Y-94255663D01*
X76377541Y-94276441D01*
X76371142Y-94295131D01*
X76362620Y-94314824D01*
X76361380Y-94322655D01*
X76355394Y-94360448D01*
X76352987Y-94372071D01*
X76341500Y-94416812D01*
X76341500Y-94438259D01*
X76339949Y-94457969D01*
X76336594Y-94479152D01*
X76337340Y-94487043D01*
X76340941Y-94525138D01*
X76341500Y-94536996D01*
X76341500Y-113600099D01*
X76340941Y-113611955D01*
X76339212Y-113619692D01*
X76339461Y-113627614D01*
X76341438Y-113690524D01*
X76341500Y-113694482D01*
X76341500Y-113723587D01*
X76342056Y-113727987D01*
X76342988Y-113739819D01*
X76344438Y-113785986D01*
X76346650Y-113793599D01*
X76346650Y-113793600D01*
X76350419Y-113806571D01*
X76354430Y-113825937D01*
X76357118Y-113847219D01*
X76360034Y-113854584D01*
X76360035Y-113854588D01*
X76374126Y-113890176D01*
X76377965Y-113901386D01*
X76390855Y-113945755D01*
X76401775Y-113964220D01*
X76410466Y-113981960D01*
X76418365Y-114001911D01*
X76445516Y-114039281D01*
X76452033Y-114049203D01*
X76471507Y-114082132D01*
X76471510Y-114082136D01*
X76475547Y-114088962D01*
X76490711Y-114104126D01*
X76503551Y-114119159D01*
X76516159Y-114136512D01*
X76549232Y-114163872D01*
X76551747Y-114165953D01*
X76560527Y-114173942D01*
X77294190Y-114907604D01*
X77302180Y-114916385D01*
X77306429Y-114923080D01*
X77312207Y-114928506D01*
X77312208Y-114928507D01*
X77358118Y-114971619D01*
X77360960Y-114974374D01*
X77381512Y-114994926D01*
X77384646Y-114997357D01*
X77385008Y-114997638D01*
X77394036Y-115005348D01*
X77427712Y-115036972D01*
X77434663Y-115040793D01*
X77434664Y-115040794D01*
X77446500Y-115047301D01*
X77463029Y-115058158D01*
X77473714Y-115066447D01*
X77473716Y-115066448D01*
X77479976Y-115071304D01*
X77522389Y-115089657D01*
X77533026Y-115094868D01*
X77573508Y-115117124D01*
X77581187Y-115119096D01*
X77581188Y-115119096D01*
X77594279Y-115122457D01*
X77612981Y-115128859D01*
X77632668Y-115137379D01*
X77640497Y-115138619D01*
X77678293Y-115144605D01*
X77689919Y-115147013D01*
X77726980Y-115156529D01*
X77726981Y-115156529D01*
X77734657Y-115158500D01*
X77756103Y-115158500D01*
X77775813Y-115160051D01*
X77796996Y-115163406D01*
X77842980Y-115159059D01*
X77854839Y-115158500D01*
X80319776Y-115158500D01*
X80387897Y-115178502D01*
X80393834Y-115182562D01*
X80430602Y-115209276D01*
X80505323Y-115263564D01*
X80548677Y-115319787D01*
X80554752Y-115390523D01*
X80521620Y-115453314D01*
X80459800Y-115488226D01*
X80431262Y-115491500D01*
X76134500Y-115491500D01*
X76066379Y-115471498D01*
X76019886Y-115417842D01*
X76008500Y-115365500D01*
X76008500Y-75310000D01*
X76914647Y-75310000D01*
X76934022Y-75531463D01*
X76991560Y-75746196D01*
X76993882Y-75751177D01*
X76993883Y-75751178D01*
X77083186Y-75942689D01*
X77083189Y-75942694D01*
X77085512Y-75947676D01*
X77088668Y-75952183D01*
X77088669Y-75952185D01*
X77140639Y-76026405D01*
X77213023Y-76129781D01*
X77370219Y-76286977D01*
X77374727Y-76290134D01*
X77374730Y-76290136D01*
X77413723Y-76317439D01*
X77552323Y-76414488D01*
X77557305Y-76416811D01*
X77557310Y-76416814D01*
X77728578Y-76496677D01*
X77753804Y-76508440D01*
X77759112Y-76509862D01*
X77759114Y-76509863D01*
X77763690Y-76511089D01*
X77968537Y-76565978D01*
X78190000Y-76585353D01*
X78411463Y-76565978D01*
X78616310Y-76511089D01*
X78620886Y-76509863D01*
X78620888Y-76509862D01*
X78626196Y-76508440D01*
X78651422Y-76496677D01*
X78822690Y-76416814D01*
X78822695Y-76416811D01*
X78827677Y-76414488D01*
X78966277Y-76317439D01*
X79005270Y-76290136D01*
X79005273Y-76290134D01*
X79009781Y-76286977D01*
X79166977Y-76129781D01*
X79239362Y-76026405D01*
X79291331Y-75952185D01*
X79291332Y-75952183D01*
X79294488Y-75947676D01*
X79296811Y-75942694D01*
X79296814Y-75942689D01*
X79345805Y-75837627D01*
X79392723Y-75784342D01*
X79461000Y-75764881D01*
X79528960Y-75785423D01*
X79574195Y-75837627D01*
X79623186Y-75942689D01*
X79623189Y-75942694D01*
X79625512Y-75947676D01*
X79628668Y-75952183D01*
X79628669Y-75952185D01*
X79680639Y-76026405D01*
X79753023Y-76129781D01*
X79910219Y-76286977D01*
X79914727Y-76290134D01*
X79914730Y-76290136D01*
X79953723Y-76317439D01*
X80092323Y-76414488D01*
X80097305Y-76416811D01*
X80097310Y-76416814D01*
X80268578Y-76496677D01*
X80293804Y-76508440D01*
X80299112Y-76509862D01*
X80299114Y-76509863D01*
X80303690Y-76511089D01*
X80508537Y-76565978D01*
X80730000Y-76585353D01*
X80951463Y-76565978D01*
X81156310Y-76511089D01*
X81160886Y-76509863D01*
X81160888Y-76509862D01*
X81166196Y-76508440D01*
X81191422Y-76496677D01*
X81362690Y-76416814D01*
X81362695Y-76416811D01*
X81367677Y-76414488D01*
X81432959Y-76368777D01*
X82575777Y-76368777D01*
X82585074Y-76380793D01*
X82628069Y-76410898D01*
X82637555Y-76416376D01*
X82828993Y-76505645D01*
X82839285Y-76509391D01*
X83043309Y-76564059D01*
X83054104Y-76565962D01*
X83264525Y-76584372D01*
X83275475Y-76584372D01*
X83485896Y-76565962D01*
X83496691Y-76564059D01*
X83700715Y-76509391D01*
X83711007Y-76505645D01*
X83902445Y-76416376D01*
X83911931Y-76410898D01*
X83955764Y-76380207D01*
X83964139Y-76369729D01*
X83957071Y-76356281D01*
X83282812Y-75682022D01*
X83268868Y-75674408D01*
X83267035Y-75674539D01*
X83260420Y-75678790D01*
X82582207Y-76357003D01*
X82575777Y-76368777D01*
X81432959Y-76368777D01*
X81506277Y-76317439D01*
X81545270Y-76290136D01*
X81545273Y-76290134D01*
X81549781Y-76286977D01*
X81706977Y-76129781D01*
X81779362Y-76026405D01*
X81831331Y-75952185D01*
X81831332Y-75952183D01*
X81834488Y-75947676D01*
X81836811Y-75942694D01*
X81836814Y-75942689D01*
X81886081Y-75837035D01*
X81932999Y-75783750D01*
X82001276Y-75764289D01*
X82069236Y-75784831D01*
X82114471Y-75837035D01*
X82163623Y-75942441D01*
X82169103Y-75951932D01*
X82199794Y-75995765D01*
X82210271Y-76004140D01*
X82223718Y-75997072D01*
X82897978Y-75322812D01*
X82905592Y-75308868D01*
X82905461Y-75307035D01*
X82901210Y-75300420D01*
X82222997Y-74622207D01*
X82211223Y-74615777D01*
X82199207Y-74625074D01*
X82169103Y-74668068D01*
X82163623Y-74677559D01*
X82114471Y-74782965D01*
X82067553Y-74836250D01*
X81999276Y-74855711D01*
X81931316Y-74835169D01*
X81886081Y-74782965D01*
X81836814Y-74677311D01*
X81836811Y-74677306D01*
X81834488Y-74672324D01*
X81831331Y-74667815D01*
X81710136Y-74494730D01*
X81710134Y-74494727D01*
X81706977Y-74490219D01*
X81549781Y-74333023D01*
X81545273Y-74329866D01*
X81545270Y-74329864D01*
X81469505Y-74276813D01*
X81431599Y-74250271D01*
X82575860Y-74250271D01*
X82582928Y-74263718D01*
X83257188Y-74937978D01*
X83271132Y-74945592D01*
X83272965Y-74945461D01*
X83279580Y-74941210D01*
X83957793Y-74262997D01*
X83964223Y-74251223D01*
X83954926Y-74239207D01*
X83911931Y-74209102D01*
X83902445Y-74203624D01*
X83711007Y-74114355D01*
X83700715Y-74110609D01*
X83496691Y-74055941D01*
X83485896Y-74054038D01*
X83275475Y-74035628D01*
X83264525Y-74035628D01*
X83054104Y-74054038D01*
X83043309Y-74055941D01*
X82839285Y-74110609D01*
X82828993Y-74114355D01*
X82637559Y-74203623D01*
X82628068Y-74209103D01*
X82584235Y-74239794D01*
X82575860Y-74250271D01*
X81431599Y-74250271D01*
X81367677Y-74205512D01*
X81362695Y-74203189D01*
X81362690Y-74203186D01*
X81171178Y-74113883D01*
X81171177Y-74113882D01*
X81166196Y-74111560D01*
X81160888Y-74110138D01*
X81160886Y-74110137D01*
X81095051Y-74092497D01*
X80951463Y-74054022D01*
X80730000Y-74034647D01*
X80508537Y-74054022D01*
X80364949Y-74092497D01*
X80299114Y-74110137D01*
X80299112Y-74110138D01*
X80293804Y-74111560D01*
X80288823Y-74113882D01*
X80288822Y-74113883D01*
X80097311Y-74203186D01*
X80097306Y-74203189D01*
X80092324Y-74205512D01*
X80087817Y-74208668D01*
X80087815Y-74208669D01*
X79914730Y-74329864D01*
X79914727Y-74329866D01*
X79910219Y-74333023D01*
X79753023Y-74490219D01*
X79749866Y-74494727D01*
X79749864Y-74494730D01*
X79628669Y-74667815D01*
X79625512Y-74672324D01*
X79623189Y-74677306D01*
X79623186Y-74677311D01*
X79574195Y-74782373D01*
X79527277Y-74835658D01*
X79459000Y-74855119D01*
X79391040Y-74834577D01*
X79345805Y-74782373D01*
X79296814Y-74677311D01*
X79296811Y-74677306D01*
X79294488Y-74672324D01*
X79291331Y-74667815D01*
X79170136Y-74494730D01*
X79170134Y-74494727D01*
X79166977Y-74490219D01*
X79009781Y-74333023D01*
X79005273Y-74329866D01*
X79005270Y-74329864D01*
X78929505Y-74276813D01*
X78827677Y-74205512D01*
X78822695Y-74203189D01*
X78822690Y-74203186D01*
X78631178Y-74113883D01*
X78631177Y-74113882D01*
X78626196Y-74111560D01*
X78620888Y-74110138D01*
X78620886Y-74110137D01*
X78555051Y-74092497D01*
X78411463Y-74054022D01*
X78190000Y-74034647D01*
X77968537Y-74054022D01*
X77824949Y-74092497D01*
X77759114Y-74110137D01*
X77759112Y-74110138D01*
X77753804Y-74111560D01*
X77748823Y-74113882D01*
X77748822Y-74113883D01*
X77557311Y-74203186D01*
X77557306Y-74203189D01*
X77552324Y-74205512D01*
X77547817Y-74208668D01*
X77547815Y-74208669D01*
X77374730Y-74329864D01*
X77374727Y-74329866D01*
X77370219Y-74333023D01*
X77213023Y-74490219D01*
X77209866Y-74494727D01*
X77209864Y-74494730D01*
X77088669Y-74667815D01*
X77085512Y-74672324D01*
X77083189Y-74677306D01*
X77083186Y-74677311D01*
X77034195Y-74782373D01*
X76991560Y-74873804D01*
X76934022Y-75088537D01*
X76914647Y-75310000D01*
X76008500Y-75310000D01*
X76008500Y-65668134D01*
X88811500Y-65668134D01*
X88818255Y-65730316D01*
X88869385Y-65866705D01*
X88956739Y-65983261D01*
X89073295Y-66070615D01*
X89209684Y-66121745D01*
X89271866Y-66128500D01*
X91068134Y-66128500D01*
X91130316Y-66121745D01*
X91266705Y-66070615D01*
X91383261Y-65983261D01*
X91470615Y-65866705D01*
X91492799Y-65807529D01*
X91514598Y-65749382D01*
X91557240Y-65692618D01*
X91623802Y-65667918D01*
X91693150Y-65683126D01*
X91727817Y-65711114D01*
X91756250Y-65743938D01*
X91928126Y-65886632D01*
X92121000Y-65999338D01*
X92329692Y-66079030D01*
X92334760Y-66080061D01*
X92334763Y-66080062D01*
X92442017Y-66101883D01*
X92548597Y-66123567D01*
X92553772Y-66123757D01*
X92553774Y-66123757D01*
X92766673Y-66131564D01*
X92766677Y-66131564D01*
X92771837Y-66131753D01*
X92776957Y-66131097D01*
X92776959Y-66131097D01*
X92988288Y-66104025D01*
X92988289Y-66104025D01*
X92993416Y-66103368D01*
X92998366Y-66101883D01*
X93202429Y-66040661D01*
X93202434Y-66040659D01*
X93207384Y-66039174D01*
X93407994Y-65940896D01*
X93502993Y-65873134D01*
X96841500Y-65873134D01*
X96848255Y-65935316D01*
X96899385Y-66071705D01*
X96986739Y-66188261D01*
X97103295Y-66275615D01*
X97239684Y-66326745D01*
X97301866Y-66333500D01*
X99098134Y-66333500D01*
X99160316Y-66326745D01*
X99296705Y-66275615D01*
X99413261Y-66188261D01*
X99500615Y-66071705D01*
X99544798Y-65953848D01*
X99587440Y-65897084D01*
X99654001Y-65872384D01*
X99723350Y-65887592D01*
X99758017Y-65915580D01*
X99783218Y-65944673D01*
X99790580Y-65951883D01*
X99954434Y-66087916D01*
X99962881Y-66093831D01*
X100146756Y-66201279D01*
X100156042Y-66205729D01*
X100355001Y-66281703D01*
X100364899Y-66284579D01*
X100468250Y-66305606D01*
X100482299Y-66304410D01*
X100486000Y-66294065D01*
X100486000Y-66293517D01*
X100994000Y-66293517D01*
X100998064Y-66307359D01*
X101011478Y-66309393D01*
X101018184Y-66308534D01*
X101028262Y-66306392D01*
X101232255Y-66245191D01*
X101241842Y-66241433D01*
X101433095Y-66147739D01*
X101441945Y-66142464D01*
X101615328Y-66018792D01*
X101623200Y-66012139D01*
X101774052Y-65861812D01*
X101780730Y-65853965D01*
X101908022Y-65676819D01*
X101909279Y-65677722D01*
X101956373Y-65634362D01*
X102026311Y-65622145D01*
X102091751Y-65649678D01*
X102119579Y-65681511D01*
X102179987Y-65780088D01*
X102326250Y-65948938D01*
X102498126Y-66091632D01*
X102691000Y-66204338D01*
X102899692Y-66284030D01*
X102904760Y-66285061D01*
X102904763Y-66285062D01*
X102999862Y-66304410D01*
X103118597Y-66328567D01*
X103123772Y-66328757D01*
X103123774Y-66328757D01*
X103336673Y-66336564D01*
X103336677Y-66336564D01*
X103341837Y-66336753D01*
X103346957Y-66336097D01*
X103346959Y-66336097D01*
X103558288Y-66309025D01*
X103558289Y-66309025D01*
X103563416Y-66308368D01*
X103568366Y-66306883D01*
X103772429Y-66245661D01*
X103772434Y-66245659D01*
X103777384Y-66244174D01*
X103977994Y-66145896D01*
X104159860Y-66016173D01*
X104174905Y-66001181D01*
X104304152Y-65872384D01*
X104318096Y-65858489D01*
X104448453Y-65677077D01*
X104449776Y-65678028D01*
X104496645Y-65634857D01*
X104566580Y-65622625D01*
X104632026Y-65650144D01*
X104659875Y-65681994D01*
X104719987Y-65780088D01*
X104866250Y-65948938D01*
X105038126Y-66091632D01*
X105231000Y-66204338D01*
X105439692Y-66284030D01*
X105444760Y-66285061D01*
X105444763Y-66285062D01*
X105539862Y-66304410D01*
X105658597Y-66328567D01*
X105663772Y-66328757D01*
X105663774Y-66328757D01*
X105876673Y-66336564D01*
X105876677Y-66336564D01*
X105881837Y-66336753D01*
X105886957Y-66336097D01*
X105886959Y-66336097D01*
X106098288Y-66309025D01*
X106098289Y-66309025D01*
X106103416Y-66308368D01*
X106108366Y-66306883D01*
X106312429Y-66245661D01*
X106312434Y-66245659D01*
X106317384Y-66244174D01*
X106517994Y-66145896D01*
X106699860Y-66016173D01*
X106714905Y-66001181D01*
X106844152Y-65872384D01*
X106858096Y-65858489D01*
X106988453Y-65677077D01*
X107001995Y-65649678D01*
X107085136Y-65481453D01*
X107085137Y-65481451D01*
X107087430Y-65476811D01*
X107152370Y-65263069D01*
X107181529Y-65041590D01*
X107183156Y-64975000D01*
X107164852Y-64752361D01*
X107110431Y-64535702D01*
X107021354Y-64330840D01*
X106900014Y-64143277D01*
X106749670Y-63978051D01*
X106745619Y-63974852D01*
X106745615Y-63974848D01*
X106578414Y-63842800D01*
X106578410Y-63842798D01*
X106574359Y-63839598D01*
X106538028Y-63819542D01*
X106460727Y-63776870D01*
X106378789Y-63731638D01*
X106373920Y-63729914D01*
X106373916Y-63729912D01*
X106173087Y-63658795D01*
X106173083Y-63658794D01*
X106168212Y-63657069D01*
X106163119Y-63656162D01*
X106163116Y-63656161D01*
X105953373Y-63618800D01*
X105953367Y-63618799D01*
X105948284Y-63617894D01*
X105874452Y-63616992D01*
X105730081Y-63615228D01*
X105730079Y-63615228D01*
X105724911Y-63615165D01*
X105504091Y-63648955D01*
X105291756Y-63718357D01*
X105235715Y-63747530D01*
X105101228Y-63817540D01*
X105093607Y-63821507D01*
X105089474Y-63824610D01*
X105089471Y-63824612D01*
X104932303Y-63942617D01*
X104914965Y-63955635D01*
X104760629Y-64117138D01*
X104653201Y-64274621D01*
X104598293Y-64319621D01*
X104527768Y-64327792D01*
X104464021Y-64296538D01*
X104443324Y-64272054D01*
X104362822Y-64147617D01*
X104362820Y-64147614D01*
X104360014Y-64143277D01*
X104209670Y-63978051D01*
X104205619Y-63974852D01*
X104205615Y-63974848D01*
X104038414Y-63842800D01*
X104038410Y-63842798D01*
X104034359Y-63839598D01*
X103998028Y-63819542D01*
X103920727Y-63776870D01*
X103838789Y-63731638D01*
X103833920Y-63729914D01*
X103833916Y-63729912D01*
X103633087Y-63658795D01*
X103633083Y-63658794D01*
X103628212Y-63657069D01*
X103623119Y-63656162D01*
X103623116Y-63656161D01*
X103413373Y-63618800D01*
X103413367Y-63618799D01*
X103408284Y-63617894D01*
X103334452Y-63616992D01*
X103190081Y-63615228D01*
X103190079Y-63615228D01*
X103184911Y-63615165D01*
X102964091Y-63648955D01*
X102751756Y-63718357D01*
X102695715Y-63747530D01*
X102561228Y-63817540D01*
X102553607Y-63821507D01*
X102549474Y-63824610D01*
X102549471Y-63824612D01*
X102392303Y-63942617D01*
X102374965Y-63955635D01*
X102220629Y-64117138D01*
X102113204Y-64274618D01*
X102112898Y-64275066D01*
X102057987Y-64320069D01*
X101987462Y-64328240D01*
X101923715Y-64296986D01*
X101903018Y-64272502D01*
X101822426Y-64147926D01*
X101816136Y-64139757D01*
X101672806Y-63982240D01*
X101665273Y-63975215D01*
X101498139Y-63843222D01*
X101489552Y-63837517D01*
X101303117Y-63734599D01*
X101293705Y-63730369D01*
X101092959Y-63659280D01*
X101082988Y-63656646D01*
X101011837Y-63643972D01*
X100998540Y-63645432D01*
X100994000Y-63659989D01*
X100994000Y-66293517D01*
X100486000Y-66293517D01*
X100486000Y-63658102D01*
X100482082Y-63644758D01*
X100467806Y-63642771D01*
X100429324Y-63648660D01*
X100419288Y-63651051D01*
X100216868Y-63717212D01*
X100207359Y-63721209D01*
X100018463Y-63819542D01*
X100009738Y-63825036D01*
X99839433Y-63952905D01*
X99831726Y-63959748D01*
X99754478Y-64040584D01*
X99692954Y-64076014D01*
X99622042Y-64072557D01*
X99564255Y-64031311D01*
X99545402Y-63997763D01*
X99503767Y-63886703D01*
X99500615Y-63878295D01*
X99413261Y-63761739D01*
X99296705Y-63674385D01*
X99160316Y-63623255D01*
X99098134Y-63616500D01*
X97301866Y-63616500D01*
X97239684Y-63623255D01*
X97103295Y-63674385D01*
X96986739Y-63761739D01*
X96899385Y-63878295D01*
X96848255Y-64014684D01*
X96841500Y-64076866D01*
X96841500Y-65873134D01*
X93502993Y-65873134D01*
X93589860Y-65811173D01*
X93748096Y-65653489D01*
X93761485Y-65634857D01*
X93875435Y-65476277D01*
X93878453Y-65472077D01*
X93883098Y-65462680D01*
X93975136Y-65276453D01*
X93975137Y-65276451D01*
X93977430Y-65271811D01*
X94042370Y-65058069D01*
X94071529Y-64836590D01*
X94073156Y-64770000D01*
X94054852Y-64547361D01*
X94000431Y-64330702D01*
X93911354Y-64125840D01*
X93856199Y-64040584D01*
X93792822Y-63942617D01*
X93792820Y-63942614D01*
X93790014Y-63938277D01*
X93639670Y-63773051D01*
X93635619Y-63769852D01*
X93635615Y-63769848D01*
X93468414Y-63637800D01*
X93468410Y-63637798D01*
X93464359Y-63634598D01*
X93431575Y-63616500D01*
X93412136Y-63605769D01*
X93268789Y-63526638D01*
X93263920Y-63524914D01*
X93263916Y-63524912D01*
X93063087Y-63453795D01*
X93063083Y-63453794D01*
X93058212Y-63452069D01*
X93053119Y-63451162D01*
X93053116Y-63451161D01*
X92843373Y-63413800D01*
X92843367Y-63413799D01*
X92838284Y-63412894D01*
X92764452Y-63411992D01*
X92620081Y-63410228D01*
X92620079Y-63410228D01*
X92614911Y-63410165D01*
X92394091Y-63443955D01*
X92181756Y-63513357D01*
X91983607Y-63616507D01*
X91979474Y-63619610D01*
X91979471Y-63619612D01*
X91809100Y-63747530D01*
X91804965Y-63750635D01*
X91748537Y-63809684D01*
X91724283Y-63835064D01*
X91662759Y-63870494D01*
X91591846Y-63867037D01*
X91534060Y-63825791D01*
X91515207Y-63792243D01*
X91473767Y-63681703D01*
X91470615Y-63673295D01*
X91383261Y-63556739D01*
X91266705Y-63469385D01*
X91130316Y-63418255D01*
X91068134Y-63411500D01*
X89271866Y-63411500D01*
X89209684Y-63418255D01*
X89073295Y-63469385D01*
X88956739Y-63556739D01*
X88869385Y-63673295D01*
X88818255Y-63809684D01*
X88811500Y-63871866D01*
X88811500Y-65668134D01*
X76008500Y-65668134D01*
X76008500Y-62134500D01*
X76028502Y-62066379D01*
X76082158Y-62019886D01*
X76134500Y-62008500D01*
X124365500Y-62008500D01*
X124433621Y-62028502D01*
G37*
%TD.AperFunction*%
%TA.AperFunction,Conductor*%
G36*
X83682510Y-92178502D02*
G01*
X83703484Y-92195405D01*
X83945661Y-92437582D01*
X83953651Y-92446362D01*
X83957900Y-92453057D01*
X83963678Y-92458483D01*
X83963679Y-92458484D01*
X84009573Y-92501581D01*
X84012415Y-92504336D01*
X84032983Y-92524904D01*
X84036486Y-92527621D01*
X84045511Y-92535329D01*
X84079183Y-92566949D01*
X84086134Y-92570770D01*
X84086135Y-92570771D01*
X84097974Y-92577280D01*
X84114498Y-92588134D01*
X84125178Y-92596418D01*
X84125181Y-92596420D01*
X84131448Y-92601281D01*
X84138725Y-92604430D01*
X84143150Y-92607047D01*
X84191601Y-92658941D01*
X84204306Y-92728791D01*
X84177230Y-92794422D01*
X84118969Y-92834996D01*
X84079009Y-92841500D01*
X81180224Y-92841500D01*
X81112103Y-92821498D01*
X81106163Y-92817436D01*
X80962094Y-92712763D01*
X80962093Y-92712762D01*
X80956752Y-92708882D01*
X80950721Y-92706197D01*
X80950716Y-92706194D01*
X80932350Y-92698017D01*
X80878253Y-92652038D01*
X80857603Y-92584111D01*
X80876955Y-92515803D01*
X80894502Y-92493815D01*
X80942912Y-92445405D01*
X81005224Y-92411379D01*
X81032007Y-92408500D01*
X81728605Y-92408500D01*
X81740461Y-92409059D01*
X81740464Y-92409059D01*
X81748198Y-92410788D01*
X81819030Y-92408562D01*
X81822988Y-92408500D01*
X81852093Y-92408500D01*
X81856493Y-92407944D01*
X81868325Y-92407012D01*
X81914492Y-92405562D01*
X81935082Y-92399580D01*
X81954443Y-92395570D01*
X81961431Y-92394688D01*
X81967865Y-92393875D01*
X81967866Y-92393875D01*
X81975725Y-92392882D01*
X81983090Y-92389966D01*
X81983094Y-92389965D01*
X82018682Y-92375874D01*
X82029892Y-92372035D01*
X82074261Y-92359145D01*
X82092726Y-92348225D01*
X82110466Y-92339534D01*
X82130417Y-92331635D01*
X82167790Y-92304482D01*
X82177709Y-92297967D01*
X82210638Y-92278493D01*
X82210642Y-92278490D01*
X82217468Y-92274453D01*
X82232632Y-92259289D01*
X82247666Y-92246448D01*
X82258605Y-92238500D01*
X82265018Y-92233841D01*
X82281394Y-92214046D01*
X82289554Y-92204183D01*
X82348388Y-92164446D01*
X82386638Y-92158500D01*
X83614389Y-92158500D01*
X83682510Y-92178502D01*
G37*
%TD.AperFunction*%
%TA.AperFunction,Conductor*%
G36*
X88474027Y-90178502D02*
G01*
X88520520Y-90232158D01*
X88531216Y-90297670D01*
X88515756Y-90444763D01*
X88516446Y-90451328D01*
X88526357Y-90545622D01*
X88535718Y-90634691D01*
X88594733Y-90816319D01*
X88598036Y-90822041D01*
X88598037Y-90822042D01*
X88609271Y-90841500D01*
X88690220Y-90981707D01*
X88694638Y-90986614D01*
X88694639Y-90986615D01*
X88775950Y-91076920D01*
X88818007Y-91123629D01*
X88876963Y-91166463D01*
X88961244Y-91227697D01*
X88972508Y-91235881D01*
X88978536Y-91238565D01*
X88978538Y-91238566D01*
X89121194Y-91302080D01*
X89146972Y-91313557D01*
X89240373Y-91333410D01*
X89327316Y-91351891D01*
X89327321Y-91351891D01*
X89333773Y-91353263D01*
X89524747Y-91353263D01*
X89531199Y-91351891D01*
X89531204Y-91351891D01*
X89618147Y-91333410D01*
X89711548Y-91313557D01*
X89737326Y-91302080D01*
X89879982Y-91238566D01*
X89879984Y-91238565D01*
X89886012Y-91235881D01*
X89897277Y-91227697D01*
X90034772Y-91127800D01*
X90035423Y-91127327D01*
X90102291Y-91103469D01*
X90109484Y-91103263D01*
X91661287Y-91103263D01*
X91729408Y-91123265D01*
X91775901Y-91176921D01*
X91786005Y-91247195D01*
X91756511Y-91311775D01*
X91750382Y-91318358D01*
X90264145Y-92804595D01*
X90201833Y-92838621D01*
X90175050Y-92841500D01*
X85804785Y-92841500D01*
X85736664Y-92821498D01*
X85690171Y-92767842D01*
X85680067Y-92697568D01*
X85711149Y-92631190D01*
X85764598Y-92571829D01*
X85764599Y-92571828D01*
X85769017Y-92566921D01*
X85838622Y-92446362D01*
X85861200Y-92407256D01*
X85861201Y-92407255D01*
X85864504Y-92401533D01*
X85923519Y-92219905D01*
X85925172Y-92204183D01*
X85942791Y-92036542D01*
X85943481Y-92029977D01*
X85927432Y-91877279D01*
X85924209Y-91846612D01*
X85924209Y-91846610D01*
X85923519Y-91840049D01*
X85864504Y-91658421D01*
X85769017Y-91493033D01*
X85681231Y-91395536D01*
X85645652Y-91356022D01*
X85645651Y-91356021D01*
X85641230Y-91351111D01*
X85503835Y-91251287D01*
X85492071Y-91242740D01*
X85492070Y-91242739D01*
X85486729Y-91238859D01*
X85480701Y-91236175D01*
X85480699Y-91236174D01*
X85318296Y-91163868D01*
X85318295Y-91163868D01*
X85312265Y-91161183D01*
X85218865Y-91141330D01*
X85131921Y-91122849D01*
X85131916Y-91122849D01*
X85125464Y-91121477D01*
X84934490Y-91121477D01*
X84928038Y-91122849D01*
X84928033Y-91122849D01*
X84841089Y-91141330D01*
X84747689Y-91161183D01*
X84741659Y-91163868D01*
X84741658Y-91163868D01*
X84677406Y-91192475D01*
X84607039Y-91201909D01*
X84542742Y-91171803D01*
X84537062Y-91166463D01*
X84462994Y-91092395D01*
X84455004Y-91083615D01*
X84455002Y-91083613D01*
X84450755Y-91076920D01*
X84399081Y-91028395D01*
X84396240Y-91025641D01*
X84375672Y-91005073D01*
X84372165Y-91002353D01*
X84363143Y-90994647D01*
X84335252Y-90968456D01*
X84329472Y-90963028D01*
X84322520Y-90959206D01*
X84310681Y-90952697D01*
X84294157Y-90941843D01*
X84283471Y-90933555D01*
X84277207Y-90928696D01*
X84269935Y-90925549D01*
X84269933Y-90925548D01*
X84234804Y-90910346D01*
X84224144Y-90905124D01*
X84190623Y-90886695D01*
X84190621Y-90886694D01*
X84183676Y-90882876D01*
X84162898Y-90877541D01*
X84144208Y-90871142D01*
X84124515Y-90862620D01*
X84078891Y-90855394D01*
X84067268Y-90852987D01*
X84039267Y-90845798D01*
X84022527Y-90841500D01*
X84001080Y-90841500D01*
X83981370Y-90839949D01*
X83968016Y-90837834D01*
X83960187Y-90836594D01*
X83914198Y-90840941D01*
X83902343Y-90841500D01*
X82495298Y-90841500D01*
X82427177Y-90821498D01*
X82380684Y-90767842D01*
X82375465Y-90754437D01*
X82336568Y-90634726D01*
X82334527Y-90628444D01*
X82239040Y-90463056D01*
X82216659Y-90438199D01*
X82154181Y-90368810D01*
X82123463Y-90304803D01*
X82132228Y-90234349D01*
X82177691Y-90179818D01*
X82247817Y-90158500D01*
X88405906Y-90158500D01*
X88474027Y-90178502D01*
G37*
%TD.AperFunction*%
%TA.AperFunction,Conductor*%
G36*
X96393774Y-88641651D02*
G01*
X96450610Y-88684198D01*
X96458861Y-88696706D01*
X96510960Y-88786944D01*
X96515378Y-88791851D01*
X96515379Y-88791852D01*
X96556987Y-88838062D01*
X96638747Y-88928866D01*
X96793248Y-89041118D01*
X96799276Y-89043802D01*
X96799278Y-89043803D01*
X96926382Y-89100393D01*
X96980478Y-89146373D01*
X97001127Y-89214300D01*
X96981775Y-89282609D01*
X96928564Y-89329610D01*
X96875133Y-89341500D01*
X95893949Y-89341500D01*
X95825828Y-89321498D01*
X95779335Y-89267842D01*
X95769231Y-89197568D01*
X95798725Y-89132988D01*
X95804854Y-89126405D01*
X96260647Y-88670612D01*
X96322959Y-88636586D01*
X96393774Y-88641651D01*
G37*
%TD.AperFunction*%
%TA.AperFunction,Conductor*%
G36*
X90725765Y-84678502D02*
G01*
X90772258Y-84732158D01*
X90782362Y-84802432D01*
X90777476Y-84823436D01*
X90767890Y-84852940D01*
X90767200Y-84859503D01*
X90767200Y-84859504D01*
X90754677Y-84978654D01*
X90727664Y-85044310D01*
X90718462Y-85054578D01*
X89468445Y-86304595D01*
X89406133Y-86338621D01*
X89379350Y-86341500D01*
X83021398Y-86341500D01*
X83009542Y-86340941D01*
X83001802Y-86339211D01*
X82993876Y-86339460D01*
X82993875Y-86339460D01*
X82930950Y-86341438D01*
X82926992Y-86341500D01*
X82897907Y-86341500D01*
X82893976Y-86341997D01*
X82893969Y-86341997D01*
X82893518Y-86342054D01*
X82881682Y-86342986D01*
X82835508Y-86344438D01*
X82814918Y-86350420D01*
X82795557Y-86354430D01*
X82788569Y-86355312D01*
X82782135Y-86356125D01*
X82782134Y-86356125D01*
X82774275Y-86357118D01*
X82766910Y-86360034D01*
X82766906Y-86360035D01*
X82731318Y-86374126D01*
X82720108Y-86377965D01*
X82675739Y-86390855D01*
X82657274Y-86401775D01*
X82639534Y-86410466D01*
X82619583Y-86418365D01*
X82582213Y-86445516D01*
X82572291Y-86452033D01*
X82539362Y-86471507D01*
X82539358Y-86471510D01*
X82532532Y-86475547D01*
X82517368Y-86490711D01*
X82502335Y-86503551D01*
X82484982Y-86516159D01*
X82455537Y-86551752D01*
X82447547Y-86560532D01*
X80873595Y-88134484D01*
X80811283Y-88168510D01*
X80740468Y-88163445D01*
X80683632Y-88120898D01*
X80658821Y-88054378D01*
X80658500Y-88045389D01*
X80658500Y-87324950D01*
X80678502Y-87256829D01*
X80695405Y-87235855D01*
X83235855Y-84695405D01*
X83298167Y-84661379D01*
X83324950Y-84658500D01*
X90657644Y-84658500D01*
X90725765Y-84678502D01*
G37*
%TD.AperFunction*%
%TD*%
M02*
