M48
; DRILL file {KiCad (6.0.6)} date Sat Dec  9 00:18:55 2023
; FORMAT={-:-/ absolute / inch / decimal}
; #@! TF.CreationDate,2023-12-09T00:18:55+03:00
; #@! TF.GenerationSoftware,Kicad,Pcbnew,(6.0.6)
; #@! TF.FileFunction,Plated,1,2,PTH
FMAT,2
INCH
; #@! TA.AperFunction,Plated,PTH,ViaDrill
T1C0.0157
; #@! TA.AperFunction,Plated,PTH,ComponentDrill
T2C0.0394
%
G90
G05
T1
X7.0Y-4.15
X7.0Y-4.2
X7.0276Y-4.0354
X7.0669Y-3.8189
X7.15Y-3.6
X7.2047Y-3.878
X7.2244Y-3.8386
X7.3622Y-4.0551
X7.3622Y-4.1339
X7.3622Y-4.2126
X7.4016Y-3.9764
X7.4213Y-3.937
X7.4409Y-4.0748
X7.4409Y-4.2126
X7.4606Y-3.8976
X7.4803Y-4.1339
X7.5197Y-4.2126
X7.5984Y-4.0945
X7.75Y-3.75
X7.9134Y-3.6732
X7.9134Y-3.937
X7.9134Y-4.0157
X7.9331Y-3.9764
X7.9528Y-4.0551
X7.9528Y-4.0945
X7.9528Y-4.1339
X8.15Y-4.35
X8.2Y-4.35
X8.3Y-3.95
X8.3661Y-4.2264
T2
X7.1919Y-4.31
X7.2919Y-4.31
X7.3504Y-3.6801
X7.3919Y-4.31
X7.4504Y-3.6801
X7.4919Y-4.31
X7.5504Y-3.6801
X7.5919Y-4.31
X7.6504Y-3.6801
X7.6919Y-4.31
T0
M30
