%TF.GenerationSoftware,KiCad,Pcbnew,(6.0.6)*%
%TF.CreationDate,2023-12-09T00:18:58+03:00*%
%TF.ProjectId,GrandStationKicad,4772616e-6453-4746-9174-696f6e4b6963,rev?*%
%TF.SameCoordinates,Original*%
%TF.FileFunction,Copper,L1,Top*%
%TF.FilePolarity,Positive*%
%FSLAX46Y46*%
G04 Gerber Fmt 4.6, Leading zero omitted, Abs format (unit mm)*
G04 Created by KiCad (PCBNEW (6.0.6)) date 2023-12-09 00:18:58*
%MOMM*%
%LPD*%
G01*
G04 APERTURE LIST*
G04 Aperture macros list*
%AMRoundRect*
0 Rectangle with rounded corners*
0 $1 Rounding radius*
0 $2 $3 $4 $5 $6 $7 $8 $9 X,Y pos of 4 corners*
0 Add a 4 corners polygon primitive as box body*
4,1,4,$2,$3,$4,$5,$6,$7,$8,$9,$2,$3,0*
0 Add four circle primitives for the rounded corners*
1,1,$1+$1,$2,$3*
1,1,$1+$1,$4,$5*
1,1,$1+$1,$6,$7*
1,1,$1+$1,$8,$9*
0 Add four rect primitives between the rounded corners*
20,1,$1+$1,$2,$3,$4,$5,0*
20,1,$1+$1,$4,$5,$6,$7,0*
20,1,$1+$1,$6,$7,$8,$9,0*
20,1,$1+$1,$8,$9,$2,$3,0*%
G04 Aperture macros list end*
%TA.AperFunction,SMDPad,CuDef*%
%ADD10RoundRect,0.218750X-0.256250X0.218750X-0.256250X-0.218750X0.256250X-0.218750X0.256250X0.218750X0*%
%TD*%
%TA.AperFunction,SMDPad,CuDef*%
%ADD11RoundRect,0.135000X0.135000X0.185000X-0.135000X0.185000X-0.135000X-0.185000X0.135000X-0.185000X0*%
%TD*%
%TA.AperFunction,SMDPad,CuDef*%
%ADD12RoundRect,0.140000X0.140000X0.170000X-0.140000X0.170000X-0.140000X-0.170000X0.140000X-0.170000X0*%
%TD*%
%TA.AperFunction,SMDPad,CuDef*%
%ADD13RoundRect,0.140000X0.170000X-0.140000X0.170000X0.140000X-0.170000X0.140000X-0.170000X-0.140000X0*%
%TD*%
%TA.AperFunction,SMDPad,CuDef*%
%ADD14R,1.200000X1.400000*%
%TD*%
%TA.AperFunction,SMDPad,CuDef*%
%ADD15R,2.000000X1.500000*%
%TD*%
%TA.AperFunction,SMDPad,CuDef*%
%ADD16RoundRect,0.100000X-0.637500X-0.100000X0.637500X-0.100000X0.637500X0.100000X-0.637500X0.100000X0*%
%TD*%
%TA.AperFunction,ComponentPad*%
%ADD17R,1.700000X1.700000*%
%TD*%
%TA.AperFunction,ComponentPad*%
%ADD18O,1.700000X1.700000*%
%TD*%
%TA.AperFunction,SMDPad,CuDef*%
%ADD19RoundRect,0.225000X0.225000X0.250000X-0.225000X0.250000X-0.225000X-0.250000X0.225000X-0.250000X0*%
%TD*%
%TA.AperFunction,SMDPad,CuDef*%
%ADD20RoundRect,0.218750X0.218750X0.256250X-0.218750X0.256250X-0.218750X-0.256250X0.218750X-0.256250X0*%
%TD*%
%TA.AperFunction,SMDPad,CuDef*%
%ADD21RoundRect,0.225000X-0.250000X0.225000X-0.250000X-0.225000X0.250000X-0.225000X0.250000X0.225000X0*%
%TD*%
%TA.AperFunction,SMDPad,CuDef*%
%ADD22RoundRect,0.135000X-0.185000X0.135000X-0.185000X-0.135000X0.185000X-0.135000X0.185000X0.135000X0*%
%TD*%
%TA.AperFunction,SMDPad,CuDef*%
%ADD23RoundRect,0.135000X-0.135000X-0.185000X0.135000X-0.185000X0.135000X0.185000X-0.135000X0.185000X0*%
%TD*%
%TA.AperFunction,SMDPad,CuDef*%
%ADD24RoundRect,0.140000X-0.170000X0.140000X-0.170000X-0.140000X0.170000X-0.140000X0.170000X0.140000X0*%
%TD*%
%TA.AperFunction,SMDPad,CuDef*%
%ADD25RoundRect,0.218750X-0.218750X-0.256250X0.218750X-0.256250X0.218750X0.256250X-0.218750X0.256250X0*%
%TD*%
%TA.AperFunction,ViaPad*%
%ADD26C,0.800000*%
%TD*%
%TA.AperFunction,Conductor*%
%ADD27C,0.500000*%
%TD*%
%TA.AperFunction,Conductor*%
%ADD28C,0.300000*%
%TD*%
%TA.AperFunction,Conductor*%
%ADD29C,0.250000*%
%TD*%
G04 APERTURE END LIST*
D10*
%TO.P,D2,1,K*%
%TO.N,GND*%
X180000000Y-92712500D03*
%TO.P,D2,2,A*%
%TO.N,Net-(D2-Pad2)*%
X180000000Y-94287500D03*
%TD*%
D11*
%TO.P,R6,1*%
%TO.N,Net-(D5-Pad2)*%
X210820000Y-110800000D03*
%TO.P,R6,2*%
%TO.N,SPI1-MISO*%
X209800000Y-110800000D03*
%TD*%
D12*
%TO.P,C7,1*%
%TO.N,+3.3VA*%
X180856250Y-104000000D03*
%TO.P,C7,2*%
%TO.N,GND*%
X179896250Y-104000000D03*
%TD*%
D13*
%TO.P,C10,1*%
%TO.N,+3.3V*%
X196850000Y-98270000D03*
%TO.P,C10,2*%
%TO.N,GND*%
X196850000Y-97310000D03*
%TD*%
%TO.P,C9,1*%
%TO.N,+3.3V*%
X195580000Y-98270000D03*
%TO.P,C9,2*%
%TO.N,GND*%
X195580000Y-97310000D03*
%TD*%
D11*
%TO.P,R4,1*%
%TO.N,Net-(D3-Pad2)*%
X179580000Y-107950000D03*
%TO.P,R4,2*%
%TO.N,Optional-2*%
X178560000Y-107950000D03*
%TD*%
D10*
%TO.P,FB1,1*%
%TO.N,+3.3VA*%
X182356250Y-104212500D03*
%TO.P,FB1,2*%
%TO.N,+3.3V*%
X182356250Y-105787500D03*
%TD*%
D14*
%TO.P,Y1,1,1*%
%TO.N,OSC32_IN*%
X178650000Y-98800000D03*
%TO.P,Y1,2,2*%
%TO.N,GND*%
X178650000Y-101000000D03*
%TO.P,Y1,3,3*%
%TO.N,OSC32_OUT*%
X180350000Y-101000000D03*
%TO.P,Y1,4,4*%
%TO.N,GND*%
X180350000Y-98800000D03*
%TD*%
D15*
%TO.P,U1,1,GND*%
%TO.N,GND*%
X199000000Y-93330000D03*
%TO.P,U1,2,GND*%
X199000000Y-95330000D03*
%TO.P,U1,3,VDD*%
%TO.N,+3.3V*%
X199000000Y-97330000D03*
%TO.P,U1,4,~{RESET}*%
%TO.N,LORA-RESET*%
X199000000Y-99330000D03*
%TO.P,U1,5,DIO0*%
%TO.N,LORA-DIO0*%
X199000000Y-101330000D03*
%TO.P,U1,6,DIO1*%
%TO.N,unconnected-(U1-Pad6)*%
X199000000Y-103330000D03*
%TO.P,U1,7,DIO2*%
%TO.N,unconnected-(U1-Pad7)*%
X199000000Y-105330000D03*
%TO.P,U1,8,DIO3*%
%TO.N,unconnected-(U1-Pad8)*%
X199000000Y-107330000D03*
%TO.P,U1,9,GND*%
%TO.N,GND*%
X215000000Y-107330000D03*
%TO.P,U1,10,DIO4*%
%TO.N,unconnected-(U1-Pad10)*%
X215000000Y-105330000D03*
%TO.P,U1,11,DIO5*%
%TO.N,unconnected-(U1-Pad11)*%
X215000000Y-103330000D03*
%TO.P,U1,12,SCK*%
%TO.N,SPI1-SCK*%
X215000000Y-101330000D03*
%TO.P,U1,13,MISO*%
%TO.N,SPI1-MISO*%
X215000000Y-99330000D03*
%TO.P,U1,14,MOSI*%
%TO.N,SPI1-MOSI*%
X215000000Y-97330000D03*
%TO.P,U1,15,~{NSS}*%
%TO.N,LORA-NSS*%
X215000000Y-95330000D03*
%TO.P,U1,16,GND*%
%TO.N,GND*%
X215000000Y-93330000D03*
%TD*%
D16*
%TO.P,U2,1,BOOT0*%
%TO.N,Net-(R2-Pad2)*%
X185637500Y-99075000D03*
%TO.P,U2,2,PF0*%
%TO.N,OSC32_IN*%
X185637500Y-99725000D03*
%TO.P,U2,3,PF1*%
%TO.N,OSC32_OUT*%
X185637500Y-100375000D03*
%TO.P,U2,4,NRST*%
%TO.N,Net-(C1-Pad2)*%
X185637500Y-101025000D03*
%TO.P,U2,5,VDDA*%
%TO.N,+3.3VA*%
X185637500Y-101675000D03*
%TO.P,U2,6,PA0*%
%TO.N,LORA-NSS*%
X185637500Y-102325000D03*
%TO.P,U2,7,PA1*%
%TO.N,LORA-DIO0*%
X185637500Y-102975000D03*
%TO.P,U2,8,PA2*%
%TO.N,USART1-TX*%
X185637500Y-103625000D03*
%TO.P,U2,9,PA3*%
%TO.N,USART1-RX*%
X185637500Y-104275000D03*
%TO.P,U2,10,PA4*%
%TO.N,LORA-RESET*%
X185637500Y-104925000D03*
%TO.P,U2,11,PA5*%
%TO.N,SPI1-SCK*%
X191362500Y-104925000D03*
%TO.P,U2,12,PA6*%
%TO.N,SPI1-MISO*%
X191362500Y-104275000D03*
%TO.P,U2,13,PA7*%
%TO.N,SPI1-MOSI*%
X191362500Y-103625000D03*
%TO.P,U2,14,PB1*%
%TO.N,LED1*%
X191362500Y-102975000D03*
%TO.P,U2,15,VSS*%
%TO.N,GND*%
X191362500Y-102325000D03*
%TO.P,U2,16,VDD*%
%TO.N,+3.3V*%
X191362500Y-101675000D03*
%TO.P,U2,17,PA9*%
%TO.N,Optional-1*%
X191362500Y-101025000D03*
%TO.P,U2,18,PA10*%
%TO.N,Optional-2*%
X191362500Y-100375000D03*
%TO.P,U2,19,PA13*%
%TO.N,SWDIO*%
X191362500Y-99725000D03*
%TO.P,U2,20,PA14*%
%TO.N,SWCLK*%
X191362500Y-99075000D03*
%TD*%
D17*
%TO.P,J2,1,Pin_1*%
%TO.N,+3.3V*%
X186700000Y-93475000D03*
D18*
%TO.P,J2,2,Pin_2*%
%TO.N,GND*%
X189240000Y-93475000D03*
%TO.P,J2,3,Pin_3*%
%TO.N,SWCLK*%
X191780000Y-93475000D03*
%TO.P,J2,4,Pin_4*%
%TO.N,SWDIO*%
X194320000Y-93475000D03*
%TD*%
D19*
%TO.P,C1,1*%
%TO.N,GND*%
X189275000Y-97500000D03*
%TO.P,C1,2*%
%TO.N,Net-(C1-Pad2)*%
X187725000Y-97500000D03*
%TD*%
D20*
%TO.P,D4,1,K*%
%TO.N,GND*%
X205257500Y-110800000D03*
%TO.P,D4,2,A*%
%TO.N,Net-(D4-Pad2)*%
X203682500Y-110800000D03*
%TD*%
%TO.P,D5,1,K*%
%TO.N,GND*%
X214987500Y-110800000D03*
%TO.P,D5,2,A*%
%TO.N,Net-(D5-Pad2)*%
X213412500Y-110800000D03*
%TD*%
%TO.P,D1,1,K*%
%TO.N,GND*%
X195287500Y-106500000D03*
%TO.P,D1,2,A*%
%TO.N,Net-(D1-Pad2)*%
X193712500Y-106500000D03*
%TD*%
D21*
%TO.P,C2,1*%
%TO.N,+3.3V*%
X195500000Y-101225000D03*
%TO.P,C2,2*%
%TO.N,GND*%
X195500000Y-102775000D03*
%TD*%
D22*
%TO.P,R3,1*%
%TO.N,+3.3V*%
X183000000Y-92990000D03*
%TO.P,R3,2*%
%TO.N,Net-(D2-Pad2)*%
X183000000Y-94010000D03*
%TD*%
D11*
%TO.P,R5,1*%
%TO.N,Net-(D4-Pad2)*%
X201170000Y-110800000D03*
%TO.P,R5,2*%
%TO.N,+3.3V*%
X200150000Y-110800000D03*
%TD*%
D23*
%TO.P,R2,1*%
%TO.N,GND*%
X184990000Y-97500000D03*
%TO.P,R2,2*%
%TO.N,Net-(R2-Pad2)*%
X186010000Y-97500000D03*
%TD*%
D13*
%TO.P,C4,1*%
%TO.N,+3.3VA*%
X183500000Y-101980000D03*
%TO.P,C4,2*%
%TO.N,GND*%
X183500000Y-101020000D03*
%TD*%
D24*
%TO.P,C6,1*%
%TO.N,OSC32_OUT*%
X181850000Y-100820000D03*
%TO.P,C6,2*%
%TO.N,GND*%
X181850000Y-101780000D03*
%TD*%
D13*
%TO.P,C3,1*%
%TO.N,OSC32_IN*%
X181850000Y-99280000D03*
%TO.P,C3,2*%
%TO.N,GND*%
X181850000Y-98320000D03*
%TD*%
D17*
%TO.P,J1,1,Pin_1*%
%TO.N,USART1-TX*%
X182675000Y-109475000D03*
D18*
%TO.P,J1,2,Pin_2*%
%TO.N,USART1-RX*%
X185215000Y-109475000D03*
%TO.P,J1,3,Pin_3*%
%TO.N,Optional-1*%
X187755000Y-109475000D03*
%TO.P,J1,4,Pin_4*%
%TO.N,Optional-2*%
X190295000Y-109475000D03*
%TO.P,J1,5,Pin_5*%
%TO.N,GND*%
X192835000Y-109475000D03*
%TO.P,J1,6,Pin_6*%
%TO.N,+3.3V*%
X195375000Y-109475000D03*
%TD*%
D11*
%TO.P,R1,1*%
%TO.N,Net-(D1-Pad2)*%
X195010000Y-105000000D03*
%TO.P,R1,2*%
%TO.N,LED1*%
X193990000Y-105000000D03*
%TD*%
D25*
%TO.P,D3,1,K*%
%TO.N,GND*%
X178282500Y-110490000D03*
%TO.P,D3,2,A*%
%TO.N,Net-(D3-Pad2)*%
X179857500Y-110490000D03*
%TD*%
D24*
%TO.P,C5,1*%
%TO.N,+3.3V*%
X193500000Y-101520000D03*
%TO.P,C5,2*%
%TO.N,GND*%
X193500000Y-102480000D03*
%TD*%
D12*
%TO.P,C8,1*%
%TO.N,+3.3V*%
X180836250Y-106000000D03*
%TO.P,C8,2*%
%TO.N,GND*%
X179876250Y-106000000D03*
%TD*%
D26*
%TO.N,GND*%
X207010000Y-110490000D03*
X196850000Y-95250000D03*
X178500000Y-102500000D03*
X201000000Y-93300000D03*
X183500000Y-97500000D03*
X212500000Y-107350000D03*
X181610000Y-91440000D03*
X177800000Y-106680000D03*
X191000000Y-107000000D03*
%TO.N,OSC32_IN*%
X183000000Y-98500000D03*
X179500000Y-97000000D03*
%TO.N,Optional-1*%
X188500000Y-100000000D03*
X187000000Y-107000000D03*
%TO.N,Optional-2*%
X189000000Y-107000000D03*
X189500000Y-99000000D03*
X177800000Y-105410000D03*
%TO.N,LORA-RESET*%
X201000000Y-100000000D03*
X187000000Y-105000000D03*
%TO.N,LORA-DIO0*%
X201000000Y-102000000D03*
X187000000Y-103000000D03*
%TO.N,SPI1-SCK*%
X190000000Y-105000000D03*
X202000000Y-105000000D03*
%TO.N,SPI1-MISO*%
X208280000Y-110490000D03*
X210820000Y-100330000D03*
X193000000Y-104000000D03*
X202000000Y-104000000D03*
%TO.N,SPI1-MOSI*%
X189000000Y-103500000D03*
X202000000Y-103000000D03*
%TO.N,LORA-NSS*%
X188000000Y-101000000D03*
X201500000Y-101000000D03*
%TD*%
D27*
%TO.N,GND*%
X196000000Y-106500000D02*
X195287500Y-106500000D01*
D28*
X184990000Y-97500000D02*
X183500000Y-97500000D01*
D27*
X215000000Y-93330000D02*
X201030000Y-93330000D01*
D28*
X184490000Y-96510000D02*
X189240000Y-96510000D01*
D27*
X201030000Y-93330000D02*
X201000000Y-93300000D01*
X192835000Y-109475000D02*
X192835000Y-108952500D01*
X200970000Y-93330000D02*
X201000000Y-93300000D01*
X189240000Y-96510000D02*
X189240000Y-97465000D01*
D28*
X181850000Y-98320000D02*
X180830000Y-98320000D01*
X177800000Y-106680000D02*
X177800000Y-110007500D01*
X178650000Y-101000000D02*
X178650000Y-101150000D01*
D27*
X189240000Y-97465000D02*
X189275000Y-97500000D01*
X189240000Y-93475000D02*
X189240000Y-96510000D01*
D28*
X214987500Y-110800000D02*
X215000000Y-110787500D01*
D29*
X180000000Y-92712500D02*
X181272500Y-91440000D01*
D28*
X178650000Y-102350000D02*
X178500000Y-102500000D01*
X179876250Y-106000000D02*
X179876250Y-104020000D01*
D27*
X207010000Y-110490000D02*
X205567500Y-110490000D01*
X192835000Y-108835000D02*
X191000000Y-107000000D01*
D28*
X183500000Y-101020000D02*
X182980000Y-101020000D01*
X179876250Y-104020000D02*
X179896250Y-104000000D01*
X183500000Y-97500000D02*
X184490000Y-96510000D01*
X195580000Y-97310000D02*
X196850000Y-97310000D01*
D27*
X193795000Y-102775000D02*
X193500000Y-102480000D01*
X205567500Y-110490000D02*
X205257500Y-110800000D01*
X195500000Y-102775000D02*
X195775000Y-102775000D01*
D28*
X181850000Y-98320000D02*
X182670000Y-97500000D01*
X178650000Y-101000000D02*
X178650000Y-102350000D01*
X181850000Y-101780000D02*
X181720000Y-101780000D01*
X196850000Y-97310000D02*
X196850000Y-95250000D01*
D27*
X214980000Y-107350000D02*
X215000000Y-107330000D01*
D28*
X182220000Y-101780000D02*
X181850000Y-101780000D01*
X215000000Y-110787500D02*
X215000000Y-107330000D01*
X178650000Y-101150000D02*
X180500000Y-103000000D01*
X179896250Y-104000000D02*
X179896250Y-103603750D01*
X180830000Y-98320000D02*
X180350000Y-98800000D01*
D27*
X199000000Y-95330000D02*
X199000000Y-93330000D01*
X199000000Y-93330000D02*
X200970000Y-93330000D01*
D28*
X177800000Y-110007500D02*
X178282500Y-110490000D01*
X193345000Y-102325000D02*
X193500000Y-102480000D01*
D27*
X192835000Y-108952500D02*
X195287500Y-106500000D01*
X196500000Y-106000000D02*
X196000000Y-106500000D01*
X212500000Y-107350000D02*
X214980000Y-107350000D01*
D28*
X191362500Y-102325000D02*
X193345000Y-102325000D01*
X182670000Y-97500000D02*
X183500000Y-97500000D01*
X182980000Y-101020000D02*
X182220000Y-101780000D01*
D27*
X195775000Y-102775000D02*
X196500000Y-103500000D01*
D28*
X179896250Y-103603750D02*
X180500000Y-103000000D01*
D27*
X196500000Y-103500000D02*
X196500000Y-106000000D01*
X192835000Y-109475000D02*
X192835000Y-108835000D01*
D29*
X181272500Y-91440000D02*
X181610000Y-91440000D01*
D27*
X195500000Y-102775000D02*
X193795000Y-102775000D01*
D28*
X181720000Y-101780000D02*
X180500000Y-103000000D01*
%TO.N,Net-(C1-Pad2)*%
X187725000Y-97500000D02*
X187725000Y-99775000D01*
X187725000Y-99775000D02*
X186475000Y-101025000D01*
X186475000Y-101025000D02*
X185637500Y-101025000D01*
D27*
%TO.N,+3.3V*%
X186700000Y-93475000D02*
X186700000Y-91800000D01*
X181500000Y-111000000D02*
X181000000Y-110500000D01*
X198825000Y-109475000D02*
X200150000Y-110800000D01*
X194000000Y-111000000D02*
X181500000Y-111000000D01*
X196850000Y-93980000D02*
X194310000Y-96520000D01*
X194310000Y-96520000D02*
X194310000Y-97790000D01*
X196850000Y-98270000D02*
X197640000Y-98270000D01*
X194790000Y-98270000D02*
X194310000Y-97790000D01*
X195375000Y-109475000D02*
X198825000Y-109475000D01*
X197500000Y-106500000D02*
X197500000Y-103225000D01*
X194310000Y-100035000D02*
X195500000Y-101225000D01*
X195500000Y-101225000D02*
X193795000Y-101225000D01*
X197500000Y-103225000D02*
X197137500Y-102862500D01*
D28*
X193345000Y-101675000D02*
X191362500Y-101675000D01*
D27*
X197640000Y-98270000D02*
X198580000Y-97330000D01*
X196850000Y-98270000D02*
X195580000Y-98270000D01*
X198580000Y-97330000D02*
X199000000Y-97330000D01*
X195580000Y-98270000D02*
X194790000Y-98270000D01*
X186700000Y-91800000D02*
X195940000Y-91800000D01*
X195375000Y-109475000D02*
X195375000Y-108625000D01*
D28*
X181048750Y-105787500D02*
X180836250Y-106000000D01*
D27*
X195940000Y-91800000D02*
X196850000Y-92710000D01*
X195375000Y-109625000D02*
X194000000Y-111000000D01*
D28*
X182356250Y-105787500D02*
X181048750Y-105787500D01*
D27*
X186700000Y-91800000D02*
X184150000Y-91800000D01*
X194310000Y-97790000D02*
X194310000Y-100035000D01*
X193795000Y-101225000D02*
X193500000Y-101520000D01*
D28*
X193500000Y-101520000D02*
X193345000Y-101675000D01*
D27*
X181000000Y-110500000D02*
X181000000Y-107143750D01*
X195375000Y-109475000D02*
X195375000Y-109625000D01*
X195375000Y-108625000D02*
X197500000Y-106500000D01*
X196850000Y-92710000D02*
X196850000Y-93980000D01*
X184150000Y-91800000D02*
X184150000Y-91840000D01*
X181000000Y-107143750D02*
X182356250Y-105787500D01*
X197137500Y-102862500D02*
X195500000Y-101225000D01*
X184150000Y-91840000D02*
X183000000Y-92990000D01*
D28*
%TO.N,OSC32_IN*%
X185637500Y-99725000D02*
X182295000Y-99725000D01*
X178650000Y-97850000D02*
X179500000Y-97000000D01*
X182295000Y-99725000D02*
X181850000Y-99280000D01*
X178650000Y-98800000D02*
X178650000Y-97850000D01*
X183000000Y-98500000D02*
X182220000Y-99280000D01*
X182220000Y-99280000D02*
X181850000Y-99280000D01*
%TO.N,+3.3VA*%
X182856250Y-102000000D02*
X183480000Y-102000000D01*
X183480000Y-102000000D02*
X183500000Y-101980000D01*
X185637500Y-101675000D02*
X183805000Y-101675000D01*
X183500000Y-101980000D02*
X183500000Y-102000000D01*
X182143750Y-104000000D02*
X182356250Y-104212500D01*
X182856250Y-102000000D02*
X180856250Y-104000000D01*
X183805000Y-101675000D02*
X183500000Y-101980000D01*
X180856250Y-104000000D02*
X182143750Y-104000000D01*
%TO.N,OSC32_OUT*%
X182180000Y-100820000D02*
X182625000Y-100375000D01*
X181670000Y-101000000D02*
X181850000Y-100820000D01*
X180350000Y-101000000D02*
X181670000Y-101000000D01*
X181850000Y-100820000D02*
X182180000Y-100820000D01*
X182625000Y-100375000D02*
X185637500Y-100375000D01*
%TO.N,Net-(D1-Pad2)*%
X195010000Y-105000000D02*
X195010000Y-105202500D01*
X195010000Y-105202500D02*
X193712500Y-106500000D01*
D29*
%TO.N,Net-(D2-Pad2)*%
X183000000Y-94010000D02*
X180277500Y-94010000D01*
X180277500Y-94010000D02*
X180000000Y-94287500D01*
D28*
%TO.N,USART1-TX*%
X184375000Y-103625000D02*
X185637500Y-103625000D01*
X183500000Y-104500000D02*
X184375000Y-103625000D01*
X183500000Y-108500000D02*
X183500000Y-104500000D01*
X182675000Y-109325000D02*
X183500000Y-108500000D01*
X182675000Y-109475000D02*
X182675000Y-109325000D01*
%TO.N,USART1-RX*%
X185215000Y-109475000D02*
X184000000Y-108260000D01*
X184725000Y-104275000D02*
X185637500Y-104275000D01*
X184000000Y-108260000D02*
X184000000Y-105000000D01*
X184000000Y-105000000D02*
X184725000Y-104275000D01*
%TO.N,Optional-1*%
X187755000Y-109475000D02*
X187000000Y-108720000D01*
X187000000Y-108720000D02*
X187000000Y-107000000D01*
X188500000Y-100000000D02*
X189525000Y-101025000D01*
X189525000Y-101025000D02*
X191362500Y-101025000D01*
%TO.N,Optional-2*%
X189500000Y-100000000D02*
X189500000Y-99000000D01*
X190295000Y-109475000D02*
X189000000Y-108180000D01*
X191362500Y-100375000D02*
X189875000Y-100375000D01*
X189875000Y-100375000D02*
X189500000Y-100000000D01*
X178560000Y-107950000D02*
X178560000Y-106170000D01*
X178560000Y-106170000D02*
X177800000Y-105410000D01*
X189000000Y-108180000D02*
X189000000Y-107000000D01*
%TO.N,SWCLK*%
X192425000Y-99075000D02*
X191362500Y-99075000D01*
X191780000Y-93475000D02*
X193000000Y-94695000D01*
X193000000Y-94695000D02*
X193000000Y-98500000D01*
X193000000Y-98500000D02*
X192425000Y-99075000D01*
%TO.N,SWDIO*%
X191362500Y-99725000D02*
X192775000Y-99725000D01*
X193500000Y-94295000D02*
X194320000Y-93475000D01*
X193500000Y-99000000D02*
X193500000Y-94295000D01*
X192775000Y-99725000D02*
X193500000Y-99000000D01*
%TO.N,LED1*%
X192000000Y-106000000D02*
X193000000Y-105000000D01*
X188000000Y-104500000D02*
X189500000Y-106000000D01*
X190000000Y-102500000D02*
X188500000Y-102500000D01*
X188000000Y-103000000D02*
X188000000Y-104500000D01*
X190475000Y-102975000D02*
X190000000Y-102500000D01*
X189500000Y-106000000D02*
X192000000Y-106000000D01*
X191362500Y-102975000D02*
X190475000Y-102975000D01*
X188500000Y-102500000D02*
X188000000Y-103000000D01*
X193000000Y-105000000D02*
X193990000Y-105000000D01*
%TO.N,Net-(R2-Pad2)*%
X186010000Y-97500000D02*
X186010000Y-98702500D01*
X186010000Y-98702500D02*
X185637500Y-99075000D01*
%TO.N,LORA-RESET*%
X185637500Y-104925000D02*
X186925000Y-104925000D01*
X201000000Y-100000000D02*
X199670000Y-100000000D01*
X199670000Y-100000000D02*
X199000000Y-99330000D01*
X186925000Y-104925000D02*
X187000000Y-105000000D01*
%TO.N,LORA-DIO0*%
X185637500Y-102975000D02*
X186975000Y-102975000D01*
X186975000Y-102975000D02*
X187000000Y-103000000D01*
X201000000Y-102000000D02*
X199670000Y-102000000D01*
X199670000Y-102000000D02*
X199000000Y-101330000D01*
%TO.N,SPI1-SCK*%
X215000000Y-101330000D02*
X207670000Y-101330000D01*
X202000000Y-105000000D02*
X204000000Y-105000000D01*
X190075000Y-104925000D02*
X190000000Y-105000000D01*
X191362500Y-104925000D02*
X190075000Y-104925000D01*
X207670000Y-101330000D02*
X204000000Y-105000000D01*
%TO.N,SPI1-MISO*%
X208590000Y-110800000D02*
X208280000Y-110490000D01*
X192725000Y-104275000D02*
X191362500Y-104275000D01*
X215000000Y-99330000D02*
X211820000Y-99330000D01*
X202000000Y-104000000D02*
X203500000Y-104000000D01*
X193000000Y-104000000D02*
X192725000Y-104275000D01*
X208170000Y-99330000D02*
X203500000Y-104000000D01*
X211820000Y-99330000D02*
X210820000Y-100330000D01*
X211820000Y-99330000D02*
X208170000Y-99330000D01*
X209800000Y-110800000D02*
X208590000Y-110800000D01*
%TO.N,SPI1-MOSI*%
X215000000Y-97330000D02*
X207670000Y-97330000D01*
X189000000Y-103500000D02*
X189125000Y-103625000D01*
X189125000Y-103625000D02*
X191362500Y-103625000D01*
X207670000Y-97330000D02*
X202000000Y-103000000D01*
D29*
%TO.N,LORA-NSS*%
X188000000Y-101000000D02*
X186675000Y-102325000D01*
D28*
X207170000Y-95330000D02*
X201500000Y-101000000D01*
X215000000Y-95330000D02*
X207170000Y-95330000D01*
D29*
X186675000Y-102325000D02*
X185637500Y-102325000D01*
D28*
%TO.N,Net-(D3-Pad2)*%
X179580000Y-107950000D02*
X179580000Y-110212500D01*
X179580000Y-110212500D02*
X179857500Y-110490000D01*
D27*
%TO.N,Net-(D4-Pad2)*%
X201170000Y-110800000D02*
X203682500Y-110800000D01*
D28*
%TO.N,Net-(D5-Pad2)*%
X210820000Y-110800000D02*
X213412500Y-110800000D01*
%TD*%
M02*
