%TF.GenerationSoftware,KiCad,Pcbnew,(6.0.6)*%
%TF.CreationDate,2023-12-09T00:18:58+03:00*%
%TF.ProjectId,GrandStationKicad,4772616e-6453-4746-9174-696f6e4b6963,rev?*%
%TF.SameCoordinates,Original*%
%TF.FileFunction,Legend,Top*%
%TF.FilePolarity,Positive*%
%FSLAX46Y46*%
G04 Gerber Fmt 4.6, Leading zero omitted, Abs format (unit mm)*
G04 Created by KiCad (PCBNEW (6.0.6)) date 2023-12-09 00:18:58*
%MOMM*%
%LPD*%
G01*
G04 APERTURE LIST*
%ADD10C,0.100000*%
%ADD11C,0.150000*%
%ADD12C,0.120000*%
G04 APERTURE END LIST*
D10*
X194761904Y-111726190D02*
X195071428Y-111726190D01*
X194904761Y-111916666D01*
X194976190Y-111916666D01*
X195023809Y-111940476D01*
X195047619Y-111964285D01*
X195071428Y-112011904D01*
X195071428Y-112130952D01*
X195047619Y-112178571D01*
X195023809Y-112202380D01*
X194976190Y-112226190D01*
X194833333Y-112226190D01*
X194785714Y-112202380D01*
X194761904Y-112178571D01*
X195285714Y-112178571D02*
X195309523Y-112202380D01*
X195285714Y-112226190D01*
X195261904Y-112202380D01*
X195285714Y-112178571D01*
X195285714Y-112226190D01*
X195476190Y-111726190D02*
X195785714Y-111726190D01*
X195619047Y-111916666D01*
X195690476Y-111916666D01*
X195738095Y-111940476D01*
X195761904Y-111964285D01*
X195785714Y-112011904D01*
X195785714Y-112130952D01*
X195761904Y-112178571D01*
X195738095Y-112202380D01*
X195690476Y-112226190D01*
X195547619Y-112226190D01*
X195500000Y-112202380D01*
X195476190Y-112178571D01*
X195928571Y-111726190D02*
X196095238Y-112226190D01*
X196261904Y-111726190D01*
X188619047Y-90750000D02*
X188571428Y-90726190D01*
X188500000Y-90726190D01*
X188428571Y-90750000D01*
X188380952Y-90797619D01*
X188357142Y-90845238D01*
X188333333Y-90940476D01*
X188333333Y-91011904D01*
X188357142Y-91107142D01*
X188380952Y-91154761D01*
X188428571Y-91202380D01*
X188500000Y-91226190D01*
X188547619Y-91226190D01*
X188619047Y-91202380D01*
X188642857Y-91178571D01*
X188642857Y-91011904D01*
X188547619Y-91011904D01*
X188857142Y-91226190D02*
X188857142Y-90726190D01*
X189142857Y-91226190D01*
X189142857Y-90726190D01*
X189380952Y-91226190D02*
X189380952Y-90726190D01*
X189500000Y-90726190D01*
X189571428Y-90750000D01*
X189619047Y-90797619D01*
X189642857Y-90845238D01*
X189666666Y-90940476D01*
X189666666Y-91011904D01*
X189642857Y-91107142D01*
X189619047Y-91154761D01*
X189571428Y-91202380D01*
X189500000Y-91226190D01*
X189380952Y-91226190D01*
X214454761Y-112196190D02*
X214288095Y-111958095D01*
X214169047Y-112196190D02*
X214169047Y-111696190D01*
X214359523Y-111696190D01*
X214407142Y-111720000D01*
X214430952Y-111743809D01*
X214454761Y-111791428D01*
X214454761Y-111862857D01*
X214430952Y-111910476D01*
X214407142Y-111934285D01*
X214359523Y-111958095D01*
X214169047Y-111958095D01*
X214645238Y-112053333D02*
X214883333Y-112053333D01*
X214597619Y-112196190D02*
X214764285Y-111696190D01*
X214930952Y-112196190D01*
X215097619Y-112005714D02*
X215478571Y-112005714D01*
X215811904Y-111696190D02*
X215859523Y-111696190D01*
X215907142Y-111720000D01*
X215930952Y-111743809D01*
X215954761Y-111791428D01*
X215978571Y-111886666D01*
X215978571Y-112005714D01*
X215954761Y-112100952D01*
X215930952Y-112148571D01*
X215907142Y-112172380D01*
X215859523Y-112196190D01*
X215811904Y-112196190D01*
X215764285Y-112172380D01*
X215740476Y-112148571D01*
X215716666Y-112100952D01*
X215692857Y-112005714D01*
X215692857Y-111886666D01*
X215716666Y-111791428D01*
X215740476Y-111743809D01*
X215764285Y-111720000D01*
X215811904Y-111696190D01*
X216169047Y-111743809D02*
X216192857Y-111720000D01*
X216240476Y-111696190D01*
X216359523Y-111696190D01*
X216407142Y-111720000D01*
X216430952Y-111743809D01*
X216454761Y-111791428D01*
X216454761Y-111839047D01*
X216430952Y-111910476D01*
X216145238Y-112196190D01*
X216454761Y-112196190D01*
X186773809Y-111726190D02*
X186869047Y-111726190D01*
X186916666Y-111750000D01*
X186964285Y-111797619D01*
X186988095Y-111892857D01*
X186988095Y-112059523D01*
X186964285Y-112154761D01*
X186916666Y-112202380D01*
X186869047Y-112226190D01*
X186773809Y-112226190D01*
X186726190Y-112202380D01*
X186678571Y-112154761D01*
X186654761Y-112059523D01*
X186654761Y-111892857D01*
X186678571Y-111797619D01*
X186726190Y-111750000D01*
X186773809Y-111726190D01*
X187202380Y-112226190D02*
X187202380Y-111726190D01*
X187392857Y-111726190D01*
X187440476Y-111750000D01*
X187464285Y-111773809D01*
X187488095Y-111821428D01*
X187488095Y-111892857D01*
X187464285Y-111940476D01*
X187440476Y-111964285D01*
X187392857Y-111988095D01*
X187202380Y-111988095D01*
X187630952Y-111726190D02*
X187916666Y-111726190D01*
X187773809Y-112226190D02*
X187773809Y-111726190D01*
X188345238Y-112226190D02*
X188059523Y-112226190D01*
X188202380Y-112226190D02*
X188202380Y-111726190D01*
X188154761Y-111797619D01*
X188107142Y-111845238D01*
X188059523Y-111869047D01*
X186261904Y-90726190D02*
X186571428Y-90726190D01*
X186404761Y-90916666D01*
X186476190Y-90916666D01*
X186523809Y-90940476D01*
X186547619Y-90964285D01*
X186571428Y-91011904D01*
X186571428Y-91130952D01*
X186547619Y-91178571D01*
X186523809Y-91202380D01*
X186476190Y-91226190D01*
X186333333Y-91226190D01*
X186285714Y-91202380D01*
X186261904Y-91178571D01*
X186785714Y-91178571D02*
X186809523Y-91202380D01*
X186785714Y-91226190D01*
X186761904Y-91202380D01*
X186785714Y-91178571D01*
X186785714Y-91226190D01*
X186976190Y-90726190D02*
X187285714Y-90726190D01*
X187119047Y-90916666D01*
X187190476Y-90916666D01*
X187238095Y-90940476D01*
X187261904Y-90964285D01*
X187285714Y-91011904D01*
X187285714Y-91130952D01*
X187261904Y-91178571D01*
X187238095Y-91202380D01*
X187190476Y-91226190D01*
X187047619Y-91226190D01*
X187000000Y-91202380D01*
X186976190Y-91178571D01*
X187428571Y-90726190D02*
X187595238Y-91226190D01*
X187761904Y-90726190D01*
X204545238Y-112196190D02*
X204545238Y-111696190D01*
X204735714Y-111696190D01*
X204783333Y-111720000D01*
X204807142Y-111743809D01*
X204830952Y-111791428D01*
X204830952Y-111862857D01*
X204807142Y-111910476D01*
X204783333Y-111934285D01*
X204735714Y-111958095D01*
X204545238Y-111958095D01*
X205140476Y-111696190D02*
X205235714Y-111696190D01*
X205283333Y-111720000D01*
X205330952Y-111767619D01*
X205354761Y-111862857D01*
X205354761Y-112029523D01*
X205330952Y-112124761D01*
X205283333Y-112172380D01*
X205235714Y-112196190D01*
X205140476Y-112196190D01*
X205092857Y-112172380D01*
X205045238Y-112124761D01*
X205021428Y-112029523D01*
X205021428Y-111862857D01*
X205045238Y-111767619D01*
X205092857Y-111720000D01*
X205140476Y-111696190D01*
X205521428Y-111696190D02*
X205640476Y-112196190D01*
X205735714Y-111839047D01*
X205830952Y-112196190D01*
X205950000Y-111696190D01*
X206140476Y-111934285D02*
X206307142Y-111934285D01*
X206378571Y-112196190D02*
X206140476Y-112196190D01*
X206140476Y-111696190D01*
X206378571Y-111696190D01*
X206878571Y-112196190D02*
X206711904Y-111958095D01*
X206592857Y-112196190D02*
X206592857Y-111696190D01*
X206783333Y-111696190D01*
X206830952Y-111720000D01*
X206854761Y-111743809D01*
X206878571Y-111791428D01*
X206878571Y-111862857D01*
X206854761Y-111910476D01*
X206830952Y-111934285D01*
X206783333Y-111958095D01*
X206592857Y-111958095D01*
X189273809Y-111726190D02*
X189369047Y-111726190D01*
X189416666Y-111750000D01*
X189464285Y-111797619D01*
X189488095Y-111892857D01*
X189488095Y-112059523D01*
X189464285Y-112154761D01*
X189416666Y-112202380D01*
X189369047Y-112226190D01*
X189273809Y-112226190D01*
X189226190Y-112202380D01*
X189178571Y-112154761D01*
X189154761Y-112059523D01*
X189154761Y-111892857D01*
X189178571Y-111797619D01*
X189226190Y-111750000D01*
X189273809Y-111726190D01*
X189702380Y-112226190D02*
X189702380Y-111726190D01*
X189892857Y-111726190D01*
X189940476Y-111750000D01*
X189964285Y-111773809D01*
X189988095Y-111821428D01*
X189988095Y-111892857D01*
X189964285Y-111940476D01*
X189940476Y-111964285D01*
X189892857Y-111988095D01*
X189702380Y-111988095D01*
X190130952Y-111726190D02*
X190416666Y-111726190D01*
X190273809Y-112226190D02*
X190273809Y-111726190D01*
X190559523Y-111773809D02*
X190583333Y-111750000D01*
X190630952Y-111726190D01*
X190750000Y-111726190D01*
X190797619Y-111750000D01*
X190821428Y-111773809D01*
X190845238Y-111821428D01*
X190845238Y-111869047D01*
X190821428Y-111940476D01*
X190535714Y-112226190D01*
X190845238Y-112226190D01*
X190369047Y-91202380D02*
X190440476Y-91226190D01*
X190559523Y-91226190D01*
X190607142Y-91202380D01*
X190630952Y-91178571D01*
X190654761Y-91130952D01*
X190654761Y-91083333D01*
X190630952Y-91035714D01*
X190607142Y-91011904D01*
X190559523Y-90988095D01*
X190464285Y-90964285D01*
X190416666Y-90940476D01*
X190392857Y-90916666D01*
X190369047Y-90869047D01*
X190369047Y-90821428D01*
X190392857Y-90773809D01*
X190416666Y-90750000D01*
X190464285Y-90726190D01*
X190583333Y-90726190D01*
X190654761Y-90750000D01*
X190821428Y-90726190D02*
X190940476Y-91226190D01*
X191035714Y-90869047D01*
X191130952Y-91226190D01*
X191250000Y-90726190D01*
X191726190Y-91178571D02*
X191702380Y-91202380D01*
X191630952Y-91226190D01*
X191583333Y-91226190D01*
X191511904Y-91202380D01*
X191464285Y-91154761D01*
X191440476Y-91107142D01*
X191416666Y-91011904D01*
X191416666Y-90940476D01*
X191440476Y-90845238D01*
X191464285Y-90797619D01*
X191511904Y-90750000D01*
X191583333Y-90726190D01*
X191630952Y-90726190D01*
X191702380Y-90750000D01*
X191726190Y-90773809D01*
X192178571Y-91226190D02*
X191940476Y-91226190D01*
X191940476Y-90726190D01*
X192345238Y-91226190D02*
X192345238Y-90726190D01*
X192630952Y-91226190D02*
X192416666Y-90940476D01*
X192630952Y-90726190D02*
X192345238Y-91011904D01*
X178845238Y-95826190D02*
X178845238Y-95326190D01*
X179035714Y-95326190D01*
X179083333Y-95350000D01*
X179107142Y-95373809D01*
X179130952Y-95421428D01*
X179130952Y-95492857D01*
X179107142Y-95540476D01*
X179083333Y-95564285D01*
X179035714Y-95588095D01*
X178845238Y-95588095D01*
X179440476Y-95326190D02*
X179535714Y-95326190D01*
X179583333Y-95350000D01*
X179630952Y-95397619D01*
X179654761Y-95492857D01*
X179654761Y-95659523D01*
X179630952Y-95754761D01*
X179583333Y-95802380D01*
X179535714Y-95826190D01*
X179440476Y-95826190D01*
X179392857Y-95802380D01*
X179345238Y-95754761D01*
X179321428Y-95659523D01*
X179321428Y-95492857D01*
X179345238Y-95397619D01*
X179392857Y-95350000D01*
X179440476Y-95326190D01*
X179821428Y-95326190D02*
X179940476Y-95826190D01*
X180035714Y-95469047D01*
X180130952Y-95826190D01*
X180250000Y-95326190D01*
X180440476Y-95564285D02*
X180607142Y-95564285D01*
X180678571Y-95826190D02*
X180440476Y-95826190D01*
X180440476Y-95326190D01*
X180678571Y-95326190D01*
X181178571Y-95826190D02*
X181011904Y-95588095D01*
X180892857Y-95826190D02*
X180892857Y-95326190D01*
X181083333Y-95326190D01*
X181130952Y-95350000D01*
X181154761Y-95373809D01*
X181178571Y-95421428D01*
X181178571Y-95492857D01*
X181154761Y-95540476D01*
X181130952Y-95564285D01*
X181083333Y-95588095D01*
X180892857Y-95588095D01*
X193440476Y-91202380D02*
X193511904Y-91226190D01*
X193630952Y-91226190D01*
X193678571Y-91202380D01*
X193702380Y-91178571D01*
X193726190Y-91130952D01*
X193726190Y-91083333D01*
X193702380Y-91035714D01*
X193678571Y-91011904D01*
X193630952Y-90988095D01*
X193535714Y-90964285D01*
X193488095Y-90940476D01*
X193464285Y-90916666D01*
X193440476Y-90869047D01*
X193440476Y-90821428D01*
X193464285Y-90773809D01*
X193488095Y-90750000D01*
X193535714Y-90726190D01*
X193654761Y-90726190D01*
X193726190Y-90750000D01*
X193892857Y-90726190D02*
X194011904Y-91226190D01*
X194107142Y-90869047D01*
X194202380Y-91226190D01*
X194321428Y-90726190D01*
X194511904Y-91226190D02*
X194511904Y-90726190D01*
X194630952Y-90726190D01*
X194702380Y-90750000D01*
X194750000Y-90797619D01*
X194773809Y-90845238D01*
X194797619Y-90940476D01*
X194797619Y-91011904D01*
X194773809Y-91107142D01*
X194750000Y-91154761D01*
X194702380Y-91202380D01*
X194630952Y-91226190D01*
X194511904Y-91226190D01*
X195011904Y-91226190D02*
X195011904Y-90726190D01*
X195345238Y-90726190D02*
X195440476Y-90726190D01*
X195488095Y-90750000D01*
X195535714Y-90797619D01*
X195559523Y-90892857D01*
X195559523Y-91059523D01*
X195535714Y-91154761D01*
X195488095Y-91202380D01*
X195440476Y-91226190D01*
X195345238Y-91226190D01*
X195297619Y-91202380D01*
X195250000Y-91154761D01*
X195226190Y-91059523D01*
X195226190Y-90892857D01*
X195250000Y-90797619D01*
X195297619Y-90750000D01*
X195345238Y-90726190D01*
X177764285Y-92690476D02*
X177788095Y-92619047D01*
X177811904Y-92595238D01*
X177859523Y-92571428D01*
X177930952Y-92571428D01*
X177978571Y-92595238D01*
X178002380Y-92619047D01*
X178026190Y-92666666D01*
X178026190Y-92857142D01*
X177526190Y-92857142D01*
X177526190Y-92690476D01*
X177550000Y-92642857D01*
X177573809Y-92619047D01*
X177621428Y-92595238D01*
X177669047Y-92595238D01*
X177716666Y-92619047D01*
X177740476Y-92642857D01*
X177764285Y-92690476D01*
X177764285Y-92857142D01*
X178026190Y-92095238D02*
X178026190Y-92380952D01*
X178026190Y-92238095D02*
X177526190Y-92238095D01*
X177597619Y-92285714D01*
X177645238Y-92333333D01*
X177669047Y-92380952D01*
X178026190Y-91880952D02*
X177526190Y-91880952D01*
X177526190Y-91761904D01*
X177550000Y-91690476D01*
X177597619Y-91642857D01*
X177645238Y-91619047D01*
X177740476Y-91595238D01*
X177811904Y-91595238D01*
X177907142Y-91619047D01*
X177954761Y-91642857D01*
X178002380Y-91690476D01*
X178026190Y-91761904D01*
X178026190Y-91880952D01*
X177526190Y-91285714D02*
X177526190Y-91238095D01*
X177550000Y-91190476D01*
X177573809Y-91166666D01*
X177621428Y-91142857D01*
X177716666Y-91119047D01*
X177835714Y-91119047D01*
X177930952Y-91142857D01*
X177978571Y-91166666D01*
X178002380Y-91190476D01*
X178026190Y-91238095D01*
X178026190Y-91285714D01*
X178002380Y-91333333D01*
X177978571Y-91357142D01*
X177930952Y-91380952D01*
X177835714Y-91404761D01*
X177716666Y-91404761D01*
X177621428Y-91380952D01*
X177573809Y-91357142D01*
X177550000Y-91333333D01*
X177526190Y-91285714D01*
X192619047Y-111750000D02*
X192571428Y-111726190D01*
X192500000Y-111726190D01*
X192428571Y-111750000D01*
X192380952Y-111797619D01*
X192357142Y-111845238D01*
X192333333Y-111940476D01*
X192333333Y-112011904D01*
X192357142Y-112107142D01*
X192380952Y-112154761D01*
X192428571Y-112202380D01*
X192500000Y-112226190D01*
X192547619Y-112226190D01*
X192619047Y-112202380D01*
X192642857Y-112178571D01*
X192642857Y-112011904D01*
X192547619Y-112011904D01*
X192857142Y-112226190D02*
X192857142Y-111726190D01*
X193142857Y-112226190D01*
X193142857Y-111726190D01*
X193380952Y-112226190D02*
X193380952Y-111726190D01*
X193500000Y-111726190D01*
X193571428Y-111750000D01*
X193619047Y-111797619D01*
X193642857Y-111845238D01*
X193666666Y-111940476D01*
X193666666Y-112011904D01*
X193642857Y-112107142D01*
X193619047Y-112154761D01*
X193571428Y-112202380D01*
X193500000Y-112226190D01*
X193380952Y-112226190D01*
X178773809Y-111486190D02*
X178869047Y-111486190D01*
X178916666Y-111510000D01*
X178964285Y-111557619D01*
X178988095Y-111652857D01*
X178988095Y-111819523D01*
X178964285Y-111914761D01*
X178916666Y-111962380D01*
X178869047Y-111986190D01*
X178773809Y-111986190D01*
X178726190Y-111962380D01*
X178678571Y-111914761D01*
X178654761Y-111819523D01*
X178654761Y-111652857D01*
X178678571Y-111557619D01*
X178726190Y-111510000D01*
X178773809Y-111486190D01*
X179202380Y-111986190D02*
X179202380Y-111486190D01*
X179392857Y-111486190D01*
X179440476Y-111510000D01*
X179464285Y-111533809D01*
X179488095Y-111581428D01*
X179488095Y-111652857D01*
X179464285Y-111700476D01*
X179440476Y-111724285D01*
X179392857Y-111748095D01*
X179202380Y-111748095D01*
X179630952Y-111486190D02*
X179916666Y-111486190D01*
X179773809Y-111986190D02*
X179773809Y-111486190D01*
X180059523Y-111533809D02*
X180083333Y-111510000D01*
X180130952Y-111486190D01*
X180250000Y-111486190D01*
X180297619Y-111510000D01*
X180321428Y-111533809D01*
X180345238Y-111581428D01*
X180345238Y-111629047D01*
X180321428Y-111700476D01*
X180035714Y-111986190D01*
X180345238Y-111986190D01*
X181619047Y-111726190D02*
X181619047Y-112130952D01*
X181642857Y-112178571D01*
X181666666Y-112202380D01*
X181714285Y-112226190D01*
X181809523Y-112226190D01*
X181857142Y-112202380D01*
X181880952Y-112178571D01*
X181904761Y-112130952D01*
X181904761Y-111726190D01*
X182142857Y-112035714D02*
X182523809Y-112035714D01*
X182690476Y-111726190D02*
X182976190Y-111726190D01*
X182833333Y-112226190D02*
X182833333Y-111726190D01*
X183095238Y-111726190D02*
X183428571Y-112226190D01*
X183428571Y-111726190D02*
X183095238Y-112226190D01*
X184059523Y-111726190D02*
X184059523Y-112130952D01*
X184083333Y-112178571D01*
X184107142Y-112202380D01*
X184154761Y-112226190D01*
X184250000Y-112226190D01*
X184297619Y-112202380D01*
X184321428Y-112178571D01*
X184345238Y-112130952D01*
X184345238Y-111726190D01*
X184583333Y-112035714D02*
X184964285Y-112035714D01*
X185488095Y-112226190D02*
X185321428Y-111988095D01*
X185202380Y-112226190D02*
X185202380Y-111726190D01*
X185392857Y-111726190D01*
X185440476Y-111750000D01*
X185464285Y-111773809D01*
X185488095Y-111821428D01*
X185488095Y-111892857D01*
X185464285Y-111940476D01*
X185440476Y-111964285D01*
X185392857Y-111988095D01*
X185202380Y-111988095D01*
X185654761Y-111726190D02*
X185988095Y-112226190D01*
X185988095Y-111726190D02*
X185654761Y-112226190D01*
%TO.C,D2*%
X179630952Y-91666190D02*
X179630952Y-91166190D01*
X179750000Y-91166190D01*
X179821428Y-91190000D01*
X179869047Y-91237619D01*
X179892857Y-91285238D01*
X179916666Y-91380476D01*
X179916666Y-91451904D01*
X179892857Y-91547142D01*
X179869047Y-91594761D01*
X179821428Y-91642380D01*
X179750000Y-91666190D01*
X179630952Y-91666190D01*
X180107142Y-91213809D02*
X180130952Y-91190000D01*
X180178571Y-91166190D01*
X180297619Y-91166190D01*
X180345238Y-91190000D01*
X180369047Y-91213809D01*
X180392857Y-91261428D01*
X180392857Y-91309047D01*
X180369047Y-91380476D01*
X180083333Y-91666190D01*
X180392857Y-91666190D01*
%TO.C,R6*%
X210226666Y-112196190D02*
X210060000Y-111958095D01*
X209940952Y-112196190D02*
X209940952Y-111696190D01*
X210131428Y-111696190D01*
X210179047Y-111720000D01*
X210202857Y-111743809D01*
X210226666Y-111791428D01*
X210226666Y-111862857D01*
X210202857Y-111910476D01*
X210179047Y-111934285D01*
X210131428Y-111958095D01*
X209940952Y-111958095D01*
X210655238Y-111696190D02*
X210560000Y-111696190D01*
X210512380Y-111720000D01*
X210488571Y-111743809D01*
X210440952Y-111815238D01*
X210417142Y-111910476D01*
X210417142Y-112100952D01*
X210440952Y-112148571D01*
X210464761Y-112172380D01*
X210512380Y-112196190D01*
X210607619Y-112196190D01*
X210655238Y-112172380D01*
X210679047Y-112148571D01*
X210702857Y-112100952D01*
X210702857Y-111981904D01*
X210679047Y-111934285D01*
X210655238Y-111910476D01*
X210607619Y-111886666D01*
X210512380Y-111886666D01*
X210464761Y-111910476D01*
X210440952Y-111934285D01*
X210417142Y-111981904D01*
%TO.C,C7*%
X178772916Y-104178571D02*
X178749107Y-104202380D01*
X178677678Y-104226190D01*
X178630059Y-104226190D01*
X178558630Y-104202380D01*
X178511011Y-104154761D01*
X178487202Y-104107142D01*
X178463392Y-104011904D01*
X178463392Y-103940476D01*
X178487202Y-103845238D01*
X178511011Y-103797619D01*
X178558630Y-103750000D01*
X178630059Y-103726190D01*
X178677678Y-103726190D01*
X178749107Y-103750000D01*
X178772916Y-103773809D01*
X178939583Y-103726190D02*
X179272916Y-103726190D01*
X179058630Y-104226190D01*
%TO.C,C10*%
X196528571Y-99238571D02*
X196504761Y-99262380D01*
X196433333Y-99286190D01*
X196385714Y-99286190D01*
X196314285Y-99262380D01*
X196266666Y-99214761D01*
X196242857Y-99167142D01*
X196219047Y-99071904D01*
X196219047Y-99000476D01*
X196242857Y-98905238D01*
X196266666Y-98857619D01*
X196314285Y-98810000D01*
X196385714Y-98786190D01*
X196433333Y-98786190D01*
X196504761Y-98810000D01*
X196528571Y-98833809D01*
X197004761Y-99286190D02*
X196719047Y-99286190D01*
X196861904Y-99286190D02*
X196861904Y-98786190D01*
X196814285Y-98857619D01*
X196766666Y-98905238D01*
X196719047Y-98929047D01*
X197314285Y-98786190D02*
X197361904Y-98786190D01*
X197409523Y-98810000D01*
X197433333Y-98833809D01*
X197457142Y-98881428D01*
X197480952Y-98976666D01*
X197480952Y-99095714D01*
X197457142Y-99190952D01*
X197433333Y-99238571D01*
X197409523Y-99262380D01*
X197361904Y-99286190D01*
X197314285Y-99286190D01*
X197266666Y-99262380D01*
X197242857Y-99238571D01*
X197219047Y-99190952D01*
X197195238Y-99095714D01*
X197195238Y-98976666D01*
X197219047Y-98881428D01*
X197242857Y-98833809D01*
X197266666Y-98810000D01*
X197314285Y-98786190D01*
%TO.C,C9*%
X195496666Y-99238571D02*
X195472857Y-99262380D01*
X195401428Y-99286190D01*
X195353809Y-99286190D01*
X195282380Y-99262380D01*
X195234761Y-99214761D01*
X195210952Y-99167142D01*
X195187142Y-99071904D01*
X195187142Y-99000476D01*
X195210952Y-98905238D01*
X195234761Y-98857619D01*
X195282380Y-98810000D01*
X195353809Y-98786190D01*
X195401428Y-98786190D01*
X195472857Y-98810000D01*
X195496666Y-98833809D01*
X195734761Y-99286190D02*
X195830000Y-99286190D01*
X195877619Y-99262380D01*
X195901428Y-99238571D01*
X195949047Y-99167142D01*
X195972857Y-99071904D01*
X195972857Y-98881428D01*
X195949047Y-98833809D01*
X195925238Y-98810000D01*
X195877619Y-98786190D01*
X195782380Y-98786190D01*
X195734761Y-98810000D01*
X195710952Y-98833809D01*
X195687142Y-98881428D01*
X195687142Y-99000476D01*
X195710952Y-99048095D01*
X195734761Y-99071904D01*
X195782380Y-99095714D01*
X195877619Y-99095714D01*
X195925238Y-99071904D01*
X195949047Y-99048095D01*
X195972857Y-99000476D01*
%TO.C,R4*%
X177716666Y-109346190D02*
X177550000Y-109108095D01*
X177430952Y-109346190D02*
X177430952Y-108846190D01*
X177621428Y-108846190D01*
X177669047Y-108870000D01*
X177692857Y-108893809D01*
X177716666Y-108941428D01*
X177716666Y-109012857D01*
X177692857Y-109060476D01*
X177669047Y-109084285D01*
X177621428Y-109108095D01*
X177430952Y-109108095D01*
X178145238Y-109012857D02*
X178145238Y-109346190D01*
X178026190Y-108822380D02*
X177907142Y-109179523D01*
X178216666Y-109179523D01*
%TO.C,FB1*%
X180083333Y-105127064D02*
X179916666Y-105127064D01*
X179916666Y-105388969D02*
X179916666Y-104888969D01*
X180154761Y-104888969D01*
X180511904Y-105127064D02*
X180583333Y-105150874D01*
X180607142Y-105174683D01*
X180630952Y-105222302D01*
X180630952Y-105293731D01*
X180607142Y-105341350D01*
X180583333Y-105365159D01*
X180535714Y-105388969D01*
X180345238Y-105388969D01*
X180345238Y-104888969D01*
X180511904Y-104888969D01*
X180559523Y-104912779D01*
X180583333Y-104936588D01*
X180607142Y-104984207D01*
X180607142Y-105031826D01*
X180583333Y-105079445D01*
X180559523Y-105103255D01*
X180511904Y-105127064D01*
X180345238Y-105127064D01*
X181107142Y-105388969D02*
X180821428Y-105388969D01*
X180964285Y-105388969D02*
X180964285Y-104888969D01*
X180916666Y-104960398D01*
X180869047Y-105008017D01*
X180821428Y-105031826D01*
%TO.C,Y1*%
X178611904Y-97288095D02*
X178611904Y-97526190D01*
X178445238Y-97026190D02*
X178611904Y-97288095D01*
X178778571Y-97026190D01*
X179207142Y-97526190D02*
X178921428Y-97526190D01*
X179064285Y-97526190D02*
X179064285Y-97026190D01*
X179016666Y-97097619D01*
X178969047Y-97145238D01*
X178921428Y-97169047D01*
D11*
%TO.C,U1*%
X206238095Y-98782380D02*
X206238095Y-99591904D01*
X206285714Y-99687142D01*
X206333333Y-99734761D01*
X206428571Y-99782380D01*
X206619047Y-99782380D01*
X206714285Y-99734761D01*
X206761904Y-99687142D01*
X206809523Y-99591904D01*
X206809523Y-98782380D01*
X207809523Y-99782380D02*
X207238095Y-99782380D01*
X207523809Y-99782380D02*
X207523809Y-98782380D01*
X207428571Y-98925238D01*
X207333333Y-99020476D01*
X207238095Y-99068095D01*
%TO.C,U2*%
X187738095Y-99952380D02*
X187738095Y-100761904D01*
X187785714Y-100857142D01*
X187833333Y-100904761D01*
X187928571Y-100952380D01*
X188119047Y-100952380D01*
X188214285Y-100904761D01*
X188261904Y-100857142D01*
X188309523Y-100761904D01*
X188309523Y-99952380D01*
X188738095Y-100047619D02*
X188785714Y-100000000D01*
X188880952Y-99952380D01*
X189119047Y-99952380D01*
X189214285Y-100000000D01*
X189261904Y-100047619D01*
X189309523Y-100142857D01*
X189309523Y-100238095D01*
X189261904Y-100380952D01*
X188690476Y-100952380D01*
X189309523Y-100952380D01*
D10*
%TO.C,J2*%
X194143333Y-95726190D02*
X194143333Y-96083333D01*
X194119523Y-96154761D01*
X194071904Y-96202380D01*
X194000476Y-96226190D01*
X193952857Y-96226190D01*
X194357619Y-95773809D02*
X194381428Y-95750000D01*
X194429047Y-95726190D01*
X194548095Y-95726190D01*
X194595714Y-95750000D01*
X194619523Y-95773809D01*
X194643333Y-95821428D01*
X194643333Y-95869047D01*
X194619523Y-95940476D01*
X194333809Y-96226190D01*
X194643333Y-96226190D01*
%TO.C,C1*%
X187416666Y-96178571D02*
X187392857Y-96202380D01*
X187321428Y-96226190D01*
X187273809Y-96226190D01*
X187202380Y-96202380D01*
X187154761Y-96154761D01*
X187130952Y-96107142D01*
X187107142Y-96011904D01*
X187107142Y-95940476D01*
X187130952Y-95845238D01*
X187154761Y-95797619D01*
X187202380Y-95750000D01*
X187273809Y-95726190D01*
X187321428Y-95726190D01*
X187392857Y-95750000D01*
X187416666Y-95773809D01*
X187892857Y-96226190D02*
X187607142Y-96226190D01*
X187750000Y-96226190D02*
X187750000Y-95726190D01*
X187702380Y-95797619D01*
X187654761Y-95845238D01*
X187607142Y-95869047D01*
%TO.C,D4*%
X203130952Y-112196190D02*
X203130952Y-111696190D01*
X203250000Y-111696190D01*
X203321428Y-111720000D01*
X203369047Y-111767619D01*
X203392857Y-111815238D01*
X203416666Y-111910476D01*
X203416666Y-111981904D01*
X203392857Y-112077142D01*
X203369047Y-112124761D01*
X203321428Y-112172380D01*
X203250000Y-112196190D01*
X203130952Y-112196190D01*
X203845238Y-111862857D02*
X203845238Y-112196190D01*
X203726190Y-111672380D02*
X203607142Y-112029523D01*
X203916666Y-112029523D01*
%TO.C,D5*%
X212830952Y-112196190D02*
X212830952Y-111696190D01*
X212950000Y-111696190D01*
X213021428Y-111720000D01*
X213069047Y-111767619D01*
X213092857Y-111815238D01*
X213116666Y-111910476D01*
X213116666Y-111981904D01*
X213092857Y-112077142D01*
X213069047Y-112124761D01*
X213021428Y-112172380D01*
X212950000Y-112196190D01*
X212830952Y-112196190D01*
X213569047Y-111696190D02*
X213330952Y-111696190D01*
X213307142Y-111934285D01*
X213330952Y-111910476D01*
X213378571Y-111886666D01*
X213497619Y-111886666D01*
X213545238Y-111910476D01*
X213569047Y-111934285D01*
X213592857Y-111981904D01*
X213592857Y-112100952D01*
X213569047Y-112148571D01*
X213545238Y-112172380D01*
X213497619Y-112196190D01*
X213378571Y-112196190D01*
X213330952Y-112172380D01*
X213307142Y-112148571D01*
%TO.C,D1*%
X192130952Y-107226190D02*
X192130952Y-106726190D01*
X192250000Y-106726190D01*
X192321428Y-106750000D01*
X192369047Y-106797619D01*
X192392857Y-106845238D01*
X192416666Y-106940476D01*
X192416666Y-107011904D01*
X192392857Y-107107142D01*
X192369047Y-107154761D01*
X192321428Y-107202380D01*
X192250000Y-107226190D01*
X192130952Y-107226190D01*
X192892857Y-107226190D02*
X192607142Y-107226190D01*
X192750000Y-107226190D02*
X192750000Y-106726190D01*
X192702380Y-106797619D01*
X192654761Y-106845238D01*
X192607142Y-106869047D01*
%TO.C,C2*%
X195416666Y-100178571D02*
X195392857Y-100202380D01*
X195321428Y-100226190D01*
X195273809Y-100226190D01*
X195202380Y-100202380D01*
X195154761Y-100154761D01*
X195130952Y-100107142D01*
X195107142Y-100011904D01*
X195107142Y-99940476D01*
X195130952Y-99845238D01*
X195154761Y-99797619D01*
X195202380Y-99750000D01*
X195273809Y-99726190D01*
X195321428Y-99726190D01*
X195392857Y-99750000D01*
X195416666Y-99773809D01*
X195607142Y-99773809D02*
X195630952Y-99750000D01*
X195678571Y-99726190D01*
X195797619Y-99726190D01*
X195845238Y-99750000D01*
X195869047Y-99773809D01*
X195892857Y-99821428D01*
X195892857Y-99869047D01*
X195869047Y-99940476D01*
X195583333Y-100226190D01*
X195892857Y-100226190D01*
%TO.C,R3*%
X182796666Y-91666190D02*
X182630000Y-91428095D01*
X182510952Y-91666190D02*
X182510952Y-91166190D01*
X182701428Y-91166190D01*
X182749047Y-91190000D01*
X182772857Y-91213809D01*
X182796666Y-91261428D01*
X182796666Y-91332857D01*
X182772857Y-91380476D01*
X182749047Y-91404285D01*
X182701428Y-91428095D01*
X182510952Y-91428095D01*
X182963333Y-91166190D02*
X183272857Y-91166190D01*
X183106190Y-91356666D01*
X183177619Y-91356666D01*
X183225238Y-91380476D01*
X183249047Y-91404285D01*
X183272857Y-91451904D01*
X183272857Y-91570952D01*
X183249047Y-91618571D01*
X183225238Y-91642380D01*
X183177619Y-91666190D01*
X183034761Y-91666190D01*
X182987142Y-91642380D01*
X182963333Y-91618571D01*
%TO.C,R5*%
X200576666Y-112196190D02*
X200410000Y-111958095D01*
X200290952Y-112196190D02*
X200290952Y-111696190D01*
X200481428Y-111696190D01*
X200529047Y-111720000D01*
X200552857Y-111743809D01*
X200576666Y-111791428D01*
X200576666Y-111862857D01*
X200552857Y-111910476D01*
X200529047Y-111934285D01*
X200481428Y-111958095D01*
X200290952Y-111958095D01*
X201029047Y-111696190D02*
X200790952Y-111696190D01*
X200767142Y-111934285D01*
X200790952Y-111910476D01*
X200838571Y-111886666D01*
X200957619Y-111886666D01*
X201005238Y-111910476D01*
X201029047Y-111934285D01*
X201052857Y-111981904D01*
X201052857Y-112100952D01*
X201029047Y-112148571D01*
X201005238Y-112172380D01*
X200957619Y-112196190D01*
X200838571Y-112196190D01*
X200790952Y-112172380D01*
X200767142Y-112148571D01*
%TO.C,R2*%
X185416666Y-96556190D02*
X185250000Y-96318095D01*
X185130952Y-96556190D02*
X185130952Y-96056190D01*
X185321428Y-96056190D01*
X185369047Y-96080000D01*
X185392857Y-96103809D01*
X185416666Y-96151428D01*
X185416666Y-96222857D01*
X185392857Y-96270476D01*
X185369047Y-96294285D01*
X185321428Y-96318095D01*
X185130952Y-96318095D01*
X185607142Y-96103809D02*
X185630952Y-96080000D01*
X185678571Y-96056190D01*
X185797619Y-96056190D01*
X185845238Y-96080000D01*
X185869047Y-96103809D01*
X185892857Y-96151428D01*
X185892857Y-96199047D01*
X185869047Y-96270476D01*
X185583333Y-96556190D01*
X185892857Y-96556190D01*
%TO.C,C4*%
X183416666Y-103178571D02*
X183392857Y-103202380D01*
X183321428Y-103226190D01*
X183273809Y-103226190D01*
X183202380Y-103202380D01*
X183154761Y-103154761D01*
X183130952Y-103107142D01*
X183107142Y-103011904D01*
X183107142Y-102940476D01*
X183130952Y-102845238D01*
X183154761Y-102797619D01*
X183202380Y-102750000D01*
X183273809Y-102726190D01*
X183321428Y-102726190D01*
X183392857Y-102750000D01*
X183416666Y-102773809D01*
X183845238Y-102892857D02*
X183845238Y-103226190D01*
X183726190Y-102702380D02*
X183607142Y-103059523D01*
X183916666Y-103059523D01*
%TO.C,C6*%
X181916666Y-102678571D02*
X181892857Y-102702380D01*
X181821428Y-102726190D01*
X181773809Y-102726190D01*
X181702380Y-102702380D01*
X181654761Y-102654761D01*
X181630952Y-102607142D01*
X181607142Y-102511904D01*
X181607142Y-102440476D01*
X181630952Y-102345238D01*
X181654761Y-102297619D01*
X181702380Y-102250000D01*
X181773809Y-102226190D01*
X181821428Y-102226190D01*
X181892857Y-102250000D01*
X181916666Y-102273809D01*
X182345238Y-102226190D02*
X182250000Y-102226190D01*
X182202380Y-102250000D01*
X182178571Y-102273809D01*
X182130952Y-102345238D01*
X182107142Y-102440476D01*
X182107142Y-102630952D01*
X182130952Y-102678571D01*
X182154761Y-102702380D01*
X182202380Y-102726190D01*
X182297619Y-102726190D01*
X182345238Y-102702380D01*
X182369047Y-102678571D01*
X182392857Y-102630952D01*
X182392857Y-102511904D01*
X182369047Y-102464285D01*
X182345238Y-102440476D01*
X182297619Y-102416666D01*
X182202380Y-102416666D01*
X182154761Y-102440476D01*
X182130952Y-102464285D01*
X182107142Y-102511904D01*
%TO.C,C3*%
X181406666Y-100278571D02*
X181382857Y-100302380D01*
X181311428Y-100326190D01*
X181263809Y-100326190D01*
X181192380Y-100302380D01*
X181144761Y-100254761D01*
X181120952Y-100207142D01*
X181097142Y-100111904D01*
X181097142Y-100040476D01*
X181120952Y-99945238D01*
X181144761Y-99897619D01*
X181192380Y-99850000D01*
X181263809Y-99826190D01*
X181311428Y-99826190D01*
X181382857Y-99850000D01*
X181406666Y-99873809D01*
X181573333Y-99826190D02*
X181882857Y-99826190D01*
X181716190Y-100016666D01*
X181787619Y-100016666D01*
X181835238Y-100040476D01*
X181859047Y-100064285D01*
X181882857Y-100111904D01*
X181882857Y-100230952D01*
X181859047Y-100278571D01*
X181835238Y-100302380D01*
X181787619Y-100326190D01*
X181644761Y-100326190D01*
X181597142Y-100302380D01*
X181573333Y-100278571D01*
%TO.C,J1*%
X197833333Y-110726190D02*
X197833333Y-111083333D01*
X197809523Y-111154761D01*
X197761904Y-111202380D01*
X197690476Y-111226190D01*
X197642857Y-111226190D01*
X198333333Y-111226190D02*
X198047619Y-111226190D01*
X198190476Y-111226190D02*
X198190476Y-110726190D01*
X198142857Y-110797619D01*
X198095238Y-110845238D01*
X198047619Y-110869047D01*
%TO.C,R1*%
X194416666Y-104226190D02*
X194250000Y-103988095D01*
X194130952Y-104226190D02*
X194130952Y-103726190D01*
X194321428Y-103726190D01*
X194369047Y-103750000D01*
X194392857Y-103773809D01*
X194416666Y-103821428D01*
X194416666Y-103892857D01*
X194392857Y-103940476D01*
X194369047Y-103964285D01*
X194321428Y-103988095D01*
X194130952Y-103988095D01*
X194892857Y-104226190D02*
X194607142Y-104226190D01*
X194750000Y-104226190D02*
X194750000Y-103726190D01*
X194702380Y-103797619D01*
X194654761Y-103845238D01*
X194607142Y-103869047D01*
%TO.C,D3*%
X177430952Y-111986190D02*
X177430952Y-111486190D01*
X177550000Y-111486190D01*
X177621428Y-111510000D01*
X177669047Y-111557619D01*
X177692857Y-111605238D01*
X177716666Y-111700476D01*
X177716666Y-111771904D01*
X177692857Y-111867142D01*
X177669047Y-111914761D01*
X177621428Y-111962380D01*
X177550000Y-111986190D01*
X177430952Y-111986190D01*
X177883333Y-111486190D02*
X178192857Y-111486190D01*
X178026190Y-111676666D01*
X178097619Y-111676666D01*
X178145238Y-111700476D01*
X178169047Y-111724285D01*
X178192857Y-111771904D01*
X178192857Y-111890952D01*
X178169047Y-111938571D01*
X178145238Y-111962380D01*
X178097619Y-111986190D01*
X177954761Y-111986190D01*
X177907142Y-111962380D01*
X177883333Y-111938571D01*
%TO.C,C5*%
X193416666Y-100678571D02*
X193392857Y-100702380D01*
X193321428Y-100726190D01*
X193273809Y-100726190D01*
X193202380Y-100702380D01*
X193154761Y-100654761D01*
X193130952Y-100607142D01*
X193107142Y-100511904D01*
X193107142Y-100440476D01*
X193130952Y-100345238D01*
X193154761Y-100297619D01*
X193202380Y-100250000D01*
X193273809Y-100226190D01*
X193321428Y-100226190D01*
X193392857Y-100250000D01*
X193416666Y-100273809D01*
X193869047Y-100226190D02*
X193630952Y-100226190D01*
X193607142Y-100464285D01*
X193630952Y-100440476D01*
X193678571Y-100416666D01*
X193797619Y-100416666D01*
X193845238Y-100440476D01*
X193869047Y-100464285D01*
X193892857Y-100511904D01*
X193892857Y-100630952D01*
X193869047Y-100678571D01*
X193845238Y-100702380D01*
X193797619Y-100726190D01*
X193678571Y-100726190D01*
X193630952Y-100702380D01*
X193607142Y-100678571D01*
%TO.C,C8*%
X178772916Y-106178571D02*
X178749107Y-106202380D01*
X178677678Y-106226190D01*
X178630059Y-106226190D01*
X178558630Y-106202380D01*
X178511011Y-106154761D01*
X178487202Y-106107142D01*
X178463392Y-106011904D01*
X178463392Y-105940476D01*
X178487202Y-105845238D01*
X178511011Y-105797619D01*
X178558630Y-105750000D01*
X178630059Y-105726190D01*
X178677678Y-105726190D01*
X178749107Y-105750000D01*
X178772916Y-105773809D01*
X179058630Y-105940476D02*
X179011011Y-105916666D01*
X178987202Y-105892857D01*
X178963392Y-105845238D01*
X178963392Y-105821428D01*
X178987202Y-105773809D01*
X179011011Y-105750000D01*
X179058630Y-105726190D01*
X179153869Y-105726190D01*
X179201488Y-105750000D01*
X179225297Y-105773809D01*
X179249107Y-105821428D01*
X179249107Y-105845238D01*
X179225297Y-105892857D01*
X179201488Y-105916666D01*
X179153869Y-105940476D01*
X179058630Y-105940476D01*
X179011011Y-105964285D01*
X178987202Y-105988095D01*
X178963392Y-106035714D01*
X178963392Y-106130952D01*
X178987202Y-106178571D01*
X179011011Y-106202380D01*
X179058630Y-106226190D01*
X179153869Y-106226190D01*
X179201488Y-106202380D01*
X179225297Y-106178571D01*
X179249107Y-106130952D01*
X179249107Y-106035714D01*
X179225297Y-105988095D01*
X179201488Y-105964285D01*
X179153869Y-105940476D01*
D12*
%TO.C,D2*%
X180735000Y-94300000D02*
X180735000Y-92015000D01*
X180735000Y-92015000D02*
X179265000Y-92015000D01*
X179265000Y-92015000D02*
X179265000Y-94300000D01*
%TO.C,R6*%
X210463641Y-111180000D02*
X210156359Y-111180000D01*
X210463641Y-110420000D02*
X210156359Y-110420000D01*
%TO.C,C7*%
X180484086Y-103640000D02*
X180268414Y-103640000D01*
X180484086Y-104360000D02*
X180268414Y-104360000D01*
%TO.C,C10*%
X196490000Y-97897836D02*
X196490000Y-97682164D01*
X197210000Y-97897836D02*
X197210000Y-97682164D01*
%TO.C,C9*%
X195940000Y-97897836D02*
X195940000Y-97682164D01*
X195220000Y-97897836D02*
X195220000Y-97682164D01*
%TO.C,R4*%
X179223641Y-107570000D02*
X178916359Y-107570000D01*
X179223641Y-108330000D02*
X178916359Y-108330000D01*
%TO.C,FB1*%
X181846250Y-104837221D02*
X181846250Y-105162779D01*
X182866250Y-104837221D02*
X182866250Y-105162779D01*
%TO.C,Y1*%
X177850000Y-97900000D02*
X177850000Y-101900000D01*
X181150000Y-97900000D02*
X177850000Y-97900000D01*
D11*
%TO.C,U1*%
X215250000Y-109080000D02*
X215250000Y-108330000D01*
X215250000Y-91580000D02*
X215250000Y-92330000D01*
X198750000Y-109080000D02*
X215250000Y-109080000D01*
X198750000Y-91580000D02*
X215250000Y-91580000D01*
X198750000Y-92330000D02*
X198750000Y-91580000D01*
X198750000Y-108330000D02*
X198750000Y-109080000D01*
D12*
%TO.C,U2*%
X188500000Y-105385000D02*
X190700000Y-105385000D01*
X188500000Y-98615000D02*
X190700000Y-98615000D01*
X188500000Y-98615000D02*
X184900000Y-98615000D01*
X188500000Y-105385000D02*
X186300000Y-105385000D01*
%TO.C,J2*%
X185370000Y-92145000D02*
X186700000Y-92145000D01*
X187970000Y-92145000D02*
X195650000Y-92145000D01*
X185370000Y-93475000D02*
X185370000Y-92145000D01*
X195650000Y-94805000D02*
X195650000Y-92145000D01*
X187970000Y-94805000D02*
X187970000Y-92145000D01*
X187970000Y-94805000D02*
X195650000Y-94805000D01*
%TO.C,C1*%
X188640580Y-98010000D02*
X188359420Y-98010000D01*
X188640580Y-96990000D02*
X188359420Y-96990000D01*
%TO.C,D4*%
X203670000Y-111535000D02*
X205955000Y-111535000D01*
X205955000Y-110065000D02*
X203670000Y-110065000D01*
X205955000Y-111535000D02*
X205955000Y-110065000D01*
%TO.C,D5*%
X215685000Y-111535000D02*
X215685000Y-110065000D01*
X215685000Y-110065000D02*
X213400000Y-110065000D01*
X213400000Y-111535000D02*
X215685000Y-111535000D01*
%TO.C,D1*%
X195985000Y-107235000D02*
X195985000Y-105765000D01*
X195985000Y-105765000D02*
X193700000Y-105765000D01*
X193700000Y-107235000D02*
X195985000Y-107235000D01*
%TO.C,C2*%
X196010000Y-101859420D02*
X196010000Y-102140580D01*
X194990000Y-101859420D02*
X194990000Y-102140580D01*
%TO.C,R3*%
X182620000Y-93346359D02*
X182620000Y-93653641D01*
X183380000Y-93346359D02*
X183380000Y-93653641D01*
%TO.C,R5*%
X200813641Y-111180000D02*
X200506359Y-111180000D01*
X200813641Y-110420000D02*
X200506359Y-110420000D01*
%TO.C,R2*%
X185346359Y-97880000D02*
X185653641Y-97880000D01*
X185346359Y-97120000D02*
X185653641Y-97120000D01*
%TO.C,C4*%
X183140000Y-101607836D02*
X183140000Y-101392164D01*
X183860000Y-101607836D02*
X183860000Y-101392164D01*
%TO.C,C6*%
X182210000Y-101192164D02*
X182210000Y-101407836D01*
X181490000Y-101192164D02*
X181490000Y-101407836D01*
%TO.C,C3*%
X181490000Y-98907836D02*
X181490000Y-98692164D01*
X182210000Y-98907836D02*
X182210000Y-98692164D01*
%TO.C,J1*%
X183945000Y-108145000D02*
X196705000Y-108145000D01*
X181345000Y-108145000D02*
X182675000Y-108145000D01*
X183945000Y-110805000D02*
X183945000Y-108145000D01*
X183945000Y-110805000D02*
X196705000Y-110805000D01*
X196705000Y-110805000D02*
X196705000Y-108145000D01*
X181345000Y-109475000D02*
X181345000Y-108145000D01*
%TO.C,R1*%
X194653641Y-104620000D02*
X194346359Y-104620000D01*
X194653641Y-105380000D02*
X194346359Y-105380000D01*
%TO.C,D3*%
X177585000Y-109755000D02*
X177585000Y-111225000D01*
X177585000Y-111225000D02*
X179870000Y-111225000D01*
X179870000Y-109755000D02*
X177585000Y-109755000D01*
%TO.C,C5*%
X193140000Y-101892164D02*
X193140000Y-102107836D01*
X193860000Y-101892164D02*
X193860000Y-102107836D01*
%TO.C,C8*%
X180464086Y-106360000D02*
X180248414Y-106360000D01*
X180464086Y-105640000D02*
X180248414Y-105640000D01*
%TD*%
M02*
