%TF.GenerationSoftware,KiCad,Pcbnew,(6.0.6)*%
%TF.CreationDate,2023-12-09T00:18:58+03:00*%
%TF.ProjectId,GrandStationKicad,4772616e-6453-4746-9174-696f6e4b6963,rev?*%
%TF.SameCoordinates,Original*%
%TF.FileFunction,Legend,Bot*%
%TF.FilePolarity,Positive*%
%FSLAX46Y46*%
G04 Gerber Fmt 4.6, Leading zero omitted, Abs format (unit mm)*
G04 Created by KiCad (PCBNEW (6.0.6)) date 2023-12-09 00:18:58*
%MOMM*%
%LPD*%
G01*
G04 APERTURE LIST*
%ADD10C,0.400000*%
G04 APERTURE END LIST*
D10*
X182147619Y-104160000D02*
X181909523Y-104040952D01*
X181552380Y-104040952D01*
X181195238Y-104160000D01*
X180957142Y-104398095D01*
X180838095Y-104636190D01*
X180719047Y-105112380D01*
X180719047Y-105469523D01*
X180838095Y-105945714D01*
X180957142Y-106183809D01*
X181195238Y-106421904D01*
X181552380Y-106540952D01*
X181790476Y-106540952D01*
X182147619Y-106421904D01*
X182266666Y-106302857D01*
X182266666Y-105469523D01*
X181790476Y-105469523D01*
X184766666Y-106540952D02*
X183933333Y-105350476D01*
X183338095Y-106540952D02*
X183338095Y-104040952D01*
X184290476Y-104040952D01*
X184528571Y-104160000D01*
X184647619Y-104279047D01*
X184766666Y-104517142D01*
X184766666Y-104874285D01*
X184647619Y-105112380D01*
X184528571Y-105231428D01*
X184290476Y-105350476D01*
X183338095Y-105350476D01*
X186314285Y-104040952D02*
X186790476Y-104040952D01*
X187028571Y-104160000D01*
X187266666Y-104398095D01*
X187385714Y-104874285D01*
X187385714Y-105707619D01*
X187266666Y-106183809D01*
X187028571Y-106421904D01*
X186790476Y-106540952D01*
X186314285Y-106540952D01*
X186076190Y-106421904D01*
X185838095Y-106183809D01*
X185719047Y-105707619D01*
X185719047Y-104874285D01*
X185838095Y-104398095D01*
X186076190Y-104160000D01*
X186314285Y-104040952D01*
X188457142Y-104040952D02*
X188457142Y-106064761D01*
X188576190Y-106302857D01*
X188695238Y-106421904D01*
X188933333Y-106540952D01*
X189409523Y-106540952D01*
X189647619Y-106421904D01*
X189766666Y-106302857D01*
X189885714Y-106064761D01*
X189885714Y-104040952D01*
X191076190Y-106540952D02*
X191076190Y-104040952D01*
X192504761Y-106540952D01*
X192504761Y-104040952D01*
X193695238Y-106540952D02*
X193695238Y-104040952D01*
X194290476Y-104040952D01*
X194647619Y-104160000D01*
X194885714Y-104398095D01*
X195004761Y-104636190D01*
X195123809Y-105112380D01*
X195123809Y-105469523D01*
X195004761Y-105945714D01*
X194885714Y-106183809D01*
X194647619Y-106421904D01*
X194290476Y-106540952D01*
X193695238Y-106540952D01*
X196195238Y-105588571D02*
X198100000Y-105588571D01*
X199171428Y-106421904D02*
X199528571Y-106540952D01*
X200123809Y-106540952D01*
X200361904Y-106421904D01*
X200480952Y-106302857D01*
X200600000Y-106064761D01*
X200600000Y-105826666D01*
X200480952Y-105588571D01*
X200361904Y-105469523D01*
X200123809Y-105350476D01*
X199647619Y-105231428D01*
X199409523Y-105112380D01*
X199290476Y-104993333D01*
X199171428Y-104755238D01*
X199171428Y-104517142D01*
X199290476Y-104279047D01*
X199409523Y-104160000D01*
X199647619Y-104040952D01*
X200242857Y-104040952D01*
X200600000Y-104160000D01*
X201314285Y-104040952D02*
X202742857Y-104040952D01*
X202028571Y-106540952D02*
X202028571Y-104040952D01*
X203457142Y-105826666D02*
X204647619Y-105826666D01*
X203219047Y-106540952D02*
X204052380Y-104040952D01*
X204885714Y-106540952D01*
X205361904Y-104040952D02*
X206790476Y-104040952D01*
X206076190Y-106540952D02*
X206076190Y-104040952D01*
X207623809Y-106540952D02*
X207623809Y-104040952D01*
X209290476Y-104040952D02*
X209766666Y-104040952D01*
X210004761Y-104160000D01*
X210242857Y-104398095D01*
X210361904Y-104874285D01*
X210361904Y-105707619D01*
X210242857Y-106183809D01*
X210004761Y-106421904D01*
X209766666Y-106540952D01*
X209290476Y-106540952D01*
X209052380Y-106421904D01*
X208814285Y-106183809D01*
X208695238Y-105707619D01*
X208695238Y-104874285D01*
X208814285Y-104398095D01*
X209052380Y-104160000D01*
X209290476Y-104040952D01*
X211433333Y-106540952D02*
X211433333Y-104040952D01*
X212861904Y-106540952D01*
X212861904Y-104040952D01*
M02*
