%TF.GenerationSoftware,KiCad,Pcbnew,(6.0.6)*%
%TF.CreationDate,2023-12-09T00:18:58+03:00*%
%TF.ProjectId,GrandStationKicad,4772616e-6453-4746-9174-696f6e4b6963,rev?*%
%TF.SameCoordinates,Original*%
%TF.FileFunction,Copper,L2,Bot*%
%TF.FilePolarity,Positive*%
%FSLAX46Y46*%
G04 Gerber Fmt 4.6, Leading zero omitted, Abs format (unit mm)*
G04 Created by KiCad (PCBNEW (6.0.6)) date 2023-12-09 00:18:58*
%MOMM*%
%LPD*%
G01*
G04 APERTURE LIST*
%TA.AperFunction,ComponentPad*%
%ADD10R,1.700000X1.700000*%
%TD*%
%TA.AperFunction,ComponentPad*%
%ADD11O,1.700000X1.700000*%
%TD*%
%TA.AperFunction,ViaPad*%
%ADD12C,0.800000*%
%TD*%
%TA.AperFunction,Conductor*%
%ADD13C,0.300000*%
%TD*%
G04 APERTURE END LIST*
D10*
%TO.P,J2,1,Pin_1*%
%TO.N,+3.3V*%
X186700000Y-93475000D03*
D11*
%TO.P,J2,2,Pin_2*%
%TO.N,GND*%
X189240000Y-93475000D03*
%TO.P,J2,3,Pin_3*%
%TO.N,SWCLK*%
X191780000Y-93475000D03*
%TO.P,J2,4,Pin_4*%
%TO.N,SWDIO*%
X194320000Y-93475000D03*
%TD*%
D10*
%TO.P,J1,1,Pin_1*%
%TO.N,USART1-TX*%
X182675000Y-109475000D03*
D11*
%TO.P,J1,2,Pin_2*%
%TO.N,USART1-RX*%
X185215000Y-109475000D03*
%TO.P,J1,3,Pin_3*%
%TO.N,Optional-1*%
X187755000Y-109475000D03*
%TO.P,J1,4,Pin_4*%
%TO.N,Optional-2*%
X190295000Y-109475000D03*
%TO.P,J1,5,Pin_5*%
%TO.N,GND*%
X192835000Y-109475000D03*
%TO.P,J1,6,Pin_6*%
%TO.N,+3.3V*%
X195375000Y-109475000D03*
%TD*%
D12*
%TO.N,GND*%
X207010000Y-110490000D03*
X196850000Y-95250000D03*
X178500000Y-102500000D03*
X201000000Y-93300000D03*
X183500000Y-97500000D03*
X212500000Y-107350000D03*
X181610000Y-91440000D03*
X177800000Y-106680000D03*
X191000000Y-107000000D03*
%TO.N,OSC32_IN*%
X183000000Y-98500000D03*
X179500000Y-97000000D03*
%TO.N,Optional-1*%
X188500000Y-100000000D03*
X187000000Y-107000000D03*
%TO.N,Optional-2*%
X189000000Y-107000000D03*
X189500000Y-99000000D03*
X177800000Y-105410000D03*
%TO.N,LORA-RESET*%
X201000000Y-100000000D03*
X187000000Y-105000000D03*
%TO.N,LORA-DIO0*%
X201000000Y-102000000D03*
X187000000Y-103000000D03*
%TO.N,SPI1-SCK*%
X190000000Y-105000000D03*
X202000000Y-105000000D03*
%TO.N,SPI1-MISO*%
X208280000Y-110490000D03*
X210820000Y-100330000D03*
X193000000Y-104000000D03*
X202000000Y-104000000D03*
%TO.N,SPI1-MOSI*%
X189000000Y-103500000D03*
X202000000Y-103000000D03*
%TO.N,LORA-NSS*%
X188000000Y-101000000D03*
X201500000Y-101000000D03*
%TD*%
D13*
%TO.N,OSC32_IN*%
X181500000Y-97000000D02*
X183000000Y-98500000D01*
X179500000Y-97000000D02*
X181500000Y-97000000D01*
%TO.N,Optional-1*%
X186000000Y-106000000D02*
X187000000Y-107000000D01*
X188500000Y-100000000D02*
X187500000Y-100000000D01*
X187500000Y-100000000D02*
X186000000Y-101500000D01*
X186000000Y-101500000D02*
X186000000Y-106000000D01*
%TO.N,Optional-2*%
X189000000Y-107000000D02*
X188000000Y-108000000D01*
X186500000Y-108000000D02*
X185500000Y-107000000D01*
X187500000Y-99000000D02*
X189500000Y-99000000D01*
X185500000Y-101000000D02*
X187500000Y-99000000D01*
X177800000Y-105410000D02*
X180390000Y-108000000D01*
X180390000Y-108000000D02*
X186500000Y-108000000D01*
X185500000Y-107000000D02*
X185500000Y-101000000D01*
X188000000Y-108000000D02*
X186500000Y-108000000D01*
%TO.N,LORA-RESET*%
X203000000Y-101000000D02*
X203000000Y-105500000D01*
X201000000Y-100000000D02*
X202000000Y-100000000D01*
X202000000Y-100000000D02*
X203000000Y-101000000D01*
X202500000Y-106000000D02*
X188000000Y-106000000D01*
X188000000Y-106000000D02*
X187000000Y-105000000D01*
X203000000Y-105500000D02*
X202500000Y-106000000D01*
%TO.N,LORA-DIO0*%
X201000000Y-102000000D02*
X188000000Y-102000000D01*
X188000000Y-102000000D02*
X187000000Y-103000000D01*
%TO.N,SPI1-SCK*%
X202000000Y-105000000D02*
X190000000Y-105000000D01*
%TO.N,SPI1-MISO*%
X202000000Y-104000000D02*
X201500000Y-104000000D01*
X194000000Y-104500000D02*
X193500000Y-104000000D01*
X201000000Y-104500000D02*
X194000000Y-104500000D01*
X210820000Y-107950000D02*
X208280000Y-110490000D01*
X201500000Y-104000000D02*
X201000000Y-104500000D01*
X210820000Y-100330000D02*
X210820000Y-107950000D01*
X193500000Y-104000000D02*
X193000000Y-104000000D01*
%TO.N,SPI1-MOSI*%
X189000000Y-103500000D02*
X189500000Y-103000000D01*
X189500000Y-103000000D02*
X202000000Y-103000000D01*
%TO.N,LORA-NSS*%
X201500000Y-101000000D02*
X188000000Y-101000000D01*
%TD*%
%TA.AperFunction,Conductor*%
%TO.N,GND*%
G36*
X216642539Y-90820185D02*
G01*
X216688294Y-90872989D01*
X216699500Y-90924500D01*
X216699500Y-112075500D01*
X216679815Y-112142539D01*
X216627011Y-112188294D01*
X216575500Y-112199500D01*
X177424500Y-112199500D01*
X177357461Y-112179815D01*
X177311706Y-112127011D01*
X177300500Y-112075500D01*
X177300500Y-106144351D01*
X177320185Y-106077312D01*
X177372989Y-106031557D01*
X177442147Y-106021613D01*
X177483664Y-106035377D01*
X177540235Y-106066092D01*
X177635585Y-106091107D01*
X177697005Y-106107220D01*
X177697007Y-106107220D01*
X177704233Y-106109116D01*
X177814313Y-106110845D01*
X177881034Y-106131580D01*
X177900046Y-106147149D01*
X180047333Y-108294436D01*
X180057031Y-108305349D01*
X180078128Y-108332110D01*
X180126446Y-108365505D01*
X180129546Y-108367719D01*
X180176816Y-108402634D01*
X180183632Y-108405027D01*
X180189569Y-108409131D01*
X180245516Y-108426825D01*
X180249209Y-108428057D01*
X180295884Y-108444448D01*
X180295888Y-108444449D01*
X180304631Y-108447519D01*
X180311735Y-108447798D01*
X180311986Y-108447847D01*
X180318730Y-108449980D01*
X180325337Y-108450500D01*
X180378068Y-108450500D01*
X180382937Y-108450596D01*
X180430727Y-108452474D01*
X180430728Y-108452474D01*
X180439994Y-108452838D01*
X180447078Y-108450960D01*
X180455438Y-108450500D01*
X181400840Y-108450500D01*
X181467879Y-108470185D01*
X181513634Y-108522989D01*
X181524381Y-108580354D01*
X181524500Y-108580354D01*
X181524500Y-110369646D01*
X181527618Y-110395846D01*
X181573061Y-110498153D01*
X181652287Y-110577241D01*
X181662758Y-110581870D01*
X181662759Y-110581871D01*
X181746147Y-110618737D01*
X181746149Y-110618738D01*
X181754673Y-110622506D01*
X181780354Y-110625500D01*
X183569646Y-110625500D01*
X183573300Y-110625065D01*
X183573302Y-110625065D01*
X183578266Y-110624474D01*
X183595846Y-110622382D01*
X183698153Y-110576939D01*
X183777241Y-110497713D01*
X183784268Y-110481819D01*
X183818737Y-110403853D01*
X183818738Y-110403851D01*
X183822506Y-110395327D01*
X183825500Y-110369646D01*
X183825500Y-109655300D01*
X183845185Y-109588261D01*
X183897989Y-109542506D01*
X183967147Y-109532562D01*
X184030703Y-109561587D01*
X184068477Y-109620365D01*
X184073234Y-109647190D01*
X184073423Y-109650072D01*
X184073425Y-109650082D01*
X184073796Y-109655749D01*
X184125845Y-109860690D01*
X184128219Y-109865841D01*
X184128221Y-109865845D01*
X184165908Y-109947594D01*
X184214369Y-110052714D01*
X184336405Y-110225391D01*
X184487865Y-110372937D01*
X184492588Y-110376093D01*
X184492592Y-110376096D01*
X184563663Y-110423584D01*
X184663677Y-110490411D01*
X184857953Y-110573878D01*
X184893277Y-110581871D01*
X185058638Y-110619289D01*
X185058642Y-110619290D01*
X185064186Y-110620544D01*
X185190315Y-110625500D01*
X185269789Y-110628623D01*
X185269791Y-110628623D01*
X185275470Y-110628846D01*
X185281090Y-110628031D01*
X185281092Y-110628031D01*
X185479103Y-110599320D01*
X185479104Y-110599320D01*
X185484730Y-110598504D01*
X185503588Y-110592103D01*
X185679565Y-110532367D01*
X185679568Y-110532366D01*
X185684955Y-110530537D01*
X185689916Y-110527759D01*
X185689922Y-110527756D01*
X185796530Y-110468052D01*
X185869442Y-110427219D01*
X185878249Y-110419895D01*
X186027645Y-110295644D01*
X186032012Y-110292012D01*
X186035644Y-110287645D01*
X186163584Y-110133813D01*
X186163585Y-110133811D01*
X186167219Y-110129442D01*
X186226299Y-110023948D01*
X186267756Y-109949922D01*
X186267759Y-109949916D01*
X186270537Y-109944955D01*
X186281966Y-109911288D01*
X186332103Y-109763588D01*
X186338504Y-109744730D01*
X186351471Y-109655300D01*
X186362820Y-109577033D01*
X186391921Y-109513512D01*
X186445667Y-109479063D01*
X186393057Y-109447081D01*
X186362453Y-109384271D01*
X186361232Y-109374909D01*
X186351601Y-109270100D01*
X186351081Y-109264440D01*
X186293686Y-109060931D01*
X186200165Y-108871290D01*
X186073651Y-108701867D01*
X186069481Y-108698012D01*
X186069478Y-108698009D01*
X186034370Y-108665556D01*
X185998503Y-108605595D01*
X186000748Y-108535761D01*
X186040391Y-108478227D01*
X186104846Y-108451259D01*
X186118541Y-108450500D01*
X186488043Y-108450500D01*
X186492912Y-108450596D01*
X186549994Y-108452839D01*
X186557078Y-108450960D01*
X186565443Y-108450500D01*
X186848722Y-108450500D01*
X186915761Y-108470185D01*
X186961516Y-108522989D01*
X186971460Y-108592147D01*
X186942435Y-108655703D01*
X186930481Y-108667728D01*
X186921155Y-108675906D01*
X186921150Y-108675911D01*
X186916881Y-108679655D01*
X186913362Y-108684119D01*
X186913359Y-108684122D01*
X186895782Y-108706419D01*
X186785976Y-108845708D01*
X186687523Y-109032836D01*
X186685837Y-109038267D01*
X186685835Y-109038271D01*
X186681921Y-109050877D01*
X186624820Y-109234773D01*
X186607851Y-109378140D01*
X186580425Y-109442398D01*
X186525974Y-109479346D01*
X186579347Y-109513736D01*
X186608296Y-109577327D01*
X186609271Y-109586707D01*
X186613796Y-109655749D01*
X186665845Y-109860690D01*
X186668219Y-109865841D01*
X186668221Y-109865845D01*
X186705908Y-109947594D01*
X186754369Y-110052714D01*
X186876405Y-110225391D01*
X187027865Y-110372937D01*
X187032588Y-110376093D01*
X187032592Y-110376096D01*
X187103663Y-110423584D01*
X187203677Y-110490411D01*
X187397953Y-110573878D01*
X187433277Y-110581871D01*
X187598638Y-110619289D01*
X187598642Y-110619290D01*
X187604186Y-110620544D01*
X187730315Y-110625500D01*
X187809789Y-110628623D01*
X187809791Y-110628623D01*
X187815470Y-110628846D01*
X187821090Y-110628031D01*
X187821092Y-110628031D01*
X188019103Y-110599320D01*
X188019104Y-110599320D01*
X188024730Y-110598504D01*
X188043588Y-110592103D01*
X188219565Y-110532367D01*
X188219568Y-110532366D01*
X188224955Y-110530537D01*
X188229916Y-110527759D01*
X188229922Y-110527756D01*
X188336530Y-110468052D01*
X188409442Y-110427219D01*
X188418249Y-110419895D01*
X188567645Y-110295644D01*
X188572012Y-110292012D01*
X188575644Y-110287645D01*
X188703584Y-110133813D01*
X188703585Y-110133811D01*
X188707219Y-110129442D01*
X188766299Y-110023948D01*
X188807756Y-109949922D01*
X188807759Y-109949916D01*
X188810537Y-109944955D01*
X188821966Y-109911288D01*
X188872103Y-109763588D01*
X188878504Y-109744730D01*
X188891471Y-109655300D01*
X188902820Y-109577033D01*
X188931921Y-109513512D01*
X188985225Y-109479346D01*
X189065974Y-109479346D01*
X189119347Y-109513736D01*
X189148296Y-109577327D01*
X189149271Y-109586707D01*
X189153796Y-109655749D01*
X189205845Y-109860690D01*
X189208219Y-109865841D01*
X189208221Y-109865845D01*
X189245908Y-109947594D01*
X189294369Y-110052714D01*
X189416405Y-110225391D01*
X189567865Y-110372937D01*
X189572588Y-110376093D01*
X189572592Y-110376096D01*
X189643663Y-110423584D01*
X189743677Y-110490411D01*
X189937953Y-110573878D01*
X189973277Y-110581871D01*
X190138638Y-110619289D01*
X190138642Y-110619290D01*
X190144186Y-110620544D01*
X190270315Y-110625500D01*
X190349789Y-110628623D01*
X190349791Y-110628623D01*
X190355470Y-110628846D01*
X190361090Y-110628031D01*
X190361092Y-110628031D01*
X190559103Y-110599320D01*
X190559104Y-110599320D01*
X190564730Y-110598504D01*
X190583588Y-110592103D01*
X190759565Y-110532367D01*
X190759568Y-110532366D01*
X190764955Y-110530537D01*
X190769916Y-110527759D01*
X190769922Y-110527756D01*
X190876530Y-110468052D01*
X190949442Y-110427219D01*
X190958249Y-110419895D01*
X191107645Y-110295644D01*
X191112012Y-110292012D01*
X191115644Y-110287645D01*
X191243584Y-110133813D01*
X191243585Y-110133811D01*
X191247219Y-110129442D01*
X191349059Y-109947594D01*
X191398990Y-109898721D01*
X191467418Y-109884601D01*
X191532617Y-109909717D01*
X191569630Y-109955778D01*
X191659110Y-110147667D01*
X191664508Y-110157017D01*
X191793784Y-110341643D01*
X191800719Y-110349907D01*
X191960091Y-110509279D01*
X191968357Y-110516215D01*
X192152992Y-110645498D01*
X192162324Y-110650886D01*
X192366603Y-110746143D01*
X192376736Y-110749832D01*
X192567779Y-110801022D01*
X192581653Y-110800691D01*
X192585000Y-110792875D01*
X192585000Y-110787806D01*
X193085000Y-110787806D01*
X193088910Y-110801123D01*
X193097326Y-110802333D01*
X193293264Y-110749832D01*
X193303397Y-110746143D01*
X193507676Y-110650886D01*
X193517008Y-110645498D01*
X193701643Y-110516215D01*
X193709909Y-110509279D01*
X193869281Y-110349907D01*
X193876216Y-110341643D01*
X194005492Y-110157017D01*
X194010890Y-110147667D01*
X194102656Y-109950876D01*
X194148829Y-109898437D01*
X194216022Y-109879285D01*
X194282903Y-109899501D01*
X194327648Y-109951368D01*
X194374369Y-110052714D01*
X194496405Y-110225391D01*
X194647865Y-110372937D01*
X194652588Y-110376093D01*
X194652592Y-110376096D01*
X194723663Y-110423584D01*
X194823677Y-110490411D01*
X195017953Y-110573878D01*
X195053277Y-110581871D01*
X195218638Y-110619289D01*
X195218642Y-110619290D01*
X195224186Y-110620544D01*
X195350315Y-110625500D01*
X195429789Y-110628623D01*
X195429791Y-110628623D01*
X195435470Y-110628846D01*
X195441090Y-110628031D01*
X195441092Y-110628031D01*
X195639103Y-110599320D01*
X195639104Y-110599320D01*
X195644730Y-110598504D01*
X195663588Y-110592103D01*
X195839565Y-110532367D01*
X195839568Y-110532366D01*
X195844955Y-110530537D01*
X195849916Y-110527759D01*
X195849922Y-110527756D01*
X195930533Y-110482611D01*
X207574394Y-110482611D01*
X207575214Y-110490039D01*
X207575214Y-110490041D01*
X207577285Y-110508800D01*
X207592999Y-110651135D01*
X207595565Y-110658147D01*
X207595566Y-110658151D01*
X207627767Y-110746143D01*
X207651266Y-110810356D01*
X207655433Y-110816558D01*
X207655435Y-110816561D01*
X207668510Y-110836018D01*
X207745830Y-110951083D01*
X207751360Y-110956115D01*
X207865702Y-111060159D01*
X207865706Y-111060162D01*
X207871233Y-111065191D01*
X208020235Y-111146092D01*
X208115585Y-111171107D01*
X208177005Y-111187220D01*
X208177007Y-111187220D01*
X208184233Y-111189116D01*
X208267178Y-111190419D01*
X208346290Y-111191662D01*
X208346293Y-111191662D01*
X208353760Y-111191779D01*
X208476209Y-111163735D01*
X208511738Y-111155598D01*
X208511739Y-111155598D01*
X208519029Y-111153928D01*
X208594111Y-111116165D01*
X208663820Y-111081106D01*
X208663822Y-111081105D01*
X208670498Y-111077747D01*
X208676180Y-111072894D01*
X208676183Y-111072892D01*
X208793741Y-110972487D01*
X208799423Y-110967634D01*
X208898361Y-110829947D01*
X208961601Y-110672634D01*
X208968309Y-110625500D01*
X208984918Y-110508800D01*
X208984918Y-110508794D01*
X208985490Y-110504778D01*
X208985560Y-110498153D01*
X208985602Y-110494065D01*
X208985645Y-110490000D01*
X208985157Y-110485965D01*
X208984934Y-110481914D01*
X208986666Y-110481819D01*
X208996960Y-110419895D01*
X209020916Y-110386187D01*
X211114436Y-108292667D01*
X211125349Y-108282969D01*
X211144830Y-108267611D01*
X211152110Y-108261872D01*
X211185505Y-108213554D01*
X211187719Y-108210454D01*
X211222634Y-108163184D01*
X211225027Y-108156368D01*
X211229131Y-108150431D01*
X211246826Y-108094481D01*
X211248057Y-108090791D01*
X211264448Y-108044116D01*
X211264449Y-108044112D01*
X211267519Y-108035369D01*
X211267798Y-108028265D01*
X211267847Y-108028014D01*
X211269980Y-108021270D01*
X211270500Y-108014663D01*
X211270500Y-107961932D01*
X211270596Y-107957063D01*
X211272474Y-107909268D01*
X211272838Y-107900006D01*
X211270960Y-107892924D01*
X211270500Y-107884565D01*
X211270500Y-100923665D01*
X211290185Y-100856626D01*
X211313968Y-100829375D01*
X211333741Y-100812487D01*
X211339423Y-100807634D01*
X211438361Y-100669947D01*
X211501601Y-100512634D01*
X211514363Y-100422963D01*
X211524918Y-100348800D01*
X211524918Y-100348794D01*
X211525490Y-100344778D01*
X211525645Y-100330000D01*
X211523854Y-100315199D01*
X211506175Y-100169105D01*
X211506174Y-100169101D01*
X211505276Y-100161680D01*
X211496254Y-100137805D01*
X211447989Y-100010073D01*
X211447987Y-100010070D01*
X211445345Y-100003077D01*
X211440857Y-99996547D01*
X211353549Y-99869513D01*
X211353546Y-99869510D01*
X211349312Y-99863349D01*
X211222721Y-99750560D01*
X211208347Y-99742949D01*
X211130589Y-99701779D01*
X211072881Y-99671224D01*
X210908441Y-99629919D01*
X210822248Y-99629468D01*
X210746368Y-99629070D01*
X210746367Y-99629070D01*
X210738895Y-99629031D01*
X210725512Y-99632244D01*
X210581295Y-99666868D01*
X210581293Y-99666869D01*
X210574032Y-99668612D01*
X210567399Y-99672035D01*
X210567395Y-99672037D01*
X210514705Y-99699233D01*
X210423369Y-99746375D01*
X210417737Y-99751288D01*
X210325301Y-99831925D01*
X210295604Y-99857831D01*
X210198113Y-99996547D01*
X210136524Y-100154513D01*
X210135548Y-100161923D01*
X210135548Y-100161925D01*
X210125459Y-100238562D01*
X210114394Y-100322611D01*
X210115214Y-100330039D01*
X210115214Y-100330041D01*
X210123805Y-100407853D01*
X210132999Y-100491135D01*
X210135565Y-100498147D01*
X210135566Y-100498151D01*
X210185712Y-100635178D01*
X210191266Y-100650356D01*
X210195433Y-100656558D01*
X210195435Y-100656561D01*
X210249102Y-100736426D01*
X210285830Y-100791083D01*
X210304870Y-100808408D01*
X210328954Y-100830323D01*
X210365290Y-100890001D01*
X210369500Y-100922037D01*
X210369500Y-107712035D01*
X210349815Y-107779074D01*
X210333181Y-107799716D01*
X208379699Y-109753198D01*
X208318376Y-109786683D01*
X208291369Y-109789515D01*
X208206368Y-109789070D01*
X208206367Y-109789070D01*
X208198895Y-109789031D01*
X208191631Y-109790775D01*
X208041295Y-109826868D01*
X208041293Y-109826869D01*
X208034032Y-109828612D01*
X208027399Y-109832035D01*
X208027395Y-109832037D01*
X207982540Y-109855189D01*
X207883369Y-109906375D01*
X207877737Y-109911288D01*
X207836119Y-109947594D01*
X207755604Y-110017831D01*
X207658113Y-110156547D01*
X207596524Y-110314513D01*
X207595548Y-110321923D01*
X207595548Y-110321925D01*
X207588796Y-110373212D01*
X207574394Y-110482611D01*
X195930533Y-110482611D01*
X195956530Y-110468052D01*
X196029442Y-110427219D01*
X196038249Y-110419895D01*
X196187645Y-110295644D01*
X196192012Y-110292012D01*
X196195644Y-110287645D01*
X196323584Y-110133813D01*
X196323585Y-110133811D01*
X196327219Y-110129442D01*
X196386299Y-110023948D01*
X196427756Y-109949922D01*
X196427759Y-109949916D01*
X196430537Y-109944955D01*
X196441966Y-109911288D01*
X196492103Y-109763588D01*
X196498504Y-109744730D01*
X196528846Y-109535470D01*
X196530429Y-109475000D01*
X196511081Y-109264440D01*
X196453686Y-109060931D01*
X196360165Y-108871290D01*
X196233651Y-108701867D01*
X196229481Y-108698012D01*
X196229478Y-108698009D01*
X196114956Y-108592147D01*
X196078381Y-108558337D01*
X196072574Y-108554673D01*
X195904363Y-108448539D01*
X195904361Y-108448538D01*
X195899554Y-108445505D01*
X195703160Y-108367152D01*
X195697579Y-108366042D01*
X195697576Y-108366041D01*
X195553484Y-108337380D01*
X195495775Y-108325901D01*
X195490088Y-108325827D01*
X195490083Y-108325826D01*
X195290034Y-108323207D01*
X195290029Y-108323207D01*
X195284346Y-108323133D01*
X195278742Y-108324096D01*
X195278741Y-108324096D01*
X195081550Y-108357979D01*
X195081547Y-108357980D01*
X195075953Y-108358941D01*
X194877575Y-108432127D01*
X194872697Y-108435029D01*
X194872695Y-108435030D01*
X194700740Y-108537332D01*
X194700737Y-108537334D01*
X194695856Y-108540238D01*
X194536881Y-108679655D01*
X194533362Y-108684119D01*
X194533359Y-108684122D01*
X194515782Y-108706419D01*
X194405976Y-108845708D01*
X194403325Y-108850747D01*
X194323685Y-109002117D01*
X194275050Y-109052281D01*
X194207015Y-109068187D01*
X194141181Y-109044786D01*
X194101565Y-108996786D01*
X194010890Y-108802333D01*
X194005492Y-108792983D01*
X193876216Y-108608357D01*
X193869281Y-108600093D01*
X193709909Y-108440721D01*
X193701643Y-108433785D01*
X193517008Y-108304502D01*
X193507676Y-108299114D01*
X193303397Y-108203857D01*
X193293264Y-108200168D01*
X193102221Y-108148978D01*
X193088347Y-108149309D01*
X193085000Y-108157125D01*
X193085000Y-110787806D01*
X192585000Y-110787806D01*
X192585000Y-108162194D01*
X192581090Y-108148877D01*
X192572674Y-108147667D01*
X192376736Y-108200168D01*
X192366603Y-108203857D01*
X192162333Y-108299110D01*
X192152983Y-108304508D01*
X191968357Y-108433784D01*
X191960093Y-108440719D01*
X191800719Y-108600093D01*
X191793784Y-108608357D01*
X191664508Y-108792983D01*
X191659110Y-108802333D01*
X191567664Y-108998438D01*
X191521491Y-109050877D01*
X191454298Y-109070029D01*
X191387417Y-109049813D01*
X191344071Y-109000878D01*
X191280165Y-108871290D01*
X191153651Y-108701867D01*
X191149481Y-108698012D01*
X191149478Y-108698009D01*
X191034956Y-108592147D01*
X190998381Y-108558337D01*
X190992574Y-108554673D01*
X190824363Y-108448539D01*
X190824361Y-108448538D01*
X190819554Y-108445505D01*
X190623160Y-108367152D01*
X190617579Y-108366042D01*
X190617576Y-108366041D01*
X190473484Y-108337380D01*
X190415775Y-108325901D01*
X190410088Y-108325827D01*
X190410083Y-108325826D01*
X190210034Y-108323207D01*
X190210029Y-108323207D01*
X190204346Y-108323133D01*
X190198742Y-108324096D01*
X190198741Y-108324096D01*
X190001550Y-108357979D01*
X190001547Y-108357980D01*
X189995953Y-108358941D01*
X189797575Y-108432127D01*
X189792697Y-108435029D01*
X189792695Y-108435030D01*
X189620740Y-108537332D01*
X189620737Y-108537334D01*
X189615856Y-108540238D01*
X189456881Y-108679655D01*
X189453362Y-108684119D01*
X189453359Y-108684122D01*
X189435782Y-108706419D01*
X189325976Y-108845708D01*
X189227523Y-109032836D01*
X189225837Y-109038267D01*
X189225835Y-109038271D01*
X189221921Y-109050877D01*
X189164820Y-109234773D01*
X189147851Y-109378140D01*
X189120425Y-109442398D01*
X189065974Y-109479346D01*
X188985225Y-109479346D01*
X188985667Y-109479063D01*
X188933057Y-109447081D01*
X188902453Y-109384271D01*
X188901232Y-109374909D01*
X188891601Y-109270100D01*
X188891081Y-109264440D01*
X188833686Y-109060931D01*
X188740165Y-108871290D01*
X188613651Y-108701867D01*
X188609481Y-108698012D01*
X188609478Y-108698009D01*
X188494956Y-108592147D01*
X188458381Y-108558337D01*
X188451752Y-108554154D01*
X188402358Y-108522989D01*
X188358103Y-108495066D01*
X188311911Y-108442646D01*
X188301391Y-108373573D01*
X188329886Y-108309778D01*
X188340099Y-108299143D01*
X188348747Y-108291148D01*
X188355556Y-108284854D01*
X188359237Y-108278516D01*
X188364828Y-108272275D01*
X188900336Y-107736767D01*
X188961659Y-107703282D01*
X188989964Y-107700463D01*
X189066290Y-107701662D01*
X189066293Y-107701662D01*
X189073760Y-107701779D01*
X189196209Y-107673735D01*
X189231738Y-107665598D01*
X189231739Y-107665598D01*
X189239029Y-107663928D01*
X189314111Y-107626165D01*
X189383820Y-107591106D01*
X189383822Y-107591105D01*
X189390498Y-107587747D01*
X189396180Y-107582894D01*
X189396183Y-107582892D01*
X189513741Y-107482487D01*
X189519423Y-107477634D01*
X189618361Y-107339947D01*
X189681601Y-107182634D01*
X189686738Y-107146540D01*
X189704918Y-107018800D01*
X189704918Y-107018794D01*
X189705490Y-107014778D01*
X189705645Y-107000000D01*
X189703282Y-106980471D01*
X189686175Y-106839105D01*
X189686174Y-106839101D01*
X189685276Y-106831680D01*
X189625345Y-106673077D01*
X189605864Y-106644732D01*
X189584116Y-106578336D01*
X189601717Y-106510720D01*
X189653081Y-106463353D01*
X189708057Y-106450500D01*
X202465897Y-106450500D01*
X202480471Y-106451359D01*
X202505105Y-106454275D01*
X202505108Y-106454275D01*
X202514310Y-106455364D01*
X202550974Y-106448668D01*
X202572022Y-106444824D01*
X202575864Y-106444184D01*
X202609017Y-106439199D01*
X202633962Y-106435449D01*
X202640475Y-106432321D01*
X202647573Y-106431025D01*
X202684339Y-106411927D01*
X202699663Y-106403967D01*
X202703146Y-106402227D01*
X202756079Y-106376809D01*
X202761299Y-106371984D01*
X202761520Y-106371835D01*
X202767788Y-106368579D01*
X202772828Y-106364275D01*
X202810097Y-106327006D01*
X202813607Y-106323631D01*
X202848749Y-106291147D01*
X202848751Y-106291144D01*
X202855556Y-106284854D01*
X202859237Y-106278516D01*
X202864828Y-106272275D01*
X203294436Y-105842667D01*
X203305349Y-105832969D01*
X203324830Y-105817611D01*
X203332110Y-105811872D01*
X203348338Y-105788393D01*
X203365471Y-105763603D01*
X203367735Y-105760434D01*
X203397132Y-105720633D01*
X203402635Y-105713183D01*
X203405029Y-105706366D01*
X203409131Y-105700431D01*
X203426826Y-105644481D01*
X203428041Y-105640838D01*
X203447520Y-105585369D01*
X203447799Y-105578267D01*
X203447851Y-105578005D01*
X203449980Y-105571270D01*
X203450500Y-105564663D01*
X203450500Y-105511941D01*
X203450596Y-105507073D01*
X203451251Y-105490391D01*
X203452838Y-105450006D01*
X203450960Y-105442925D01*
X203450500Y-105434562D01*
X203450500Y-101034103D01*
X203451359Y-101019529D01*
X203454275Y-100994893D01*
X203454275Y-100994892D01*
X203455364Y-100985690D01*
X203453699Y-100976574D01*
X203453699Y-100976567D01*
X203444818Y-100927938D01*
X203444178Y-100924097D01*
X203436827Y-100875202D01*
X203436827Y-100875201D01*
X203435449Y-100866038D01*
X203432323Y-100859528D01*
X203431026Y-100852427D01*
X203413177Y-100818065D01*
X203403961Y-100800322D01*
X203402221Y-100796840D01*
X203380822Y-100752277D01*
X203380821Y-100752275D01*
X203376809Y-100743921D01*
X203371984Y-100738702D01*
X203371839Y-100738487D01*
X203368580Y-100732212D01*
X203364276Y-100727172D01*
X203326995Y-100689891D01*
X203323620Y-100686381D01*
X203319930Y-100682389D01*
X203284854Y-100644444D01*
X203278519Y-100640765D01*
X203272282Y-100635178D01*
X202342666Y-99705563D01*
X202332968Y-99694650D01*
X202317611Y-99675169D01*
X202317608Y-99675167D01*
X202311872Y-99667890D01*
X202263554Y-99634495D01*
X202260454Y-99632281D01*
X202213184Y-99597366D01*
X202206368Y-99594973D01*
X202200431Y-99590869D01*
X202144481Y-99573174D01*
X202140791Y-99571943D01*
X202094116Y-99555552D01*
X202094112Y-99555551D01*
X202085369Y-99552481D01*
X202078265Y-99552202D01*
X202078014Y-99552153D01*
X202071270Y-99550020D01*
X202064663Y-99549500D01*
X202011932Y-99549500D01*
X202007063Y-99549404D01*
X201959273Y-99547526D01*
X201959272Y-99547526D01*
X201950006Y-99547162D01*
X201942922Y-99549040D01*
X201934562Y-99549500D01*
X201594667Y-99549500D01*
X201527628Y-99529815D01*
X201512178Y-99518083D01*
X201408303Y-99425533D01*
X201408301Y-99425532D01*
X201402721Y-99420560D01*
X201388347Y-99412949D01*
X201259489Y-99344723D01*
X201252881Y-99341224D01*
X201088441Y-99299919D01*
X201002248Y-99299468D01*
X200926368Y-99299070D01*
X200926367Y-99299070D01*
X200918895Y-99299031D01*
X200897235Y-99304231D01*
X200761295Y-99336868D01*
X200761293Y-99336869D01*
X200754032Y-99338612D01*
X200747399Y-99342035D01*
X200747395Y-99342037D01*
X200680465Y-99376583D01*
X200603369Y-99416375D01*
X200597737Y-99421288D01*
X200564251Y-99450500D01*
X200475604Y-99527831D01*
X200378113Y-99666547D01*
X200316524Y-99824513D01*
X200294394Y-99992611D01*
X200295214Y-100000039D01*
X200295214Y-100000041D01*
X200296841Y-100014778D01*
X200312999Y-100161135D01*
X200315565Y-100168147D01*
X200315566Y-100168151D01*
X200368697Y-100313336D01*
X200371266Y-100320356D01*
X200375433Y-100326558D01*
X200375435Y-100326561D01*
X200395446Y-100356340D01*
X200416498Y-100422963D01*
X200398189Y-100490391D01*
X200346333Y-100537217D01*
X200292524Y-100549500D01*
X189209578Y-100549500D01*
X189142539Y-100529815D01*
X189096784Y-100477011D01*
X189086840Y-100407853D01*
X189108879Y-100353143D01*
X189118361Y-100339947D01*
X189181601Y-100182634D01*
X189182654Y-100175237D01*
X189204918Y-100018800D01*
X189204918Y-100018794D01*
X189205490Y-100014778D01*
X189205540Y-100010073D01*
X189205602Y-100004065D01*
X189205645Y-100000000D01*
X189203854Y-99985199D01*
X189186174Y-99839098D01*
X189186173Y-99839095D01*
X189185276Y-99831680D01*
X189184205Y-99828845D01*
X189187244Y-99760937D01*
X189227609Y-99703907D01*
X189292400Y-99677754D01*
X189336006Y-99681217D01*
X189397005Y-99697220D01*
X189397007Y-99697220D01*
X189404233Y-99699116D01*
X189487178Y-99700419D01*
X189566290Y-99701662D01*
X189566293Y-99701662D01*
X189573760Y-99701779D01*
X189703623Y-99672037D01*
X189731738Y-99665598D01*
X189731739Y-99665598D01*
X189739029Y-99663928D01*
X189814111Y-99626166D01*
X189883820Y-99591106D01*
X189883822Y-99591105D01*
X189890498Y-99587747D01*
X189896180Y-99582894D01*
X189896183Y-99582892D01*
X190013741Y-99482487D01*
X190019423Y-99477634D01*
X190118361Y-99339947D01*
X190181601Y-99182634D01*
X190184263Y-99163928D01*
X190204918Y-99018800D01*
X190204918Y-99018794D01*
X190205490Y-99014778D01*
X190205645Y-99000000D01*
X190203526Y-98982487D01*
X190186175Y-98839105D01*
X190186174Y-98839101D01*
X190185276Y-98831680D01*
X190131575Y-98689564D01*
X190127989Y-98680073D01*
X190127987Y-98680070D01*
X190125345Y-98673077D01*
X190121108Y-98666912D01*
X190033549Y-98539513D01*
X190033546Y-98539510D01*
X190029312Y-98533349D01*
X189975203Y-98485139D01*
X189908303Y-98425533D01*
X189908301Y-98425532D01*
X189902721Y-98420560D01*
X189888347Y-98412949D01*
X189759489Y-98344723D01*
X189752881Y-98341224D01*
X189588441Y-98299919D01*
X189502248Y-98299468D01*
X189426368Y-98299070D01*
X189426367Y-98299070D01*
X189418895Y-98299031D01*
X189397235Y-98304231D01*
X189261295Y-98336868D01*
X189261293Y-98336869D01*
X189254032Y-98338612D01*
X189247399Y-98342035D01*
X189247395Y-98342037D01*
X189180465Y-98376583D01*
X189103369Y-98416375D01*
X188985957Y-98518800D01*
X188985794Y-98518942D01*
X188922336Y-98548178D01*
X188904280Y-98549500D01*
X187534102Y-98549500D01*
X187519528Y-98548641D01*
X187494894Y-98545725D01*
X187494891Y-98545725D01*
X187485689Y-98544636D01*
X187427965Y-98555179D01*
X187424124Y-98555818D01*
X187366038Y-98564551D01*
X187359525Y-98567679D01*
X187352427Y-98568975D01*
X187344201Y-98573248D01*
X187300337Y-98596033D01*
X187296863Y-98597769D01*
X187243921Y-98623191D01*
X187238701Y-98628016D01*
X187238480Y-98628165D01*
X187232212Y-98631421D01*
X187227172Y-98635725D01*
X187189903Y-98672994D01*
X187186393Y-98676369D01*
X187151251Y-98708853D01*
X187151249Y-98708856D01*
X187144444Y-98715146D01*
X187140763Y-98721484D01*
X187135172Y-98727725D01*
X185205564Y-100657333D01*
X185194651Y-100667031D01*
X185167890Y-100688128D01*
X185140711Y-100727454D01*
X185134510Y-100736426D01*
X185132281Y-100739546D01*
X185097366Y-100786816D01*
X185094973Y-100793632D01*
X185090869Y-100799569D01*
X185074152Y-100852427D01*
X185073175Y-100855516D01*
X185071943Y-100859209D01*
X185055552Y-100905884D01*
X185055551Y-100905888D01*
X185052481Y-100914631D01*
X185052202Y-100921735D01*
X185052153Y-100921986D01*
X185050020Y-100928730D01*
X185049500Y-100935337D01*
X185049500Y-100988068D01*
X185049404Y-100992937D01*
X185047162Y-101049994D01*
X185049040Y-101057078D01*
X185049500Y-101065438D01*
X185049500Y-106965897D01*
X185048641Y-106980471D01*
X185045849Y-107004065D01*
X185044636Y-107014310D01*
X185046302Y-107023431D01*
X185055176Y-107072022D01*
X185055816Y-107075864D01*
X185064551Y-107133962D01*
X185067679Y-107140475D01*
X185068975Y-107147573D01*
X185073248Y-107155799D01*
X185096033Y-107199663D01*
X185097769Y-107203137D01*
X185123191Y-107256079D01*
X185128016Y-107261299D01*
X185128165Y-107261520D01*
X185131421Y-107267788D01*
X185135725Y-107272828D01*
X185172994Y-107310097D01*
X185176369Y-107313607D01*
X185201995Y-107341329D01*
X185233047Y-107403919D01*
X185225330Y-107473361D01*
X185181295Y-107527608D01*
X185110939Y-107549500D01*
X180627965Y-107549500D01*
X180560926Y-107529815D01*
X180540284Y-107513181D01*
X178541736Y-105514633D01*
X178508251Y-105453310D01*
X178506269Y-105424786D01*
X178505490Y-105424778D01*
X178505602Y-105414065D01*
X178505645Y-105410000D01*
X178505157Y-105405967D01*
X178486175Y-105249105D01*
X178486174Y-105249101D01*
X178485276Y-105241680D01*
X178452034Y-105153707D01*
X178427989Y-105090073D01*
X178427987Y-105090070D01*
X178425345Y-105083077D01*
X178421108Y-105076912D01*
X178333549Y-104949513D01*
X178333546Y-104949510D01*
X178329312Y-104943349D01*
X178202721Y-104830560D01*
X178191622Y-104824683D01*
X178118777Y-104786114D01*
X178052881Y-104751224D01*
X177888441Y-104709919D01*
X177802248Y-104709468D01*
X177726368Y-104709070D01*
X177726367Y-104709070D01*
X177718895Y-104709031D01*
X177697235Y-104714231D01*
X177561295Y-104746868D01*
X177561293Y-104746869D01*
X177554032Y-104748612D01*
X177547393Y-104752039D01*
X177547392Y-104752039D01*
X177481372Y-104786114D01*
X177412772Y-104799369D01*
X177347895Y-104773432D01*
X177307339Y-104716537D01*
X177300500Y-104675925D01*
X177300500Y-96992611D01*
X178794394Y-96992611D01*
X178812999Y-97161135D01*
X178815565Y-97168147D01*
X178815566Y-97168151D01*
X178868697Y-97313336D01*
X178871266Y-97320356D01*
X178875433Y-97326558D01*
X178875435Y-97326561D01*
X178936421Y-97417317D01*
X178965830Y-97461083D01*
X178971360Y-97466115D01*
X179085702Y-97570159D01*
X179085706Y-97570162D01*
X179091233Y-97575191D01*
X179240235Y-97656092D01*
X179335585Y-97681107D01*
X179397005Y-97697220D01*
X179397007Y-97697220D01*
X179404233Y-97699116D01*
X179487178Y-97700419D01*
X179566290Y-97701662D01*
X179566293Y-97701662D01*
X179573760Y-97701779D01*
X179696209Y-97673735D01*
X179731738Y-97665598D01*
X179731739Y-97665598D01*
X179739029Y-97663928D01*
X179814111Y-97626166D01*
X179883820Y-97591106D01*
X179883822Y-97591105D01*
X179890498Y-97587747D01*
X179896180Y-97582894D01*
X179896183Y-97582892D01*
X180016407Y-97480210D01*
X180080168Y-97451639D01*
X180096939Y-97450500D01*
X181262035Y-97450500D01*
X181329074Y-97470185D01*
X181349716Y-97486819D01*
X182259058Y-98396161D01*
X182292543Y-98457484D01*
X182295370Y-98485139D01*
X182295369Y-98485203D01*
X182294394Y-98492611D01*
X182295214Y-98500039D01*
X182295214Y-98500040D01*
X182302923Y-98569866D01*
X182312999Y-98661135D01*
X182315565Y-98668147D01*
X182315566Y-98668151D01*
X182368697Y-98813336D01*
X182371266Y-98820356D01*
X182375433Y-98826558D01*
X182375435Y-98826561D01*
X182388510Y-98846018D01*
X182465830Y-98961083D01*
X182471360Y-98966115D01*
X182585702Y-99070159D01*
X182585706Y-99070162D01*
X182591233Y-99075191D01*
X182740235Y-99156092D01*
X182813212Y-99175237D01*
X182897005Y-99197220D01*
X182897007Y-99197220D01*
X182904233Y-99199116D01*
X182987178Y-99200419D01*
X183066290Y-99201662D01*
X183066293Y-99201662D01*
X183073760Y-99201779D01*
X183196209Y-99173735D01*
X183231738Y-99165598D01*
X183231739Y-99165598D01*
X183239029Y-99163928D01*
X183314111Y-99126166D01*
X183383820Y-99091106D01*
X183383822Y-99091105D01*
X183390498Y-99087747D01*
X183396180Y-99082894D01*
X183396183Y-99082892D01*
X183513741Y-98982487D01*
X183519423Y-98977634D01*
X183618361Y-98839947D01*
X183681601Y-98682634D01*
X183682654Y-98675237D01*
X183704918Y-98518800D01*
X183704918Y-98518794D01*
X183705490Y-98514778D01*
X183705645Y-98500000D01*
X183698216Y-98438607D01*
X183686175Y-98339105D01*
X183686174Y-98339101D01*
X183685276Y-98331680D01*
X183625345Y-98173077D01*
X183621108Y-98166912D01*
X183533549Y-98039513D01*
X183533546Y-98039510D01*
X183529312Y-98033349D01*
X183402721Y-97920560D01*
X183252881Y-97841224D01*
X183088441Y-97799919D01*
X182987207Y-97799389D01*
X182920271Y-97779354D01*
X182900175Y-97763072D01*
X181842667Y-96705564D01*
X181832969Y-96694651D01*
X181817611Y-96675170D01*
X181811872Y-96667890D01*
X181763554Y-96634495D01*
X181760454Y-96632281D01*
X181713184Y-96597366D01*
X181706368Y-96594973D01*
X181700431Y-96590869D01*
X181644481Y-96573174D01*
X181640791Y-96571943D01*
X181594116Y-96555552D01*
X181594112Y-96555551D01*
X181585369Y-96552481D01*
X181578265Y-96552202D01*
X181578014Y-96552153D01*
X181571270Y-96550020D01*
X181564663Y-96549500D01*
X181511932Y-96549500D01*
X181507063Y-96549404D01*
X181459273Y-96547526D01*
X181459272Y-96547526D01*
X181450006Y-96547162D01*
X181442922Y-96549040D01*
X181434562Y-96549500D01*
X180094667Y-96549500D01*
X180027628Y-96529815D01*
X180012178Y-96518083D01*
X179908303Y-96425533D01*
X179908301Y-96425532D01*
X179902721Y-96420560D01*
X179888347Y-96412949D01*
X179759489Y-96344723D01*
X179752881Y-96341224D01*
X179588441Y-96299919D01*
X179502248Y-96299468D01*
X179426368Y-96299070D01*
X179426367Y-96299070D01*
X179418895Y-96299031D01*
X179397235Y-96304231D01*
X179261295Y-96336868D01*
X179261293Y-96336869D01*
X179254032Y-96338612D01*
X179247399Y-96342035D01*
X179247395Y-96342037D01*
X179180465Y-96376583D01*
X179103369Y-96416375D01*
X178975604Y-96527831D01*
X178878113Y-96666547D01*
X178816524Y-96824513D01*
X178794394Y-96992611D01*
X177300500Y-96992611D01*
X177300500Y-94369646D01*
X185549500Y-94369646D01*
X185552618Y-94395846D01*
X185598061Y-94498153D01*
X185677287Y-94577241D01*
X185687758Y-94581870D01*
X185687759Y-94581871D01*
X185771147Y-94618737D01*
X185771149Y-94618738D01*
X185779673Y-94622506D01*
X185805354Y-94625500D01*
X187594646Y-94625500D01*
X187598300Y-94625065D01*
X187598302Y-94625065D01*
X187603266Y-94624474D01*
X187620846Y-94622382D01*
X187723153Y-94576939D01*
X187802241Y-94497713D01*
X187847506Y-94395327D01*
X187850500Y-94369646D01*
X187850500Y-94237518D01*
X187870185Y-94170479D01*
X187922989Y-94124724D01*
X187992147Y-94114780D01*
X188055703Y-94143805D01*
X188076075Y-94166395D01*
X188198784Y-94341643D01*
X188205719Y-94349907D01*
X188365091Y-94509279D01*
X188373357Y-94516215D01*
X188557992Y-94645498D01*
X188567324Y-94650886D01*
X188771603Y-94746143D01*
X188781736Y-94749832D01*
X188972779Y-94801022D01*
X188986653Y-94800691D01*
X188990000Y-94792875D01*
X188990000Y-94787806D01*
X189490000Y-94787806D01*
X189493910Y-94801123D01*
X189502326Y-94802333D01*
X189698264Y-94749832D01*
X189708397Y-94746143D01*
X189912676Y-94650886D01*
X189922008Y-94645498D01*
X190106643Y-94516215D01*
X190114909Y-94509279D01*
X190274281Y-94349907D01*
X190281216Y-94341643D01*
X190410492Y-94157017D01*
X190415890Y-94147667D01*
X190507656Y-93950876D01*
X190553829Y-93898437D01*
X190621022Y-93879285D01*
X190687903Y-93899501D01*
X190732648Y-93951368D01*
X190779369Y-94052714D01*
X190901405Y-94225391D01*
X190905476Y-94229357D01*
X190905477Y-94229358D01*
X190965310Y-94287645D01*
X191052865Y-94372937D01*
X191057588Y-94376093D01*
X191057592Y-94376096D01*
X191128663Y-94423584D01*
X191228677Y-94490411D01*
X191422953Y-94573878D01*
X191458277Y-94581871D01*
X191623638Y-94619289D01*
X191623642Y-94619290D01*
X191629186Y-94620544D01*
X191755315Y-94625500D01*
X191834789Y-94628623D01*
X191834791Y-94628623D01*
X191840470Y-94628846D01*
X191846090Y-94628031D01*
X191846092Y-94628031D01*
X192044103Y-94599320D01*
X192044104Y-94599320D01*
X192049730Y-94598504D01*
X192068588Y-94592103D01*
X192244565Y-94532367D01*
X192244568Y-94532366D01*
X192249955Y-94530537D01*
X192254916Y-94527759D01*
X192254922Y-94527756D01*
X192361530Y-94468052D01*
X192434442Y-94427219D01*
X192472165Y-94395846D01*
X192592645Y-94295644D01*
X192597012Y-94292012D01*
X192642334Y-94237518D01*
X192728584Y-94133813D01*
X192728585Y-94133811D01*
X192732219Y-94129442D01*
X192831946Y-93951368D01*
X192832756Y-93949922D01*
X192832759Y-93949916D01*
X192835537Y-93944955D01*
X192866009Y-93855189D01*
X192901675Y-93750118D01*
X192903504Y-93744730D01*
X192916406Y-93655749D01*
X192927820Y-93577033D01*
X192956921Y-93513512D01*
X193010225Y-93479346D01*
X193090974Y-93479346D01*
X193144347Y-93513736D01*
X193173296Y-93577327D01*
X193174271Y-93586707D01*
X193178796Y-93655749D01*
X193230845Y-93860690D01*
X193233219Y-93865841D01*
X193233221Y-93865845D01*
X193271981Y-93949922D01*
X193319369Y-94052714D01*
X193441405Y-94225391D01*
X193445476Y-94229357D01*
X193445477Y-94229358D01*
X193505310Y-94287645D01*
X193592865Y-94372937D01*
X193597588Y-94376093D01*
X193597592Y-94376096D01*
X193668663Y-94423584D01*
X193768677Y-94490411D01*
X193962953Y-94573878D01*
X193998277Y-94581871D01*
X194163638Y-94619289D01*
X194163642Y-94619290D01*
X194169186Y-94620544D01*
X194295315Y-94625500D01*
X194374789Y-94628623D01*
X194374791Y-94628623D01*
X194380470Y-94628846D01*
X194386090Y-94628031D01*
X194386092Y-94628031D01*
X194584103Y-94599320D01*
X194584104Y-94599320D01*
X194589730Y-94598504D01*
X194608588Y-94592103D01*
X194784565Y-94532367D01*
X194784568Y-94532366D01*
X194789955Y-94530537D01*
X194794916Y-94527759D01*
X194794922Y-94527756D01*
X194901530Y-94468052D01*
X194974442Y-94427219D01*
X195012165Y-94395846D01*
X195132645Y-94295644D01*
X195137012Y-94292012D01*
X195182334Y-94237518D01*
X195268584Y-94133813D01*
X195268585Y-94133811D01*
X195272219Y-94129442D01*
X195371946Y-93951368D01*
X195372756Y-93949922D01*
X195372759Y-93949916D01*
X195375537Y-93944955D01*
X195406009Y-93855189D01*
X195441675Y-93750118D01*
X195443504Y-93744730D01*
X195473846Y-93535470D01*
X195475429Y-93475000D01*
X195456081Y-93264440D01*
X195398686Y-93060931D01*
X195305165Y-92871290D01*
X195178651Y-92701867D01*
X195174481Y-92698012D01*
X195174478Y-92698009D01*
X195068552Y-92600093D01*
X195023381Y-92558337D01*
X195017574Y-92554673D01*
X194849363Y-92448539D01*
X194849361Y-92448538D01*
X194844554Y-92445505D01*
X194648160Y-92367152D01*
X194642579Y-92366042D01*
X194642576Y-92366041D01*
X194544468Y-92346527D01*
X194440775Y-92325901D01*
X194435088Y-92325827D01*
X194435083Y-92325826D01*
X194235034Y-92323207D01*
X194235029Y-92323207D01*
X194229346Y-92323133D01*
X194223742Y-92324096D01*
X194223741Y-92324096D01*
X194026550Y-92357979D01*
X194026547Y-92357980D01*
X194020953Y-92358941D01*
X193822575Y-92432127D01*
X193817697Y-92435029D01*
X193817695Y-92435030D01*
X193645740Y-92537332D01*
X193645737Y-92537334D01*
X193640856Y-92540238D01*
X193481881Y-92679655D01*
X193478362Y-92684119D01*
X193478359Y-92684122D01*
X193460782Y-92706419D01*
X193350976Y-92845708D01*
X193252523Y-93032836D01*
X193189820Y-93234773D01*
X193172851Y-93378140D01*
X193145425Y-93442398D01*
X193090974Y-93479346D01*
X193010225Y-93479346D01*
X193010667Y-93479063D01*
X192958057Y-93447081D01*
X192927453Y-93384271D01*
X192926232Y-93374909D01*
X192916601Y-93270100D01*
X192916081Y-93264440D01*
X192858686Y-93060931D01*
X192765165Y-92871290D01*
X192638651Y-92701867D01*
X192634481Y-92698012D01*
X192634478Y-92698009D01*
X192528552Y-92600093D01*
X192483381Y-92558337D01*
X192477574Y-92554673D01*
X192309363Y-92448539D01*
X192309361Y-92448538D01*
X192304554Y-92445505D01*
X192108160Y-92367152D01*
X192102579Y-92366042D01*
X192102576Y-92366041D01*
X192004468Y-92346527D01*
X191900775Y-92325901D01*
X191895088Y-92325827D01*
X191895083Y-92325826D01*
X191695034Y-92323207D01*
X191695029Y-92323207D01*
X191689346Y-92323133D01*
X191683742Y-92324096D01*
X191683741Y-92324096D01*
X191486550Y-92357979D01*
X191486547Y-92357980D01*
X191480953Y-92358941D01*
X191282575Y-92432127D01*
X191277697Y-92435029D01*
X191277695Y-92435030D01*
X191105740Y-92537332D01*
X191105737Y-92537334D01*
X191100856Y-92540238D01*
X190941881Y-92679655D01*
X190938362Y-92684119D01*
X190938359Y-92684122D01*
X190920782Y-92706419D01*
X190810976Y-92845708D01*
X190808325Y-92850747D01*
X190728685Y-93002117D01*
X190680050Y-93052281D01*
X190612015Y-93068187D01*
X190546181Y-93044786D01*
X190506565Y-92996786D01*
X190415890Y-92802333D01*
X190410492Y-92792983D01*
X190281216Y-92608357D01*
X190274281Y-92600093D01*
X190114909Y-92440721D01*
X190106643Y-92433785D01*
X189922008Y-92304502D01*
X189912676Y-92299114D01*
X189708397Y-92203857D01*
X189698264Y-92200168D01*
X189507221Y-92148978D01*
X189493347Y-92149309D01*
X189490000Y-92157125D01*
X189490000Y-94787806D01*
X188990000Y-94787806D01*
X188990000Y-92162194D01*
X188986090Y-92148877D01*
X188977674Y-92147667D01*
X188781736Y-92200168D01*
X188771603Y-92203857D01*
X188567333Y-92299110D01*
X188557983Y-92304508D01*
X188373357Y-92433784D01*
X188365093Y-92440719D01*
X188205719Y-92600093D01*
X188198784Y-92608357D01*
X188076075Y-92783605D01*
X188021498Y-92827230D01*
X187952000Y-92834424D01*
X187889645Y-92802901D01*
X187854231Y-92742671D01*
X187850500Y-92712482D01*
X187850500Y-92580354D01*
X187847382Y-92554154D01*
X187801939Y-92451847D01*
X187722713Y-92372759D01*
X187712242Y-92368130D01*
X187712241Y-92368129D01*
X187628853Y-92331263D01*
X187628851Y-92331262D01*
X187620327Y-92327494D01*
X187594646Y-92324500D01*
X185805354Y-92324500D01*
X185801700Y-92324935D01*
X185801698Y-92324935D01*
X185796734Y-92325526D01*
X185779154Y-92327618D01*
X185676847Y-92373061D01*
X185597759Y-92452287D01*
X185593130Y-92462758D01*
X185593129Y-92462759D01*
X185558876Y-92540238D01*
X185552494Y-92554673D01*
X185549500Y-92580354D01*
X185549500Y-94369646D01*
X177300500Y-94369646D01*
X177300500Y-90924500D01*
X177320185Y-90857461D01*
X177372989Y-90811706D01*
X177424500Y-90800500D01*
X216575500Y-90800500D01*
X216642539Y-90820185D01*
G37*
%TD.AperFunction*%
%TD*%
M02*
